  0
SECTION
  2
BLOCKS
  0
ENDSEC
  0
SECTION
  2
ENTITIES
  0
LINE
  8
0
 10
9.5
 20
0
 11
9.5
 21
3
  0
LINE
  8
0
 10
9.5
 20
3
 11
29.5
 21
3
  0
LINE
  8
0
 10
29.5
 20
3
 11
29.5
 21
0
  0
LINE
  8
0
 10
29.5
 20
0
 11
48.5
 21
0
  0
LINE
  8
0
 10
48.5
 20
0
 11
48.5
 21
3
  0
LINE
  8
0
 10
48.5
 20
3
 11
68.5
 21
3
  0
LINE
  8
0
 10
68.5
 20
3
 11
68.5
 21
0
  0
LINE
  8
0
 10
68.5
 20
0
 11
87.5
 21
0
  0
LINE
  8
0
 10
87.5
 20
0
 11
87.5
 21
3
  0
LINE
  8
0
 10
87.5
 20
3
 11
107.5
 21
3
  0
LINE
  8
0
 10
107.5
 20
3
 11
107.5
 21
0
  0
LINE
  8
0
 10
107.5
 20
0
 11
126.5
 21
0
  0
LINE
  8
0
 10
126.5
 20
0
 11
126.5
 21
3
  0
LINE
  8
0
 10
126.5
 20
3
 11
146.5
 21
3
  0
LINE
  8
0
 10
146.5
 20
3
 11
146.5
 21
0
  0
LINE
  8
0
 10
146.5
 20
0
 11
165.5
 21
0
  0
LINE
  8
0
 10
165.5
 20
0
 11
165.5
 21
3
  0
LINE
  8
0
 10
165.5
 20
3
 11
185.5
 21
3
  0
LINE
  8
0
 10
185.5
 20
3
 11
185.5
 21
0
  0
LINE
  8
0
 10
185.5
 20
0
 11
204.5
 21
0
  0
LINE
  8
0
 10
204.5
 20
0
 11
204.5
 21
3
  0
LINE
  8
0
 10
204.5
 20
3
 11
224.5
 21
3
  0
LINE
  8
0
 10
224.5
 20
3
 11
224.5
 21
0
  0
LINE
  8
0
 10
224.5
 20
0
 11
243.5
 21
0
  0
LINE
  8
0
 10
243.5
 20
0
 11
243.5
 21
3
  0
LINE
  8
0
 10
243.5
 20
3
 11
263.5
 21
3
  0
LINE
  8
0
 10
263.5
 20
3
 11
263.5
 21
0
  0
LINE
  8
0
 10
263.5
 20
0
 11
282.5
 21
0
  0
LINE
  8
0
 10
282.5
 20
0
 11
282.5
 21
3
  0
LINE
  8
0
 10
282.5
 20
3
 11
302.5
 21
3
  0
LINE
  8
0
 10
302.5
 20
3
 11
302.5
 21
0
  0
LINE
  8
0
 10
302.5
 20
0
 11
321.5
 21
0
  0
LINE
  8
0
 10
321.5
 20
0
 11
321.5
 21
3
  0
LINE
  8
0
 10
321.5
 20
3
 11
341.5
 21
3
  0
LINE
  8
0
 10
341.5
 20
3
 11
341.5
 21
0
  0
LINE
  8
0
 10
341.5
 20
0
 11
360.5
 21
0
  0
LINE
  8
0
 10
360.5
 20
0
 11
360.5
 21
3
  0
LINE
  8
0
 10
360.5
 20
3
 11
380.5
 21
3
  0
LINE
  8
0
 10
380.5
 20
3
 11
380.5
 21
0
  0
LINE
  8
0
 10
380.5
 20
0
 11
390
 21
0
  0
LINE
  8
0
 10
390
 20
0
 11
390
 21
6.66666
  0
LINE
  8
0
 10
390
 20
6.66666
 11
387
 21
6.66666
  0
LINE
  8
0
 10
387
 20
6.66666
 11
387
 21
26.6667
  0
LINE
  8
0
 10
387
 20
26.6667
 11
390
 21
26.6667
  0
LINE
  8
0
 10
390
 20
26.6667
 11
390
 21
40
  0
LINE
  8
0
 10
390
 20
40
 11
387
 21
40
  0
LINE
  8
0
 10
387
 20
40
 11
387
 21
60
  0
LINE
  8
0
 10
387
 20
60
 11
390
 21
60
  0
LINE
  8
0
 10
390
 20
60
 11
390
 21
73.3333
  0
LINE
  8
0
 10
390
 20
73.3333
 11
387
 21
73.3333
  0
LINE
  8
0
 10
387
 20
73.3333
 11
387
 21
93.3333
  0
LINE
  8
0
 10
387
 20
93.3333
 11
390
 21
93.3333
  0
LINE
  8
0
 10
390
 20
93.3333
 11
390
 21
106.667
  0
LINE
  8
0
 10
390
 20
106.667
 11
387
 21
106.667
  0
LINE
  8
0
 10
387
 20
106.667
 11
387
 21
126.667
  0
LINE
  8
0
 10
387
 20
126.667
 11
390
 21
126.667
  0
LINE
  8
0
 10
390
 20
126.667
 11
390
 21
140
  0
LINE
  8
0
 10
390
 20
140
 11
387
 21
140
  0
LINE
  8
0
 10
387
 20
140
 11
387
 21
160
  0
LINE
  8
0
 10
387
 20
160
 11
390
 21
160
  0
LINE
  8
0
 10
390
 20
160
 11
390
 21
173.333
  0
LINE
  8
0
 10
390
 20
173.333
 11
387
 21
173.333
  0
LINE
  8
0
 10
387
 20
173.333
 11
387
 21
193.333
  0
LINE
  8
0
 10
387
 20
193.333
 11
390
 21
193.333
  0
LINE
  8
0
 10
390
 20
193.333
 11
390
 21
200
  0
LINE
  8
0
 10
390
 20
200
 11
380.5
 21
200
  0
LINE
  8
0
 10
380.5
 20
200
 11
380.5
 21
197
  0
LINE
  8
0
 10
380.5
 20
197
 11
360.5
 21
197
  0
LINE
  8
0
 10
360.5
 20
197
 11
360.5
 21
200
  0
LINE
  8
0
 10
360.5
 20
200
 11
341.5
 21
200
  0
LINE
  8
0
 10
341.5
 20
200
 11
341.5
 21
197
  0
LINE
  8
0
 10
341.5
 20
197
 11
321.5
 21
197
  0
LINE
  8
0
 10
321.5
 20
197
 11
321.5
 21
200
  0
LINE
  8
0
 10
321.5
 20
200
 11
302.5
 21
200
  0
LINE
  8
0
 10
302.5
 20
200
 11
302.5
 21
197
  0
LINE
  8
0
 10
302.5
 20
197
 11
282.5
 21
197
  0
LINE
  8
0
 10
282.5
 20
197
 11
282.5
 21
200
  0
LINE
  8
0
 10
282.5
 20
200
 11
263.5
 21
200
  0
LINE
  8
0
 10
263.5
 20
200
 11
263.5
 21
197
  0
LINE
  8
0
 10
263.5
 20
197
 11
243.5
 21
197
  0
LINE
  8
0
 10
243.5
 20
197
 11
243.5
 21
200
  0
LINE
  8
0
 10
243.5
 20
200
 11
224.5
 21
200
  0
LINE
  8
0
 10
224.5
 20
200
 11
224.5
 21
197
  0
LINE
  8
0
 10
224.5
 20
197
 11
204.5
 21
197
  0
LINE
  8
0
 10
204.5
 20
197
 11
204.5
 21
200
  0
LINE
  8
0
 10
204.5
 20
200
 11
185.5
 21
200
  0
LINE
  8
0
 10
185.5
 20
200
 11
185.5
 21
197
  0
LINE
  8
0
 10
185.5
 20
197
 11
165.5
 21
197
  0
LINE
  8
0
 10
165.5
 20
197
 11
165.5
 21
200
  0
LINE
  8
0
 10
165.5
 20
200
 11
146.5
 21
200
  0
LINE
  8
0
 10
146.5
 20
200
 11
146.5
 21
197
  0
LINE
  8
0
 10
146.5
 20
197
 11
126.5
 21
197
  0
LINE
  8
0
 10
126.5
 20
197
 11
126.5
 21
200
  0
LINE
  8
0
 10
126.5
 20
200
 11
107.5
 21
200
  0
LINE
  8
0
 10
107.5
 20
200
 11
107.5
 21
197
  0
LINE
  8
0
 10
107.5
 20
197
 11
87.5
 21
197
  0
LINE
  8
0
 10
87.5
 20
197
 11
87.5
 21
200
  0
LINE
  8
0
 10
87.5
 20
200
 11
68.5
 21
200
  0
LINE
  8
0
 10
68.5
 20
200
 11
68.5
 21
197
  0
LINE
  8
0
 10
68.5
 20
197
 11
48.5
 21
197
  0
LINE
  8
0
 10
48.5
 20
197
 11
48.5
 21
200
  0
LINE
  8
0
 10
48.5
 20
200
 11
29.5
 21
200
  0
LINE
  8
0
 10
29.5
 20
200
 11
29.5
 21
197
  0
LINE
  8
0
 10
29.5
 20
197
 11
9.5
 21
197
  0
LINE
  8
0
 10
9.5
 20
197
 11
9.5
 21
200
  0
LINE
  8
0
 10
9.5
 20
200
 11
0
 21
200
  0
LINE
  8
0
 10
0
 20
200
 11
0
 21
193.333
  0
LINE
  8
0
 10
0
 20
193.333
 11
3
 21
193.333
  0
LINE
  8
0
 10
3
 20
193.333
 11
3
 21
173.333
  0
LINE
  8
0
 10
3
 20
173.333
 11
0
 21
173.333
  0
LINE
  8
0
 10
0
 20
173.333
 11
0
 21
160
  0
LINE
  8
0
 10
0
 20
160
 11
3
 21
160
  0
LINE
  8
0
 10
3
 20
160
 11
3
 21
140
  0
LINE
  8
0
 10
3
 20
140
 11
0
 21
140
  0
LINE
  8
0
 10
0
 20
140
 11
0
 21
126.667
  0
LINE
  8
0
 10
0
 20
126.667
 11
3
 21
126.667
  0
LINE
  8
0
 10
3
 20
126.667
 11
3
 21
106.667
  0
LINE
  8
0
 10
3
 20
106.667
 11
0
 21
106.667
  0
LINE
  8
0
 10
0
 20
106.667
 11
0
 21
93.3333
  0
LINE
  8
0
 10
0
 20
93.3333
 11
3
 21
93.3333
  0
LINE
  8
0
 10
3
 20
93.3333
 11
3
 21
73.3333
  0
LINE
  8
0
 10
3
 20
73.3333
 11
0
 21
73.3333
  0
LINE
  8
0
 10
0
 20
73.3333
 11
0
 21
60
  0
LINE
  8
0
 10
0
 20
60
 11
3
 21
60
  0
LINE
  8
0
 10
3
 20
60
 11
3
 21
40
  0
LINE
  8
0
 10
3
 20
40
 11
0
 21
40
  0
LINE
  8
0
 10
0
 20
40
 11
0
 21
26.6667
  0
LINE
  8
0
 10
0
 20
26.6667
 11
3
 21
26.6667
  0
LINE
  8
0
 10
3
 20
26.6667
 11
3
 21
6.66666
  0
LINE
  8
0
 10
3
 20
6.66666
 11
0
 21
6.66666
  0
LINE
  8
0
 10
0
 20
6.66666
 11
0
 21
0
  0
LINE
  8
0
 10
0
 20
0
 11
9.5
 21
0
  0
ENDSEC
  0
SECTION
  2
OBJECTS
  0
DICTIONARY
  0
ENDSEC
  0
EOF
