  0
SECTION
  2
BLOCKS
  0
ENDSEC
  0
SECTION
  2
ENTITIES
  0
LINE
  8
0
 10
9.5
 20
0
 11
9.5
 21
3
  0
LINE
  8
0
 10
9.5
 20
3
 11
29.5
 21
3
  0
LINE
  8
0
 10
29.5
 20
3
 11
29.5
 21
0
  0
LINE
  8
0
 10
29.5
 20
0
 11
48.5
 21
0
  0
LINE
  8
0
 10
48.5
 20
0
 11
48.5
 21
3
  0
LINE
  8
0
 10
48.5
 20
3
 11
68.5
 21
3
  0
LINE
  8
0
 10
68.5
 20
3
 11
68.5
 21
0
  0
LINE
  8
0
 10
68.5
 20
0
 11
87.5
 21
0
  0
LINE
  8
0
 10
87.5
 20
0
 11
87.5
 21
3
  0
LINE
  8
0
 10
87.5
 20
3
 11
107.5
 21
3
  0
LINE
  8
0
 10
107.5
 20
3
 11
107.5
 21
0
  0
LINE
  8
0
 10
107.5
 20
0
 11
126.5
 21
0
  0
LINE
  8
0
 10
126.5
 20
0
 11
126.5
 21
3
  0
LINE
  8
0
 10
126.5
 20
3
 11
146.5
 21
3
  0
LINE
  8
0
 10
146.5
 20
3
 11
146.5
 21
0
  0
LINE
  8
0
 10
146.5
 20
0
 11
165.5
 21
0
  0
LINE
  8
0
 10
165.5
 20
0
 11
165.5
 21
3
  0
LINE
  8
0
 10
165.5
 20
3
 11
185.5
 21
3
  0
LINE
  8
0
 10
185.5
 20
3
 11
185.5
 21
0
  0
LINE
  8
0
 10
185.5
 20
0
 11
204.5
 21
0
  0
LINE
  8
0
 10
204.5
 20
0
 11
204.5
 21
3
  0
LINE
  8
0
 10
204.5
 20
3
 11
224.5
 21
3
  0
LINE
  8
0
 10
224.5
 20
3
 11
224.5
 21
0
  0
LINE
  8
0
 10
224.5
 20
0
 11
243.5
 21
0
  0
LINE
  8
0
 10
243.5
 20
0
 11
243.5
 21
3
  0
LINE
  8
0
 10
243.5
 20
3
 11
263.5
 21
3
  0
LINE
  8
0
 10
263.5
 20
3
 11
263.5
 21
0
  0
LINE
  8
0
 10
263.5
 20
0
 11
282.5
 21
0
  0
LINE
  8
0
 10
282.5
 20
0
 11
282.5
 21
3
  0
LINE
  8
0
 10
282.5
 20
3
 11
302.5
 21
3
  0
LINE
  8
0
 10
302.5
 20
3
 11
302.5
 21
0
  0
LINE
  8
0
 10
302.5
 20
0
 11
321.5
 21
0
  0
LINE
  8
0
 10
321.5
 20
0
 11
321.5
 21
3
  0
LINE
  8
0
 10
321.5
 20
3
 11
341.5
 21
3
  0
LINE
  8
0
 10
341.5
 20
3
 11
341.5
 21
0
  0
LINE
  8
0
 10
341.5
 20
0
 11
360.5
 21
0
  0
LINE
  8
0
 10
360.5
 20
0
 11
360.5
 21
3
  0
LINE
  8
0
 10
360.5
 20
3
 11
380.5
 21
3
  0
LINE
  8
0
 10
380.5
 20
3
 11
380.5
 21
0
  0
LINE
  8
0
 10
380.5
 20
0
 11
390
 21
0
  0
LINE
  8
0
 10
390
 20
0
 11
390
 21
10
  0
LINE
  8
0
 10
390
 20
10
 11
387
 21
10
  0
LINE
  8
0
 10
387
 20
10
 11
387
 21
30
  0
LINE
  8
0
 10
387
 20
30
 11
390
 21
30
  0
LINE
  8
0
 10
390
 20
30
 11
390
 21
50
  0
LINE
  8
0
 10
390
 20
50
 11
387
 21
50
  0
LINE
  8
0
 10
387
 20
50
 11
387
 21
70
  0
LINE
  8
0
 10
387
 20
70
 11
390
 21
70
  0
LINE
  8
0
 10
390
 20
70
 11
390
 21
90
  0
LINE
  8
0
 10
390
 20
90
 11
387
 21
90
  0
LINE
  8
0
 10
387
 20
90
 11
387
 21
110
  0
LINE
  8
0
 10
387
 20
110
 11
390
 21
110
  0
LINE
  8
0
 10
390
 20
110
 11
390
 21
130
  0
LINE
  8
0
 10
390
 20
130
 11
387
 21
130
  0
LINE
  8
0
 10
387
 20
130
 11
387
 21
150
  0
LINE
  8
0
 10
387
 20
150
 11
390
 21
150
  0
LINE
  8
0
 10
390
 20
150
 11
390
 21
170
  0
LINE
  8
0
 10
390
 20
170
 11
387
 21
170
  0
LINE
  8
0
 10
387
 20
170
 11
387
 21
190
  0
LINE
  8
0
 10
387
 20
190
 11
390
 21
190
  0
LINE
  8
0
 10
390
 20
190
 11
390
 21
200
  0
LINE
  8
0
 10
390
 20
200
 11
380.5
 21
200
  0
LINE
  8
0
 10
380.5
 20
200
 11
380.5
 21
197
  0
LINE
  8
0
 10
380.5
 20
197
 11
360.5
 21
197
  0
LINE
  8
0
 10
360.5
 20
197
 11
360.5
 21
200
  0
LINE
  8
0
 10
360.5
 20
200
 11
341.5
 21
200
  0
LINE
  8
0
 10
341.5
 20
200
 11
341.5
 21
197
  0
LINE
  8
0
 10
341.5
 20
197
 11
321.5
 21
197
  0
LINE
  8
0
 10
321.5
 20
197
 11
321.5
 21
200
  0
LINE
  8
0
 10
321.5
 20
200
 11
302.5
 21
200
  0
LINE
  8
0
 10
302.5
 20
200
 11
302.5
 21
197
  0
LINE
  8
0
 10
302.5
 20
197
 11
282.5
 21
197
  0
LINE
  8
0
 10
282.5
 20
197
 11
282.5
 21
200
  0
LINE
  8
0
 10
282.5
 20
200
 11
263.5
 21
200
  0
LINE
  8
0
 10
263.5
 20
200
 11
263.5
 21
197
  0
LINE
  8
0
 10
263.5
 20
197
 11
243.5
 21
197
  0
LINE
  8
0
 10
243.5
 20
197
 11
243.5
 21
200
  0
LINE
  8
0
 10
243.5
 20
200
 11
224.5
 21
200
  0
LINE
  8
0
 10
224.5
 20
200
 11
224.5
 21
197
  0
LINE
  8
0
 10
224.5
 20
197
 11
204.5
 21
197
  0
LINE
  8
0
 10
204.5
 20
197
 11
204.5
 21
200
  0
LINE
  8
0
 10
204.5
 20
200
 11
185.5
 21
200
  0
LINE
  8
0
 10
185.5
 20
200
 11
185.5
 21
197
  0
LINE
  8
0
 10
185.5
 20
197
 11
165.5
 21
197
  0
LINE
  8
0
 10
165.5
 20
197
 11
165.5
 21
200
  0
LINE
  8
0
 10
165.5
 20
200
 11
146.5
 21
200
  0
LINE
  8
0
 10
146.5
 20
200
 11
146.5
 21
197
  0
LINE
  8
0
 10
146.5
 20
197
 11
126.5
 21
197
  0
LINE
  8
0
 10
126.5
 20
197
 11
126.5
 21
200
  0
LINE
  8
0
 10
126.5
 20
200
 11
107.5
 21
200
  0
LINE
  8
0
 10
107.5
 20
200
 11
107.5
 21
197
  0
LINE
  8
0
 10
107.5
 20
197
 11
87.5
 21
197
  0
LINE
  8
0
 10
87.5
 20
197
 11
87.5
 21
200
  0
LINE
  8
0
 10
87.5
 20
200
 11
68.5
 21
200
  0
LINE
  8
0
 10
68.5
 20
200
 11
68.5
 21
197
  0
LINE
  8
0
 10
68.5
 20
197
 11
48.5
 21
197
  0
LINE
  8
0
 10
48.5
 20
197
 11
48.5
 21
200
  0
LINE
  8
0
 10
48.5
 20
200
 11
29.5
 21
200
  0
LINE
  8
0
 10
29.5
 20
200
 11
29.5
 21
197
  0
LINE
  8
0
 10
29.5
 20
197
 11
9.5
 21
197
  0
LINE
  8
0
 10
9.5
 20
197
 11
9.5
 21
200
  0
LINE
  8
0
 10
9.5
 20
200
 11
0
 21
200
  0
LINE
  8
0
 10
0
 20
200
 11
0
 21
190
  0
LINE
  8
0
 10
0
 20
190
 11
3
 21
190
  0
LINE
  8
0
 10
3
 20
190
 11
3
 21
170
  0
LINE
  8
0
 10
3
 20
170
 11
0
 21
170
  0
LINE
  8
0
 10
0
 20
170
 11
0
 21
150
  0
LINE
  8
0
 10
0
 20
150
 11
3
 21
150
  0
LINE
  8
0
 10
3
 20
150
 11
3
 21
130
  0
LINE
  8
0
 10
3
 20
130
 11
0
 21
130
  0
LINE
  8
0
 10
0
 20
130
 11
0
 21
110
  0
LINE
  8
0
 10
0
 20
110
 11
3
 21
110
  0
LINE
  8
0
 10
3
 20
110
 11
3
 21
90
  0
LINE
  8
0
 10
3
 20
90
 11
0
 21
90
  0
LINE
  8
0
 10
0
 20
90
 11
0
 21
70
  0
LINE
  8
0
 10
0
 20
70
 11
3
 21
70
  0
LINE
  8
0
 10
3
 20
70
 11
3
 21
50
  0
LINE
  8
0
 10
3
 20
50
 11
0
 21
50
  0
LINE
  8
0
 10
0
 20
50
 11
0
 21
30
  0
LINE
  8
0
 10
0
 20
30
 11
3
 21
30
  0
LINE
  8
0
 10
3
 20
30
 11
3
 21
10
  0
LINE
  8
0
 10
3
 20
10
 11
0
 21
10
  0
LINE
  8
0
 10
0
 20
10
 11
0
 21
0
  0
LINE
  8
0
 10
0
 20
0
 11
9.5
 21
0
  0
LINE
  8
0
 10
241.25
 20
162.423
 11
241.101
 21
162.451
  0
LINE
  8
0
 10
241.101
 20
162.451
 11
240.79
 21
162.55
  0
LINE
  8
0
 10
240.79
 20
162.55
 11
240.5
 21
162.698
  0
LINE
  8
0
 10
240.5
 20
162.698
 11
240.237
 21
162.891
  0
LINE
  8
0
 10
240.237
 20
162.891
 11
240.009
 21
163.125
  0
LINE
  8
0
 10
240.009
 20
163.125
 11
239.822
 21
163.393
  0
LINE
  8
0
 10
239.822
 20
163.393
 11
239.681
 21
163.687
  0
LINE
  8
0
 10
239.681
 20
163.687
 11
239.59
 21
164.001
  0
LINE
  8
0
 10
239.59
 20
164.001
 11
239.551
 21
164.325
  0
LINE
  8
0
 10
239.551
 20
164.325
 11
239.566
 21
164.651
  0
LINE
  8
0
 10
239.566
 20
164.651
 11
239.633
 21
164.97
  0
LINE
  8
0
 10
239.633
 20
164.97
 11
239.751
 21
165.274
  0
LINE
  8
0
 10
239.751
 20
165.274
 11
239.917
 21
165.555
  0
LINE
  8
0
 10
239.917
 20
165.555
 11
240.127
 21
165.805
  0
LINE
  8
0
 10
240.127
 20
165.805
 11
240.374
 21
166.018
  0
LINE
  8
0
 10
240.374
 20
166.018
 11
240.653
 21
166.188
  0
LINE
  8
0
 10
240.653
 20
166.188
 11
240.956
 21
166.31
  0
LINE
  8
0
 10
240.956
 20
166.31
 11
241.274
 21
166.381
  0
LINE
  8
0
 10
241.274
 20
166.381
 11
241.6
 21
166.399
  0
LINE
  8
0
 10
241.6
 20
166.399
 11
241.925
 21
166.365
  0
LINE
  8
0
 10
241.925
 20
166.365
 11
242.239
 21
166.277
  0
LINE
  8
0
 10
242.239
 20
166.277
 11
242.535
 21
166.14
  0
LINE
  8
0
 10
242.535
 20
166.14
 11
242.805
 21
165.957
  0
LINE
  8
0
 10
242.805
 20
165.957
 11
243.042
 21
165.732
  0
LINE
  8
0
 10
243.042
 20
165.732
 11
243.239
 21
165.472
  0
LINE
  8
0
 10
243.239
 20
165.472
 11
243.39
 21
165.183
  0
LINE
  8
0
 10
243.39
 20
165.183
 11
243.493
 21
164.873
  0
LINE
  8
0
 10
243.493
 20
164.873
 11
243.544
 21
164.551
  0
LINE
  8
0
 10
243.544
 20
164.551
 11
243.542
 21
164.224
  0
LINE
  8
0
 10
243.542
 20
164.224
 11
243.487
 21
163.903
  0
LINE
  8
0
 10
243.487
 20
163.903
 11
243.38
 21
163.594
  0
LINE
  8
0
 10
243.38
 20
163.594
 11
243.225
 21
163.307
  0
LINE
  8
0
 10
243.225
 20
163.307
 11
243.025
 21
163.049
  0
LINE
  8
0
 10
243.025
 20
163.049
 11
242.786
 21
162.827
  0
LINE
  8
0
 10
242.786
 20
162.827
 11
242.514
 21
162.647
  0
LINE
  8
0
 10
242.514
 20
162.647
 11
242.216
 21
162.514
  0
LINE
  8
0
 10
242.216
 20
162.514
 11
241.9
 21
162.431
  0
LINE
  8
0
 10
241.9
 20
162.431
 11
241.575
 21
162.4
  0
LINE
  8
0
 10
241.575
 20
162.4
 11
241.25
 21
162.423
  0
LINE
  8
0
 10
148.15
 20
162.423
 11
148.001
 21
162.451
  0
LINE
  8
0
 10
148.001
 20
162.451
 11
147.69
 21
162.55
  0
LINE
  8
0
 10
147.69
 20
162.55
 11
147.4
 21
162.698
  0
LINE
  8
0
 10
147.4
 20
162.698
 11
147.137
 21
162.891
  0
LINE
  8
0
 10
147.137
 20
162.891
 11
146.909
 21
163.125
  0
LINE
  8
0
 10
146.909
 20
163.125
 11
146.722
 21
163.393
  0
LINE
  8
0
 10
146.722
 20
163.393
 11
146.581
 21
163.687
  0
LINE
  8
0
 10
146.581
 20
163.687
 11
146.49
 21
164.001
  0
LINE
  8
0
 10
146.49
 20
164.001
 11
146.451
 21
164.325
  0
LINE
  8
0
 10
146.451
 20
164.325
 11
146.466
 21
164.651
  0
LINE
  8
0
 10
146.466
 20
164.651
 11
146.533
 21
164.97
  0
LINE
  8
0
 10
146.533
 20
164.97
 11
146.651
 21
165.274
  0
LINE
  8
0
 10
146.651
 20
165.274
 11
146.817
 21
165.555
  0
LINE
  8
0
 10
146.817
 20
165.555
 11
147.027
 21
165.805
  0
LINE
  8
0
 10
147.027
 20
165.805
 11
147.274
 21
166.018
  0
LINE
  8
0
 10
147.274
 20
166.018
 11
147.553
 21
166.188
  0
LINE
  8
0
 10
147.553
 20
166.188
 11
147.856
 21
166.31
  0
LINE
  8
0
 10
147.856
 20
166.31
 11
148.174
 21
166.381
  0
LINE
  8
0
 10
148.174
 20
166.381
 11
148.5
 21
166.399
  0
LINE
  8
0
 10
148.5
 20
166.399
 11
148.825
 21
166.365
  0
LINE
  8
0
 10
148.825
 20
166.365
 11
149.139
 21
166.277
  0
LINE
  8
0
 10
149.139
 20
166.277
 11
149.435
 21
166.14
  0
LINE
  8
0
 10
149.435
 20
166.14
 11
149.705
 21
165.957
  0
LINE
  8
0
 10
149.705
 20
165.957
 11
149.942
 21
165.732
  0
LINE
  8
0
 10
149.942
 20
165.732
 11
150.139
 21
165.472
  0
LINE
  8
0
 10
150.139
 20
165.472
 11
150.29
 21
165.183
  0
LINE
  8
0
 10
150.29
 20
165.183
 11
150.393
 21
164.873
  0
LINE
  8
0
 10
150.393
 20
164.873
 11
150.444
 21
164.551
  0
LINE
  8
0
 10
150.444
 20
164.551
 11
150.442
 21
164.224
  0
LINE
  8
0
 10
150.442
 20
164.224
 11
150.387
 21
163.903
  0
LINE
  8
0
 10
150.387
 20
163.903
 11
150.28
 21
163.594
  0
LINE
  8
0
 10
150.28
 20
163.594
 11
150.125
 21
163.307
  0
LINE
  8
0
 10
150.125
 20
163.307
 11
149.925
 21
163.049
  0
LINE
  8
0
 10
149.925
 20
163.049
 11
149.686
 21
162.827
  0
LINE
  8
0
 10
149.686
 20
162.827
 11
149.413
 21
162.647
  0
LINE
  8
0
 10
149.413
 20
162.647
 11
149.116
 21
162.514
  0
LINE
  8
0
 10
149.116
 20
162.514
 11
148.8
 21
162.431
  0
LINE
  8
0
 10
148.8
 20
162.431
 11
148.475
 21
162.4
  0
LINE
  8
0
 10
148.475
 20
162.4
 11
148.15
 21
162.423
  0
LINE
  8
0
 10
145.95
 20
115.8
 11
145.95
 21
157.9
  0
LINE
  8
0
 10
145.95
 20
157.9
 11
244.05
 21
157.9
  0
LINE
  8
0
 10
244.05
 20
157.9
 11
244.05
 21
115.8
  0
LINE
  8
0
 10
244.05
 20
115.8
 11
145.95
 21
115.8
  0
LINE
  8
0
 10
241.25
 20
107.323
 11
241.101
 21
107.351
  0
LINE
  8
0
 10
241.101
 20
107.351
 11
240.79
 21
107.45
  0
LINE
  8
0
 10
240.79
 20
107.45
 11
240.5
 21
107.598
  0
LINE
  8
0
 10
240.5
 20
107.598
 11
240.237
 21
107.791
  0
LINE
  8
0
 10
240.237
 20
107.791
 11
240.009
 21
108.025
  0
LINE
  8
0
 10
240.009
 20
108.025
 11
239.822
 21
108.293
  0
LINE
  8
0
 10
239.822
 20
108.293
 11
239.681
 21
108.587
  0
LINE
  8
0
 10
239.681
 20
108.587
 11
239.59
 21
108.901
  0
LINE
  8
0
 10
239.59
 20
108.901
 11
239.551
 21
109.225
  0
LINE
  8
0
 10
239.551
 20
109.225
 11
239.566
 21
109.551
  0
LINE
  8
0
 10
239.566
 20
109.551
 11
239.633
 21
109.87
  0
LINE
  8
0
 10
239.633
 20
109.87
 11
239.751
 21
110.174
  0
LINE
  8
0
 10
239.751
 20
110.174
 11
239.917
 21
110.455
  0
LINE
  8
0
 10
239.917
 20
110.455
 11
240.127
 21
110.705
  0
LINE
  8
0
 10
240.127
 20
110.705
 11
240.374
 21
110.918
  0
LINE
  8
0
 10
240.374
 20
110.918
 11
240.653
 21
111.088
  0
LINE
  8
0
 10
240.653
 20
111.088
 11
240.956
 21
111.21
  0
LINE
  8
0
 10
240.956
 20
111.21
 11
241.274
 21
111.281
  0
LINE
  8
0
 10
241.274
 20
111.281
 11
241.6
 21
111.299
  0
LINE
  8
0
 10
241.6
 20
111.299
 11
241.925
 21
111.265
  0
LINE
  8
0
 10
241.925
 20
111.265
 11
242.239
 21
111.177
  0
LINE
  8
0
 10
242.239
 20
111.177
 11
242.535
 21
111.04
  0
LINE
  8
0
 10
242.535
 20
111.04
 11
242.805
 21
110.857
  0
LINE
  8
0
 10
242.805
 20
110.857
 11
243.042
 21
110.632
  0
LINE
  8
0
 10
243.042
 20
110.632
 11
243.239
 21
110.372
  0
LINE
  8
0
 10
243.239
 20
110.372
 11
243.39
 21
110.083
  0
LINE
  8
0
 10
243.39
 20
110.083
 11
243.493
 21
109.773
  0
LINE
  8
0
 10
243.493
 20
109.773
 11
243.544
 21
109.451
  0
LINE
  8
0
 10
243.544
 20
109.451
 11
243.542
 21
109.124
  0
LINE
  8
0
 10
243.542
 20
109.124
 11
243.487
 21
108.803
  0
LINE
  8
0
 10
243.487
 20
108.803
 11
243.38
 21
108.494
  0
LINE
  8
0
 10
243.38
 20
108.494
 11
243.225
 21
108.207
  0
LINE
  8
0
 10
243.225
 20
108.207
 11
243.025
 21
107.949
  0
LINE
  8
0
 10
243.025
 20
107.949
 11
242.786
 21
107.727
  0
LINE
  8
0
 10
242.786
 20
107.727
 11
242.514
 21
107.547
  0
LINE
  8
0
 10
242.514
 20
107.547
 11
242.216
 21
107.414
  0
LINE
  8
0
 10
242.216
 20
107.414
 11
241.9
 21
107.331
  0
LINE
  8
0
 10
241.9
 20
107.331
 11
241.575
 21
107.3
  0
LINE
  8
0
 10
241.575
 20
107.3
 11
241.25
 21
107.323
  0
LINE
  8
0
 10
148.15
 20
107.323
 11
148.001
 21
107.351
  0
LINE
  8
0
 10
148.001
 20
107.351
 11
147.69
 21
107.45
  0
LINE
  8
0
 10
147.69
 20
107.45
 11
147.4
 21
107.598
  0
LINE
  8
0
 10
147.4
 20
107.598
 11
147.137
 21
107.791
  0
LINE
  8
0
 10
147.137
 20
107.791
 11
146.909
 21
108.025
  0
LINE
  8
0
 10
146.909
 20
108.025
 11
146.722
 21
108.293
  0
LINE
  8
0
 10
146.722
 20
108.293
 11
146.581
 21
108.587
  0
LINE
  8
0
 10
146.581
 20
108.587
 11
146.49
 21
108.901
  0
LINE
  8
0
 10
146.49
 20
108.901
 11
146.451
 21
109.225
  0
LINE
  8
0
 10
146.451
 20
109.225
 11
146.466
 21
109.551
  0
LINE
  8
0
 10
146.466
 20
109.551
 11
146.533
 21
109.87
  0
LINE
  8
0
 10
146.533
 20
109.87
 11
146.651
 21
110.174
  0
LINE
  8
0
 10
146.651
 20
110.174
 11
146.817
 21
110.455
  0
LINE
  8
0
 10
146.817
 20
110.455
 11
147.027
 21
110.705
  0
LINE
  8
0
 10
147.027
 20
110.705
 11
147.274
 21
110.918
  0
LINE
  8
0
 10
147.274
 20
110.918
 11
147.553
 21
111.088
  0
LINE
  8
0
 10
147.553
 20
111.088
 11
147.856
 21
111.21
  0
LINE
  8
0
 10
147.856
 20
111.21
 11
148.174
 21
111.281
  0
LINE
  8
0
 10
148.174
 20
111.281
 11
148.5
 21
111.299
  0
LINE
  8
0
 10
148.5
 20
111.299
 11
148.825
 21
111.265
  0
LINE
  8
0
 10
148.825
 20
111.265
 11
149.139
 21
111.177
  0
LINE
  8
0
 10
149.139
 20
111.177
 11
149.435
 21
111.04
  0
LINE
  8
0
 10
149.435
 20
111.04
 11
149.705
 21
110.857
  0
LINE
  8
0
 10
149.705
 20
110.857
 11
149.942
 21
110.632
  0
LINE
  8
0
 10
149.942
 20
110.632
 11
150.139
 21
110.372
  0
LINE
  8
0
 10
150.139
 20
110.372
 11
150.29
 21
110.083
  0
LINE
  8
0
 10
150.29
 20
110.083
 11
150.393
 21
109.773
  0
LINE
  8
0
 10
150.393
 20
109.773
 11
150.444
 21
109.451
  0
LINE
  8
0
 10
150.444
 20
109.451
 11
150.442
 21
109.124
  0
LINE
  8
0
 10
150.442
 20
109.124
 11
150.387
 21
108.803
  0
LINE
  8
0
 10
150.387
 20
108.803
 11
150.28
 21
108.494
  0
LINE
  8
0
 10
150.28
 20
108.494
 11
150.125
 21
108.207
  0
LINE
  8
0
 10
150.125
 20
108.207
 11
149.925
 21
107.949
  0
LINE
  8
0
 10
149.925
 20
107.949
 11
149.686
 21
107.727
  0
LINE
  8
0
 10
149.686
 20
107.727
 11
149.413
 21
107.547
  0
LINE
  8
0
 10
149.413
 20
107.547
 11
149.116
 21
107.414
  0
LINE
  8
0
 10
149.116
 20
107.414
 11
148.8
 21
107.331
  0
LINE
  8
0
 10
148.8
 20
107.331
 11
148.475
 21
107.3
  0
LINE
  8
0
 10
148.475
 20
107.3
 11
148.15
 21
107.323
  0
LINE
  8
0
 10
329.778
 20
48.2021
 11
329.407
 21
48.2149
  0
LINE
  8
0
 10
329.407
 20
48.2149
 11
329.037
 21
48.2393
  0
LINE
  8
0
 10
329.037
 20
48.2393
 11
328.668
 21
48.2754
  0
LINE
  8
0
 10
328.668
 20
48.2754
 11
328.301
 21
48.323
  0
LINE
  8
0
 10
328.301
 20
48.323
 11
327.935
 21
48.3821
  0
LINE
  8
0
 10
327.935
 20
48.3821
 11
327.571
 21
48.4528
  0
LINE
  8
0
 10
327.571
 20
48.4528
 11
327.209
 21
48.5348
  0
LINE
  8
0
 10
327.209
 20
48.5348
 11
326.851
 21
48.6281
  0
LINE
  8
0
 10
326.851
 20
48.6281
 11
326.495
 21
48.7326
  0
LINE
  8
0
 10
326.495
 20
48.7326
 11
326.143
 21
48.8483
  0
LINE
  8
0
 10
326.143
 20
48.8483
 11
325.794
 21
48.9749
  0
LINE
  8
0
 10
325.794
 20
48.9749
 11
325.45
 21
49.1125
  0
LINE
  8
0
 10
325.45
 20
49.1125
 11
325.11
 21
49.2608
  0
LINE
  8
0
 10
325.11
 20
49.2608
 11
324.775
 21
49.4196
  0
LINE
  8
0
 10
324.775
 20
49.4196
 11
324.446
 21
49.589
  0
LINE
  8
0
 10
324.446
 20
49.589
 11
324.121
 21
49.7686
  0
LINE
  8
0
 10
324.121
 20
49.7686
 11
323.803
 21
49.9583
  0
LINE
  8
0
 10
323.803
 20
49.9583
 11
323.491
 21
50.1579
  0
LINE
  8
0
 10
323.491
 20
50.1579
 11
323.185
 21
50.3672
  0
LINE
  8
0
 10
323.185
 20
50.3672
 11
322.885
 21
50.586
  0
LINE
  8
0
 10
322.885
 20
50.586
 11
322.593
 21
50.8141
  0
LINE
  8
0
 10
322.593
 20
50.8141
 11
322.308
 21
51.0513
  0
LINE
  8
0
 10
322.308
 20
51.0513
 11
322.031
 21
51.2973
  0
LINE
  8
0
 10
322.031
 20
51.2973
 11
321.762
 21
51.552
  0
LINE
  8
0
 10
321.762
 20
51.552
 11
321.5
 21
51.8149
  0
LINE
  8
0
 10
321.5
 20
51.8149
 11
321.247
 21
52.0859
  0
LINE
  8
0
 10
321.247
 20
52.0859
 11
321.003
 21
52.3647
  0
LINE
  8
0
 10
321.003
 20
52.3647
 11
320.768
 21
52.6511
  0
LINE
  8
0
 10
320.768
 20
52.6511
 11
320.542
 21
52.9447
  0
LINE
  8
0
 10
320.542
 20
52.9447
 11
320.325
 21
53.2453
  0
LINE
  8
0
 10
320.325
 20
53.2453
 11
320.117
 21
53.5526
  0
LINE
  8
0
 10
320.117
 20
53.5526
 11
319.92
 21
53.8662
  0
LINE
  8
0
 10
319.92
 20
53.8662
 11
319.732
 21
54.1858
  0
LINE
  8
0
 10
319.732
 20
54.1858
 11
319.554
 21
54.5112
  0
LINE
  8
0
 10
319.554
 20
54.5112
 11
319.387
 21
54.842
  0
LINE
  8
0
 10
319.387
 20
54.842
 11
319.23
 21
55.1779
  0
LINE
  8
0
 10
319.23
 20
55.1779
 11
319.084
 21
55.5186
  0
LINE
  8
0
 10
319.084
 20
55.5186
 11
318.949
 21
55.8637
  0
LINE
  8
0
 10
318.949
 20
55.8637
 11
318.824
 21
56.2129
  0
LINE
  8
0
 10
318.824
 20
56.2129
 11
318.711
 21
56.5658
  0
LINE
  8
0
 10
318.711
 20
56.5658
 11
318.609
 21
56.9221
  0
LINE
  8
0
 10
318.609
 20
56.9221
 11
318.517
 21
57.2814
  0
LINE
  8
0
 10
318.517
 20
57.2814
 11
318.438
 21
57.6434
  0
LINE
  8
0
 10
318.438
 20
57.6434
 11
318.369
 21
58.0078
  0
LINE
  8
0
 10
318.369
 20
58.0078
 11
318.313
 21
58.3741
  0
LINE
  8
0
 10
318.313
 20
58.3741
 11
318.267
 21
58.742
  0
LINE
  8
0
 10
318.267
 20
58.742
 11
318.234
 21
59.1111
  0
LINE
  8
0
 10
318.234
 20
59.1111
 11
318.211
 21
59.4812
  0
LINE
  8
0
 10
318.211
 20
59.4812
 11
318.201
 21
59.8517
  0
LINE
  8
0
 10
318.201
 20
59.8517
 11
318.202
 21
60.2224
  0
LINE
  8
0
 10
318.202
 20
60.2224
 11
318.215
 21
60.5929
  0
LINE
  8
0
 10
318.215
 20
60.5929
 11
318.239
 21
60.9628
  0
LINE
  8
0
 10
318.239
 20
60.9628
 11
318.275
 21
61.3317
  0
LINE
  8
0
 10
318.275
 20
61.3317
 11
318.323
 21
61.6993
  0
LINE
  8
0
 10
318.323
 20
61.6993
 11
318.382
 21
62.0653
  0
LINE
  8
0
 10
318.382
 20
62.0653
 11
318.453
 21
62.4292
  0
LINE
  8
0
 10
318.453
 20
62.4292
 11
318.535
 21
62.7907
  0
LINE
  8
0
 10
318.535
 20
62.7907
 11
318.628
 21
63.1494
  0
LINE
  8
0
 10
318.628
 20
63.1494
 11
318.733
 21
63.5051
  0
LINE
  8
0
 10
318.733
 20
63.5051
 11
318.848
 21
63.8573
  0
LINE
  8
0
 10
318.848
 20
63.8573
 11
318.975
 21
64.2057
  0
LINE
  8
0
 10
318.975
 20
64.2057
 11
319.112
 21
64.5499
  0
LINE
  8
0
 10
319.112
 20
64.5499
 11
319.261
 21
64.8896
  0
LINE
  8
0
 10
319.261
 20
64.8896
 11
319.42
 21
65.2245
  0
LINE
  8
0
 10
319.42
 20
65.2245
 11
319.589
 21
65.5543
  0
LINE
  8
0
 10
319.589
 20
65.5543
 11
319.769
 21
65.8786
  0
LINE
  8
0
 10
319.769
 20
65.8786
 11
319.958
 21
66.1971
  0
LINE
  8
0
 10
319.958
 20
66.1971
 11
320.158
 21
66.5094
  0
LINE
  8
0
 10
320.158
 20
66.5094
 11
320.367
 21
66.8154
  0
LINE
  8
0
 10
320.367
 20
66.8154
 11
320.586
 21
67.1146
  0
LINE
  8
0
 10
320.586
 20
67.1146
 11
320.814
 21
67.4068
  0
LINE
  8
0
 10
320.814
 20
67.4068
 11
321.051
 21
67.6916
  0
LINE
  8
0
 10
321.051
 20
67.6916
 11
321.297
 21
67.9689
  0
LINE
  8
0
 10
321.297
 20
67.9689
 11
321.552
 21
68.2383
  0
LINE
  8
0
 10
321.552
 20
68.2383
 11
321.815
 21
68.4996
  0
LINE
  8
0
 10
321.815
 20
68.4996
 11
322.086
 21
68.7525
  0
LINE
  8
0
 10
322.086
 20
68.7525
 11
322.365
 21
68.9968
  0
LINE
  8
0
 10
322.365
 20
68.9968
 11
322.651
 21
69.2322
  0
LINE
  8
0
 10
322.651
 20
69.2322
 11
322.945
 21
69.4585
  0
LINE
  8
0
 10
322.945
 20
69.4585
 11
323.245
 21
69.6754
  0
LINE
  8
0
 10
323.245
 20
69.6754
 11
323.553
 21
69.8828
  0
LINE
  8
0
 10
323.553
 20
69.8828
 11
323.866
 21
70.0805
  0
LINE
  8
0
 10
323.866
 20
70.0805
 11
324.186
 21
70.2682
  0
LINE
  8
0
 10
324.186
 20
70.2682
 11
324.511
 21
70.4457
  0
LINE
  8
0
 10
324.511
 20
70.4457
 11
324.842
 21
70.613
  0
LINE
  8
0
 10
324.842
 20
70.613
 11
325.178
 21
70.7698
  0
LINE
  8
0
 10
325.178
 20
70.7698
 11
325.519
 21
70.9159
  0
LINE
  8
0
 10
325.519
 20
70.9159
 11
325.864
 21
71.0513
  0
LINE
  8
0
 10
325.864
 20
71.0513
 11
326.213
 21
71.1758
  0
LINE
  8
0
 10
326.213
 20
71.1758
 11
326.566
 21
71.2892
  0
LINE
  8
0
 10
326.566
 20
71.2892
 11
326.922
 21
71.3915
  0
LINE
  8
0
 10
326.922
 20
71.3915
 11
327.281
 21
71.4826
  0
LINE
  8
0
 10
327.281
 20
71.4826
 11
327.643
 21
71.5623
  0
LINE
  8
0
 10
327.643
 20
71.5623
 11
328.008
 21
71.6306
  0
LINE
  8
0
 10
328.008
 20
71.6306
 11
328.374
 21
71.6874
  0
LINE
  8
0
 10
328.374
 20
71.6874
 11
328.742
 21
71.7327
  0
LINE
  8
0
 10
328.742
 20
71.7327
 11
329.111
 21
71.7665
  0
LINE
  8
0
 10
329.111
 20
71.7665
 11
329.481
 21
71.7886
  0
LINE
  8
0
 10
329.481
 20
71.7886
 11
329.852
 21
71.7991
  0
LINE
  8
0
 10
329.852
 20
71.7991
 11
330.222
 21
71.7979
  0
LINE
  8
0
 10
330.222
 20
71.7979
 11
330.593
 21
71.7851
  0
LINE
  8
0
 10
330.593
 20
71.7851
 11
330.963
 21
71.7607
  0
LINE
  8
0
 10
330.963
 20
71.7607
 11
331.332
 21
71.7246
  0
LINE
  8
0
 10
331.332
 20
71.7246
 11
331.699
 21
71.677
  0
LINE
  8
0
 10
331.699
 20
71.677
 11
332.065
 21
71.6179
  0
LINE
  8
0
 10
332.065
 20
71.6179
 11
332.429
 21
71.5472
  0
LINE
  8
0
 10
332.429
 20
71.5472
 11
332.791
 21
71.4652
  0
LINE
  8
0
 10
332.791
 20
71.4652
 11
333.149
 21
71.3719
  0
LINE
  8
0
 10
333.149
 20
71.3719
 11
333.505
 21
71.2674
  0
LINE
  8
0
 10
333.505
 20
71.2674
 11
333.857
 21
71.1517
  0
LINE
  8
0
 10
333.857
 20
71.1517
 11
334.206
 21
71.0251
  0
LINE
  8
0
 10
334.206
 20
71.0251
 11
334.55
 21
70.8875
  0
LINE
  8
0
 10
334.55
 20
70.8875
 11
334.89
 21
70.7392
  0
LINE
  8
0
 10
334.89
 20
70.7392
 11
335.225
 21
70.5804
  0
LINE
  8
0
 10
335.225
 20
70.5804
 11
335.554
 21
70.411
  0
LINE
  8
0
 10
335.554
 20
70.411
 11
335.879
 21
70.2314
  0
LINE
  8
0
 10
335.879
 20
70.2314
 11
336.197
 21
70.0417
  0
LINE
  8
0
 10
336.197
 20
70.0417
 11
336.509
 21
69.8421
  0
LINE
  8
0
 10
336.509
 20
69.8421
 11
336.815
 21
69.6328
  0
LINE
  8
0
 10
336.815
 20
69.6328
 11
337.115
 21
69.414
  0
LINE
  8
0
 10
337.115
 20
69.414
 11
337.407
 21
69.1859
  0
LINE
  8
0
 10
337.407
 20
69.1859
 11
337.692
 21
68.9487
  0
LINE
  8
0
 10
337.692
 20
68.9487
 11
337.969
 21
68.7027
  0
LINE
  8
0
 10
337.969
 20
68.7027
 11
338.238
 21
68.448
  0
LINE
  8
0
 10
338.238
 20
68.448
 11
338.5
 21
68.1851
  0
LINE
  8
0
 10
338.5
 20
68.1851
 11
338.753
 21
67.9141
  0
LINE
  8
0
 10
338.753
 20
67.9141
 11
338.997
 21
67.6353
  0
LINE
  8
0
 10
338.997
 20
67.6353
 11
339.232
 21
67.3489
  0
LINE
  8
0
 10
339.232
 20
67.3489
 11
339.458
 21
67.0553
  0
LINE
  8
0
 10
339.458
 20
67.0553
 11
339.675
 21
66.7547
  0
LINE
  8
0
 10
339.675
 20
66.7547
 11
339.883
 21
66.4474
  0
LINE
  8
0
 10
339.883
 20
66.4474
 11
340.08
 21
66.1338
  0
LINE
  8
0
 10
340.08
 20
66.1338
 11
340.268
 21
65.8142
  0
LINE
  8
0
 10
340.268
 20
65.8142
 11
340.446
 21
65.4888
  0
LINE
  8
0
 10
340.446
 20
65.4888
 11
340.613
 21
65.158
  0
LINE
  8
0
 10
340.613
 20
65.158
 11
340.77
 21
64.8221
  0
LINE
  8
0
 10
340.77
 20
64.8221
 11
340.916
 21
64.4814
  0
LINE
  8
0
 10
340.916
 20
64.4814
 11
341.051
 21
64.1363
  0
LINE
  8
0
 10
341.051
 20
64.1363
 11
341.176
 21
63.7871
  0
LINE
  8
0
 10
341.176
 20
63.7871
 11
341.289
 21
63.4342
  0
LINE
  8
0
 10
341.289
 20
63.4342
 11
341.391
 21
63.0779
  0
LINE
  8
0
 10
341.391
 20
63.0779
 11
341.483
 21
62.7186
  0
LINE
  8
0
 10
341.483
 20
62.7186
 11
341.562
 21
62.3566
  0
LINE
  8
0
 10
341.562
 20
62.3566
 11
341.631
 21
61.9922
  0
LINE
  8
0
 10
341.631
 20
61.9922
 11
341.687
 21
61.6259
  0
LINE
  8
0
 10
341.687
 20
61.6259
 11
341.733
 21
61.258
  0
LINE
  8
0
 10
341.733
 20
61.258
 11
341.766
 21
60.8889
  0
LINE
  8
0
 10
341.766
 20
60.8889
 11
341.789
 21
60.5188
  0
LINE
  8
0
 10
341.789
 20
60.5188
 11
341.799
 21
60.1483
  0
LINE
  8
0
 10
341.799
 20
60.1483
 11
341.798
 21
59.7776
  0
LINE
  8
0
 10
341.798
 20
59.7776
 11
341.785
 21
59.4071
  0
LINE
  8
0
 10
341.785
 20
59.4071
 11
341.761
 21
59.0372
  0
LINE
  8
0
 10
341.761
 20
59.0372
 11
341.725
 21
58.6683
  0
LINE
  8
0
 10
341.725
 20
58.6683
 11
341.677
 21
58.3007
  0
LINE
  8
0
 10
341.677
 20
58.3007
 11
341.618
 21
57.9347
  0
LINE
  8
0
 10
341.618
 20
57.9347
 11
341.547
 21
57.5708
  0
LINE
  8
0
 10
341.547
 20
57.5708
 11
341.465
 21
57.2093
  0
LINE
  8
0
 10
341.465
 20
57.2093
 11
341.372
 21
56.8506
  0
LINE
  8
0
 10
341.372
 20
56.8506
 11
341.267
 21
56.4949
  0
LINE
  8
0
 10
341.267
 20
56.4949
 11
341.152
 21
56.1427
  0
LINE
  8
0
 10
341.152
 20
56.1427
 11
341.025
 21
55.7943
  0
LINE
  8
0
 10
341.025
 20
55.7943
 11
340.888
 21
55.4501
  0
LINE
  8
0
 10
340.888
 20
55.4501
 11
340.739
 21
55.1104
  0
LINE
  8
0
 10
340.739
 20
55.1104
 11
340.58
 21
54.7755
  0
LINE
  8
0
 10
340.58
 20
54.7755
 11
340.411
 21
54.4457
  0
LINE
  8
0
 10
340.411
 20
54.4457
 11
340.231
 21
54.1214
  0
LINE
  8
0
 10
340.231
 20
54.1214
 11
340.042
 21
53.8029
  0
LINE
  8
0
 10
340.042
 20
53.8029
 11
339.842
 21
53.4906
  0
LINE
  8
0
 10
339.842
 20
53.4906
 11
339.633
 21
53.1846
  0
LINE
  8
0
 10
339.633
 20
53.1846
 11
339.414
 21
52.8854
  0
LINE
  8
0
 10
339.414
 20
52.8854
 11
339.186
 21
52.5932
  0
LINE
  8
0
 10
339.186
 20
52.5932
 11
338.949
 21
52.3084
  0
LINE
  8
0
 10
338.949
 20
52.3084
 11
338.703
 21
52.0311
  0
LINE
  8
0
 10
338.703
 20
52.0311
 11
338.448
 21
51.7617
  0
LINE
  8
0
 10
338.448
 20
51.7617
 11
338.185
 21
51.5004
  0
LINE
  8
0
 10
338.185
 20
51.5004
 11
337.914
 21
51.2475
  0
LINE
  8
0
 10
337.914
 20
51.2475
 11
337.635
 21
51.0032
  0
LINE
  8
0
 10
337.635
 20
51.0032
 11
337.349
 21
50.7678
  0
LINE
  8
0
 10
337.349
 20
50.7678
 11
337.055
 21
50.5415
  0
LINE
  8
0
 10
337.055
 20
50.5415
 11
336.755
 21
50.3246
  0
LINE
  8
0
 10
336.755
 20
50.3246
 11
336.447
 21
50.1172
  0
LINE
  8
0
 10
336.447
 20
50.1172
 11
336.134
 21
49.9195
  0
LINE
  8
0
 10
336.134
 20
49.9195
 11
335.814
 21
49.7318
  0
LINE
  8
0
 10
335.814
 20
49.7318
 11
335.489
 21
49.5543
  0
LINE
  8
0
 10
335.489
 20
49.5543
 11
335.158
 21
49.387
  0
LINE
  8
0
 10
335.158
 20
49.387
 11
334.822
 21
49.2302
  0
LINE
  8
0
 10
334.822
 20
49.2302
 11
334.481
 21
49.0841
  0
LINE
  8
0
 10
334.481
 20
49.0841
 11
334.136
 21
48.9487
  0
LINE
  8
0
 10
334.136
 20
48.9487
 11
333.787
 21
48.8242
  0
LINE
  8
0
 10
333.787
 20
48.8242
 11
333.434
 21
48.7108
  0
LINE
  8
0
 10
333.434
 20
48.7108
 11
333.078
 21
48.6085
  0
LINE
  8
0
 10
333.078
 20
48.6085
 11
332.719
 21
48.5174
  0
LINE
  8
0
 10
332.719
 20
48.5174
 11
332.357
 21
48.4377
  0
LINE
  8
0
 10
332.357
 20
48.4377
 11
331.992
 21
48.3694
  0
LINE
  8
0
 10
331.992
 20
48.3694
 11
331.626
 21
48.3126
  0
LINE
  8
0
 10
331.626
 20
48.3126
 11
331.258
 21
48.2673
  0
LINE
  8
0
 10
331.258
 20
48.2673
 11
330.889
 21
48.2335
  0
LINE
  8
0
 10
330.889
 20
48.2335
 11
330.519
 21
48.2114
  0
LINE
  8
0
 10
330.519
 20
48.2114
 11
330.148
 21
48.2009
  0
LINE
  8
0
 10
330.148
 20
48.2009
 11
329.778
 21
48.2021
  0
LINE
  8
0
 10
59.7776
 20
48.2021
 11
59.4071
 21
48.2149
  0
LINE
  8
0
 10
59.4071
 20
48.2149
 11
59.0372
 21
48.2393
  0
LINE
  8
0
 10
59.0372
 20
48.2393
 11
58.6683
 21
48.2754
  0
LINE
  8
0
 10
58.6683
 20
48.2754
 11
58.3007
 21
48.323
  0
LINE
  8
0
 10
58.3007
 20
48.323
 11
57.9347
 21
48.3821
  0
LINE
  8
0
 10
57.9347
 20
48.3821
 11
57.5708
 21
48.4528
  0
LINE
  8
0
 10
57.5708
 20
48.4528
 11
57.2093
 21
48.5348
  0
LINE
  8
0
 10
57.2093
 20
48.5348
 11
56.8506
 21
48.6281
  0
LINE
  8
0
 10
56.8506
 20
48.6281
 11
56.4949
 21
48.7326
  0
LINE
  8
0
 10
56.4949
 20
48.7326
 11
56.1427
 21
48.8483
  0
LINE
  8
0
 10
56.1427
 20
48.8483
 11
55.7943
 21
48.9749
  0
LINE
  8
0
 10
55.7943
 20
48.9749
 11
55.4501
 21
49.1125
  0
LINE
  8
0
 10
55.4501
 20
49.1125
 11
55.1104
 21
49.2608
  0
LINE
  8
0
 10
55.1104
 20
49.2608
 11
54.7755
 21
49.4196
  0
LINE
  8
0
 10
54.7755
 20
49.4196
 11
54.4457
 21
49.589
  0
LINE
  8
0
 10
54.4457
 20
49.589
 11
54.1214
 21
49.7686
  0
LINE
  8
0
 10
54.1214
 20
49.7686
 11
53.8029
 21
49.9583
  0
LINE
  8
0
 10
53.8029
 20
49.9583
 11
53.4906
 21
50.1579
  0
LINE
  8
0
 10
53.4906
 20
50.1579
 11
53.1846
 21
50.3672
  0
LINE
  8
0
 10
53.1846
 20
50.3672
 11
52.8854
 21
50.586
  0
LINE
  8
0
 10
52.8854
 20
50.586
 11
52.5932
 21
50.8141
  0
LINE
  8
0
 10
52.5932
 20
50.8141
 11
52.3084
 21
51.0513
  0
LINE
  8
0
 10
52.3084
 20
51.0513
 11
52.0311
 21
51.2973
  0
LINE
  8
0
 10
52.0311
 20
51.2973
 11
51.7617
 21
51.552
  0
LINE
  8
0
 10
51.7617
 20
51.552
 11
51.5004
 21
51.8149
  0
LINE
  8
0
 10
51.5004
 20
51.8149
 11
51.2475
 21
52.0859
  0
LINE
  8
0
 10
51.2475
 20
52.0859
 11
51.0032
 21
52.3647
  0
LINE
  8
0
 10
51.0032
 20
52.3647
 11
50.7678
 21
52.6511
  0
LINE
  8
0
 10
50.7678
 20
52.6511
 11
50.5415
 21
52.9447
  0
LINE
  8
0
 10
50.5415
 20
52.9447
 11
50.3246
 21
53.2453
  0
LINE
  8
0
 10
50.3246
 20
53.2453
 11
50.1172
 21
53.5526
  0
LINE
  8
0
 10
50.1172
 20
53.5526
 11
49.9195
 21
53.8662
  0
LINE
  8
0
 10
49.9195
 20
53.8662
 11
49.7318
 21
54.1858
  0
LINE
  8
0
 10
49.7318
 20
54.1858
 11
49.5543
 21
54.5112
  0
LINE
  8
0
 10
49.5543
 20
54.5112
 11
49.387
 21
54.842
  0
LINE
  8
0
 10
49.387
 20
54.842
 11
49.2302
 21
55.1779
  0
LINE
  8
0
 10
49.2302
 20
55.1779
 11
49.0841
 21
55.5186
  0
LINE
  8
0
 10
49.0841
 20
55.5186
 11
48.9487
 21
55.8637
  0
LINE
  8
0
 10
48.9487
 20
55.8637
 11
48.8242
 21
56.2129
  0
LINE
  8
0
 10
48.8242
 20
56.2129
 11
48.7108
 21
56.5658
  0
LINE
  8
0
 10
48.7108
 20
56.5658
 11
48.6085
 21
56.9221
  0
LINE
  8
0
 10
48.6085
 20
56.9221
 11
48.5174
 21
57.2814
  0
LINE
  8
0
 10
48.5174
 20
57.2814
 11
48.4377
 21
57.6434
  0
LINE
  8
0
 10
48.4377
 20
57.6434
 11
48.3694
 21
58.0078
  0
LINE
  8
0
 10
48.3694
 20
58.0078
 11
48.3126
 21
58.3741
  0
LINE
  8
0
 10
48.3126
 20
58.3741
 11
48.2673
 21
58.742
  0
LINE
  8
0
 10
48.2673
 20
58.742
 11
48.2335
 21
59.1111
  0
LINE
  8
0
 10
48.2335
 20
59.1111
 11
48.2114
 21
59.4812
  0
LINE
  8
0
 10
48.2114
 20
59.4812
 11
48.2009
 21
59.8517
  0
LINE
  8
0
 10
48.2009
 20
59.8517
 11
48.2021
 21
60.2224
  0
LINE
  8
0
 10
48.2021
 20
60.2224
 11
48.2149
 21
60.5929
  0
LINE
  8
0
 10
48.2149
 20
60.5929
 11
48.2393
 21
60.9628
  0
LINE
  8
0
 10
48.2393
 20
60.9628
 11
48.2754
 21
61.3317
  0
LINE
  8
0
 10
48.2754
 20
61.3317
 11
48.323
 21
61.6993
  0
LINE
  8
0
 10
48.323
 20
61.6993
 11
48.3821
 21
62.0653
  0
LINE
  8
0
 10
48.3821
 20
62.0653
 11
48.4528
 21
62.4292
  0
LINE
  8
0
 10
48.4528
 20
62.4292
 11
48.5348
 21
62.7907
  0
LINE
  8
0
 10
48.5348
 20
62.7907
 11
48.6281
 21
63.1494
  0
LINE
  8
0
 10
48.6281
 20
63.1494
 11
48.7326
 21
63.5051
  0
LINE
  8
0
 10
48.7326
 20
63.5051
 11
48.8483
 21
63.8573
  0
LINE
  8
0
 10
48.8483
 20
63.8573
 11
48.9749
 21
64.2057
  0
LINE
  8
0
 10
48.9749
 20
64.2057
 11
49.1125
 21
64.5499
  0
LINE
  8
0
 10
49.1125
 20
64.5499
 11
49.2608
 21
64.8896
  0
LINE
  8
0
 10
49.2608
 20
64.8896
 11
49.4196
 21
65.2245
  0
LINE
  8
0
 10
49.4196
 20
65.2245
 11
49.589
 21
65.5543
  0
LINE
  8
0
 10
49.589
 20
65.5543
 11
49.7686
 21
65.8786
  0
LINE
  8
0
 10
49.7686
 20
65.8786
 11
49.9583
 21
66.1971
  0
LINE
  8
0
 10
49.9583
 20
66.1971
 11
50.1579
 21
66.5094
  0
LINE
  8
0
 10
50.1579
 20
66.5094
 11
50.3672
 21
66.8154
  0
LINE
  8
0
 10
50.3672
 20
66.8154
 11
50.586
 21
67.1146
  0
LINE
  8
0
 10
50.586
 20
67.1146
 11
50.8141
 21
67.4068
  0
LINE
  8
0
 10
50.8141
 20
67.4068
 11
51.0513
 21
67.6916
  0
LINE
  8
0
 10
51.0513
 20
67.6916
 11
51.2973
 21
67.9689
  0
LINE
  8
0
 10
51.2973
 20
67.9689
 11
51.552
 21
68.2383
  0
LINE
  8
0
 10
51.552
 20
68.2383
 11
51.8149
 21
68.4996
  0
LINE
  8
0
 10
51.8149
 20
68.4996
 11
52.0859
 21
68.7525
  0
LINE
  8
0
 10
52.0859
 20
68.7525
 11
52.3647
 21
68.9968
  0
LINE
  8
0
 10
52.3647
 20
68.9968
 11
52.6511
 21
69.2322
  0
LINE
  8
0
 10
52.6511
 20
69.2322
 11
52.9447
 21
69.4585
  0
LINE
  8
0
 10
52.9447
 20
69.4585
 11
53.2453
 21
69.6754
  0
LINE
  8
0
 10
53.2453
 20
69.6754
 11
53.5526
 21
69.8828
  0
LINE
  8
0
 10
53.5526
 20
69.8828
 11
53.8662
 21
70.0805
  0
LINE
  8
0
 10
53.8662
 20
70.0805
 11
54.1858
 21
70.2682
  0
LINE
  8
0
 10
54.1858
 20
70.2682
 11
54.5112
 21
70.4457
  0
LINE
  8
0
 10
54.5112
 20
70.4457
 11
54.842
 21
70.613
  0
LINE
  8
0
 10
54.842
 20
70.613
 11
55.1779
 21
70.7698
  0
LINE
  8
0
 10
55.1779
 20
70.7698
 11
55.5186
 21
70.9159
  0
LINE
  8
0
 10
55.5186
 20
70.9159
 11
55.8637
 21
71.0513
  0
LINE
  8
0
 10
55.8637
 20
71.0513
 11
56.2129
 21
71.1758
  0
LINE
  8
0
 10
56.2129
 20
71.1758
 11
56.5658
 21
71.2892
  0
LINE
  8
0
 10
56.5658
 20
71.2892
 11
56.9221
 21
71.3915
  0
LINE
  8
0
 10
56.9221
 20
71.3915
 11
57.2814
 21
71.4826
  0
LINE
  8
0
 10
57.2814
 20
71.4826
 11
57.6434
 21
71.5623
  0
LINE
  8
0
 10
57.6434
 20
71.5623
 11
58.0078
 21
71.6306
  0
LINE
  8
0
 10
58.0078
 20
71.6306
 11
58.3741
 21
71.6874
  0
LINE
  8
0
 10
58.3741
 20
71.6874
 11
58.742
 21
71.7327
  0
LINE
  8
0
 10
58.742
 20
71.7327
 11
59.1111
 21
71.7665
  0
LINE
  8
0
 10
59.1111
 20
71.7665
 11
59.4812
 21
71.7886
  0
LINE
  8
0
 10
59.4812
 20
71.7886
 11
59.8517
 21
71.7991
  0
LINE
  8
0
 10
59.8517
 20
71.7991
 11
60.2224
 21
71.7979
  0
LINE
  8
0
 10
60.2224
 20
71.7979
 11
60.5929
 21
71.7851
  0
LINE
  8
0
 10
60.5929
 20
71.7851
 11
60.9628
 21
71.7607
  0
LINE
  8
0
 10
60.9628
 20
71.7607
 11
61.3317
 21
71.7246
  0
LINE
  8
0
 10
61.3317
 20
71.7246
 11
61.6993
 21
71.677
  0
LINE
  8
0
 10
61.6993
 20
71.677
 11
62.0653
 21
71.6179
  0
LINE
  8
0
 10
62.0653
 20
71.6179
 11
62.4292
 21
71.5472
  0
LINE
  8
0
 10
62.4292
 20
71.5472
 11
62.7907
 21
71.4652
  0
LINE
  8
0
 10
62.7907
 20
71.4652
 11
63.1494
 21
71.3719
  0
LINE
  8
0
 10
63.1494
 20
71.3719
 11
63.5051
 21
71.2674
  0
LINE
  8
0
 10
63.5051
 20
71.2674
 11
63.8573
 21
71.1517
  0
LINE
  8
0
 10
63.8573
 20
71.1517
 11
64.2057
 21
71.0251
  0
LINE
  8
0
 10
64.2057
 20
71.0251
 11
64.5499
 21
70.8875
  0
LINE
  8
0
 10
64.5499
 20
70.8875
 11
64.8896
 21
70.7392
  0
LINE
  8
0
 10
64.8896
 20
70.7392
 11
65.2245
 21
70.5804
  0
LINE
  8
0
 10
65.2245
 20
70.5804
 11
65.5543
 21
70.411
  0
LINE
  8
0
 10
65.5543
 20
70.411
 11
65.8786
 21
70.2314
  0
LINE
  8
0
 10
65.8786
 20
70.2314
 11
66.1971
 21
70.0417
  0
LINE
  8
0
 10
66.1971
 20
70.0417
 11
66.5094
 21
69.8421
  0
LINE
  8
0
 10
66.5094
 20
69.8421
 11
66.8154
 21
69.6328
  0
LINE
  8
0
 10
66.8154
 20
69.6328
 11
67.1146
 21
69.414
  0
LINE
  8
0
 10
67.1146
 20
69.414
 11
67.4068
 21
69.1859
  0
LINE
  8
0
 10
67.4068
 20
69.1859
 11
67.6916
 21
68.9487
  0
LINE
  8
0
 10
67.6916
 20
68.9487
 11
67.9689
 21
68.7027
  0
LINE
  8
0
 10
67.9689
 20
68.7027
 11
68.2383
 21
68.448
  0
LINE
  8
0
 10
68.2383
 20
68.448
 11
68.4996
 21
68.1851
  0
LINE
  8
0
 10
68.4996
 20
68.1851
 11
68.7525
 21
67.9141
  0
LINE
  8
0
 10
68.7525
 20
67.9141
 11
68.9968
 21
67.6353
  0
LINE
  8
0
 10
68.9968
 20
67.6353
 11
69.2322
 21
67.3489
  0
LINE
  8
0
 10
69.2322
 20
67.3489
 11
69.4585
 21
67.0553
  0
LINE
  8
0
 10
69.4585
 20
67.0553
 11
69.6754
 21
66.7547
  0
LINE
  8
0
 10
69.6754
 20
66.7547
 11
69.8828
 21
66.4474
  0
LINE
  8
0
 10
69.8828
 20
66.4474
 11
70.0805
 21
66.1338
  0
LINE
  8
0
 10
70.0805
 20
66.1338
 11
70.2682
 21
65.8142
  0
LINE
  8
0
 10
70.2682
 20
65.8142
 11
70.4457
 21
65.4888
  0
LINE
  8
0
 10
70.4457
 20
65.4888
 11
70.613
 21
65.158
  0
LINE
  8
0
 10
70.613
 20
65.158
 11
70.7698
 21
64.8221
  0
LINE
  8
0
 10
70.7698
 20
64.8221
 11
70.9159
 21
64.4814
  0
LINE
  8
0
 10
70.9159
 20
64.4814
 11
71.0513
 21
64.1363
  0
LINE
  8
0
 10
71.0513
 20
64.1363
 11
71.1758
 21
63.7871
  0
LINE
  8
0
 10
71.1758
 20
63.7871
 11
71.2892
 21
63.4342
  0
LINE
  8
0
 10
71.2892
 20
63.4342
 11
71.3915
 21
63.0779
  0
LINE
  8
0
 10
71.3915
 20
63.0779
 11
71.4826
 21
62.7186
  0
LINE
  8
0
 10
71.4826
 20
62.7186
 11
71.5623
 21
62.3566
  0
LINE
  8
0
 10
71.5623
 20
62.3566
 11
71.6306
 21
61.9922
  0
LINE
  8
0
 10
71.6306
 20
61.9922
 11
71.6874
 21
61.6259
  0
LINE
  8
0
 10
71.6874
 20
61.6259
 11
71.7327
 21
61.258
  0
LINE
  8
0
 10
71.7327
 20
61.258
 11
71.7665
 21
60.8889
  0
LINE
  8
0
 10
71.7665
 20
60.8889
 11
71.7886
 21
60.5188
  0
LINE
  8
0
 10
71.7886
 20
60.5188
 11
71.7991
 21
60.1483
  0
LINE
  8
0
 10
71.7991
 20
60.1483
 11
71.7979
 21
59.7776
  0
LINE
  8
0
 10
71.7979
 20
59.7776
 11
71.7851
 21
59.4071
  0
LINE
  8
0
 10
71.7851
 20
59.4071
 11
71.7607
 21
59.0372
  0
LINE
  8
0
 10
71.7607
 20
59.0372
 11
71.7246
 21
58.6683
  0
LINE
  8
0
 10
71.7246
 20
58.6683
 11
71.677
 21
58.3007
  0
LINE
  8
0
 10
71.677
 20
58.3007
 11
71.6179
 21
57.9347
  0
LINE
  8
0
 10
71.6179
 20
57.9347
 11
71.5472
 21
57.5708
  0
LINE
  8
0
 10
71.5472
 20
57.5708
 11
71.4652
 21
57.2093
  0
LINE
  8
0
 10
71.4652
 20
57.2093
 11
71.3719
 21
56.8506
  0
LINE
  8
0
 10
71.3719
 20
56.8506
 11
71.2674
 21
56.4949
  0
LINE
  8
0
 10
71.2674
 20
56.4949
 11
71.1517
 21
56.1427
  0
LINE
  8
0
 10
71.1517
 20
56.1427
 11
71.0251
 21
55.7943
  0
LINE
  8
0
 10
71.0251
 20
55.7943
 11
70.8875
 21
55.4501
  0
LINE
  8
0
 10
70.8875
 20
55.4501
 11
70.7392
 21
55.1104
  0
LINE
  8
0
 10
70.7392
 20
55.1104
 11
70.5804
 21
54.7755
  0
LINE
  8
0
 10
70.5804
 20
54.7755
 11
70.411
 21
54.4457
  0
LINE
  8
0
 10
70.411
 20
54.4457
 11
70.2314
 21
54.1214
  0
LINE
  8
0
 10
70.2314
 20
54.1214
 11
70.0417
 21
53.8029
  0
LINE
  8
0
 10
70.0417
 20
53.8029
 11
69.8421
 21
53.4906
  0
LINE
  8
0
 10
69.8421
 20
53.4906
 11
69.6328
 21
53.1846
  0
LINE
  8
0
 10
69.6328
 20
53.1846
 11
69.414
 21
52.8854
  0
LINE
  8
0
 10
69.414
 20
52.8854
 11
69.1859
 21
52.5932
  0
LINE
  8
0
 10
69.1859
 20
52.5932
 11
68.9487
 21
52.3084
  0
LINE
  8
0
 10
68.9487
 20
52.3084
 11
68.7027
 21
52.0311
  0
LINE
  8
0
 10
68.7027
 20
52.0311
 11
68.448
 21
51.7617
  0
LINE
  8
0
 10
68.448
 20
51.7617
 11
68.1851
 21
51.5004
  0
LINE
  8
0
 10
68.1851
 20
51.5004
 11
67.9141
 21
51.2475
  0
LINE
  8
0
 10
67.9141
 20
51.2475
 11
67.6353
 21
51.0032
  0
LINE
  8
0
 10
67.6353
 20
51.0032
 11
67.3489
 21
50.7678
  0
LINE
  8
0
 10
67.3489
 20
50.7678
 11
67.0553
 21
50.5415
  0
LINE
  8
0
 10
67.0553
 20
50.5415
 11
66.7547
 21
50.3246
  0
LINE
  8
0
 10
66.7547
 20
50.3246
 11
66.4474
 21
50.1172
  0
LINE
  8
0
 10
66.4474
 20
50.1172
 11
66.1338
 21
49.9195
  0
LINE
  8
0
 10
66.1338
 20
49.9195
 11
65.8142
 21
49.7318
  0
LINE
  8
0
 10
65.8142
 20
49.7318
 11
65.4888
 21
49.5543
  0
LINE
  8
0
 10
65.4888
 20
49.5543
 11
65.158
 21
49.387
  0
LINE
  8
0
 10
65.158
 20
49.387
 11
64.8221
 21
49.2302
  0
LINE
  8
0
 10
64.8221
 20
49.2302
 11
64.4814
 21
49.0841
  0
LINE
  8
0
 10
64.4814
 20
49.0841
 11
64.1363
 21
48.9487
  0
LINE
  8
0
 10
64.1363
 20
48.9487
 11
63.7871
 21
48.8242
  0
LINE
  8
0
 10
63.7871
 20
48.8242
 11
63.4342
 21
48.7108
  0
LINE
  8
0
 10
63.4342
 20
48.7108
 11
63.0779
 21
48.6085
  0
LINE
  8
0
 10
63.0779
 20
48.6085
 11
62.7186
 21
48.5174
  0
LINE
  8
0
 10
62.7186
 20
48.5174
 11
62.3566
 21
48.4377
  0
LINE
  8
0
 10
62.3566
 20
48.4377
 11
61.9922
 21
48.3694
  0
LINE
  8
0
 10
61.9922
 20
48.3694
 11
61.6259
 21
48.3126
  0
LINE
  8
0
 10
61.6259
 20
48.3126
 11
61.258
 21
48.2673
  0
LINE
  8
0
 10
61.258
 20
48.2673
 11
60.8889
 21
48.2335
  0
LINE
  8
0
 10
60.8889
 20
48.2335
 11
60.5188
 21
48.2114
  0
LINE
  8
0
 10
60.5188
 20
48.2114
 11
60.1483
 21
48.2009
  0
LINE
  8
0
 10
60.1483
 20
48.2009
 11
59.7776
 21
48.2021
  0
LINE
  8
0
 10
239.778
 20
48.2021
 11
239.407
 21
48.2149
  0
LINE
  8
0
 10
239.407
 20
48.2149
 11
239.037
 21
48.2393
  0
LINE
  8
0
 10
239.037
 20
48.2393
 11
238.668
 21
48.2754
  0
LINE
  8
0
 10
238.668
 20
48.2754
 11
238.301
 21
48.323
  0
LINE
  8
0
 10
238.301
 20
48.323
 11
237.935
 21
48.3821
  0
LINE
  8
0
 10
237.935
 20
48.3821
 11
237.571
 21
48.4528
  0
LINE
  8
0
 10
237.571
 20
48.4528
 11
237.209
 21
48.5348
  0
LINE
  8
0
 10
237.209
 20
48.5348
 11
236.851
 21
48.6281
  0
LINE
  8
0
 10
236.851
 20
48.6281
 11
236.495
 21
48.7326
  0
LINE
  8
0
 10
236.495
 20
48.7326
 11
236.143
 21
48.8483
  0
LINE
  8
0
 10
236.143
 20
48.8483
 11
235.794
 21
48.9749
  0
LINE
  8
0
 10
235.794
 20
48.9749
 11
235.45
 21
49.1125
  0
LINE
  8
0
 10
235.45
 20
49.1125
 11
235.11
 21
49.2608
  0
LINE
  8
0
 10
235.11
 20
49.2608
 11
234.775
 21
49.4196
  0
LINE
  8
0
 10
234.775
 20
49.4196
 11
234.446
 21
49.589
  0
LINE
  8
0
 10
234.446
 20
49.589
 11
234.121
 21
49.7686
  0
LINE
  8
0
 10
234.121
 20
49.7686
 11
233.803
 21
49.9583
  0
LINE
  8
0
 10
233.803
 20
49.9583
 11
233.491
 21
50.1579
  0
LINE
  8
0
 10
233.491
 20
50.1579
 11
233.185
 21
50.3672
  0
LINE
  8
0
 10
233.185
 20
50.3672
 11
232.885
 21
50.586
  0
LINE
  8
0
 10
232.885
 20
50.586
 11
232.593
 21
50.8141
  0
LINE
  8
0
 10
232.593
 20
50.8141
 11
232.308
 21
51.0513
  0
LINE
  8
0
 10
232.308
 20
51.0513
 11
232.031
 21
51.2973
  0
LINE
  8
0
 10
232.031
 20
51.2973
 11
231.762
 21
51.552
  0
LINE
  8
0
 10
231.762
 20
51.552
 11
231.5
 21
51.8149
  0
LINE
  8
0
 10
231.5
 20
51.8149
 11
231.247
 21
52.0859
  0
LINE
  8
0
 10
231.247
 20
52.0859
 11
231.003
 21
52.3647
  0
LINE
  8
0
 10
231.003
 20
52.3647
 11
230.768
 21
52.6511
  0
LINE
  8
0
 10
230.768
 20
52.6511
 11
230.542
 21
52.9447
  0
LINE
  8
0
 10
230.542
 20
52.9447
 11
230.325
 21
53.2453
  0
LINE
  8
0
 10
230.325
 20
53.2453
 11
230.117
 21
53.5526
  0
LINE
  8
0
 10
230.117
 20
53.5526
 11
229.92
 21
53.8662
  0
LINE
  8
0
 10
229.92
 20
53.8662
 11
229.732
 21
54.1858
  0
LINE
  8
0
 10
229.732
 20
54.1858
 11
229.554
 21
54.5112
  0
LINE
  8
0
 10
229.554
 20
54.5112
 11
229.387
 21
54.842
  0
LINE
  8
0
 10
229.387
 20
54.842
 11
229.23
 21
55.1779
  0
LINE
  8
0
 10
229.23
 20
55.1779
 11
229.084
 21
55.5186
  0
LINE
  8
0
 10
229.084
 20
55.5186
 11
228.949
 21
55.8637
  0
LINE
  8
0
 10
228.949
 20
55.8637
 11
228.824
 21
56.2129
  0
LINE
  8
0
 10
228.824
 20
56.2129
 11
228.711
 21
56.5658
  0
LINE
  8
0
 10
228.711
 20
56.5658
 11
228.609
 21
56.9221
  0
LINE
  8
0
 10
228.609
 20
56.9221
 11
228.517
 21
57.2814
  0
LINE
  8
0
 10
228.517
 20
57.2814
 11
228.438
 21
57.6434
  0
LINE
  8
0
 10
228.438
 20
57.6434
 11
228.369
 21
58.0078
  0
LINE
  8
0
 10
228.369
 20
58.0078
 11
228.313
 21
58.3741
  0
LINE
  8
0
 10
228.313
 20
58.3741
 11
228.267
 21
58.742
  0
LINE
  8
0
 10
228.267
 20
58.742
 11
228.234
 21
59.1111
  0
LINE
  8
0
 10
228.234
 20
59.1111
 11
228.211
 21
59.4812
  0
LINE
  8
0
 10
228.211
 20
59.4812
 11
228.201
 21
59.8517
  0
LINE
  8
0
 10
228.201
 20
59.8517
 11
228.202
 21
60.2224
  0
LINE
  8
0
 10
228.202
 20
60.2224
 11
228.215
 21
60.5929
  0
LINE
  8
0
 10
228.215
 20
60.5929
 11
228.239
 21
60.9628
  0
LINE
  8
0
 10
228.239
 20
60.9628
 11
228.275
 21
61.3317
  0
LINE
  8
0
 10
228.275
 20
61.3317
 11
228.323
 21
61.6993
  0
LINE
  8
0
 10
228.323
 20
61.6993
 11
228.382
 21
62.0653
  0
LINE
  8
0
 10
228.382
 20
62.0653
 11
228.453
 21
62.4292
  0
LINE
  8
0
 10
228.453
 20
62.4292
 11
228.535
 21
62.7907
  0
LINE
  8
0
 10
228.535
 20
62.7907
 11
228.628
 21
63.1494
  0
LINE
  8
0
 10
228.628
 20
63.1494
 11
228.733
 21
63.5051
  0
LINE
  8
0
 10
228.733
 20
63.5051
 11
228.848
 21
63.8573
  0
LINE
  8
0
 10
228.848
 20
63.8573
 11
228.975
 21
64.2057
  0
LINE
  8
0
 10
228.975
 20
64.2057
 11
229.112
 21
64.5499
  0
LINE
  8
0
 10
229.112
 20
64.5499
 11
229.261
 21
64.8896
  0
LINE
  8
0
 10
229.261
 20
64.8896
 11
229.42
 21
65.2245
  0
LINE
  8
0
 10
229.42
 20
65.2245
 11
229.589
 21
65.5543
  0
LINE
  8
0
 10
229.589
 20
65.5543
 11
229.769
 21
65.8786
  0
LINE
  8
0
 10
229.769
 20
65.8786
 11
229.958
 21
66.1971
  0
LINE
  8
0
 10
229.958
 20
66.1971
 11
230.158
 21
66.5094
  0
LINE
  8
0
 10
230.158
 20
66.5094
 11
230.367
 21
66.8154
  0
LINE
  8
0
 10
230.367
 20
66.8154
 11
230.586
 21
67.1146
  0
LINE
  8
0
 10
230.586
 20
67.1146
 11
230.814
 21
67.4068
  0
LINE
  8
0
 10
230.814
 20
67.4068
 11
231.051
 21
67.6916
  0
LINE
  8
0
 10
231.051
 20
67.6916
 11
231.297
 21
67.9689
  0
LINE
  8
0
 10
231.297
 20
67.9689
 11
231.552
 21
68.2383
  0
LINE
  8
0
 10
231.552
 20
68.2383
 11
231.815
 21
68.4996
  0
LINE
  8
0
 10
231.815
 20
68.4996
 11
232.086
 21
68.7525
  0
LINE
  8
0
 10
232.086
 20
68.7525
 11
232.365
 21
68.9968
  0
LINE
  8
0
 10
232.365
 20
68.9968
 11
232.651
 21
69.2322
  0
LINE
  8
0
 10
232.651
 20
69.2322
 11
232.945
 21
69.4585
  0
LINE
  8
0
 10
232.945
 20
69.4585
 11
233.245
 21
69.6754
  0
LINE
  8
0
 10
233.245
 20
69.6754
 11
233.553
 21
69.8828
  0
LINE
  8
0
 10
233.553
 20
69.8828
 11
233.866
 21
70.0805
  0
LINE
  8
0
 10
233.866
 20
70.0805
 11
234.186
 21
70.2682
  0
LINE
  8
0
 10
234.186
 20
70.2682
 11
234.511
 21
70.4457
  0
LINE
  8
0
 10
234.511
 20
70.4457
 11
234.842
 21
70.613
  0
LINE
  8
0
 10
234.842
 20
70.613
 11
235.178
 21
70.7698
  0
LINE
  8
0
 10
235.178
 20
70.7698
 11
235.519
 21
70.9159
  0
LINE
  8
0
 10
235.519
 20
70.9159
 11
235.864
 21
71.0513
  0
LINE
  8
0
 10
235.864
 20
71.0513
 11
236.213
 21
71.1758
  0
LINE
  8
0
 10
236.213
 20
71.1758
 11
236.566
 21
71.2892
  0
LINE
  8
0
 10
236.566
 20
71.2892
 11
236.922
 21
71.3915
  0
LINE
  8
0
 10
236.922
 20
71.3915
 11
237.281
 21
71.4826
  0
LINE
  8
0
 10
237.281
 20
71.4826
 11
237.643
 21
71.5623
  0
LINE
  8
0
 10
237.643
 20
71.5623
 11
238.008
 21
71.6306
  0
LINE
  8
0
 10
238.008
 20
71.6306
 11
238.374
 21
71.6874
  0
LINE
  8
0
 10
238.374
 20
71.6874
 11
238.742
 21
71.7327
  0
LINE
  8
0
 10
238.742
 20
71.7327
 11
239.111
 21
71.7665
  0
LINE
  8
0
 10
239.111
 20
71.7665
 11
239.481
 21
71.7886
  0
LINE
  8
0
 10
239.481
 20
71.7886
 11
239.852
 21
71.7991
  0
LINE
  8
0
 10
239.852
 20
71.7991
 11
240.222
 21
71.7979
  0
LINE
  8
0
 10
240.222
 20
71.7979
 11
240.593
 21
71.7851
  0
LINE
  8
0
 10
240.593
 20
71.7851
 11
240.963
 21
71.7607
  0
LINE
  8
0
 10
240.963
 20
71.7607
 11
241.332
 21
71.7246
  0
LINE
  8
0
 10
241.332
 20
71.7246
 11
241.699
 21
71.677
  0
LINE
  8
0
 10
241.699
 20
71.677
 11
242.065
 21
71.6179
  0
LINE
  8
0
 10
242.065
 20
71.6179
 11
242.429
 21
71.5472
  0
LINE
  8
0
 10
242.429
 20
71.5472
 11
242.791
 21
71.4652
  0
LINE
  8
0
 10
242.791
 20
71.4652
 11
243.149
 21
71.3719
  0
LINE
  8
0
 10
243.149
 20
71.3719
 11
243.505
 21
71.2674
  0
LINE
  8
0
 10
243.505
 20
71.2674
 11
243.857
 21
71.1517
  0
LINE
  8
0
 10
243.857
 20
71.1517
 11
244.206
 21
71.0251
  0
LINE
  8
0
 10
244.206
 20
71.0251
 11
244.55
 21
70.8875
  0
LINE
  8
0
 10
244.55
 20
70.8875
 11
244.89
 21
70.7392
  0
LINE
  8
0
 10
244.89
 20
70.7392
 11
245.225
 21
70.5804
  0
LINE
  8
0
 10
245.225
 20
70.5804
 11
245.554
 21
70.411
  0
LINE
  8
0
 10
245.554
 20
70.411
 11
245.879
 21
70.2314
  0
LINE
  8
0
 10
245.879
 20
70.2314
 11
246.197
 21
70.0417
  0
LINE
  8
0
 10
246.197
 20
70.0417
 11
246.509
 21
69.8421
  0
LINE
  8
0
 10
246.509
 20
69.8421
 11
246.815
 21
69.6328
  0
LINE
  8
0
 10
246.815
 20
69.6328
 11
247.115
 21
69.414
  0
LINE
  8
0
 10
247.115
 20
69.414
 11
247.407
 21
69.1859
  0
LINE
  8
0
 10
247.407
 20
69.1859
 11
247.692
 21
68.9487
  0
LINE
  8
0
 10
247.692
 20
68.9487
 11
247.969
 21
68.7027
  0
LINE
  8
0
 10
247.969
 20
68.7027
 11
248.238
 21
68.448
  0
LINE
  8
0
 10
248.238
 20
68.448
 11
248.5
 21
68.1851
  0
LINE
  8
0
 10
248.5
 20
68.1851
 11
248.753
 21
67.9141
  0
LINE
  8
0
 10
248.753
 20
67.9141
 11
248.997
 21
67.6353
  0
LINE
  8
0
 10
248.997
 20
67.6353
 11
249.232
 21
67.3489
  0
LINE
  8
0
 10
249.232
 20
67.3489
 11
249.458
 21
67.0553
  0
LINE
  8
0
 10
249.458
 20
67.0553
 11
249.675
 21
66.7547
  0
LINE
  8
0
 10
249.675
 20
66.7547
 11
249.883
 21
66.4474
  0
LINE
  8
0
 10
249.883
 20
66.4474
 11
250.08
 21
66.1338
  0
LINE
  8
0
 10
250.08
 20
66.1338
 11
250.268
 21
65.8142
  0
LINE
  8
0
 10
250.268
 20
65.8142
 11
250.446
 21
65.4888
  0
LINE
  8
0
 10
250.446
 20
65.4888
 11
250.613
 21
65.158
  0
LINE
  8
0
 10
250.613
 20
65.158
 11
250.77
 21
64.8221
  0
LINE
  8
0
 10
250.77
 20
64.8221
 11
250.916
 21
64.4814
  0
LINE
  8
0
 10
250.916
 20
64.4814
 11
251.051
 21
64.1363
  0
LINE
  8
0
 10
251.051
 20
64.1363
 11
251.176
 21
63.7871
  0
LINE
  8
0
 10
251.176
 20
63.7871
 11
251.289
 21
63.4342
  0
LINE
  8
0
 10
251.289
 20
63.4342
 11
251.391
 21
63.0779
  0
LINE
  8
0
 10
251.391
 20
63.0779
 11
251.483
 21
62.7186
  0
LINE
  8
0
 10
251.483
 20
62.7186
 11
251.562
 21
62.3566
  0
LINE
  8
0
 10
251.562
 20
62.3566
 11
251.631
 21
61.9922
  0
LINE
  8
0
 10
251.631
 20
61.9922
 11
251.687
 21
61.6259
  0
LINE
  8
0
 10
251.687
 20
61.6259
 11
251.733
 21
61.258
  0
LINE
  8
0
 10
251.733
 20
61.258
 11
251.766
 21
60.8889
  0
LINE
  8
0
 10
251.766
 20
60.8889
 11
251.789
 21
60.5188
  0
LINE
  8
0
 10
251.789
 20
60.5188
 11
251.799
 21
60.1483
  0
LINE
  8
0
 10
251.799
 20
60.1483
 11
251.798
 21
59.7776
  0
LINE
  8
0
 10
251.798
 20
59.7776
 11
251.785
 21
59.4071
  0
LINE
  8
0
 10
251.785
 20
59.4071
 11
251.761
 21
59.0372
  0
LINE
  8
0
 10
251.761
 20
59.0372
 11
251.725
 21
58.6683
  0
LINE
  8
0
 10
251.725
 20
58.6683
 11
251.677
 21
58.3007
  0
LINE
  8
0
 10
251.677
 20
58.3007
 11
251.618
 21
57.9347
  0
LINE
  8
0
 10
251.618
 20
57.9347
 11
251.547
 21
57.5708
  0
LINE
  8
0
 10
251.547
 20
57.5708
 11
251.465
 21
57.2093
  0
LINE
  8
0
 10
251.465
 20
57.2093
 11
251.372
 21
56.8506
  0
LINE
  8
0
 10
251.372
 20
56.8506
 11
251.267
 21
56.4949
  0
LINE
  8
0
 10
251.267
 20
56.4949
 11
251.152
 21
56.1427
  0
LINE
  8
0
 10
251.152
 20
56.1427
 11
251.025
 21
55.7943
  0
LINE
  8
0
 10
251.025
 20
55.7943
 11
250.888
 21
55.4501
  0
LINE
  8
0
 10
250.888
 20
55.4501
 11
250.739
 21
55.1104
  0
LINE
  8
0
 10
250.739
 20
55.1104
 11
250.58
 21
54.7755
  0
LINE
  8
0
 10
250.58
 20
54.7755
 11
250.411
 21
54.4457
  0
LINE
  8
0
 10
250.411
 20
54.4457
 11
250.231
 21
54.1214
  0
LINE
  8
0
 10
250.231
 20
54.1214
 11
250.042
 21
53.8029
  0
LINE
  8
0
 10
250.042
 20
53.8029
 11
249.842
 21
53.4906
  0
LINE
  8
0
 10
249.842
 20
53.4906
 11
249.633
 21
53.1846
  0
LINE
  8
0
 10
249.633
 20
53.1846
 11
249.414
 21
52.8854
  0
LINE
  8
0
 10
249.414
 20
52.8854
 11
249.186
 21
52.5932
  0
LINE
  8
0
 10
249.186
 20
52.5932
 11
248.949
 21
52.3084
  0
LINE
  8
0
 10
248.949
 20
52.3084
 11
248.703
 21
52.0311
  0
LINE
  8
0
 10
248.703
 20
52.0311
 11
248.448
 21
51.7617
  0
LINE
  8
0
 10
248.448
 20
51.7617
 11
248.185
 21
51.5004
  0
LINE
  8
0
 10
248.185
 20
51.5004
 11
247.914
 21
51.2475
  0
LINE
  8
0
 10
247.914
 20
51.2475
 11
247.635
 21
51.0032
  0
LINE
  8
0
 10
247.635
 20
51.0032
 11
247.349
 21
50.7678
  0
LINE
  8
0
 10
247.349
 20
50.7678
 11
247.055
 21
50.5415
  0
LINE
  8
0
 10
247.055
 20
50.5415
 11
246.755
 21
50.3246
  0
LINE
  8
0
 10
246.755
 20
50.3246
 11
246.447
 21
50.1172
  0
LINE
  8
0
 10
246.447
 20
50.1172
 11
246.134
 21
49.9195
  0
LINE
  8
0
 10
246.134
 20
49.9195
 11
245.814
 21
49.7318
  0
LINE
  8
0
 10
245.814
 20
49.7318
 11
245.489
 21
49.5543
  0
LINE
  8
0
 10
245.489
 20
49.5543
 11
245.158
 21
49.387
  0
LINE
  8
0
 10
245.158
 20
49.387
 11
244.822
 21
49.2302
  0
LINE
  8
0
 10
244.822
 20
49.2302
 11
244.481
 21
49.0841
  0
LINE
  8
0
 10
244.481
 20
49.0841
 11
244.136
 21
48.9487
  0
LINE
  8
0
 10
244.136
 20
48.9487
 11
243.787
 21
48.8242
  0
LINE
  8
0
 10
243.787
 20
48.8242
 11
243.434
 21
48.7108
  0
LINE
  8
0
 10
243.434
 20
48.7108
 11
243.078
 21
48.6085
  0
LINE
  8
0
 10
243.078
 20
48.6085
 11
242.719
 21
48.5174
  0
LINE
  8
0
 10
242.719
 20
48.5174
 11
242.357
 21
48.4377
  0
LINE
  8
0
 10
242.357
 20
48.4377
 11
241.992
 21
48.3694
  0
LINE
  8
0
 10
241.992
 20
48.3694
 11
241.626
 21
48.3126
  0
LINE
  8
0
 10
241.626
 20
48.3126
 11
241.258
 21
48.2673
  0
LINE
  8
0
 10
241.258
 20
48.2673
 11
240.889
 21
48.2335
  0
LINE
  8
0
 10
240.889
 20
48.2335
 11
240.519
 21
48.2114
  0
LINE
  8
0
 10
240.519
 20
48.2114
 11
240.148
 21
48.2009
  0
LINE
  8
0
 10
240.148
 20
48.2009
 11
239.778
 21
48.2021
  0
LINE
  8
0
 10
149.778
 20
48.2021
 11
149.407
 21
48.2149
  0
LINE
  8
0
 10
149.407
 20
48.2149
 11
149.037
 21
48.2393
  0
LINE
  8
0
 10
149.037
 20
48.2393
 11
148.668
 21
48.2754
  0
LINE
  8
0
 10
148.668
 20
48.2754
 11
148.301
 21
48.323
  0
LINE
  8
0
 10
148.301
 20
48.323
 11
147.935
 21
48.3821
  0
LINE
  8
0
 10
147.935
 20
48.3821
 11
147.571
 21
48.4528
  0
LINE
  8
0
 10
147.571
 20
48.4528
 11
147.209
 21
48.5348
  0
LINE
  8
0
 10
147.209
 20
48.5348
 11
146.851
 21
48.6281
  0
LINE
  8
0
 10
146.851
 20
48.6281
 11
146.495
 21
48.7326
  0
LINE
  8
0
 10
146.495
 20
48.7326
 11
146.143
 21
48.8483
  0
LINE
  8
0
 10
146.143
 20
48.8483
 11
145.794
 21
48.9749
  0
LINE
  8
0
 10
145.794
 20
48.9749
 11
145.45
 21
49.1125
  0
LINE
  8
0
 10
145.45
 20
49.1125
 11
145.11
 21
49.2608
  0
LINE
  8
0
 10
145.11
 20
49.2608
 11
144.775
 21
49.4196
  0
LINE
  8
0
 10
144.775
 20
49.4196
 11
144.446
 21
49.589
  0
LINE
  8
0
 10
144.446
 20
49.589
 11
144.121
 21
49.7686
  0
LINE
  8
0
 10
144.121
 20
49.7686
 11
143.803
 21
49.9583
  0
LINE
  8
0
 10
143.803
 20
49.9583
 11
143.491
 21
50.1579
  0
LINE
  8
0
 10
143.491
 20
50.1579
 11
143.185
 21
50.3672
  0
LINE
  8
0
 10
143.185
 20
50.3672
 11
142.885
 21
50.586
  0
LINE
  8
0
 10
142.885
 20
50.586
 11
142.593
 21
50.8141
  0
LINE
  8
0
 10
142.593
 20
50.8141
 11
142.308
 21
51.0513
  0
LINE
  8
0
 10
142.308
 20
51.0513
 11
142.031
 21
51.2973
  0
LINE
  8
0
 10
142.031
 20
51.2973
 11
141.762
 21
51.552
  0
LINE
  8
0
 10
141.762
 20
51.552
 11
141.5
 21
51.8149
  0
LINE
  8
0
 10
141.5
 20
51.8149
 11
141.247
 21
52.0859
  0
LINE
  8
0
 10
141.247
 20
52.0859
 11
141.003
 21
52.3647
  0
LINE
  8
0
 10
141.003
 20
52.3647
 11
140.768
 21
52.6511
  0
LINE
  8
0
 10
140.768
 20
52.6511
 11
140.542
 21
52.9447
  0
LINE
  8
0
 10
140.542
 20
52.9447
 11
140.325
 21
53.2453
  0
LINE
  8
0
 10
140.325
 20
53.2453
 11
140.117
 21
53.5526
  0
LINE
  8
0
 10
140.117
 20
53.5526
 11
139.92
 21
53.8662
  0
LINE
  8
0
 10
139.92
 20
53.8662
 11
139.732
 21
54.1858
  0
LINE
  8
0
 10
139.732
 20
54.1858
 11
139.554
 21
54.5112
  0
LINE
  8
0
 10
139.554
 20
54.5112
 11
139.387
 21
54.842
  0
LINE
  8
0
 10
139.387
 20
54.842
 11
139.23
 21
55.1779
  0
LINE
  8
0
 10
139.23
 20
55.1779
 11
139.084
 21
55.5186
  0
LINE
  8
0
 10
139.084
 20
55.5186
 11
138.949
 21
55.8637
  0
LINE
  8
0
 10
138.949
 20
55.8637
 11
138.824
 21
56.2129
  0
LINE
  8
0
 10
138.824
 20
56.2129
 11
138.711
 21
56.5658
  0
LINE
  8
0
 10
138.711
 20
56.5658
 11
138.609
 21
56.9221
  0
LINE
  8
0
 10
138.609
 20
56.9221
 11
138.517
 21
57.2814
  0
LINE
  8
0
 10
138.517
 20
57.2814
 11
138.438
 21
57.6434
  0
LINE
  8
0
 10
138.438
 20
57.6434
 11
138.369
 21
58.0078
  0
LINE
  8
0
 10
138.369
 20
58.0078
 11
138.313
 21
58.3741
  0
LINE
  8
0
 10
138.313
 20
58.3741
 11
138.267
 21
58.742
  0
LINE
  8
0
 10
138.267
 20
58.742
 11
138.234
 21
59.1111
  0
LINE
  8
0
 10
138.234
 20
59.1111
 11
138.211
 21
59.4812
  0
LINE
  8
0
 10
138.211
 20
59.4812
 11
138.201
 21
59.8517
  0
LINE
  8
0
 10
138.201
 20
59.8517
 11
138.202
 21
60.2224
  0
LINE
  8
0
 10
138.202
 20
60.2224
 11
138.215
 21
60.5929
  0
LINE
  8
0
 10
138.215
 20
60.5929
 11
138.239
 21
60.9628
  0
LINE
  8
0
 10
138.239
 20
60.9628
 11
138.275
 21
61.3317
  0
LINE
  8
0
 10
138.275
 20
61.3317
 11
138.323
 21
61.6993
  0
LINE
  8
0
 10
138.323
 20
61.6993
 11
138.382
 21
62.0653
  0
LINE
  8
0
 10
138.382
 20
62.0653
 11
138.453
 21
62.4292
  0
LINE
  8
0
 10
138.453
 20
62.4292
 11
138.535
 21
62.7907
  0
LINE
  8
0
 10
138.535
 20
62.7907
 11
138.628
 21
63.1494
  0
LINE
  8
0
 10
138.628
 20
63.1494
 11
138.733
 21
63.5051
  0
LINE
  8
0
 10
138.733
 20
63.5051
 11
138.848
 21
63.8573
  0
LINE
  8
0
 10
138.848
 20
63.8573
 11
138.975
 21
64.2057
  0
LINE
  8
0
 10
138.975
 20
64.2057
 11
139.112
 21
64.5499
  0
LINE
  8
0
 10
139.112
 20
64.5499
 11
139.261
 21
64.8896
  0
LINE
  8
0
 10
139.261
 20
64.8896
 11
139.42
 21
65.2245
  0
LINE
  8
0
 10
139.42
 20
65.2245
 11
139.589
 21
65.5543
  0
LINE
  8
0
 10
139.589
 20
65.5543
 11
139.769
 21
65.8786
  0
LINE
  8
0
 10
139.769
 20
65.8786
 11
139.958
 21
66.1971
  0
LINE
  8
0
 10
139.958
 20
66.1971
 11
140.158
 21
66.5094
  0
LINE
  8
0
 10
140.158
 20
66.5094
 11
140.367
 21
66.8154
  0
LINE
  8
0
 10
140.367
 20
66.8154
 11
140.586
 21
67.1146
  0
LINE
  8
0
 10
140.586
 20
67.1146
 11
140.814
 21
67.4068
  0
LINE
  8
0
 10
140.814
 20
67.4068
 11
141.051
 21
67.6916
  0
LINE
  8
0
 10
141.051
 20
67.6916
 11
141.297
 21
67.9689
  0
LINE
  8
0
 10
141.297
 20
67.9689
 11
141.552
 21
68.2383
  0
LINE
  8
0
 10
141.552
 20
68.2383
 11
141.815
 21
68.4996
  0
LINE
  8
0
 10
141.815
 20
68.4996
 11
142.086
 21
68.7525
  0
LINE
  8
0
 10
142.086
 20
68.7525
 11
142.365
 21
68.9968
  0
LINE
  8
0
 10
142.365
 20
68.9968
 11
142.651
 21
69.2322
  0
LINE
  8
0
 10
142.651
 20
69.2322
 11
142.945
 21
69.4585
  0
LINE
  8
0
 10
142.945
 20
69.4585
 11
143.245
 21
69.6754
  0
LINE
  8
0
 10
143.245
 20
69.6754
 11
143.553
 21
69.8828
  0
LINE
  8
0
 10
143.553
 20
69.8828
 11
143.866
 21
70.0805
  0
LINE
  8
0
 10
143.866
 20
70.0805
 11
144.186
 21
70.2682
  0
LINE
  8
0
 10
144.186
 20
70.2682
 11
144.511
 21
70.4457
  0
LINE
  8
0
 10
144.511
 20
70.4457
 11
144.842
 21
70.613
  0
LINE
  8
0
 10
144.842
 20
70.613
 11
145.178
 21
70.7698
  0
LINE
  8
0
 10
145.178
 20
70.7698
 11
145.519
 21
70.9159
  0
LINE
  8
0
 10
145.519
 20
70.9159
 11
145.864
 21
71.0513
  0
LINE
  8
0
 10
145.864
 20
71.0513
 11
146.213
 21
71.1758
  0
LINE
  8
0
 10
146.213
 20
71.1758
 11
146.566
 21
71.2892
  0
LINE
  8
0
 10
146.566
 20
71.2892
 11
146.922
 21
71.3915
  0
LINE
  8
0
 10
146.922
 20
71.3915
 11
147.281
 21
71.4826
  0
LINE
  8
0
 10
147.281
 20
71.4826
 11
147.643
 21
71.5623
  0
LINE
  8
0
 10
147.643
 20
71.5623
 11
148.008
 21
71.6306
  0
LINE
  8
0
 10
148.008
 20
71.6306
 11
148.374
 21
71.6874
  0
LINE
  8
0
 10
148.374
 20
71.6874
 11
148.742
 21
71.7327
  0
LINE
  8
0
 10
148.742
 20
71.7327
 11
149.111
 21
71.7665
  0
LINE
  8
0
 10
149.111
 20
71.7665
 11
149.481
 21
71.7886
  0
LINE
  8
0
 10
149.481
 20
71.7886
 11
149.852
 21
71.7991
  0
LINE
  8
0
 10
149.852
 20
71.7991
 11
150.222
 21
71.7979
  0
LINE
  8
0
 10
150.222
 20
71.7979
 11
150.593
 21
71.7851
  0
LINE
  8
0
 10
150.593
 20
71.7851
 11
150.963
 21
71.7607
  0
LINE
  8
0
 10
150.963
 20
71.7607
 11
151.332
 21
71.7246
  0
LINE
  8
0
 10
151.332
 20
71.7246
 11
151.699
 21
71.677
  0
LINE
  8
0
 10
151.699
 20
71.677
 11
152.065
 21
71.6179
  0
LINE
  8
0
 10
152.065
 20
71.6179
 11
152.429
 21
71.5472
  0
LINE
  8
0
 10
152.429
 20
71.5472
 11
152.791
 21
71.4652
  0
LINE
  8
0
 10
152.791
 20
71.4652
 11
153.149
 21
71.3719
  0
LINE
  8
0
 10
153.149
 20
71.3719
 11
153.505
 21
71.2674
  0
LINE
  8
0
 10
153.505
 20
71.2674
 11
153.857
 21
71.1517
  0
LINE
  8
0
 10
153.857
 20
71.1517
 11
154.206
 21
71.0251
  0
LINE
  8
0
 10
154.206
 20
71.0251
 11
154.55
 21
70.8875
  0
LINE
  8
0
 10
154.55
 20
70.8875
 11
154.89
 21
70.7392
  0
LINE
  8
0
 10
154.89
 20
70.7392
 11
155.225
 21
70.5804
  0
LINE
  8
0
 10
155.225
 20
70.5804
 11
155.554
 21
70.411
  0
LINE
  8
0
 10
155.554
 20
70.411
 11
155.879
 21
70.2314
  0
LINE
  8
0
 10
155.879
 20
70.2314
 11
156.197
 21
70.0417
  0
LINE
  8
0
 10
156.197
 20
70.0417
 11
156.509
 21
69.8421
  0
LINE
  8
0
 10
156.509
 20
69.8421
 11
156.815
 21
69.6328
  0
LINE
  8
0
 10
156.815
 20
69.6328
 11
157.115
 21
69.414
  0
LINE
  8
0
 10
157.115
 20
69.414
 11
157.407
 21
69.1859
  0
LINE
  8
0
 10
157.407
 20
69.1859
 11
157.692
 21
68.9487
  0
LINE
  8
0
 10
157.692
 20
68.9487
 11
157.969
 21
68.7027
  0
LINE
  8
0
 10
157.969
 20
68.7027
 11
158.238
 21
68.448
  0
LINE
  8
0
 10
158.238
 20
68.448
 11
158.5
 21
68.1851
  0
LINE
  8
0
 10
158.5
 20
68.1851
 11
158.753
 21
67.9141
  0
LINE
  8
0
 10
158.753
 20
67.9141
 11
158.997
 21
67.6353
  0
LINE
  8
0
 10
158.997
 20
67.6353
 11
159.232
 21
67.3489
  0
LINE
  8
0
 10
159.232
 20
67.3489
 11
159.458
 21
67.0553
  0
LINE
  8
0
 10
159.458
 20
67.0553
 11
159.675
 21
66.7547
  0
LINE
  8
0
 10
159.675
 20
66.7547
 11
159.883
 21
66.4474
  0
LINE
  8
0
 10
159.883
 20
66.4474
 11
160.08
 21
66.1338
  0
LINE
  8
0
 10
160.08
 20
66.1338
 11
160.268
 21
65.8142
  0
LINE
  8
0
 10
160.268
 20
65.8142
 11
160.446
 21
65.4888
  0
LINE
  8
0
 10
160.446
 20
65.4888
 11
160.613
 21
65.158
  0
LINE
  8
0
 10
160.613
 20
65.158
 11
160.77
 21
64.8221
  0
LINE
  8
0
 10
160.77
 20
64.8221
 11
160.916
 21
64.4814
  0
LINE
  8
0
 10
160.916
 20
64.4814
 11
161.051
 21
64.1363
  0
LINE
  8
0
 10
161.051
 20
64.1363
 11
161.176
 21
63.7871
  0
LINE
  8
0
 10
161.176
 20
63.7871
 11
161.289
 21
63.4342
  0
LINE
  8
0
 10
161.289
 20
63.4342
 11
161.391
 21
63.0779
  0
LINE
  8
0
 10
161.391
 20
63.0779
 11
161.483
 21
62.7186
  0
LINE
  8
0
 10
161.483
 20
62.7186
 11
161.562
 21
62.3566
  0
LINE
  8
0
 10
161.562
 20
62.3566
 11
161.631
 21
61.9922
  0
LINE
  8
0
 10
161.631
 20
61.9922
 11
161.687
 21
61.6259
  0
LINE
  8
0
 10
161.687
 20
61.6259
 11
161.733
 21
61.258
  0
LINE
  8
0
 10
161.733
 20
61.258
 11
161.766
 21
60.8889
  0
LINE
  8
0
 10
161.766
 20
60.8889
 11
161.789
 21
60.5188
  0
LINE
  8
0
 10
161.789
 20
60.5188
 11
161.799
 21
60.1483
  0
LINE
  8
0
 10
161.799
 20
60.1483
 11
161.798
 21
59.7776
  0
LINE
  8
0
 10
161.798
 20
59.7776
 11
161.785
 21
59.4071
  0
LINE
  8
0
 10
161.785
 20
59.4071
 11
161.761
 21
59.0372
  0
LINE
  8
0
 10
161.761
 20
59.0372
 11
161.725
 21
58.6683
  0
LINE
  8
0
 10
161.725
 20
58.6683
 11
161.677
 21
58.3007
  0
LINE
  8
0
 10
161.677
 20
58.3007
 11
161.618
 21
57.9347
  0
LINE
  8
0
 10
161.618
 20
57.9347
 11
161.547
 21
57.5708
  0
LINE
  8
0
 10
161.547
 20
57.5708
 11
161.465
 21
57.2093
  0
LINE
  8
0
 10
161.465
 20
57.2093
 11
161.372
 21
56.8506
  0
LINE
  8
0
 10
161.372
 20
56.8506
 11
161.267
 21
56.4949
  0
LINE
  8
0
 10
161.267
 20
56.4949
 11
161.152
 21
56.1427
  0
LINE
  8
0
 10
161.152
 20
56.1427
 11
161.025
 21
55.7943
  0
LINE
  8
0
 10
161.025
 20
55.7943
 11
160.888
 21
55.4501
  0
LINE
  8
0
 10
160.888
 20
55.4501
 11
160.739
 21
55.1104
  0
LINE
  8
0
 10
160.739
 20
55.1104
 11
160.58
 21
54.7755
  0
LINE
  8
0
 10
160.58
 20
54.7755
 11
160.411
 21
54.4457
  0
LINE
  8
0
 10
160.411
 20
54.4457
 11
160.231
 21
54.1214
  0
LINE
  8
0
 10
160.231
 20
54.1214
 11
160.042
 21
53.8029
  0
LINE
  8
0
 10
160.042
 20
53.8029
 11
159.842
 21
53.4906
  0
LINE
  8
0
 10
159.842
 20
53.4906
 11
159.633
 21
53.1846
  0
LINE
  8
0
 10
159.633
 20
53.1846
 11
159.414
 21
52.8854
  0
LINE
  8
0
 10
159.414
 20
52.8854
 11
159.186
 21
52.5932
  0
LINE
  8
0
 10
159.186
 20
52.5932
 11
158.949
 21
52.3084
  0
LINE
  8
0
 10
158.949
 20
52.3084
 11
158.703
 21
52.0311
  0
LINE
  8
0
 10
158.703
 20
52.0311
 11
158.448
 21
51.7617
  0
LINE
  8
0
 10
158.448
 20
51.7617
 11
158.185
 21
51.5004
  0
LINE
  8
0
 10
158.185
 20
51.5004
 11
157.914
 21
51.2475
  0
LINE
  8
0
 10
157.914
 20
51.2475
 11
157.635
 21
51.0032
  0
LINE
  8
0
 10
157.635
 20
51.0032
 11
157.349
 21
50.7678
  0
LINE
  8
0
 10
157.349
 20
50.7678
 11
157.055
 21
50.5415
  0
LINE
  8
0
 10
157.055
 20
50.5415
 11
156.755
 21
50.3246
  0
LINE
  8
0
 10
156.755
 20
50.3246
 11
156.447
 21
50.1172
  0
LINE
  8
0
 10
156.447
 20
50.1172
 11
156.134
 21
49.9195
  0
LINE
  8
0
 10
156.134
 20
49.9195
 11
155.814
 21
49.7318
  0
LINE
  8
0
 10
155.814
 20
49.7318
 11
155.489
 21
49.5543
  0
LINE
  8
0
 10
155.489
 20
49.5543
 11
155.158
 21
49.387
  0
LINE
  8
0
 10
155.158
 20
49.387
 11
154.822
 21
49.2302
  0
LINE
  8
0
 10
154.822
 20
49.2302
 11
154.481
 21
49.0841
  0
LINE
  8
0
 10
154.481
 20
49.0841
 11
154.136
 21
48.9487
  0
LINE
  8
0
 10
154.136
 20
48.9487
 11
153.787
 21
48.8242
  0
LINE
  8
0
 10
153.787
 20
48.8242
 11
153.434
 21
48.7108
  0
LINE
  8
0
 10
153.434
 20
48.7108
 11
153.078
 21
48.6085
  0
LINE
  8
0
 10
153.078
 20
48.6085
 11
152.719
 21
48.5174
  0
LINE
  8
0
 10
152.719
 20
48.5174
 11
152.357
 21
48.4377
  0
LINE
  8
0
 10
152.357
 20
48.4377
 11
151.992
 21
48.3694
  0
LINE
  8
0
 10
151.992
 20
48.3694
 11
151.626
 21
48.3126
  0
LINE
  8
0
 10
151.626
 20
48.3126
 11
151.258
 21
48.2673
  0
LINE
  8
0
 10
151.258
 20
48.2673
 11
150.889
 21
48.2335
  0
LINE
  8
0
 10
150.889
 20
48.2335
 11
150.519
 21
48.2114
  0
LINE
  8
0
 10
150.519
 20
48.2114
 11
150.148
 21
48.2009
  0
LINE
  8
0
 10
150.148
 20
48.2009
 11
149.778
 21
48.2021
  0
LINE
  8
0
 10
168.495
 20
58.4038
 11
168.327
 21
58.4453
  0
LINE
  8
0
 10
168.327
 20
58.4453
 11
168.035
 21
58.5663
  0
LINE
  8
0
 10
168.035
 20
58.5663
 11
167.764
 21
58.7479
  0
LINE
  8
0
 10
167.764
 20
58.7479
 11
167.535
 21
58.98
  0
LINE
  8
0
 10
167.535
 20
58.98
 11
167.357
 21
59.2532
  0
LINE
  8
0
 10
167.357
 20
59.2532
 11
167.24
 21
59.5466
  0
LINE
  8
0
 10
167.24
 20
59.5466
 11
167.18
 21
59.8674
  0
LINE
  8
0
 10
167.18
 20
59.8674
 11
167.187
 21
60.1935
  0
LINE
  8
0
 10
167.187
 20
60.1935
 11
167.258
 21
60.5118
  0
LINE
  8
0
 10
167.258
 20
60.5118
 11
167.391
 21
60.8095
  0
LINE
  8
0
 10
167.391
 20
60.8095
 11
167.581
 21
61.0746
  0
LINE
  8
0
 10
167.581
 20
61.0746
 11
167.812
 21
61.2902
  0
LINE
  8
0
 10
167.812
 20
61.2902
 11
168.09
 21
61.4615
  0
LINE
  8
0
 10
168.09
 20
61.4615
 11
168.396
 21
61.5739
  0
LINE
  8
0
 10
168.396
 20
61.5739
 11
168.708
 21
61.6224
  0
LINE
  8
0
 10
168.708
 20
61.6224
 11
169.034
 21
61.608
  0
LINE
  8
0
 10
169.034
 20
61.608
 11
169.35
 21
61.5289
  0
LINE
  8
0
 10
169.35
 20
61.5289
 11
169.645
 21
61.3882
  0
LINE
  8
0
 10
169.645
 20
61.3882
 11
169.905
 21
61.1915
  0
LINE
  8
0
 10
169.905
 20
61.1915
 11
170.121
 21
60.9469
  0
LINE
  8
0
 10
170.121
 20
60.9469
 11
170.279
 21
60.6734
  0
LINE
  8
0
 10
170.279
 20
60.6734
 11
170.384
 21
60.3644
  0
LINE
  8
0
 10
170.384
 20
60.3644
 11
170.424
 21
60.051
  0
LINE
  8
0
 10
170.424
 20
60.051
 11
170.402
 21
59.7256
  0
LINE
  8
0
 10
170.402
 20
59.7256
 11
170.318
 21
59.4208
  0
LINE
  8
0
 10
170.318
 20
59.4208
 11
170.177
 21
59.1379
  0
LINE
  8
0
 10
170.177
 20
59.1379
 11
169.985
 21
58.8876
  0
LINE
  8
0
 10
169.985
 20
58.8876
 11
169.739
 21
58.6735
  0
LINE
  8
0
 10
169.739
 20
58.6735
 11
169.455
 21
58.5127
  0
LINE
  8
0
 10
169.455
 20
58.5127
 11
169.145
 21
58.4119
  0
LINE
  8
0
 10
169.145
 20
58.4119
 11
168.82
 21
58.3751
  0
LINE
  8
0
 10
168.82
 20
58.3751
 11
168.495
 21
58.4038
  0
LINE
  8
0
 10
258.495
 20
58.4038
 11
258.327
 21
58.4453
  0
LINE
  8
0
 10
258.327
 20
58.4453
 11
258.035
 21
58.5663
  0
LINE
  8
0
 10
258.035
 20
58.5663
 11
257.764
 21
58.7479
  0
LINE
  8
0
 10
257.764
 20
58.7479
 11
257.535
 21
58.98
  0
LINE
  8
0
 10
257.535
 20
58.98
 11
257.357
 21
59.2532
  0
LINE
  8
0
 10
257.357
 20
59.2532
 11
257.24
 21
59.5466
  0
LINE
  8
0
 10
257.24
 20
59.5466
 11
257.18
 21
59.8674
  0
LINE
  8
0
 10
257.18
 20
59.8674
 11
257.187
 21
60.1935
  0
LINE
  8
0
 10
257.187
 20
60.1935
 11
257.258
 21
60.5118
  0
LINE
  8
0
 10
257.258
 20
60.5118
 11
257.391
 21
60.8095
  0
LINE
  8
0
 10
257.391
 20
60.8095
 11
257.581
 21
61.0746
  0
LINE
  8
0
 10
257.581
 20
61.0746
 11
257.812
 21
61.2902
  0
LINE
  8
0
 10
257.812
 20
61.2902
 11
258.09
 21
61.4615
  0
LINE
  8
0
 10
258.09
 20
61.4615
 11
258.396
 21
61.5739
  0
LINE
  8
0
 10
258.396
 20
61.5739
 11
258.708
 21
61.6224
  0
LINE
  8
0
 10
258.708
 20
61.6224
 11
259.034
 21
61.608
  0
LINE
  8
0
 10
259.034
 20
61.608
 11
259.35
 21
61.5289
  0
LINE
  8
0
 10
259.35
 20
61.5289
 11
259.645
 21
61.3882
  0
LINE
  8
0
 10
259.645
 20
61.3882
 11
259.905
 21
61.1915
  0
LINE
  8
0
 10
259.905
 20
61.1915
 11
260.121
 21
60.9469
  0
LINE
  8
0
 10
260.121
 20
60.9469
 11
260.279
 21
60.6734
  0
LINE
  8
0
 10
260.279
 20
60.6734
 11
260.384
 21
60.3644
  0
LINE
  8
0
 10
260.384
 20
60.3644
 11
260.424
 21
60.051
  0
LINE
  8
0
 10
260.424
 20
60.051
 11
260.402
 21
59.7256
  0
LINE
  8
0
 10
260.402
 20
59.7256
 11
260.318
 21
59.4208
  0
LINE
  8
0
 10
260.318
 20
59.4208
 11
260.177
 21
59.1379
  0
LINE
  8
0
 10
260.177
 20
59.1379
 11
259.985
 21
58.8876
  0
LINE
  8
0
 10
259.985
 20
58.8876
 11
259.739
 21
58.6735
  0
LINE
  8
0
 10
259.739
 20
58.6735
 11
259.455
 21
58.5127
  0
LINE
  8
0
 10
259.455
 20
58.5127
 11
259.145
 21
58.4119
  0
LINE
  8
0
 10
259.145
 20
58.4119
 11
258.82
 21
58.3751
  0
LINE
  8
0
 10
258.82
 20
58.3751
 11
258.495
 21
58.4038
  0
LINE
  8
0
 10
348.495
 20
58.4038
 11
348.327
 21
58.4453
  0
LINE
  8
0
 10
348.327
 20
58.4453
 11
348.035
 21
58.5663
  0
LINE
  8
0
 10
348.035
 20
58.5663
 11
347.764
 21
58.7479
  0
LINE
  8
0
 10
347.764
 20
58.7479
 11
347.535
 21
58.98
  0
LINE
  8
0
 10
347.535
 20
58.98
 11
347.357
 21
59.2532
  0
LINE
  8
0
 10
347.357
 20
59.2532
 11
347.24
 21
59.5466
  0
LINE
  8
0
 10
347.24
 20
59.5466
 11
347.18
 21
59.8674
  0
LINE
  8
0
 10
347.18
 20
59.8674
 11
347.187
 21
60.1935
  0
LINE
  8
0
 10
347.187
 20
60.1935
 11
347.258
 21
60.5118
  0
LINE
  8
0
 10
347.258
 20
60.5118
 11
347.391
 21
60.8095
  0
LINE
  8
0
 10
347.391
 20
60.8095
 11
347.581
 21
61.0746
  0
LINE
  8
0
 10
347.581
 20
61.0746
 11
347.812
 21
61.2902
  0
LINE
  8
0
 10
347.812
 20
61.2902
 11
348.09
 21
61.4615
  0
LINE
  8
0
 10
348.09
 20
61.4615
 11
348.396
 21
61.5739
  0
LINE
  8
0
 10
348.396
 20
61.5739
 11
348.708
 21
61.6224
  0
LINE
  8
0
 10
348.708
 20
61.6224
 11
349.034
 21
61.608
  0
LINE
  8
0
 10
349.034
 20
61.608
 11
349.35
 21
61.5289
  0
LINE
  8
0
 10
349.35
 20
61.5289
 11
349.645
 21
61.3882
  0
LINE
  8
0
 10
349.645
 20
61.3882
 11
349.905
 21
61.1915
  0
LINE
  8
0
 10
349.905
 20
61.1915
 11
350.121
 21
60.9469
  0
LINE
  8
0
 10
350.121
 20
60.9469
 11
350.279
 21
60.6734
  0
LINE
  8
0
 10
350.279
 20
60.6734
 11
350.384
 21
60.3644
  0
LINE
  8
0
 10
350.384
 20
60.3644
 11
350.424
 21
60.051
  0
LINE
  8
0
 10
350.424
 20
60.051
 11
350.402
 21
59.7256
  0
LINE
  8
0
 10
350.402
 20
59.7256
 11
350.318
 21
59.4208
  0
LINE
  8
0
 10
350.318
 20
59.4208
 11
350.177
 21
59.1379
  0
LINE
  8
0
 10
350.177
 20
59.1379
 11
349.985
 21
58.8876
  0
LINE
  8
0
 10
349.985
 20
58.8876
 11
349.739
 21
58.6735
  0
LINE
  8
0
 10
349.739
 20
58.6735
 11
349.455
 21
58.5127
  0
LINE
  8
0
 10
349.455
 20
58.5127
 11
349.145
 21
58.4119
  0
LINE
  8
0
 10
349.145
 20
58.4119
 11
348.82
 21
58.3751
  0
LINE
  8
0
 10
348.82
 20
58.3751
 11
348.495
 21
58.4038
  0
LINE
  8
0
 10
78.4955
 20
58.4038
 11
78.3271
 21
58.4453
  0
LINE
  8
0
 10
78.3271
 20
58.4453
 11
78.0351
 21
58.5663
  0
LINE
  8
0
 10
78.0351
 20
58.5663
 11
77.7642
 21
58.7479
  0
LINE
  8
0
 10
77.7642
 20
58.7479
 11
77.535
 21
58.98
  0
LINE
  8
0
 10
77.535
 20
58.98
 11
77.3568
 21
59.2532
  0
LINE
  8
0
 10
77.3568
 20
59.2532
 11
77.2395
 21
59.5466
  0
LINE
  8
0
 10
77.2395
 20
59.5466
 11
77.1804
 21
59.8674
  0
LINE
  8
0
 10
77.1804
 20
59.8674
 11
77.1866
 21
60.1935
  0
LINE
  8
0
 10
77.1866
 20
60.1935
 11
77.2577
 21
60.5118
  0
LINE
  8
0
 10
77.2577
 20
60.5118
 11
77.391
 21
60.8095
  0
LINE
  8
0
 10
77.391
 20
60.8095
 11
77.5811
 21
61.0746
  0
LINE
  8
0
 10
77.5811
 20
61.0746
 11
77.8121
 21
61.2902
  0
LINE
  8
0
 10
77.8121
 20
61.2902
 11
78.0897
 21
61.4615
  0
LINE
  8
0
 10
78.0897
 20
61.4615
 11
78.3959
 21
61.5739
  0
LINE
  8
0
 10
78.3959
 20
61.5739
 11
78.7081
 21
61.6224
  0
LINE
  8
0
 10
78.7081
 20
61.6224
 11
79.034
 21
61.608
  0
LINE
  8
0
 10
79.034
 20
61.608
 11
79.3504
 21
61.5289
  0
LINE
  8
0
 10
79.3504
 20
61.5289
 11
79.6447
 21
61.3882
  0
LINE
  8
0
 10
79.6447
 20
61.3882
 11
79.9049
 21
61.1915
  0
LINE
  8
0
 10
79.9049
 20
61.1915
 11
80.1206
 21
60.9469
  0
LINE
  8
0
 10
80.1206
 20
60.9469
 11
80.2789
 21
60.6734
  0
LINE
  8
0
 10
80.2789
 20
60.6734
 11
80.3836
 21
60.3644
  0
LINE
  8
0
 10
80.3836
 20
60.3644
 11
80.4242
 21
60.051
  0
LINE
  8
0
 10
80.4242
 20
60.051
 11
80.4017
 21
59.7256
  0
LINE
  8
0
 10
80.4017
 20
59.7256
 11
80.3183
 21
59.4208
  0
LINE
  8
0
 10
80.3183
 20
59.4208
 11
80.1775
 21
59.1379
  0
LINE
  8
0
 10
80.1775
 20
59.1379
 11
79.9846
 21
58.8876
  0
LINE
  8
0
 10
79.9846
 20
58.8876
 11
79.7385
 21
58.6735
  0
LINE
  8
0
 10
79.7385
 20
58.6735
 11
79.4547
 21
58.5127
  0
LINE
  8
0
 10
79.4547
 20
58.5127
 11
79.1445
 21
58.4119
  0
LINE
  8
0
 10
79.1445
 20
58.4119
 11
78.8204
 21
58.3751
  0
LINE
  8
0
 10
78.8204
 20
58.3751
 11
78.4955
 21
58.4038
  0
LINE
  8
0
 10
220.896
 20
58.4038
 11
220.796
 21
58.4261
  0
LINE
  8
0
 10
220.796
 20
58.4261
 11
220.49
 21
58.5385
  0
LINE
  8
0
 10
220.49
 20
58.5385
 11
220.212
 21
58.7098
  0
LINE
  8
0
 10
220.212
 20
58.7098
 11
219.974
 21
58.9331
  0
LINE
  8
0
 10
219.974
 20
58.9331
 11
219.786
 21
59.1993
  0
LINE
  8
0
 10
219.786
 20
59.1993
 11
219.655
 21
59.4978
  0
LINE
  8
0
 10
219.655
 20
59.4978
 11
219.585
 21
59.8166
  0
LINE
  8
0
 10
219.585
 20
59.8166
 11
219.581
 21
60.1427
  0
LINE
  8
0
 10
219.581
 20
60.1427
 11
219.642
 21
60.4632
  0
LINE
  8
0
 10
219.642
 20
60.4632
 11
219.766
 21
60.7649
  0
LINE
  8
0
 10
219.766
 20
60.7649
 11
219.948
 21
61.0358
  0
LINE
  8
0
 10
219.948
 20
61.0358
 11
220.18
 21
61.265
  0
LINE
  8
0
 10
220.18
 20
61.265
 11
220.453
 21
61.4432
  0
LINE
  8
0
 10
220.453
 20
61.4432
 11
220.756
 21
61.5633
  0
LINE
  8
0
 10
220.756
 20
61.5633
 11
221.078
 21
61.6204
  0
LINE
  8
0
 10
221.078
 20
61.6204
 11
221.404
 21
61.6122
  0
LINE
  8
0
 10
221.404
 20
61.6122
 11
221.722
 21
61.539
  0
LINE
  8
0
 10
221.722
 20
61.539
 11
222.018
 21
61.4039
  0
LINE
  8
0
 10
222.018
 20
61.4039
 11
222.282
 21
61.2121
  0
LINE
  8
0
 10
222.282
 20
61.2121
 11
222.503
 21
60.9716
  0
LINE
  8
0
 10
222.503
 20
60.9716
 11
222.67
 21
60.6919
  0
LINE
  8
0
 10
222.67
 20
60.6919
 11
222.779
 21
60.3843
  0
LINE
  8
0
 10
222.779
 20
60.3843
 11
222.823
 21
60.0714
  0
LINE
  8
0
 10
222.823
 20
60.0714
 11
222.805
 21
59.7458
  0
LINE
  8
0
 10
222.805
 20
59.7458
 11
222.722
 21
59.4304
  0
LINE
  8
0
 10
222.722
 20
59.4304
 11
222.577
 21
59.1379
  0
LINE
  8
0
 10
222.577
 20
59.1379
 11
222.385
 21
58.8876
  0
LINE
  8
0
 10
222.385
 20
58.8876
 11
222.139
 21
58.6735
  0
LINE
  8
0
 10
222.139
 20
58.6735
 11
221.855
 21
58.5127
  0
LINE
  8
0
 10
221.855
 20
58.5127
 11
221.545
 21
58.4119
  0
LINE
  8
0
 10
221.545
 20
58.4119
 11
221.22
 21
58.3751
  0
LINE
  8
0
 10
221.22
 20
58.3751
 11
220.896
 21
58.4038
  0
LINE
  8
0
 10
310.896
 20
58.4038
 11
310.796
 21
58.4261
  0
LINE
  8
0
 10
310.796
 20
58.4261
 11
310.49
 21
58.5385
  0
LINE
  8
0
 10
310.49
 20
58.5385
 11
310.212
 21
58.7098
  0
LINE
  8
0
 10
310.212
 20
58.7098
 11
309.974
 21
58.9331
  0
LINE
  8
0
 10
309.974
 20
58.9331
 11
309.786
 21
59.1993
  0
LINE
  8
0
 10
309.786
 20
59.1993
 11
309.655
 21
59.4978
  0
LINE
  8
0
 10
309.655
 20
59.4978
 11
309.585
 21
59.8166
  0
LINE
  8
0
 10
309.585
 20
59.8166
 11
309.581
 21
60.1427
  0
LINE
  8
0
 10
309.581
 20
60.1427
 11
309.642
 21
60.4632
  0
LINE
  8
0
 10
309.642
 20
60.4632
 11
309.766
 21
60.7649
  0
LINE
  8
0
 10
309.766
 20
60.7649
 11
309.948
 21
61.0358
  0
LINE
  8
0
 10
309.948
 20
61.0358
 11
310.18
 21
61.265
  0
LINE
  8
0
 10
310.18
 20
61.265
 11
310.453
 21
61.4432
  0
LINE
  8
0
 10
310.453
 20
61.4432
 11
310.756
 21
61.5633
  0
LINE
  8
0
 10
310.756
 20
61.5633
 11
311.078
 21
61.6204
  0
LINE
  8
0
 10
311.078
 20
61.6204
 11
311.404
 21
61.6122
  0
LINE
  8
0
 10
311.404
 20
61.6122
 11
311.722
 21
61.539
  0
LINE
  8
0
 10
311.722
 20
61.539
 11
312.018
 21
61.4039
  0
LINE
  8
0
 10
312.018
 20
61.4039
 11
312.282
 21
61.2121
  0
LINE
  8
0
 10
312.282
 20
61.2121
 11
312.503
 21
60.9716
  0
LINE
  8
0
 10
312.503
 20
60.9716
 11
312.67
 21
60.6919
  0
LINE
  8
0
 10
312.67
 20
60.6919
 11
312.779
 21
60.3843
  0
LINE
  8
0
 10
312.779
 20
60.3843
 11
312.823
 21
60.0714
  0
LINE
  8
0
 10
312.823
 20
60.0714
 11
312.805
 21
59.7458
  0
LINE
  8
0
 10
312.805
 20
59.7458
 11
312.722
 21
59.4304
  0
LINE
  8
0
 10
312.722
 20
59.4304
 11
312.577
 21
59.1379
  0
LINE
  8
0
 10
312.577
 20
59.1379
 11
312.385
 21
58.8876
  0
LINE
  8
0
 10
312.385
 20
58.8876
 11
312.139
 21
58.6735
  0
LINE
  8
0
 10
312.139
 20
58.6735
 11
311.855
 21
58.5127
  0
LINE
  8
0
 10
311.855
 20
58.5127
 11
311.545
 21
58.4119
  0
LINE
  8
0
 10
311.545
 20
58.4119
 11
311.22
 21
58.3751
  0
LINE
  8
0
 10
311.22
 20
58.3751
 11
310.896
 21
58.4038
  0
LINE
  8
0
 10
130.896
 20
58.4038
 11
130.796
 21
58.4261
  0
LINE
  8
0
 10
130.796
 20
58.4261
 11
130.49
 21
58.5385
  0
LINE
  8
0
 10
130.49
 20
58.5385
 11
130.212
 21
58.7098
  0
LINE
  8
0
 10
130.212
 20
58.7098
 11
129.974
 21
58.9331
  0
LINE
  8
0
 10
129.974
 20
58.9331
 11
129.786
 21
59.1993
  0
LINE
  8
0
 10
129.786
 20
59.1993
 11
129.655
 21
59.4978
  0
LINE
  8
0
 10
129.655
 20
59.4978
 11
129.585
 21
59.8166
  0
LINE
  8
0
 10
129.585
 20
59.8166
 11
129.581
 21
60.1427
  0
LINE
  8
0
 10
129.581
 20
60.1427
 11
129.642
 21
60.4632
  0
LINE
  8
0
 10
129.642
 20
60.4632
 11
129.766
 21
60.7649
  0
LINE
  8
0
 10
129.766
 20
60.7649
 11
129.948
 21
61.0358
  0
LINE
  8
0
 10
129.948
 20
61.0358
 11
130.18
 21
61.265
  0
LINE
  8
0
 10
130.18
 20
61.265
 11
130.453
 21
61.4432
  0
LINE
  8
0
 10
130.453
 20
61.4432
 11
130.756
 21
61.5633
  0
LINE
  8
0
 10
130.756
 20
61.5633
 11
131.078
 21
61.6204
  0
LINE
  8
0
 10
131.078
 20
61.6204
 11
131.404
 21
61.6122
  0
LINE
  8
0
 10
131.404
 20
61.6122
 11
131.722
 21
61.539
  0
LINE
  8
0
 10
131.722
 20
61.539
 11
132.018
 21
61.4039
  0
LINE
  8
0
 10
132.018
 20
61.4039
 11
132.282
 21
61.2121
  0
LINE
  8
0
 10
132.282
 20
61.2121
 11
132.503
 21
60.9716
  0
LINE
  8
0
 10
132.503
 20
60.9716
 11
132.67
 21
60.6919
  0
LINE
  8
0
 10
132.67
 20
60.6919
 11
132.779
 21
60.3843
  0
LINE
  8
0
 10
132.779
 20
60.3843
 11
132.823
 21
60.0714
  0
LINE
  8
0
 10
132.823
 20
60.0714
 11
132.805
 21
59.7458
  0
LINE
  8
0
 10
132.805
 20
59.7458
 11
132.722
 21
59.4304
  0
LINE
  8
0
 10
132.722
 20
59.4304
 11
132.577
 21
59.1379
  0
LINE
  8
0
 10
132.577
 20
59.1379
 11
132.385
 21
58.8876
  0
LINE
  8
0
 10
132.385
 20
58.8876
 11
132.139
 21
58.6735
  0
LINE
  8
0
 10
132.139
 20
58.6735
 11
131.855
 21
58.5127
  0
LINE
  8
0
 10
131.855
 20
58.5127
 11
131.545
 21
58.4119
  0
LINE
  8
0
 10
131.545
 20
58.4119
 11
131.22
 21
58.3751
  0
LINE
  8
0
 10
131.22
 20
58.3751
 11
130.896
 21
58.4038
  0
LINE
  8
0
 10
40.8955
 20
58.4038
 11
40.7959
 21
58.4261
  0
LINE
  8
0
 10
40.7959
 20
58.4261
 11
40.4897
 21
58.5385
  0
LINE
  8
0
 10
40.4897
 20
58.5385
 11
40.2121
 21
58.7098
  0
LINE
  8
0
 10
40.2121
 20
58.7098
 11
39.9743
 21
58.9331
  0
LINE
  8
0
 10
39.9743
 20
58.9331
 11
39.786
 21
59.1993
  0
LINE
  8
0
 10
39.786
 20
59.1993
 11
39.6545
 21
59.4978
  0
LINE
  8
0
 10
39.6545
 20
59.4978
 11
39.5854
 21
59.8166
  0
LINE
  8
0
 10
39.5854
 20
59.8166
 11
39.5813
 21
60.1427
  0
LINE
  8
0
 10
39.5813
 20
60.1427
 11
39.6424
 21
60.4632
  0
LINE
  8
0
 10
39.6424
 20
60.4632
 11
39.7663
 21
60.7649
  0
LINE
  8
0
 10
39.7663
 20
60.7649
 11
39.9479
 21
61.0358
  0
LINE
  8
0
 10
39.9479
 20
61.0358
 11
40.18
 21
61.265
  0
LINE
  8
0
 10
40.18
 20
61.265
 11
40.4532
 21
61.4432
  0
LINE
  8
0
 10
40.4532
 20
61.4432
 11
40.7565
 21
61.5633
  0
LINE
  8
0
 10
40.7565
 20
61.5633
 11
41.0776
 21
61.6204
  0
LINE
  8
0
 10
41.0776
 20
61.6204
 11
41.4037
 21
61.6122
  0
LINE
  8
0
 10
41.4037
 20
61.6122
 11
41.7215
 21
61.539
  0
LINE
  8
0
 10
41.7215
 20
61.539
 11
42.0184
 21
61.4039
  0
LINE
  8
0
 10
42.0184
 20
61.4039
 11
42.2823
 21
61.2121
  0
LINE
  8
0
 10
42.2823
 20
61.2121
 11
42.5025
 21
60.9716
  0
LINE
  8
0
 10
42.5025
 20
60.9716
 11
42.6703
 21
60.6919
  0
LINE
  8
0
 10
42.6703
 20
60.6919
 11
42.7789
 21
60.3843
  0
LINE
  8
0
 10
42.7789
 20
60.3843
 11
42.8234
 21
60.0714
  0
LINE
  8
0
 10
42.8234
 20
60.0714
 11
42.805
 21
59.7458
  0
LINE
  8
0
 10
42.805
 20
59.7458
 11
42.7219
 21
59.4304
  0
LINE
  8
0
 10
42.7219
 20
59.4304
 11
42.5775
 21
59.1379
  0
LINE
  8
0
 10
42.5775
 20
59.1379
 11
42.3846
 21
58.8876
  0
LINE
  8
0
 10
42.3846
 20
58.8876
 11
42.1386
 21
58.6735
  0
LINE
  8
0
 10
42.1386
 20
58.6735
 11
41.8547
 21
58.5127
  0
LINE
  8
0
 10
41.8547
 20
58.5127
 11
41.5445
 21
58.4119
  0
LINE
  8
0
 10
41.5445
 20
58.4119
 11
41.2204
 21
58.3751
  0
LINE
  8
0
 10
41.2204
 20
58.3751
 11
40.8955
 21
58.4038
  0
LINE
  8
0
 10
62.5159
 20
20.9
 11
62.5159
 21
21.114
  0
LINE
  8
0
 10
62.5159
 20
21.114
 11
63.1759
 21
21.271
  0
LINE
  8
0
 10
63.1759
 20
21.271
 11
63.1759
 21
24.981
  0
LINE
  8
0
 10
63.1759
 20
24.981
 11
62.4059
 21
24.981
  0
LINE
  8
0
 10
62.4059
 20
24.981
 11
62.4059
 21
25.214
  0
LINE
  8
0
 10
62.4059
 20
25.214
 11
63.1759
 21
25.399
  0
LINE
  8
0
 10
63.1759
 20
25.399
 11
63.1759
 21
25.7255
  0
LINE
  8
0
 10
63.1759
 20
25.7255
 11
63.2135
 21
26.2739
  0
LINE
  8
0
 10
63.2135
 20
26.2739
 11
63.3075
 21
26.6947
  0
LINE
  8
0
 10
63.3075
 20
26.6947
 11
63.4379
 21
27.0111
  0
LINE
  8
0
 10
63.4379
 20
27.0111
 11
63.5995
 21
27.2601
  0
LINE
  8
0
 10
63.5995
 20
27.2601
 11
63.7874
 21
27.4536
  0
LINE
  8
0
 10
63.7874
 20
27.4536
 11
63.9958
 21
27.5939
  0
LINE
  8
0
 10
63.9958
 20
27.5939
 11
64.231
 21
27.6892
  0
LINE
  8
0
 10
64.231
 20
27.6892
 11
64.5145
 21
27.7415
  0
LINE
  8
0
 10
64.5145
 20
27.7415
 11
64.8945
 21
27.7389
  0
LINE
  8
0
 10
64.8945
 20
27.7389
 11
65.3469
 21
27.658
  0
LINE
  8
0
 10
65.3469
 20
27.658
 11
65.3469
 21
26.684
  0
LINE
  8
0
 10
65.3469
 20
26.684
 11
65.1139
 21
26.684
  0
LINE
  8
0
 10
65.1139
 20
26.684
 11
64.8999
 21
27.268
  0
LINE
  8
0
 10
64.8999
 20
27.268
 11
64.7314
 21
27.3406
  0
LINE
  8
0
 10
64.7314
 20
27.3406
 11
64.4781
 21
27.3672
  0
LINE
  8
0
 10
64.4781
 20
27.3672
 11
64.2651
 21
27.3081
  0
LINE
  8
0
 10
64.2651
 20
27.3081
 11
64.1189
 21
27.1631
  0
LINE
  8
0
 10
64.1189
 20
27.1631
 11
64.0135
 21
26.8498
  0
LINE
  8
0
 10
64.0135
 20
26.8498
 11
63.9639
 21
25.38
  0
LINE
  8
0
 10
63.9639
 20
25.38
 11
65.1519
 21
25.38
  0
LINE
  8
0
 10
65.1519
 20
25.38
 11
65.1519
 21
24.981
  0
LINE
  8
0
 10
65.1519
 20
24.981
 11
63.9639
 21
24.981
  0
LINE
  8
0
 10
63.9639
 20
24.981
 11
63.9639
 21
21.271
  0
LINE
  8
0
 10
63.9639
 20
21.271
 11
64.9289
 21
21.114
  0
LINE
  8
0
 10
64.9289
 20
21.114
 11
64.9289
 21
20.9
  0
LINE
  8
0
 10
64.9289
 20
20.9
 11
62.5159
 21
20.9
  0
LINE
  8
0
 10
238.091
 20
20.9
 11
238.091
 21
21.114
  0
LINE
  8
0
 10
238.091
 20
21.114
 11
238.851
 21
21.233
  0
LINE
  8
0
 10
238.851
 20
21.233
 11
238.851
 21
27.292
  0
LINE
  8
0
 10
238.851
 20
27.292
 11
238.091
 21
27.406
  0
LINE
  8
0
 10
238.091
 20
27.406
 11
238.091
 21
27.62
  0
LINE
  8
0
 10
238.091
 20
27.62
 11
239.639
 21
27.62
  0
LINE
  8
0
 10
239.639
 20
27.62
 11
239.639
 21
21.233
  0
LINE
  8
0
 10
239.639
 20
21.233
 11
240.404
 21
21.114
  0
LINE
  8
0
 10
240.404
 20
21.114
 11
240.404
 21
20.9
  0
LINE
  8
0
 10
240.404
 20
20.9
 11
238.091
 21
20.9
  0
LINE
  8
0
 10
153.361
 20
20.9
 11
153.361
 21
21.114
  0
LINE
  8
0
 10
153.361
 20
21.114
 11
153.926
 21
21.233
  0
LINE
  8
0
 10
153.926
 20
21.233
 11
153.926
 21
27.292
  0
LINE
  8
0
 10
153.926
 20
27.292
 11
153.261
 21
27.406
  0
LINE
  8
0
 10
153.261
 20
27.406
 11
153.261
 21
27.62
  0
LINE
  8
0
 10
153.261
 20
27.62
 11
154.715
 21
27.62
  0
LINE
  8
0
 10
154.715
 20
27.62
 11
154.715
 21
25.7183
  0
LINE
  8
0
 10
154.715
 20
25.7183
 11
154.681
 21
25.028
  0
LINE
  8
0
 10
154.681
 20
25.028
 11
154.95
 21
25.1661
  0
LINE
  8
0
 10
154.95
 20
25.1661
 11
155.356
 21
25.3304
  0
LINE
  8
0
 10
155.356
 20
25.3304
 11
155.899
 21
25.4798
  0
LINE
  8
0
 10
155.899
 20
25.4798
 11
156.411
 21
25.4947
  0
LINE
  8
0
 10
156.411
 20
25.4947
 11
156.714
 21
25.4178
  0
LINE
  8
0
 10
156.714
 20
25.4178
 11
156.943
 21
25.2858
  0
LINE
  8
0
 10
156.943
 20
25.2858
 11
157.123
 21
25.0958
  0
LINE
  8
0
 10
157.123
 20
25.0958
 11
157.261
 21
24.8297
  0
LINE
  8
0
 10
157.261
 20
24.8297
 11
157.345
 21
24.4566
  0
LINE
  8
0
 10
157.345
 20
24.4566
 11
157.36
 21
21.233
  0
LINE
  8
0
 10
157.36
 20
21.233
 11
157.902
 21
21.114
  0
LINE
  8
0
 10
157.902
 20
21.114
 11
157.902
 21
20.9
  0
LINE
  8
0
 10
157.902
 20
20.9
 11
155.978
 21
20.9
  0
LINE
  8
0
 10
155.978
 20
20.9
 11
155.978
 21
21.114
  0
LINE
  8
0
 10
155.978
 20
21.114
 11
156.572
 21
21.233
  0
LINE
  8
0
 10
156.572
 20
21.233
 11
156.572
 21
24.1687
  0
LINE
  8
0
 10
156.572
 20
24.1687
 11
156.548
 21
24.392
  0
LINE
  8
0
 10
156.548
 20
24.392
 11
156.497
 21
24.5601
  0
LINE
  8
0
 10
156.497
 20
24.5601
 11
156.427
 21
24.6836
  0
LINE
  8
0
 10
156.427
 20
24.6836
 11
156.336
 21
24.7838
  0
LINE
  8
0
 10
156.336
 20
24.7838
 11
156.222
 21
24.8607
  0
LINE
  8
0
 10
156.222
 20
24.8607
 11
156.076
 21
24.917
  0
LINE
  8
0
 10
156.076
 20
24.917
 11
155.893
 21
24.9478
  0
LINE
  8
0
 10
155.893
 20
24.9478
 11
155.561
 21
24.9442
  0
LINE
  8
0
 10
155.561
 20
24.9442
 11
154.715
 21
24.814
  0
LINE
  8
0
 10
154.715
 20
24.814
 11
154.715
 21
21.233
  0
LINE
  8
0
 10
154.715
 20
21.233
 11
155.318
 21
21.114
  0
LINE
  8
0
 10
155.318
 20
21.114
 11
155.318
 21
20.9
  0
LINE
  8
0
 10
155.318
 20
20.9
 11
153.361
 21
20.9
  0
LINE
  8
0
 10
335.286
 20
20.9
 11
335.286
 21
21.114
  0
LINE
  8
0
 10
335.286
 20
21.114
 11
335.852
 21
21.233
  0
LINE
  8
0
 10
335.852
 20
21.233
 11
335.852
 21
27.292
  0
LINE
  8
0
 10
335.852
 20
27.292
 11
335.191
 21
27.406
  0
LINE
  8
0
 10
335.191
 20
27.406
 11
335.191
 21
27.62
  0
LINE
  8
0
 10
335.191
 20
27.62
 11
336.64
 21
27.62
  0
LINE
  8
0
 10
336.64
 20
27.62
 11
336.64
 21
23.059
  0
LINE
  8
0
 10
336.64
 20
23.059
 11
338.469
 21
25.038
  0
LINE
  8
0
 10
338.469
 20
25.038
 11
338.003
 21
25.166
  0
LINE
  8
0
 10
338.003
 20
25.166
 11
338.003
 21
25.38
  0
LINE
  8
0
 10
338.003
 20
25.38
 11
339.58
 21
25.38
  0
LINE
  8
0
 10
339.58
 20
25.38
 11
339.58
 21
25.166
  0
LINE
  8
0
 10
339.58
 20
25.166
 11
339.025
 21
25.057
  0
LINE
  8
0
 10
339.025
 20
25.057
 11
337.752
 21
23.75
  0
LINE
  8
0
 10
337.752
 20
23.75
 11
339.386
 21
21.223
  0
LINE
  8
0
 10
339.386
 20
21.223
 11
339.87
 21
21.114
  0
LINE
  8
0
 10
339.87
 20
21.114
 11
339.87
 21
20.9
  0
LINE
  8
0
 10
339.87
 20
20.9
 11
338.041
 21
20.9
  0
LINE
  8
0
 10
338.041
 20
20.9
 11
338.041
 21
21.114
  0
LINE
  8
0
 10
338.041
 20
21.114
 11
338.45
 21
21.233
  0
LINE
  8
0
 10
338.45
 20
21.233
 11
337.224
 21
23.164
  0
LINE
  8
0
 10
337.224
 20
23.164
 11
336.64
 21
22.52
  0
LINE
  8
0
 10
336.64
 20
22.52
 11
336.64
 21
21.233
  0
LINE
  8
0
 10
336.64
 20
21.233
 11
337.115
 21
21.114
  0
LINE
  8
0
 10
337.115
 20
21.114
 11
337.115
 21
20.9
  0
LINE
  8
0
 10
337.115
 20
20.9
 11
335.286
 21
20.9
  0
LINE
  8
0
 10
146.884
 20
26.3722
 11
146.858
 21
26.383
  0
LINE
  8
0
 10
146.858
 20
26.383
 11
146.723
 21
26.4733
  0
LINE
  8
0
 10
146.723
 20
26.4733
 11
146.608
 21
26.6189
  0
LINE
  8
0
 10
146.608
 20
26.6189
 11
146.558
 21
26.7692
  0
LINE
  8
0
 10
146.558
 20
26.7692
 11
146.559
 21
26.9451
  0
LINE
  8
0
 10
146.559
 20
26.9451
 11
146.611
 21
27.097
  0
LINE
  8
0
 10
146.611
 20
27.097
 11
146.808
 21
27.3018
  0
LINE
  8
0
 10
146.808
 20
27.3018
 11
146.956
 21
27.3599
  0
LINE
  8
0
 10
146.956
 20
27.3599
 11
147.181
 21
27.3586
  0
LINE
  8
0
 10
147.181
 20
27.3586
 11
147.329
 21
27.2985
  0
LINE
  8
0
 10
147.329
 20
27.2985
 11
147.53
 21
27.0802
  0
LINE
  8
0
 10
147.53
 20
27.0802
 11
147.577
 21
26.9258
  0
LINE
  8
0
 10
147.577
 20
26.9258
 11
147.571
 21
26.7505
  0
LINE
  8
0
 10
147.571
 20
26.7505
 11
147.515
 21
26.6024
  0
LINE
  8
0
 10
147.515
 20
26.6024
 11
147.405
 21
26.4688
  0
LINE
  8
0
 10
147.405
 20
26.4688
 11
147.268
 21
26.3804
  0
LINE
  8
0
 10
147.268
 20
26.3804
 11
147.111
 21
26.3419
  0
LINE
  8
0
 10
147.111
 20
26.3419
 11
146.884
 21
26.3722
  0
LINE
  8
0
 10
230.532
 20
20.8557
 11
230.319
 21
20.877
  0
LINE
  8
0
 10
230.319
 20
20.877
 11
229.673
 21
20.9886
  0
LINE
  8
0
 10
229.673
 20
20.9886
 11
229.061
 21
21.173
  0
LINE
  8
0
 10
229.061
 20
21.173
 11
229.061
 21
22.646
  0
LINE
  8
0
 10
229.061
 20
22.646
 11
229.37
 21
22.646
  0
LINE
  8
0
 10
229.37
 20
22.646
 11
229.536
 21
21.786
  0
LINE
  8
0
 10
229.536
 20
21.786
 11
229.771
 21
21.5791
  0
LINE
  8
0
 10
229.771
 20
21.5791
 11
230.428
 21
21.297
  0
LINE
  8
0
 10
230.428
 20
21.297
 11
230.771
 21
21.2327
  0
LINE
  8
0
 10
230.771
 20
21.2327
 11
231.365
 21
21.2518
  0
LINE
  8
0
 10
231.365
 20
21.2518
 11
231.702
 21
21.3509
  0
LINE
  8
0
 10
231.702
 20
21.3509
 11
231.955
 21
21.4985
  0
LINE
  8
0
 10
231.955
 20
21.4985
 11
232.157
 21
21.6985
  0
LINE
  8
0
 10
232.157
 20
21.6985
 11
232.296
 21
21.9341
  0
LINE
  8
0
 10
232.296
 20
21.9341
 11
232.38
 21
22.2263
  0
LINE
  8
0
 10
232.38
 20
22.2263
 11
232.398
 21
22.6016
  0
LINE
  8
0
 10
232.398
 20
22.6016
 11
232.354
 21
22.848
  0
LINE
  8
0
 10
232.354
 20
22.848
 11
232.211
 21
23.1267
  0
LINE
  8
0
 10
232.211
 20
23.1267
 11
231.983
 21
23.3608
  0
LINE
  8
0
 10
231.983
 20
23.3608
 11
231.565
 21
23.6087
  0
LINE
  8
0
 10
231.565
 20
23.6087
 11
230.776
 21
23.8977
  0
LINE
  8
0
 10
230.776
 20
23.8977
 11
230.036
 21
24.1909
  0
LINE
  8
0
 10
230.036
 20
24.1909
 11
229.657
 21
24.427
  0
LINE
  8
0
 10
229.657
 20
24.427
 11
229.402
 21
24.6747
  0
LINE
  8
0
 10
229.402
 20
24.6747
 11
229.173
 21
25.0526
  0
LINE
  8
0
 10
229.173
 20
25.0526
 11
229.058
 21
25.5781
  0
LINE
  8
0
 10
229.058
 20
25.5781
 11
229.063
 21
25.9399
  0
LINE
  8
0
 10
229.063
 20
25.9399
 11
229.119
 21
26.221
  0
LINE
  8
0
 10
229.119
 20
26.221
 11
229.218
 21
26.465
  0
LINE
  8
0
 10
229.218
 20
26.465
 11
229.363
 21
26.6833
  0
LINE
  8
0
 10
229.363
 20
26.6833
 11
229.561
 21
26.883
  0
LINE
  8
0
 10
229.561
 20
26.883
 11
229.814
 21
27.0583
  0
LINE
  8
0
 10
229.814
 20
27.0583
 11
230.121
 21
27.1985
  0
LINE
  8
0
 10
230.121
 20
27.1985
 11
230.511
 21
27.3039
  0
LINE
  8
0
 10
230.511
 20
27.3039
 11
231
 21
27.3594
  0
LINE
  8
0
 10
231
 20
27.3594
 11
231.68
 21
27.3454
  0
LINE
  8
0
 10
231.68
 20
27.3454
 11
232.876
 21
27.16
  0
LINE
  8
0
 10
232.876
 20
27.16
 11
232.876
 21
25.835
  0
LINE
  8
0
 10
232.876
 20
25.835
 11
232.567
 21
25.835
  0
LINE
  8
0
 10
232.567
 20
25.835
 11
232.401
 21
26.614
  0
LINE
  8
0
 10
232.401
 20
26.614
 11
232.339
 21
26.6572
  0
LINE
  8
0
 10
232.339
 20
26.6572
 11
232.008
 21
26.827
  0
LINE
  8
0
 10
232.008
 20
26.827
 11
231.613
 21
26.9331
  0
LINE
  8
0
 10
231.613
 20
26.9331
 11
231.134
 21
26.9642
  0
LINE
  8
0
 10
231.134
 20
26.9642
 11
230.645
 21
26.9023
  0
LINE
  8
0
 10
230.645
 20
26.9023
 11
230.31
 21
26.7712
  0
LINE
  8
0
 10
230.31
 20
26.7712
 11
230.076
 21
26.5911
  0
LINE
  8
0
 10
230.076
 20
26.5911
 11
229.932
 21
26.3817
  0
LINE
  8
0
 10
229.932
 20
26.3817
 11
229.859
 21
26.1325
  0
LINE
  8
0
 10
229.859
 20
26.1325
 11
229.865
 21
25.8079
  0
LINE
  8
0
 10
229.865
 20
25.8079
 11
229.978
 21
25.5073
  0
LINE
  8
0
 10
229.978
 20
25.5073
 11
230.232
 21
25.2326
  0
LINE
  8
0
 10
230.232
 20
25.2326
 11
230.581
 21
25.0191
  0
LINE
  8
0
 10
230.581
 20
25.0191
 11
231.509
 21
24.6731
  0
LINE
  8
0
 10
231.509
 20
24.6731
 11
232.122
 21
24.4261
  0
LINE
  8
0
 10
232.122
 20
24.4261
 11
232.499
 21
24.2104
  0
LINE
  8
0
 10
232.499
 20
24.2104
 11
232.794
 21
23.948
  0
LINE
  8
0
 10
232.794
 20
23.948
 11
233.049
 21
23.5624
  0
LINE
  8
0
 10
233.049
 20
23.5624
 11
233.182
 21
23.1306
  0
LINE
  8
0
 10
233.182
 20
23.1306
 11
233.193
 21
22.4718
  0
LINE
  8
0
 10
233.193
 20
22.4718
 11
233.133
 21
22.1504
  0
LINE
  8
0
 10
233.133
 20
22.1504
 11
233.034
 21
21.8726
  0
LINE
  8
0
 10
233.034
 20
21.8726
 11
232.9
 21
21.6344
  0
LINE
  8
0
 10
232.9
 20
21.6344
 11
232.729
 21
21.4239
  0
LINE
  8
0
 10
232.729
 20
21.4239
 11
232.52
 21
21.2422
  0
LINE
  8
0
 10
232.52
 20
21.2422
 11
232.279
 21
21.0937
  0
LINE
  8
0
 10
232.279
 20
21.0937
 11
231.978
 21
20.9704
  0
LINE
  8
0
 10
231.978
 20
20.9704
 11
231.61
 21
20.8819
  0
LINE
  8
0
 10
231.61
 20
20.8819
 11
231.163
 21
20.8386
  0
LINE
  8
0
 10
231.163
 20
20.8386
 11
230.532
 21
20.8557
  0
LINE
  8
0
 10
320.527
 20
21.152
 11
321.344
 21
21.28
  0
LINE
  8
0
 10
321.344
 20
21.28
 11
321.344
 21
26.925
  0
LINE
  8
0
 10
321.344
 20
26.925
 11
320.527
 21
27.048
  0
LINE
  8
0
 10
320.527
 20
27.048
 11
320.527
 21
27.3
  0
LINE
  8
0
 10
320.527
 20
27.3
 11
323.439
 21
27.3
  0
LINE
  8
0
 10
323.439
 20
27.3
 11
324.158
 21
27.2615
  0
LINE
  8
0
 10
324.158
 20
27.2615
 11
324.65
 21
27.171
  0
LINE
  8
0
 10
324.65
 20
27.171
 11
324.994
 21
27.052
  0
LINE
  8
0
 10
324.994
 20
27.052
 11
325.245
 21
26.9125
  0
LINE
  8
0
 10
325.245
 20
26.9125
 11
325.431
 21
26.7531
  0
LINE
  8
0
 10
325.431
 20
26.7531
 11
325.572
 21
26.5714
  0
LINE
  8
0
 10
325.572
 20
26.5714
 11
325.675
 21
26.3612
  0
LINE
  8
0
 10
325.675
 20
26.3612
 11
325.745
 21
26.1004
  0
LINE
  8
0
 10
325.745
 20
26.1004
 11
325.771
 21
25.781
  0
LINE
  8
0
 10
325.771
 20
25.781
 11
325.744
 21
25.4779
  0
LINE
  8
0
 10
325.744
 20
25.4779
 11
325.642
 21
25.1487
  0
LINE
  8
0
 10
325.642
 20
25.1487
 11
325.463
 21
24.857
  0
LINE
  8
0
 10
325.463
 20
24.857
 11
325.206
 21
24.6051
  0
LINE
  8
0
 10
325.206
 20
24.6051
 11
324.885
 21
24.4146
  0
LINE
  8
0
 10
324.885
 20
24.4146
 11
324.46
 21
24.277
  0
LINE
  8
0
 10
324.46
 20
24.277
 11
324.966
 21
24.1886
  0
LINE
  8
0
 10
324.966
 20
24.1886
 11
325.375
 21
24.0453
  0
LINE
  8
0
 10
325.375
 20
24.0453
 11
325.68
 21
23.8683
  0
LINE
  8
0
 10
325.68
 20
23.8683
 11
325.921
 21
23.6543
  0
LINE
  8
0
 10
325.921
 20
23.6543
 11
326.089
 21
23.4234
  0
LINE
  8
0
 10
326.089
 20
23.4234
 11
326.201
 21
23.1645
  0
LINE
  8
0
 10
326.201
 20
23.1645
 11
326.256
 21
22.868
  0
LINE
  8
0
 10
326.256
 20
22.868
 11
326.246
 21
22.4757
  0
LINE
  8
0
 10
326.246
 20
22.4757
 11
326.19
 21
22.1838
  0
LINE
  8
0
 10
326.19
 20
22.1838
 11
326.097
 21
21.9319
  0
LINE
  8
0
 10
326.097
 20
21.9319
 11
325.972
 21
21.7164
  0
LINE
  8
0
 10
325.972
 20
21.7164
 11
325.812
 21
21.5253
  0
LINE
  8
0
 10
325.812
 20
21.5253
 11
325.606
 21
21.3513
  0
LINE
  8
0
 10
325.606
 20
21.3513
 11
325.352
 21
21.1994
  0
LINE
  8
0
 10
325.352
 20
21.1994
 11
325.032
 21
21.0695
  0
LINE
  8
0
 10
325.032
 20
21.0695
 11
324.634
 21
20.9705
  0
LINE
  8
0
 10
324.634
 20
20.9705
 11
324.111
 21
20.9095
  0
LINE
  8
0
 10
324.111
 20
20.9095
 11
320.527
 21
20.9
  0
LINE
  8
0
 10
320.527
 20
20.9
 11
320.527
 21
21.152
  0
LINE
  8
0
 10
323.676
 20
24.4412
 11
324.073
 21
24.5295
  0
LINE
  8
0
 10
324.073
 20
24.5295
 11
324.341
 21
24.6598
  0
LINE
  8
0
 10
324.341
 20
24.6598
 11
324.525
 21
24.8197
  0
LINE
  8
0
 10
324.525
 20
24.8197
 11
324.658
 21
25.0212
  0
LINE
  8
0
 10
324.658
 20
25.0212
 11
324.753
 21
25.296
  0
LINE
  8
0
 10
324.753
 20
25.296
 11
324.797
 21
25.6912
  0
LINE
  8
0
 10
324.797
 20
25.6912
 11
324.771
 21
26.0325
  0
LINE
  8
0
 10
324.771
 20
26.0325
 11
324.685
 21
26.2961
  0
LINE
  8
0
 10
324.685
 20
26.2961
 11
324.553
 21
26.4913
  0
LINE
  8
0
 10
324.553
 20
26.4913
 11
324.371
 21
26.6423
  0
LINE
  8
0
 10
324.371
 20
26.6423
 11
324.095
 21
26.7655
  0
LINE
  8
0
 10
324.095
 20
26.7655
 11
323.654
 21
26.8523
  0
LINE
  8
0
 10
323.654
 20
26.8523
 11
322.261
 21
26.872
  0
LINE
  8
0
 10
322.261
 20
26.872
 11
322.261
 21
24.42
  0
LINE
  8
0
 10
322.261
 20
24.42
 11
323.301
 21
24.42
  0
LINE
  8
0
 10
323.301
 20
24.42
 11
323.676
 21
24.4412
  0
LINE
  8
0
 10
324.142
 20
21.3639
 11
324.217
 21
21.3772
  0
LINE
  8
0
 10
324.217
 20
21.3772
 11
324.567
 21
21.4823
  0
LINE
  8
0
 10
324.567
 20
21.4823
 11
324.82
 21
21.6253
  0
LINE
  8
0
 10
324.82
 20
21.6253
 11
325.001
 21
21.7968
  0
LINE
  8
0
 10
325.001
 20
21.7968
 11
325.137
 21
22.0108
  0
LINE
  8
0
 10
325.137
 20
22.0108
 11
325.232
 21
22.2861
  0
LINE
  8
0
 10
325.232
 20
22.2861
 11
325.276
 21
22.6538
  0
LINE
  8
0
 10
325.276
 20
22.6538
 11
325.253
 21
23.0056
  0
LINE
  8
0
 10
325.253
 20
23.0056
 11
325.175
 21
23.2686
  0
LINE
  8
0
 10
325.175
 20
23.2686
 11
325.059
 21
23.4693
  0
LINE
  8
0
 10
325.059
 20
23.4693
 11
324.898
 21
23.6352
  0
LINE
  8
0
 10
324.898
 20
23.6352
 11
324.674
 21
23.7754
  0
LINE
  8
0
 10
324.674
 20
23.7754
 11
324.349
 21
23.8921
  0
LINE
  8
0
 10
324.349
 20
23.8921
 11
323.838
 21
23.9747
  0
LINE
  8
0
 10
323.838
 20
23.9747
 11
322.261
 21
23.992
  0
LINE
  8
0
 10
322.261
 20
23.992
 11
322.261
 21
21.356
  0
LINE
  8
0
 10
322.261
 20
21.356
 11
323.621
 21
21.328
  0
LINE
  8
0
 10
323.621
 20
21.328
 11
324.142
 21
21.3639
  0
LINE
  8
0
 10
52.3733
 20
20.9
 11
52.3733
 21
21.152
  0
LINE
  8
0
 10
52.3733
 20
21.152
 11
53.1903
 21
21.28
  0
LINE
  8
0
 10
53.1903
 20
21.28
 11
53.1903
 21
26.925
  0
LINE
  8
0
 10
53.1903
 20
26.925
 11
52.3733
 21
27.048
  0
LINE
  8
0
 10
52.3733
 20
27.048
 11
52.3733
 21
27.3
  0
LINE
  8
0
 10
52.3733
 20
27.3
 11
55.0903
 21
27.3
  0
LINE
  8
0
 10
55.0903
 20
27.3
 11
55.0903
 21
27.048
  0
LINE
  8
0
 10
55.0903
 20
27.048
 11
54.1073
 21
26.925
  0
LINE
  8
0
 10
54.1073
 20
26.925
 11
54.1073
 21
21.309
  0
LINE
  8
0
 10
54.1073
 20
21.309
 11
55.4721
 21
21.3093
  0
LINE
  8
0
 10
55.4721
 20
21.3093
 11
56.8483
 21
21.406
  0
LINE
  8
0
 10
56.8483
 20
21.406
 11
57.1423
 21
22.756
  0
LINE
  8
0
 10
57.1423
 20
22.756
 11
57.4513
 21
22.756
  0
LINE
  8
0
 10
57.4513
 20
22.756
 11
57.3653
 21
20.9
  0
LINE
  8
0
 10
57.3653
 20
20.9
 11
52.3733
 21
20.9
  0
LINE
  8
0
 10
139.791
 20
20.9
 11
139.791
 21
21.152
  0
LINE
  8
0
 10
139.791
 20
21.152
 11
140.546
 21
21.28
  0
LINE
  8
0
 10
140.546
 20
21.28
 11
140.546
 21
26.925
  0
LINE
  8
0
 10
140.546
 20
26.925
 11
139.729
 21
27.048
  0
LINE
  8
0
 10
139.729
 20
27.048
 11
139.729
 21
27.3
  0
LINE
  8
0
 10
139.729
 20
27.3
 11
142.48
 21
27.3
  0
LINE
  8
0
 10
142.48
 20
27.3
 11
142.862
 21
27.2888
  0
LINE
  8
0
 10
142.862
 20
27.2888
 11
143.406
 21
27.2232
  0
LINE
  8
0
 10
143.406
 20
27.2232
 11
143.798
 21
27.1209
  0
LINE
  8
0
 10
143.798
 20
27.1209
 11
144.092
 21
26.9929
  0
LINE
  8
0
 10
144.092
 20
26.9929
 11
144.317
 21
26.844
  0
LINE
  8
0
 10
144.317
 20
26.844
 11
144.486
 21
26.678
  0
LINE
  8
0
 10
144.486
 20
26.678
 11
144.621
 21
26.4822
  0
LINE
  8
0
 10
144.621
 20
26.4822
 11
144.724
 21
26.2459
  0
LINE
  8
0
 10
144.724
 20
26.2459
 11
144.791
 21
25.9646
  0
LINE
  8
0
 10
144.791
 20
25.9646
 11
144.817
 21
25.606
  0
LINE
  8
0
 10
144.817
 20
25.606
 11
144.782
 21
25.2208
  0
LINE
  8
0
 10
144.782
 20
25.2208
 11
144.67
 21
24.8536
  0
LINE
  8
0
 10
144.67
 20
24.8536
 11
144.481
 21
24.5247
  0
LINE
  8
0
 10
144.481
 20
24.5247
 11
144.223
 21
24.2456
  0
LINE
  8
0
 10
144.223
 20
24.2456
 11
143.906
 21
24.029
  0
LINE
  8
0
 10
143.906
 20
24.029
 11
143.51
 21
23.869
  0
LINE
  8
0
 10
143.51
 20
23.869
 11
145.235
 21
21.28
  0
LINE
  8
0
 10
145.235
 20
21.28
 11
145.923
 21
21.152
  0
LINE
  8
0
 10
145.923
 20
21.152
 11
145.923
 21
20.9
  0
LINE
  8
0
 10
145.923
 20
20.9
 11
144.399
 21
20.9
  0
LINE
  8
0
 10
144.399
 20
20.9
 11
142.608
 21
23.736
  0
LINE
  8
0
 10
142.608
 20
23.736
 11
141.463
 21
23.736
  0
LINE
  8
0
 10
141.463
 20
23.736
 11
141.463
 21
21.28
  0
LINE
  8
0
 10
141.463
 20
21.28
 11
142.427
 21
21.152
  0
LINE
  8
0
 10
142.427
 20
21.152
 11
142.427
 21
20.9
  0
LINE
  8
0
 10
142.427
 20
20.9
 11
139.791
 21
20.9
  0
LINE
  8
0
 10
142.562
 20
24.1719
 11
143.022
 21
24.24
  0
LINE
  8
0
 10
143.022
 20
24.24
 11
143.321
 21
24.3501
  0
LINE
  8
0
 10
143.321
 20
24.3501
 11
143.518
 21
24.483
  0
LINE
  8
0
 10
143.518
 20
24.483
 11
143.663
 21
24.6524
  0
LINE
  8
0
 10
143.663
 20
24.6524
 11
143.779
 21
24.8924
  0
LINE
  8
0
 10
143.779
 20
24.8924
 11
143.854
 21
25.2287
  0
LINE
  8
0
 10
143.854
 20
25.2287
 11
143.866
 21
25.7159
  0
LINE
  8
0
 10
143.866
 20
25.7159
 11
143.804
 21
26.0905
  0
LINE
  8
0
 10
143.804
 20
26.0905
 11
143.699
 21
26.345
  0
LINE
  8
0
 10
143.699
 20
26.345
 11
143.561
 21
26.5266
  0
LINE
  8
0
 10
143.561
 20
26.5266
 11
143.384
 21
26.6602
  0
LINE
  8
0
 10
143.384
 20
26.6602
 11
143.116
 21
26.7724
  0
LINE
  8
0
 10
143.116
 20
26.7724
 11
142.68
 21
26.8535
  0
LINE
  8
0
 10
142.68
 20
26.8535
 11
141.463
 21
26.872
  0
LINE
  8
0
 10
141.463
 20
26.872
 11
141.463
 21
24.164
  0
LINE
  8
0
 10
141.463
 20
24.164
 11
142.304
 21
24.164
  0
LINE
  8
0
 10
142.304
 20
24.164
 11
142.562
 21
24.1719
  0
LINE
  8
0
 10
66.5236
 20
20.8801
 11
66.4511
 21
20.9054
  0
LINE
  8
0
 10
66.4511
 20
20.9054
 11
66.2341
 21
21.041
  0
LINE
  8
0
 10
66.2341
 20
21.041
 11
66.0733
 21
21.2562
  0
LINE
  8
0
 10
66.0733
 20
21.2562
 11
65.9674
 21
21.5952
  0
LINE
  8
0
 10
65.9674
 20
21.5952
 11
65.948
 21
24.981
  0
LINE
  8
0
 10
65.948
 20
24.981
 11
65.364
 21
24.981
  0
LINE
  8
0
 10
65.364
 20
24.981
 11
65.364
 21
25.195
  0
LINE
  8
0
 10
65.364
 20
25.195
 11
65.958
 21
25.38
  0
LINE
  8
0
 10
65.958
 20
25.38
 11
66.438
 21
26.392
  0
LINE
  8
0
 10
66.438
 20
26.392
 11
66.737
 21
26.392
  0
LINE
  8
0
 10
66.737
 20
26.392
 11
66.737
 21
25.38
  0
LINE
  8
0
 10
66.737
 20
25.38
 11
67.758
 21
25.38
  0
LINE
  8
0
 10
67.758
 20
25.38
 11
67.758
 21
24.981
  0
LINE
  8
0
 10
67.758
 20
24.981
 11
66.737
 21
24.981
  0
LINE
  8
0
 10
66.737
 20
24.981
 11
66.737
 21
21.95
  0
LINE
  8
0
 10
66.737
 20
21.95
 11
66.743
 21
21.8294
  0
LINE
  8
0
 10
66.743
 20
21.8294
 11
66.7853
 21
21.6407
  0
LINE
  8
0
 10
66.7853
 20
21.6407
 11
66.9461
 21
21.4225
  0
LINE
  8
0
 10
66.9461
 20
21.4225
 11
67.1123
 21
21.3449
  0
LINE
  8
0
 10
67.1123
 20
21.3449
 11
67.915
 21
21.406
  0
LINE
  8
0
 10
67.915
 20
21.406
 11
67.915
 21
21.097
  0
LINE
  8
0
 10
67.915
 20
21.097
 11
67.8676
 21
21.067
  0
LINE
  8
0
 10
67.8676
 20
21.067
 11
67.3955
 21
20.9
  0
LINE
  8
0
 10
67.3955
 20
20.9
 11
66.8977
 21
20.8365
  0
LINE
  8
0
 10
66.8977
 20
20.8365
 11
66.5236
 21
20.8801
  0
LINE
  8
0
 10
250.215
 20
20.8801
 11
250.143
 21
20.9054
  0
LINE
  8
0
 10
250.143
 20
20.9054
 11
249.926
 21
21.041
  0
LINE
  8
0
 10
249.926
 20
21.041
 11
249.765
 21
21.2562
  0
LINE
  8
0
 10
249.765
 20
21.2562
 11
249.659
 21
21.5952
  0
LINE
  8
0
 10
249.659
 20
21.5952
 11
249.64
 21
24.981
  0
LINE
  8
0
 10
249.64
 20
24.981
 11
249.056
 21
24.981
  0
LINE
  8
0
 10
249.056
 20
24.981
 11
249.056
 21
25.195
  0
LINE
  8
0
 10
249.056
 20
25.195
 11
249.65
 21
25.38
  0
LINE
  8
0
 10
249.65
 20
25.38
 11
250.13
 21
26.392
  0
LINE
  8
0
 10
250.13
 20
26.392
 11
250.429
 21
26.392
  0
LINE
  8
0
 10
250.429
 20
26.392
 11
250.429
 21
25.38
  0
LINE
  8
0
 10
250.429
 20
25.38
 11
251.45
 21
25.38
  0
LINE
  8
0
 10
251.45
 20
25.38
 11
251.45
 21
24.981
  0
LINE
  8
0
 10
251.45
 20
24.981
 11
250.429
 21
24.981
  0
LINE
  8
0
 10
250.429
 20
24.981
 11
250.429
 21
21.95
  0
LINE
  8
0
 10
250.429
 20
21.95
 11
250.435
 21
21.8294
  0
LINE
  8
0
 10
250.435
 20
21.8294
 11
250.477
 21
21.6407
  0
LINE
  8
0
 10
250.477
 20
21.6407
 11
250.638
 21
21.4225
  0
LINE
  8
0
 10
250.638
 20
21.4225
 11
250.804
 21
21.3449
  0
LINE
  8
0
 10
250.804
 20
21.3449
 11
251.607
 21
21.406
  0
LINE
  8
0
 10
251.607
 20
21.406
 11
251.607
 21
21.097
  0
LINE
  8
0
 10
251.607
 20
21.097
 11
251.559
 21
21.067
  0
LINE
  8
0
 10
251.559
 20
21.067
 11
251.087
 21
20.9
  0
LINE
  8
0
 10
251.087
 20
20.9
 11
250.59
 21
20.8365
  0
LINE
  8
0
 10
250.59
 20
20.8365
 11
250.215
 21
20.8801
  0
LINE
  8
0
 10
159.168
 20
20.8801
 11
159.095
 21
20.9054
  0
LINE
  8
0
 10
159.095
 20
20.9054
 11
158.878
 21
21.041
  0
LINE
  8
0
 10
158.878
 20
21.041
 11
158.717
 21
21.2562
  0
LINE
  8
0
 10
158.717
 20
21.2562
 11
158.611
 21
21.5952
  0
LINE
  8
0
 10
158.611
 20
21.5952
 11
158.592
 21
24.981
  0
LINE
  8
0
 10
158.592
 20
24.981
 11
158.008
 21
24.981
  0
LINE
  8
0
 10
158.008
 20
24.981
 11
158.008
 21
25.195
  0
LINE
  8
0
 10
158.008
 20
25.195
 11
158.602
 21
25.38
  0
LINE
  8
0
 10
158.602
 20
25.38
 11
159.082
 21
26.392
  0
LINE
  8
0
 10
159.082
 20
26.392
 11
159.381
 21
26.392
  0
LINE
  8
0
 10
159.381
 20
26.392
 11
159.381
 21
25.38
  0
LINE
  8
0
 10
159.381
 20
25.38
 11
160.402
 21
25.38
  0
LINE
  8
0
 10
160.402
 20
25.38
 11
160.402
 21
24.981
  0
LINE
  8
0
 10
160.402
 20
24.981
 11
159.381
 21
24.981
  0
LINE
  8
0
 10
159.381
 20
24.981
 11
159.381
 21
21.95
  0
LINE
  8
0
 10
159.381
 20
21.95
 11
159.387
 21
21.8294
  0
LINE
  8
0
 10
159.387
 20
21.8294
 11
159.429
 21
21.6407
  0
LINE
  8
0
 10
159.429
 20
21.6407
 11
159.59
 21
21.4225
  0
LINE
  8
0
 10
159.59
 20
21.4225
 11
159.756
 21
21.3449
  0
LINE
  8
0
 10
159.756
 20
21.3449
 11
160.559
 21
21.406
  0
LINE
  8
0
 10
160.559
 20
21.406
 11
160.559
 21
21.097
  0
LINE
  8
0
 10
160.559
 20
21.097
 11
160.512
 21
21.067
  0
LINE
  8
0
 10
160.512
 20
21.067
 11
160.04
 21
20.9
  0
LINE
  8
0
 10
160.04
 20
20.9
 11
159.542
 21
20.8365
  0
LINE
  8
0
 10
159.542
 20
20.8365
 11
159.168
 21
20.8801
  0
LINE
  8
0
 10
150.048
 20
18.8321
 11
149.642
 21
18.9246
  0
LINE
  8
0
 10
149.642
 20
18.9246
 11
149.322
 21
19.0636
  0
LINE
  8
0
 10
149.322
 20
19.0636
 11
149.097
 21
19.2305
  0
LINE
  8
0
 10
149.097
 20
19.2305
 11
148.952
 21
19.4128
  0
LINE
  8
0
 10
148.952
 20
19.4128
 11
148.868
 21
19.6168
  0
LINE
  8
0
 10
148.868
 20
19.6168
 11
148.837
 21
19.864
  0
LINE
  8
0
 10
148.837
 20
19.864
 11
148.866
 21
20.07
  0
LINE
  8
0
 10
148.866
 20
20.07
 11
149.016
 21
20.3707
  0
LINE
  8
0
 10
149.016
 20
20.3707
 11
149.635
 21
20.93
  0
LINE
  8
0
 10
149.635
 20
20.93
 11
149.445
 21
21.0179
  0
LINE
  8
0
 10
149.445
 20
21.0179
 11
149.209
 21
21.214
  0
LINE
  8
0
 10
149.209
 20
21.214
 11
149.078
 21
21.4002
  0
LINE
  8
0
 10
149.078
 20
21.4002
 11
148.994
 21
21.736
  0
LINE
  8
0
 10
148.994
 20
21.736
 11
149.744
 21
22.611
  0
LINE
  8
0
 10
149.744
 20
22.611
 11
149.686
 21
22.6398
  0
LINE
  8
0
 10
149.686
 20
22.6398
 11
149.505
 21
22.7538
  0
LINE
  8
0
 10
149.505
 20
22.7538
 11
149.36
 21
22.8835
  0
LINE
  8
0
 10
149.36
 20
22.8835
 11
149.239
 21
23.035
  0
LINE
  8
0
 10
149.239
 20
23.035
 11
149.137
 21
23.2198
  0
LINE
  8
0
 10
149.137
 20
23.2198
 11
149.062
 21
23.4291
  0
LINE
  8
0
 10
149.062
 20
23.4291
 11
149.011
 21
23.6922
  0
LINE
  8
0
 10
149.011
 20
23.6922
 11
148.994
 21
24.009
  0
LINE
  8
0
 10
148.994
 20
24.009
 11
149.028
 21
24.3548
  0
LINE
  8
0
 10
149.028
 20
24.3548
 11
149.113
 21
24.6402
  0
LINE
  8
0
 10
149.113
 20
24.6402
 11
149.246
 21
24.8803
  0
LINE
  8
0
 10
149.246
 20
24.8803
 11
149.428
 21
25.0855
  0
LINE
  8
0
 10
149.428
 20
25.0855
 11
149.657
 21
25.2529
  0
LINE
  8
0
 10
149.657
 20
25.2529
 11
149.941
 21
25.3819
  0
LINE
  8
0
 10
149.941
 20
25.3819
 11
150.309
 21
25.4719
  0
LINE
  8
0
 10
150.309
 20
25.4719
 11
150.804
 21
25.508
  0
LINE
  8
0
 10
150.804
 20
25.508
 11
151.678
 21
25.39
  0
LINE
  8
0
 10
151.678
 20
25.39
 11
152.727
 21
25.917
  0
LINE
  8
0
 10
152.727
 20
25.917
 11
152.894
 21
25.713
  0
LINE
  8
0
 10
152.894
 20
25.713
 11
152.233
 21
25.031
  0
LINE
  8
0
 10
152.233
 20
25.031
 11
152.322
 21
24.9163
  0
LINE
  8
0
 10
152.322
 20
24.9163
 11
152.453
 21
24.6493
  0
LINE
  8
0
 10
152.453
 20
24.6493
 11
152.536
 21
24.2761
  0
LINE
  8
0
 10
152.536
 20
24.2761
 11
152.543
 21
23.775
  0
LINE
  8
0
 10
152.543
 20
23.775
 11
152.482
 21
23.4473
  0
LINE
  8
0
 10
152.482
 20
23.4473
 11
152.38
 21
23.1899
  0
LINE
  8
0
 10
152.38
 20
23.1899
 11
152.238
 21
22.9766
  0
LINE
  8
0
 10
152.238
 20
22.9766
 11
152.046
 21
22.7915
  0
LINE
  8
0
 10
152.046
 20
22.7915
 11
151.795
 21
22.636
  0
LINE
  8
0
 10
151.795
 20
22.636
 11
151.476
 21
22.5191
  0
LINE
  8
0
 10
151.476
 20
22.5191
 11
151.056
 21
22.448
  0
LINE
  8
0
 10
151.056
 20
22.448
 11
150.501
 21
22.4447
  0
LINE
  8
0
 10
150.501
 20
22.4447
 11
150.044
 21
22.507
  0
LINE
  8
0
 10
150.044
 20
22.507
 11
149.744
 21
21.842
  0
LINE
  8
0
 10
149.744
 20
21.842
 11
149.746
 21
21.8338
  0
LINE
  8
0
 10
149.746
 20
21.8338
 11
149.831
 21
21.733
  0
LINE
  8
0
 10
149.831
 20
21.733
 11
150.139
 21
21.6201
  0
LINE
  8
0
 10
150.139
 20
21.6201
 11
151.678
 21
21.604
  0
LINE
  8
0
 10
151.678
 20
21.604
 11
151.96
 21
21.5907
  0
LINE
  8
0
 10
151.96
 20
21.5907
 11
152.349
 21
21.5128
  0
LINE
  8
0
 10
152.349
 20
21.5128
 11
152.622
 21
21.3866
  0
LINE
  8
0
 10
152.622
 20
21.3866
 11
152.817
 21
21.2239
  0
LINE
  8
0
 10
152.817
 20
21.2239
 11
152.974
 21
20.9988
  0
LINE
  8
0
 10
152.974
 20
20.9988
 11
153.071
 21
20.7153
  0
LINE
  8
0
 10
153.071
 20
20.7153
 11
153.096
 21
20.3499
  0
LINE
  8
0
 10
153.096
 20
20.3499
 11
153.026
 21
19.9559
  0
LINE
  8
0
 10
153.026
 20
19.9559
 11
152.862
 21
19.6205
  0
LINE
  8
0
 10
152.862
 20
19.6205
 11
152.6
 21
19.3282
  0
LINE
  8
0
 10
152.6
 20
19.3282
 11
152.223
 21
19.0839
  0
LINE
  8
0
 10
152.223
 20
19.0839
 11
151.67
 21
18.8888
  0
LINE
  8
0
 10
151.67
 20
18.8888
 11
150.929
 21
18.7926
  0
LINE
  8
0
 10
150.929
 20
18.7926
 11
150.048
 21
18.8321
  0
LINE
  8
0
 10
151.119
 20
22.838
 11
151.246
 21
22.8829
  0
LINE
  8
0
 10
151.246
 20
22.8829
 11
151.437
 21
23.0097
  0
LINE
  8
0
 10
151.437
 20
23.0097
 11
151.575
 21
23.1988
  0
LINE
  8
0
 10
151.575
 20
23.1988
 11
151.69
 21
23.5509
  0
LINE
  8
0
 10
151.69
 20
23.5509
 11
151.72
 21
24.1672
  0
LINE
  8
0
 10
151.72
 20
24.1672
 11
151.643
 21
24.6119
  0
LINE
  8
0
 10
151.643
 20
24.6119
 11
151.518
 21
24.8583
  0
LINE
  8
0
 10
151.518
 20
24.8583
 11
151.347
 21
25.0138
  0
LINE
  8
0
 10
151.347
 20
25.0138
 11
151.09
 21
25.1159
  0
LINE
  8
0
 10
151.09
 20
25.1159
 11
150.684
 21
25.1441
  0
LINE
  8
0
 10
150.684
 20
25.1441
 11
150.346
 21
25.0776
  0
LINE
  8
0
 10
150.346
 20
25.0776
 11
150.125
 21
24.9494
  0
LINE
  8
0
 10
150.125
 20
24.9494
 11
149.973
 21
24.7627
  0
LINE
  8
0
 10
149.973
 20
24.7627
 11
149.864
 21
24.4624
  0
LINE
  8
0
 10
149.864
 20
24.4624
 11
149.82
 21
23.9274
  0
LINE
  8
0
 10
149.82
 20
23.9274
 11
149.883
 21
23.4266
  0
LINE
  8
0
 10
149.883
 20
23.4266
 11
150.003
 21
23.142
  0
LINE
  8
0
 10
150.003
 20
23.142
 11
150.158
 21
22.9717
  0
LINE
  8
0
 10
150.158
 20
22.9717
 11
150.385
 21
22.8529
  0
LINE
  8
0
 10
150.385
 20
22.8529
 11
150.728
 21
22.7976
  0
LINE
  8
0
 10
150.728
 20
22.7976
 11
151.119
 21
22.838
  0
LINE
  8
0
 10
151.255
 20
19.2107
 11
151.51
 21
19.2694
  0
LINE
  8
0
 10
151.51
 20
19.2694
 11
151.834
 21
19.4045
  0
LINE
  8
0
 10
151.834
 20
19.4045
 11
152.07
 21
19.5767
  0
LINE
  8
0
 10
152.07
 20
19.5767
 11
152.224
 21
19.7683
  0
LINE
  8
0
 10
152.224
 20
19.7683
 11
152.32
 21
19.9917
  0
LINE
  8
0
 10
152.32
 20
19.9917
 11
152.357
 21
20.2634
  0
LINE
  8
0
 10
152.357
 20
20.2634
 11
152.335
 21
20.4614
  0
LINE
  8
0
 10
152.335
 20
20.4614
 11
152.193
 21
20.6996
  0
LINE
  8
0
 10
152.193
 20
20.6996
 11
151.953
 21
20.8232
  0
LINE
  8
0
 10
151.953
 20
20.8232
 11
149.958
 21
20.853
  0
LINE
  8
0
 10
149.958
 20
20.853
 11
149.82
 21
20.7133
  0
LINE
  8
0
 10
149.82
 20
20.7133
 11
149.647
 21
20.449
  0
LINE
  8
0
 10
149.647
 20
20.449
 11
149.532
 21
20.1389
  0
LINE
  8
0
 10
149.532
 20
20.1389
 11
149.512
 21
19.8244
  0
LINE
  8
0
 10
149.512
 20
19.8244
 11
149.58
 21
19.5805
  0
LINE
  8
0
 10
149.58
 20
19.5805
 11
149.715
 21
19.408
  0
LINE
  8
0
 10
149.715
 20
19.408
 11
149.948
 21
19.2757
  0
LINE
  8
0
 10
149.948
 20
19.2757
 11
150.432
 21
19.1781
  0
LINE
  8
0
 10
150.432
 20
19.1781
 11
151.255
 21
19.2107
  0
LINE
  8
0
 10
246.927
 20
20.854
 11
246.713
 21
20.8841
  0
LINE
  8
0
 10
246.713
 20
20.8841
 11
246.541
 21
20.9215
  0
LINE
  8
0
 10
246.541
 20
20.9215
 11
246.378
 21
20.9696
  0
LINE
  8
0
 10
246.378
 20
20.9696
 11
246.226
 21
21.0284
  0
LINE
  8
0
 10
246.226
 20
21.0284
 11
246.083
 21
21.0979
  0
LINE
  8
0
 10
246.083
 20
21.0979
 11
245.95
 21
21.1781
  0
LINE
  8
0
 10
245.95
 20
21.1781
 11
245.847
 21
21.253
  0
LINE
  8
0
 10
245.847
 20
21.253
 11
245.75
 21
21.3354
  0
LINE
  8
0
 10
245.75
 20
21.3354
 11
245.661
 21
21.4252
  0
LINE
  8
0
 10
245.661
 20
21.4252
 11
245.578
 21
21.5225
  0
LINE
  8
0
 10
245.578
 20
21.5225
 11
245.488
 21
21.649
  0
LINE
  8
0
 10
245.488
 20
21.649
 11
245.407
 21
21.7862
  0
LINE
  8
0
 10
245.407
 20
21.7862
 11
245.337
 21
21.934
  0
LINE
  8
0
 10
245.337
 20
21.934
 11
245.276
 21
22.0926
  0
LINE
  8
0
 10
245.276
 20
22.0926
 11
245.225
 21
22.2618
  0
LINE
  8
0
 10
245.225
 20
22.2618
 11
245.184
 21
22.4418
  0
LINE
  8
0
 10
245.184
 20
22.4418
 11
245.149
 21
22.6652
  0
LINE
  8
0
 10
245.149
 20
22.6652
 11
245.127
 21
22.9032
  0
LINE
  8
0
 10
245.127
 20
22.9032
 11
245.118
 21
23.193
  0
LINE
  8
0
 10
245.118
 20
23.193
 11
245.132
 21
23.534
  0
LINE
  8
0
 10
245.132
 20
23.534
 11
245.192
 21
23.9385
  0
LINE
  8
0
 10
245.192
 20
23.9385
 11
245.289
 21
24.2729
  0
LINE
  8
0
 10
245.289
 20
24.2729
 11
245.419
 21
24.5584
  0
LINE
  8
0
 10
245.419
 20
24.5584
 11
245.579
 21
24.7993
  0
LINE
  8
0
 10
245.579
 20
24.7993
 11
245.762
 21
24.9995
  0
LINE
  8
0
 10
245.762
 20
24.9995
 11
245.972
 21
25.1669
  0
LINE
  8
0
 10
245.972
 20
25.1669
 11
246.209
 21
25.301
  0
LINE
  8
0
 10
246.209
 20
25.301
 11
246.486
 21
25.4058
  0
LINE
  8
0
 10
246.486
 20
25.4058
 11
246.821
 21
25.4784
  0
LINE
  8
0
 10
246.821
 20
25.4784
 11
247.206
 21
25.5077
  0
LINE
  8
0
 10
247.206
 20
25.5077
 11
247.915
 21
25.4724
  0
LINE
  8
0
 10
247.915
 20
25.4724
 11
248.656
 21
25.361
  0
LINE
  8
0
 10
248.656
 20
25.361
 11
248.656
 21
24.116
  0
LINE
  8
0
 10
248.656
 20
24.116
 11
248.395
 21
24.116
  0
LINE
  8
0
 10
248.395
 20
24.116
 11
248.191
 21
24.905
  0
LINE
  8
0
 10
248.191
 20
24.905
 11
248.121
 21
24.9422
  0
LINE
  8
0
 10
248.121
 20
24.9422
 11
247.681
 21
25.0885
  0
LINE
  8
0
 10
247.681
 20
25.0885
 11
247.128
 21
25.1236
  0
LINE
  8
0
 10
247.128
 20
25.1236
 11
246.979
 21
25.1041
  0
LINE
  8
0
 10
246.979
 20
25.1041
 11
246.84
 21
25.069
  0
LINE
  8
0
 10
246.84
 20
25.069
 11
246.728
 21
25.0255
  0
LINE
  8
0
 10
246.728
 20
25.0255
 11
246.623
 21
24.97
  0
LINE
  8
0
 10
246.623
 20
24.97
 11
246.525
 21
24.9026
  0
LINE
  8
0
 10
246.525
 20
24.9026
 11
246.436
 21
24.8233
  0
LINE
  8
0
 10
246.436
 20
24.8233
 11
246.344
 21
24.718
  0
LINE
  8
0
 10
246.344
 20
24.718
 11
246.262
 21
24.5971
  0
LINE
  8
0
 10
246.262
 20
24.5971
 11
246.19
 21
24.4606
  0
LINE
  8
0
 10
246.19
 20
24.4606
 11
246.121
 21
24.2884
  0
LINE
  8
0
 10
246.121
 20
24.2884
 11
246.06
 21
24.0738
  0
LINE
  8
0
 10
246.06
 20
24.0738
 11
246.015
 21
23.835
  0
LINE
  8
0
 10
246.015
 20
23.835
 11
245.985
 21
23.544
  0
LINE
  8
0
 10
245.985
 20
23.544
 11
245.973
 21
23.193
  0
LINE
  8
0
 10
245.973
 20
23.193
 11
246.005
 21
22.6657
  0
LINE
  8
0
 10
246.005
 20
22.6657
 11
246.086
 21
22.276
  0
LINE
  8
0
 10
246.086
 20
22.276
 11
246.198
 21
21.9959
  0
LINE
  8
0
 10
246.198
 20
21.9959
 11
246.33
 21
21.794
  0
LINE
  8
0
 10
246.33
 20
21.794
 11
246.501
 21
21.6279
  0
LINE
  8
0
 10
246.501
 20
21.6279
 11
246.717
 21
21.4944
  0
LINE
  8
0
 10
246.717
 20
21.4944
 11
247.002
 21
21.3923
  0
LINE
  8
0
 10
247.002
 20
21.3923
 11
247.373
 21
21.3361
  0
LINE
  8
0
 10
247.373
 20
21.3361
 11
247.992
 21
21.3466
  0
LINE
  8
0
 10
247.992
 20
21.3466
 11
248.766
 21
21.487
  0
LINE
  8
0
 10
248.766
 20
21.487
 11
248.766
 21
21.202
  0
LINE
  8
0
 10
248.766
 20
21.202
 11
248.649
 21
21.1272
  0
LINE
  8
0
 10
248.649
 20
21.1272
 11
248.326
 21
20.9893
  0
LINE
  8
0
 10
248.326
 20
20.9893
 11
247.685
 21
20.8573
  0
LINE
  8
0
 10
247.685
 20
20.8573
 11
247.087
 21
20.8414
  0
LINE
  8
0
 10
247.087
 20
20.8414
 11
246.927
 21
20.854
  0
LINE
  8
0
 10
332.972
 20
20.854
 11
332.758
 21
20.8841
  0
LINE
  8
0
 10
332.758
 20
20.8841
 11
332.586
 21
20.9215
  0
LINE
  8
0
 10
332.586
 20
20.9215
 11
332.424
 21
20.9696
  0
LINE
  8
0
 10
332.424
 20
20.9696
 11
332.271
 21
21.0284
  0
LINE
  8
0
 10
332.271
 20
21.0284
 11
332.128
 21
21.0979
  0
LINE
  8
0
 10
332.128
 20
21.0979
 11
331.995
 21
21.1781
  0
LINE
  8
0
 10
331.995
 20
21.1781
 11
331.892
 21
21.253
  0
LINE
  8
0
 10
331.892
 20
21.253
 11
331.796
 21
21.3354
  0
LINE
  8
0
 10
331.796
 20
21.3354
 11
331.706
 21
21.4252
  0
LINE
  8
0
 10
331.706
 20
21.4252
 11
331.623
 21
21.5225
  0
LINE
  8
0
 10
331.623
 20
21.5225
 11
331.533
 21
21.649
  0
LINE
  8
0
 10
331.533
 20
21.649
 11
331.453
 21
21.7862
  0
LINE
  8
0
 10
331.453
 20
21.7862
 11
331.382
 21
21.934
  0
LINE
  8
0
 10
331.382
 20
21.934
 11
331.322
 21
22.0926
  0
LINE
  8
0
 10
331.322
 20
22.0926
 11
331.271
 21
22.2618
  0
LINE
  8
0
 10
331.271
 20
22.2618
 11
331.23
 21
22.4418
  0
LINE
  8
0
 10
331.23
 20
22.4418
 11
331.194
 21
22.6652
  0
LINE
  8
0
 10
331.194
 20
22.6652
 11
331.172
 21
22.9032
  0
LINE
  8
0
 10
331.172
 20
22.9032
 11
331.163
 21
23.193
  0
LINE
  8
0
 10
331.163
 20
23.193
 11
331.177
 21
23.534
  0
LINE
  8
0
 10
331.177
 20
23.534
 11
331.237
 21
23.9385
  0
LINE
  8
0
 10
331.237
 20
23.9385
 11
331.334
 21
24.2729
  0
LINE
  8
0
 10
331.334
 20
24.2729
 11
331.465
 21
24.5584
  0
LINE
  8
0
 10
331.465
 20
24.5584
 11
331.624
 21
24.7993
  0
LINE
  8
0
 10
331.624
 20
24.7993
 11
331.807
 21
24.9995
  0
LINE
  8
0
 10
331.807
 20
24.9995
 11
332.018
 21
25.1669
  0
LINE
  8
0
 10
332.018
 20
25.1669
 11
332.255
 21
25.301
  0
LINE
  8
0
 10
332.255
 20
25.301
 11
332.531
 21
25.4058
  0
LINE
  8
0
 10
332.531
 20
25.4058
 11
332.866
 21
25.4784
  0
LINE
  8
0
 10
332.866
 20
25.4784
 11
333.252
 21
25.5077
  0
LINE
  8
0
 10
333.252
 20
25.5077
 11
333.96
 21
25.4724
  0
LINE
  8
0
 10
333.96
 20
25.4724
 11
334.701
 21
25.361
  0
LINE
  8
0
 10
334.701
 20
25.361
 11
334.701
 21
24.116
  0
LINE
  8
0
 10
334.701
 20
24.116
 11
334.44
 21
24.116
  0
LINE
  8
0
 10
334.44
 20
24.116
 11
334.236
 21
24.905
  0
LINE
  8
0
 10
334.236
 20
24.905
 11
334.166
 21
24.9422
  0
LINE
  8
0
 10
334.166
 20
24.9422
 11
333.727
 21
25.0885
  0
LINE
  8
0
 10
333.727
 20
25.0885
 11
333.173
 21
25.1236
  0
LINE
  8
0
 10
333.173
 20
25.1236
 11
333.024
 21
25.1041
  0
LINE
  8
0
 10
333.024
 20
25.1041
 11
332.886
 21
25.069
  0
LINE
  8
0
 10
332.886
 20
25.069
 11
332.773
 21
25.0255
  0
LINE
  8
0
 10
332.773
 20
25.0255
 11
332.668
 21
24.97
  0
LINE
  8
0
 10
332.668
 20
24.97
 11
332.571
 21
24.9026
  0
LINE
  8
0
 10
332.571
 20
24.9026
 11
332.482
 21
24.8233
  0
LINE
  8
0
 10
332.482
 20
24.8233
 11
332.389
 21
24.718
  0
LINE
  8
0
 10
332.389
 20
24.718
 11
332.307
 21
24.5971
  0
LINE
  8
0
 10
332.307
 20
24.5971
 11
332.235
 21
24.4606
  0
LINE
  8
0
 10
332.235
 20
24.4606
 11
332.167
 21
24.2884
  0
LINE
  8
0
 10
332.167
 20
24.2884
 11
332.106
 21
24.0738
  0
LINE
  8
0
 10
332.106
 20
24.0738
 11
332.061
 21
23.835
  0
LINE
  8
0
 10
332.061
 20
23.835
 11
332.03
 21
23.544
  0
LINE
  8
0
 10
332.03
 20
23.544
 11
332.018
 21
23.193
  0
LINE
  8
0
 10
332.018
 20
23.193
 11
332.05
 21
22.6657
  0
LINE
  8
0
 10
332.05
 20
22.6657
 11
332.131
 21
22.276
  0
LINE
  8
0
 10
332.131
 20
22.276
 11
332.243
 21
21.9959
  0
LINE
  8
0
 10
332.243
 20
21.9959
 11
332.375
 21
21.794
  0
LINE
  8
0
 10
332.375
 20
21.794
 11
332.546
 21
21.6279
  0
LINE
  8
0
 10
332.546
 20
21.6279
 11
332.762
 21
21.4944
  0
LINE
  8
0
 10
332.762
 20
21.4944
 11
333.048
 21
21.3923
  0
LINE
  8
0
 10
333.048
 20
21.3923
 11
333.418
 21
21.3361
  0
LINE
  8
0
 10
333.418
 20
21.3361
 11
334.037
 21
21.3466
  0
LINE
  8
0
 10
334.037
 20
21.3466
 11
334.811
 21
21.487
  0
LINE
  8
0
 10
334.811
 20
21.487
 11
334.811
 21
21.202
  0
LINE
  8
0
 10
334.811
 20
21.202
 11
334.695
 21
21.1272
  0
LINE
  8
0
 10
334.695
 20
21.1272
 11
334.372
 21
20.9893
  0
LINE
  8
0
 10
334.372
 20
20.9893
 11
333.73
 21
20.8573
  0
LINE
  8
0
 10
333.73
 20
20.8573
 11
333.133
 21
20.8414
  0
LINE
  8
0
 10
333.133
 20
20.8414
 11
332.972
 21
20.854
  0
LINE
  8
0
 10
59.8723
 20
20.8598
 11
59.8141
 21
20.8677
  0
LINE
  8
0
 10
59.8141
 20
20.8677
 11
59.4885
 21
20.9387
  0
LINE
  8
0
 10
59.4885
 20
20.9387
 11
59.2145
 21
21.0448
  0
LINE
  8
0
 10
59.2145
 20
21.0448
 11
58.9969
 21
21.1742
  0
LINE
  8
0
 10
58.9969
 20
21.1742
 11
58.8103
 21
21.3346
  0
LINE
  8
0
 10
58.8103
 20
21.3346
 11
58.6539
 21
21.5278
  0
LINE
  8
0
 10
58.6539
 20
21.5278
 11
58.5245
 21
21.7584
  0
LINE
  8
0
 10
58.5245
 20
21.7584
 11
58.4135
 21
22.0542
  0
LINE
  8
0
 10
58.4135
 20
22.0542
 11
58.3266
 21
22.443
  0
LINE
  8
0
 10
58.3266
 20
22.443
 11
58.2775
 21
22.9633
  0
LINE
  8
0
 10
58.2775
 20
22.9633
 11
58.2867
 21
23.5655
  0
LINE
  8
0
 10
58.2867
 20
23.5655
 11
58.347
 21
24.011
  0
LINE
  8
0
 10
58.347
 20
24.011
 11
58.4463
 21
24.3722
  0
LINE
  8
0
 10
58.4463
 20
24.3722
 11
58.575
 21
24.6608
  0
LINE
  8
0
 10
58.575
 20
24.6608
 11
58.724
 21
24.8875
  0
LINE
  8
0
 10
58.724
 20
24.8875
 11
58.9019
 21
25.0784
  0
LINE
  8
0
 10
58.9019
 20
25.0784
 11
59.1152
 21
25.2406
  0
LINE
  8
0
 10
59.1152
 20
25.2406
 11
59.3563
 21
25.3645
  0
LINE
  8
0
 10
59.3563
 20
25.3645
 11
59.6375
 21
25.453
  0
LINE
  8
0
 10
59.6375
 20
25.453
 11
59.9763
 21
25.5019
  0
LINE
  8
0
 10
59.9763
 20
25.5019
 11
60.3699
 21
25.5001
  0
LINE
  8
0
 10
60.3699
 20
25.5001
 11
60.567
 21
25.4762
  0
LINE
  8
0
 10
60.567
 20
25.4762
 11
60.728
 21
25.4424
  0
LINE
  8
0
 10
60.728
 20
25.4424
 11
60.8785
 21
25.3963
  0
LINE
  8
0
 10
60.8785
 20
25.3963
 11
61.0184
 21
25.3381
  0
LINE
  8
0
 10
61.0184
 20
25.3381
 11
61.1477
 21
25.2678
  0
LINE
  8
0
 10
61.1477
 20
25.2678
 11
61.2664
 21
25.1853
  0
LINE
  8
0
 10
61.2664
 20
25.1853
 11
61.3746
 21
25.0906
  0
LINE
  8
0
 10
61.3746
 20
25.0906
 11
61.4721
 21
24.9837
  0
LINE
  8
0
 10
61.4721
 20
24.9837
 11
61.5591
 21
24.8647
  0
LINE
  8
0
 10
61.5591
 20
24.8647
 11
61.6354
 21
24.7336
  0
LINE
  8
0
 10
61.6354
 20
24.7336
 11
61.7012
 21
24.5903
  0
LINE
  8
0
 10
61.7012
 20
24.5903
 11
61.7634
 21
24.4116
  0
LINE
  8
0
 10
61.7634
 20
24.4116
 11
61.8118
 21
24.217
  0
LINE
  8
0
 10
61.8118
 20
24.217
 11
61.8497
 21
23.9791
  0
LINE
  8
0
 10
61.8497
 20
23.9791
 11
61.8702
 21
23.7212
  0
LINE
  8
0
 10
61.8702
 20
23.7212
 11
61.8741
 21
23.144
  0
LINE
  8
0
 10
61.8741
 20
23.144
 11
59.1281
 21
23.144
  0
LINE
  8
0
 10
59.1281
 20
23.144
 11
59.1281
 21
23.06
  0
LINE
  8
0
 10
59.1281
 20
23.06
 11
59.1518
 21
22.5863
  0
LINE
  8
0
 10
59.1518
 20
22.5863
 11
59.2777
 21
22.0487
  0
LINE
  8
0
 10
59.2777
 20
22.0487
 11
59.3778
 21
21.8553
  0
LINE
  8
0
 10
59.3778
 20
21.8553
 11
59.6407
 21
21.5695
  0
LINE
  8
0
 10
59.6407
 20
21.5695
 11
59.947
 21
21.4107
  0
LINE
  8
0
 10
59.947
 20
21.4107
 11
60.4487
 21
21.3307
  0
LINE
  8
0
 10
60.4487
 20
21.3307
 11
61.6981
 21
21.468
  0
LINE
  8
0
 10
61.6981
 20
21.468
 11
61.6981
 21
21.202
  0
LINE
  8
0
 10
61.6981
 20
21.202
 11
61.5368
 21
21.1124
  0
LINE
  8
0
 10
61.5368
 20
21.1124
 11
60.8842
 21
20.898
  0
LINE
  8
0
 10
60.8842
 20
20.898
 11
60.3943
 21
20.8382
  0
LINE
  8
0
 10
60.3943
 20
20.8382
 11
59.8723
 21
20.8598
  0
LINE
  8
0
 10
61.0022
 20
24.2051
 11
60.895
 21
24.6212
  0
LINE
  8
0
 10
60.895
 20
24.6212
 11
60.761
 21
24.8562
  0
LINE
  8
0
 10
60.761
 20
24.8562
 11
60.5934
 21
25.0105
  0
LINE
  8
0
 10
60.5934
 20
25.0105
 11
60.3855
 21
25.1011
  0
LINE
  8
0
 10
60.3855
 20
25.1011
 11
60.1049
 21
25.1268
  0
LINE
  8
0
 10
60.1049
 20
25.1268
 11
59.8487
 21
25.0807
  0
LINE
  8
0
 10
59.8487
 20
25.0807
 11
59.6412
 21
24.9764
  0
LINE
  8
0
 10
59.6412
 20
24.9764
 11
59.458
 21
24.8015
  0
LINE
  8
0
 10
59.458
 20
24.8015
 11
59.3037
 21
24.538
  0
LINE
  8
0
 10
59.3037
 20
24.538
 11
59.1882
 21
24.1419
  0
LINE
  8
0
 10
59.1882
 20
24.1419
 11
59.1381
 21
23.524
  0
LINE
  8
0
 10
59.1381
 20
23.524
 11
61.0471
 21
23.524
  0
LINE
  8
0
 10
61.0471
 20
23.524
 11
61.0022
 21
24.2051
  0
LINE
  8
0
 10
242.512
 20
20.8598
 11
242.454
 21
20.8677
  0
LINE
  8
0
 10
242.454
 20
20.8677
 11
242.129
 21
20.9387
  0
LINE
  8
0
 10
242.129
 20
20.9387
 11
241.855
 21
21.0448
  0
LINE
  8
0
 10
241.855
 20
21.0448
 11
241.637
 21
21.1742
  0
LINE
  8
0
 10
241.637
 20
21.1742
 11
241.45
 21
21.3346
  0
LINE
  8
0
 10
241.45
 20
21.3346
 11
241.294
 21
21.5278
  0
LINE
  8
0
 10
241.294
 20
21.5278
 11
241.165
 21
21.7584
  0
LINE
  8
0
 10
241.165
 20
21.7584
 11
241.054
 21
22.0542
  0
LINE
  8
0
 10
241.054
 20
22.0542
 11
240.967
 21
22.443
  0
LINE
  8
0
 10
240.967
 20
22.443
 11
240.918
 21
22.9633
  0
LINE
  8
0
 10
240.918
 20
22.9633
 11
240.927
 21
23.5655
  0
LINE
  8
0
 10
240.927
 20
23.5655
 11
240.987
 21
24.011
  0
LINE
  8
0
 10
240.987
 20
24.011
 11
241.086
 21
24.3722
  0
LINE
  8
0
 10
241.086
 20
24.3722
 11
241.215
 21
24.6608
  0
LINE
  8
0
 10
241.215
 20
24.6608
 11
241.364
 21
24.8875
  0
LINE
  8
0
 10
241.364
 20
24.8875
 11
241.542
 21
25.0784
  0
LINE
  8
0
 10
241.542
 20
25.0784
 11
241.755
 21
25.2406
  0
LINE
  8
0
 10
241.755
 20
25.2406
 11
241.996
 21
25.3645
  0
LINE
  8
0
 10
241.996
 20
25.3645
 11
242.278
 21
25.453
  0
LINE
  8
0
 10
242.278
 20
25.453
 11
242.616
 21
25.5019
  0
LINE
  8
0
 10
242.616
 20
25.5019
 11
243.01
 21
25.5001
  0
LINE
  8
0
 10
243.01
 20
25.5001
 11
243.207
 21
25.4762
  0
LINE
  8
0
 10
243.207
 20
25.4762
 11
243.368
 21
25.4424
  0
LINE
  8
0
 10
243.368
 20
25.4424
 11
243.519
 21
25.3963
  0
LINE
  8
0
 10
243.519
 20
25.3963
 11
243.659
 21
25.3381
  0
LINE
  8
0
 10
243.659
 20
25.3381
 11
243.788
 21
25.2678
  0
LINE
  8
0
 10
243.788
 20
25.2678
 11
243.907
 21
25.1853
  0
LINE
  8
0
 10
243.907
 20
25.1853
 11
244.015
 21
25.0906
  0
LINE
  8
0
 10
244.015
 20
25.0906
 11
244.112
 21
24.9837
  0
LINE
  8
0
 10
244.112
 20
24.9837
 11
244.199
 21
24.8647
  0
LINE
  8
0
 10
244.199
 20
24.8647
 11
244.276
 21
24.7336
  0
LINE
  8
0
 10
244.276
 20
24.7336
 11
244.341
 21
24.5903
  0
LINE
  8
0
 10
244.341
 20
24.5903
 11
244.404
 21
24.4116
  0
LINE
  8
0
 10
244.404
 20
24.4116
 11
244.452
 21
24.217
  0
LINE
  8
0
 10
244.452
 20
24.217
 11
244.49
 21
23.9791
  0
LINE
  8
0
 10
244.49
 20
23.9791
 11
244.51
 21
23.7212
  0
LINE
  8
0
 10
244.51
 20
23.7212
 11
244.514
 21
23.144
  0
LINE
  8
0
 10
244.514
 20
23.144
 11
241.768
 21
23.144
  0
LINE
  8
0
 10
241.768
 20
23.144
 11
241.768
 21
23.06
  0
LINE
  8
0
 10
241.768
 20
23.06
 11
241.792
 21
22.5863
  0
LINE
  8
0
 10
241.792
 20
22.5863
 11
241.918
 21
22.0487
  0
LINE
  8
0
 10
241.918
 20
22.0487
 11
242.018
 21
21.8553
  0
LINE
  8
0
 10
242.018
 20
21.8553
 11
242.281
 21
21.5695
  0
LINE
  8
0
 10
242.281
 20
21.5695
 11
242.587
 21
21.4107
  0
LINE
  8
0
 10
242.587
 20
21.4107
 11
243.089
 21
21.3307
  0
LINE
  8
0
 10
243.089
 20
21.3307
 11
244.338
 21
21.468
  0
LINE
  8
0
 10
244.338
 20
21.468
 11
244.338
 21
21.202
  0
LINE
  8
0
 10
244.338
 20
21.202
 11
244.177
 21
21.1124
  0
LINE
  8
0
 10
244.177
 20
21.1124
 11
243.524
 21
20.898
  0
LINE
  8
0
 10
243.524
 20
20.898
 11
243.034
 21
20.8382
  0
LINE
  8
0
 10
243.034
 20
20.8382
 11
242.512
 21
20.8598
  0
LINE
  8
0
 10
243.642
 20
24.2051
 11
243.535
 21
24.6212
  0
LINE
  8
0
 10
243.535
 20
24.6212
 11
243.401
 21
24.8562
  0
LINE
  8
0
 10
243.401
 20
24.8562
 11
243.233
 21
25.0105
  0
LINE
  8
0
 10
243.233
 20
25.0105
 11
243.026
 21
25.1011
  0
LINE
  8
0
 10
243.026
 20
25.1011
 11
242.745
 21
25.1268
  0
LINE
  8
0
 10
242.745
 20
25.1268
 11
242.489
 21
25.0807
  0
LINE
  8
0
 10
242.489
 20
25.0807
 11
242.281
 21
24.9764
  0
LINE
  8
0
 10
242.281
 20
24.9764
 11
242.098
 21
24.8015
  0
LINE
  8
0
 10
242.098
 20
24.8015
 11
241.944
 21
24.538
  0
LINE
  8
0
 10
241.944
 20
24.538
 11
241.828
 21
24.1419
  0
LINE
  8
0
 10
241.828
 20
24.1419
 11
241.778
 21
23.524
  0
LINE
  8
0
 10
241.778
 20
23.524
 11
243.687
 21
23.524
  0
LINE
  8
0
 10
243.687
 20
23.524
 11
243.642
 21
24.2051
  0
LINE
  8
0
 10
235.661
 20
20.8598
 11
235.603
 21
20.8677
  0
LINE
  8
0
 10
235.603
 20
20.8677
 11
235.277
 21
20.9387
  0
LINE
  8
0
 10
235.277
 20
20.9387
 11
235.003
 21
21.0448
  0
LINE
  8
0
 10
235.003
 20
21.0448
 11
234.785
 21
21.1742
  0
LINE
  8
0
 10
234.785
 20
21.1742
 11
234.599
 21
21.3346
  0
LINE
  8
0
 10
234.599
 20
21.3346
 11
234.442
 21
21.5278
  0
LINE
  8
0
 10
234.442
 20
21.5278
 11
234.313
 21
21.7584
  0
LINE
  8
0
 10
234.313
 20
21.7584
 11
234.202
 21
22.0542
  0
LINE
  8
0
 10
234.202
 20
22.0542
 11
234.115
 21
22.443
  0
LINE
  8
0
 10
234.115
 20
22.443
 11
234.066
 21
22.9633
  0
LINE
  8
0
 10
234.066
 20
22.9633
 11
234.075
 21
23.5655
  0
LINE
  8
0
 10
234.075
 20
23.5655
 11
234.136
 21
24.011
  0
LINE
  8
0
 10
234.136
 20
24.011
 11
234.235
 21
24.3722
  0
LINE
  8
0
 10
234.235
 20
24.3722
 11
234.364
 21
24.6608
  0
LINE
  8
0
 10
234.364
 20
24.6608
 11
234.513
 21
24.8875
  0
LINE
  8
0
 10
234.513
 20
24.8875
 11
234.69
 21
25.0784
  0
LINE
  8
0
 10
234.69
 20
25.0784
 11
234.904
 21
25.2406
  0
LINE
  8
0
 10
234.904
 20
25.2406
 11
235.145
 21
25.3645
  0
LINE
  8
0
 10
235.145
 20
25.3645
 11
235.426
 21
25.453
  0
LINE
  8
0
 10
235.426
 20
25.453
 11
235.765
 21
25.5019
  0
LINE
  8
0
 10
235.765
 20
25.5019
 11
236.159
 21
25.5001
  0
LINE
  8
0
 10
236.159
 20
25.5001
 11
236.356
 21
25.4762
  0
LINE
  8
0
 10
236.356
 20
25.4762
 11
236.517
 21
25.4424
  0
LINE
  8
0
 10
236.517
 20
25.4424
 11
236.667
 21
25.3963
  0
LINE
  8
0
 10
236.667
 20
25.3963
 11
236.807
 21
25.3381
  0
LINE
  8
0
 10
236.807
 20
25.3381
 11
236.936
 21
25.2678
  0
LINE
  8
0
 10
236.936
 20
25.2678
 11
237.055
 21
25.1853
  0
LINE
  8
0
 10
237.055
 20
25.1853
 11
237.163
 21
25.0906
  0
LINE
  8
0
 10
237.163
 20
25.0906
 11
237.261
 21
24.9837
  0
LINE
  8
0
 10
237.261
 20
24.9837
 11
237.348
 21
24.8647
  0
LINE
  8
0
 10
237.348
 20
24.8647
 11
237.424
 21
24.7336
  0
LINE
  8
0
 10
237.424
 20
24.7336
 11
237.49
 21
24.5903
  0
LINE
  8
0
 10
237.49
 20
24.5903
 11
237.552
 21
24.4116
  0
LINE
  8
0
 10
237.552
 20
24.4116
 11
237.6
 21
24.217
  0
LINE
  8
0
 10
237.6
 20
24.217
 11
237.638
 21
23.9791
  0
LINE
  8
0
 10
237.638
 20
23.9791
 11
237.659
 21
23.7212
  0
LINE
  8
0
 10
237.659
 20
23.7212
 11
237.663
 21
23.144
  0
LINE
  8
0
 10
237.663
 20
23.144
 11
234.917
 21
23.144
  0
LINE
  8
0
 10
234.917
 20
23.144
 11
234.917
 21
23.06
  0
LINE
  8
0
 10
234.917
 20
23.06
 11
234.94
 21
22.5863
  0
LINE
  8
0
 10
234.94
 20
22.5863
 11
235.066
 21
22.0487
  0
LINE
  8
0
 10
235.066
 20
22.0487
 11
235.166
 21
21.8553
  0
LINE
  8
0
 10
235.166
 20
21.8553
 11
235.429
 21
21.5695
  0
LINE
  8
0
 10
235.429
 20
21.5695
 11
235.736
 21
21.4107
  0
LINE
  8
0
 10
235.736
 20
21.4107
 11
236.237
 21
21.3307
  0
LINE
  8
0
 10
236.237
 20
21.3307
 11
237.487
 21
21.468
  0
LINE
  8
0
 10
237.487
 20
21.468
 11
237.487
 21
21.202
  0
LINE
  8
0
 10
237.487
 20
21.202
 11
237.325
 21
21.1124
  0
LINE
  8
0
 10
237.325
 20
21.1124
 11
236.673
 21
20.898
  0
LINE
  8
0
 10
236.673
 20
20.898
 11
236.183
 21
20.8382
  0
LINE
  8
0
 10
236.183
 20
20.8382
 11
235.661
 21
20.8598
  0
LINE
  8
0
 10
236.791
 20
24.2051
 11
236.684
 21
24.6212
  0
LINE
  8
0
 10
236.684
 20
24.6212
 11
236.55
 21
24.8562
  0
LINE
  8
0
 10
236.55
 20
24.8562
 11
236.382
 21
25.0105
  0
LINE
  8
0
 10
236.382
 20
25.0105
 11
236.174
 21
25.1011
  0
LINE
  8
0
 10
236.174
 20
25.1011
 11
235.893
 21
25.1268
  0
LINE
  8
0
 10
235.893
 20
25.1268
 11
235.637
 21
25.0807
  0
LINE
  8
0
 10
235.637
 20
25.0807
 11
235.43
 21
24.9764
  0
LINE
  8
0
 10
235.43
 20
24.9764
 11
235.247
 21
24.8015
  0
LINE
  8
0
 10
235.247
 20
24.8015
 11
235.092
 21
24.538
  0
LINE
  8
0
 10
235.092
 20
24.538
 11
234.977
 21
24.1419
  0
LINE
  8
0
 10
234.977
 20
24.1419
 11
234.927
 21
23.524
  0
LINE
  8
0
 10
234.927
 20
23.524
 11
236.836
 21
23.524
  0
LINE
  8
0
 10
236.836
 20
23.524
 11
236.791
 21
24.2051
  0
LINE
  8
0
 10
327.874
 20
20.8461
 11
327.777
 21
20.8601
  0
LINE
  8
0
 10
327.777
 20
20.8601
 11
327.613
 21
20.9013
  0
LINE
  8
0
 10
327.613
 20
20.9013
 11
327.479
 21
20.9563
  0
LINE
  8
0
 10
327.479
 20
20.9563
 11
327.359
 21
21.028
  0
LINE
  8
0
 10
327.359
 20
21.028
 11
327.254
 21
21.1163
  0
LINE
  8
0
 10
327.254
 20
21.1163
 11
327.163
 21
21.2213
  0
LINE
  8
0
 10
327.163
 20
21.2213
 11
327.087
 21
21.343
  0
LINE
  8
0
 10
327.087
 20
21.343
 11
327.019
 21
21.4961
  0
LINE
  8
0
 10
327.019
 20
21.4961
 11
326.969
 21
21.6693
  0
LINE
  8
0
 10
326.969
 20
21.6693
 11
326.935
 21
21.8813
  0
LINE
  8
0
 10
326.935
 20
21.8813
 11
326.921
 21
22.159
  0
LINE
  8
0
 10
326.921
 20
22.159
 11
326.945
 21
22.4688
  0
LINE
  8
0
 10
326.945
 20
22.4688
 11
327.083
 21
22.8744
  0
LINE
  8
0
 10
327.083
 20
22.8744
 11
327.214
 21
23.052
  0
LINE
  8
0
 10
327.214
 20
23.052
 11
327.532
 21
23.285
  0
LINE
  8
0
 10
327.532
 20
23.285
 11
328.036
 21
23.4433
  0
LINE
  8
0
 10
328.036
 20
23.4433
 11
329.42
 21
23.524
  0
LINE
  8
0
 10
329.42
 20
23.524
 11
329.42
 21
24.2131
  0
LINE
  8
0
 10
329.42
 20
24.2131
 11
329.376
 21
24.602
  0
LINE
  8
0
 10
329.376
 20
24.602
 11
329.248
 21
24.8724
  0
LINE
  8
0
 10
329.248
 20
24.8724
 11
329.057
 21
25.0207
  0
LINE
  8
0
 10
329.057
 20
25.0207
 11
328.747
 21
25.0829
  0
LINE
  8
0
 10
328.747
 20
25.0829
 11
328.317
 21
25.0384
  0
LINE
  8
0
 10
328.317
 20
25.0384
 11
327.862
 21
24.865
  0
LINE
  8
0
 10
327.862
 20
24.865
 11
327.7
 21
24.322
  0
LINE
  8
0
 10
327.7
 20
24.322
 11
327.434
 21
24.322
  0
LINE
  8
0
 10
327.434
 20
24.322
 11
327.434
 21
25.28
  0
LINE
  8
0
 10
327.434
 20
25.28
 11
328.439
 21
25.4306
  0
LINE
  8
0
 10
328.439
 20
25.4306
 11
329.232
 21
25.4109
  0
LINE
  8
0
 10
329.232
 20
25.4109
 11
329.583
 21
25.3147
  0
LINE
  8
0
 10
329.583
 20
25.3147
 11
329.823
 21
25.1782
  0
LINE
  8
0
 10
329.823
 20
25.1782
 11
329.999
 21
24.9983
  0
LINE
  8
0
 10
329.999
 20
24.9983
 11
330.121
 21
24.7695
  0
LINE
  8
0
 10
330.121
 20
24.7695
 11
330.195
 21
24.4568
  0
LINE
  8
0
 10
330.195
 20
24.4568
 11
330.208
 21
21.233
  0
LINE
  8
0
 10
330.208
 20
21.233
 11
330.764
 21
21.114
  0
LINE
  8
0
 10
330.764
 20
21.114
 11
330.764
 21
20.9
  0
LINE
  8
0
 10
330.764
 20
20.9
 11
329.538
 21
20.9
  0
LINE
  8
0
 10
329.538
 20
20.9
 11
329.448
 21
21.378
  0
LINE
  8
0
 10
329.448
 20
21.378
 11
329.395
 21
21.3276
  0
LINE
  8
0
 10
329.395
 20
21.3276
 11
329.144
 21
21.1313
  0
LINE
  8
0
 10
329.144
 20
21.1313
 11
328.875
 21
20.9893
  0
LINE
  8
0
 10
328.875
 20
20.9893
 11
328.569
 21
20.8906
  0
LINE
  8
0
 10
328.569
 20
20.8906
 11
328.223
 21
20.8409
  0
LINE
  8
0
 10
328.223
 20
20.8409
 11
327.874
 21
20.8461
  0
LINE
  8
0
 10
328.834
 20
21.4023
 11
328.858
 21
21.4078
  0
LINE
  8
0
 10
328.858
 20
21.4078
 11
329.42
 21
21.62
  0
LINE
  8
0
 10
329.42
 20
21.62
 11
329.42
 21
23.191
  0
LINE
  8
0
 10
329.42
 20
23.191
 11
328.798
 21
23.172
  0
LINE
  8
0
 10
328.798
 20
23.172
 11
328.27
 21
23.1012
  0
LINE
  8
0
 10
328.27
 20
23.1012
 11
328.008
 21
22.9864
  0
LINE
  8
0
 10
328.008
 20
22.9864
 11
327.866
 21
22.8451
  0
LINE
  8
0
 10
327.866
 20
22.8451
 11
327.754
 21
22.5898
  0
LINE
  8
0
 10
327.754
 20
22.5898
 11
327.711
 21
22.1235
  0
LINE
  8
0
 10
327.711
 20
22.1235
 11
327.739
 21
21.8812
  0
LINE
  8
0
 10
327.739
 20
21.8812
 11
327.792
 21
21.7101
  0
LINE
  8
0
 10
327.792
 20
21.7101
 11
327.864
 21
21.5865
  0
LINE
  8
0
 10
327.864
 20
21.5865
 11
327.95
 21
21.4948
  0
LINE
  8
0
 10
327.95
 20
21.4948
 11
328.064
 21
21.423
  0
LINE
  8
0
 10
328.064
 20
21.423
 11
328.199
 21
21.3779
  0
LINE
  8
0
 10
328.199
 20
21.3779
 11
328.378
 21
21.3591
  0
LINE
  8
0
 10
328.378
 20
21.3591
 11
328.834
 21
21.4023
  0
LINE
  8
0
 10
145.985
 20
20.9
 11
145.985
 21
21.114
  0
LINE
  8
0
 10
145.985
 20
21.114
 11
146.745
 21
21.233
  0
LINE
  8
0
 10
146.745
 20
21.233
 11
146.745
 21
25.047
  0
LINE
  8
0
 10
146.745
 20
25.047
 11
146.114
 21
25.166
  0
LINE
  8
0
 10
146.114
 20
25.166
 11
146.114
 21
25.38
  0
LINE
  8
0
 10
146.114
 20
25.38
 11
147.534
 21
25.38
  0
LINE
  8
0
 10
147.534
 20
25.38
 11
147.534
 21
21.233
  0
LINE
  8
0
 10
147.534
 20
21.233
 11
148.299
 21
21.114
  0
LINE
  8
0
 10
148.299
 20
21.114
 11
148.299
 21
20.9
  0
LINE
  8
0
 10
148.299
 20
20.9
 11
145.985
 21
20.9
  0
ENDSEC
  0
SECTION
  2
OBJECTS
  0
DICTIONARY
  0
ENDSEC
  0
EOF
