  0
SECTION
  2
BLOCKS
  0
ENDSEC
  0
SECTION
  2
ENTITIES
  0
LINE
  8
0
 10
96.55
 20
60.05
 11
-3.45
 21
60.05
  0
LINE
  8
0
 10
-3.45
 20
60.05
 11
-3.45
 21
-4.95
  0
LINE
  8
0
 10
-3.45
 20
-4.95
 11
96.55
 21
-4.95
  0
LINE
  8
0
 10
96.55
 20
-4.95
 11
96.55
 21
60.05
  0
LINE
  8
0
 10
92.8004
 20
53.6302
 11
92.6906
 21
53.657
  0
LINE
  8
0
 10
92.6906
 20
53.657
 11
92.3939
 21
53.7766
  0
LINE
  8
0
 10
92.3939
 20
53.7766
 11
92.1294
 21
53.9563
  0
LINE
  8
0
 10
92.1294
 20
53.9563
 11
91.909
 21
54.1881
  0
LINE
  8
0
 10
91.909
 20
54.1881
 11
91.7428
 21
54.4613
  0
LINE
  8
0
 10
91.7428
 20
54.4613
 11
91.6382
 21
54.7636
  0
LINE
  8
0
 10
91.6382
 20
54.7636
 11
91.6001
 21
55.0811
  0
LINE
  8
0
 10
91.6001
 20
55.0811
 11
91.6302
 21
55.3996
  0
LINE
  8
0
 10
91.6302
 20
55.3996
 11
91.7271
 21
55.7043
  0
LINE
  8
0
 10
91.7271
 20
55.7043
 11
91.8865
 21
55.9817
  0
LINE
  8
0
 10
91.8865
 20
55.9817
 11
92.101
 21
56.2189
  0
LINE
  8
0
 10
92.101
 20
56.2189
 11
92.3609
 21
56.4053
  0
LINE
  8
0
 10
92.3609
 20
56.4053
 11
92.6544
 21
56.5323
  0
LINE
  8
0
 10
92.6544
 20
56.5323
 11
92.9682
 21
56.5942
  0
LINE
  8
0
 10
92.9682
 20
56.5942
 11
93.288
 21
56.5882
  0
LINE
  8
0
 10
93.288
 20
56.5882
 11
93.5992
 21
56.5145
  0
LINE
  8
0
 10
93.5992
 20
56.5145
 11
93.8878
 21
56.3765
  0
LINE
  8
0
 10
93.8878
 20
56.3765
 11
94.1472
 21
56.1739
  0
LINE
  8
0
 10
94.1472
 20
56.1739
 11
94.3563
 21
55.9196
  0
LINE
  8
0
 10
94.3563
 20
55.9196
 11
94.5015
 21
55.6346
  0
LINE
  8
0
 10
94.5015
 20
55.6346
 11
94.583
 21
55.3253
  0
LINE
  8
0
 10
94.583
 20
55.3253
 11
94.597
 21
55.0058
  0
LINE
  8
0
 10
94.597
 20
55.0058
 11
94.543
 21
54.6906
  0
LINE
  8
0
 10
94.543
 20
54.6906
 11
94.4234
 21
54.3939
  0
LINE
  8
0
 10
94.4234
 20
54.3939
 11
94.2437
 21
54.1294
  0
LINE
  8
0
 10
94.2437
 20
54.1294
 11
94.0119
 21
53.909
  0
LINE
  8
0
 10
94.0119
 20
53.909
 11
93.7387
 21
53.7428
  0
LINE
  8
0
 10
93.7387
 20
53.7428
 11
93.4364
 21
53.6382
  0
LINE
  8
0
 10
93.4364
 20
53.6382
 11
93.1188
 21
53.6001
  0
LINE
  8
0
 10
93.1188
 20
53.6001
 11
92.8004
 21
53.6302
  0
LINE
  8
0
 10
-0.299576
 20
53.6302
 11
-0.382156
 21
53.6495
  0
LINE
  8
0
 10
-0.382156
 20
53.6495
 11
-0.681
 21
53.7635
  0
LINE
  8
0
 10
-0.681
 20
53.7635
 11
-0.948868
 21
53.9382
  0
LINE
  8
0
 10
-0.948868
 20
53.9382
 11
-1.1736
 21
54.1658
  0
LINE
  8
0
 10
-1.1736
 20
54.1658
 11
-1.34497
 21
54.4359
  0
LINE
  8
0
 10
-1.34497
 20
54.4359
 11
-1.4552
 21
54.7361
  0
LINE
  8
0
 10
-1.4552
 20
54.7361
 11
-1.49927
 21
55.0529
  0
LINE
  8
0
 10
-1.49927
 20
55.0529
 11
-1.47343
 21
55.3811
  0
LINE
  8
0
 10
-1.47343
 20
55.3811
 11
-1.38036
 21
55.6871
  0
LINE
  8
0
 10
-1.38036
 20
55.6871
 11
-1.22452
 21
55.9664
  0
LINE
  8
0
 10
-1.22452
 20
55.9664
 11
-1.013
 21
56.2063
  0
LINE
  8
0
 10
-1.013
 20
56.2063
 11
-0.755447
 21
56.3959
  0
LINE
  8
0
 10
-0.755447
 20
56.3959
 11
-0.463531
 21
56.5266
  0
LINE
  8
0
 10
-0.463531
 20
56.5266
 11
-0.150543
 21
56.5924
  0
LINE
  8
0
 10
-0.150543
 20
56.5924
 11
0.169281
 21
56.5904
  0
LINE
  8
0
 10
0.169281
 20
56.5904
 11
0.481415
 21
56.5206
  0
LINE
  8
0
 10
0.481415
 20
56.5206
 11
0.771652
 21
56.3863
  0
LINE
  8
0
 10
0.771652
 20
56.3863
 11
1.02681
 21
56.1935
  0
LINE
  8
0
 10
1.02681
 20
56.1935
 11
1.24062
 21
55.9431
  0
LINE
  8
0
 10
1.24062
 20
55.9431
 11
1.39465
 21
55.6522
  0
LINE
  8
0
 10
1.39465
 20
55.6522
 11
1.48003
 21
55.3439
  0
LINE
  8
0
 10
1.48003
 20
55.3439
 11
1.49759
 21
55.0152
  0
LINE
  8
0
 10
1.49759
 20
55.0152
 11
1.44557
 21
54.6996
  0
LINE
  8
0
 10
1.44557
 20
54.6996
 11
1.32784
 21
54.4023
  0
LINE
  8
0
 10
1.32784
 20
54.4023
 11
1.14973
 21
54.1366
  0
LINE
  8
0
 10
1.14973
 20
54.1366
 11
0.919357
 21
53.9148
  0
LINE
  8
0
 10
0.919357
 20
53.9148
 11
0.638657
 21
53.7428
  0
LINE
  8
0
 10
0.638657
 20
53.7428
 11
0.336395
 21
53.6382
  0
LINE
  8
0
 10
0.336395
 20
53.6382
 11
0.0188446
 21
53.6001
  0
LINE
  8
0
 10
0.0188446
 20
53.6001
 11
-0.299576
 21
53.6302
  0
LINE
  8
0
 10
80.4004
 20
51.3302
 11
80.3361
 21
51.3448
  0
LINE
  8
0
 10
80.3361
 20
51.3448
 11
80.0358
 21
51.455
  0
LINE
  8
0
 10
80.0358
 20
51.455
 11
79.7658
 21
51.6264
  0
LINE
  8
0
 10
79.7658
 20
51.6264
 11
79.5382
 21
51.8511
  0
LINE
  8
0
 10
79.5382
 20
51.8511
 11
79.3635
 21
52.119
  0
LINE
  8
0
 10
79.3635
 20
52.119
 11
79.2471
 21
52.427
  0
LINE
  8
0
 10
79.2471
 20
52.427
 11
79.2007
 21
52.7529
  0
LINE
  8
0
 10
79.2007
 20
52.7529
 11
79.2265
 21
53.0811
  0
LINE
  8
0
 10
79.2265
 20
53.0811
 11
79.3196
 21
53.387
  0
LINE
  8
0
 10
79.3196
 20
53.387
 11
79.4755
 21
53.6663
  0
LINE
  8
0
 10
79.4755
 20
53.6663
 11
79.694
 21
53.9126
  0
LINE
  8
0
 10
79.694
 20
53.9126
 11
79.9527
 21
54.1006
  0
LINE
  8
0
 10
79.9527
 20
54.1006
 11
80.2454
 21
54.2294
  0
LINE
  8
0
 10
80.2454
 20
54.2294
 11
80.5588
 21
54.2933
  0
LINE
  8
0
 10
80.5588
 20
54.2933
 11
80.8786
 21
54.2893
  0
LINE
  8
0
 10
80.8786
 20
54.2893
 11
81.1992
 21
54.2145
  0
LINE
  8
0
 10
81.1992
 20
54.2145
 11
81.4877
 21
54.0765
  0
LINE
  8
0
 10
81.4877
 20
54.0765
 11
81.7405
 21
53.8804
  0
LINE
  8
0
 10
81.7405
 20
53.8804
 11
81.9459
 21
53.6353
  0
LINE
  8
0
 10
81.9459
 20
53.6353
 11
82.0947
 21
53.3522
  0
LINE
  8
0
 10
82.0947
 20
53.3522
 11
82.1815
 21
53.0346
  0
LINE
  8
0
 10
82.1815
 20
53.0346
 11
82.1976
 21
52.7152
  0
LINE
  8
0
 10
82.1976
 20
52.7152
 11
82.1456
 21
52.3996
  0
LINE
  8
0
 10
82.1456
 20
52.3996
 11
82.0278
 21
52.1023
  0
LINE
  8
0
 10
82.0278
 20
52.1023
 11
81.8497
 21
51.8366
  0
LINE
  8
0
 10
81.8497
 20
51.8366
 11
81.6193
 21
51.6148
  0
LINE
  8
0
 10
81.6193
 20
51.6148
 11
81.3472
 21
51.4468
  0
LINE
  8
0
 10
81.3472
 20
51.4468
 11
81.0456
 21
51.3403
  0
LINE
  8
0
 10
81.0456
 20
51.3403
 11
80.7188
 21
51.3001
  0
LINE
  8
0
 10
80.7188
 20
51.3001
 11
80.4004
 21
51.3302
  0
LINE
  8
0
 10
5.50043
 20
51.3302
 11
5.47278
 21
51.3361
  0
LINE
  8
0
 10
5.47278
 20
51.3361
 11
5.16986
 21
51.4388
  0
LINE
  8
0
 10
5.16986
 20
51.4388
 11
4.8956
 21
51.6033
  0
LINE
  8
0
 10
4.8956
 20
51.6033
 11
4.66245
 21
51.8223
  0
LINE
  8
0
 10
4.66245
 20
51.8223
 11
4.48103
 21
52.0856
  0
LINE
  8
0
 10
4.48103
 20
52.0856
 11
4.35696
 21
52.3906
  0
LINE
  8
0
 10
4.35696
 20
52.3906
 11
4.30296
 21
52.7058
  0
LINE
  8
0
 10
4.30296
 20
52.7058
 11
4.31848
 21
53.0346
  0
LINE
  8
0
 10
4.31848
 20
53.0346
 11
4.4019
 21
53.3434
  0
LINE
  8
0
 10
4.4019
 20
53.3434
 11
4.55411
 21
53.6353
  0
LINE
  8
0
 10
4.55411
 20
53.6353
 11
4.75952
 21
53.8804
  0
LINE
  8
0
 10
4.75952
 20
53.8804
 11
5.01224
 21
54.0765
  0
LINE
  8
0
 10
5.01224
 20
54.0765
 11
5.30966
 21
54.2176
  0
LINE
  8
0
 10
5.30966
 20
54.2176
 11
5.62135
 21
54.2893
  0
LINE
  8
0
 10
5.62135
 20
54.2893
 11
5.95052
 21
54.2924
  0
LINE
  8
0
 10
5.95052
 20
54.2924
 11
6.2635
 21
54.2266
  0
LINE
  8
0
 10
6.2635
 20
54.2266
 11
6.55542
 21
54.0959
  0
LINE
  8
0
 10
6.55542
 20
54.0959
 11
6.81992
 21
53.8999
  0
LINE
  8
0
 10
6.81992
 20
53.8999
 11
7.02991
 21
53.6586
  0
LINE
  8
0
 10
7.02991
 20
53.6586
 11
7.18399
 21
53.3784
  0
LINE
  8
0
 10
7.18399
 20
53.3784
 11
7.27682
 21
53.0625
  0
LINE
  8
0
 10
7.27682
 20
53.0625
 11
7.29892
 21
52.7435
  0
LINE
  8
0
 10
7.29892
 20
52.7435
 11
7.25049
 21
52.4178
  0
LINE
  8
0
 10
7.25049
 20
52.4178
 11
7.13219
 21
52.1106
  0
LINE
  8
0
 10
7.13219
 20
52.1106
 11
6.95575
 21
51.8439
  0
LINE
  8
0
 10
6.95575
 20
51.8439
 11
6.72678
 21
51.6206
  0
LINE
  8
0
 10
6.72678
 20
51.6206
 11
6.45566
 21
51.4509
  0
LINE
  8
0
 10
6.45566
 20
51.4509
 11
6.14557
 21
51.3403
  0
LINE
  8
0
 10
6.14557
 20
51.3403
 11
5.81883
 21
51.3001
  0
LINE
  8
0
 10
5.81883
 20
51.3001
 11
5.50043
 21
51.3302
  0
LINE
  8
0
 10
56.3004
 20
36.0302
 11
56.2544
 21
36.0403
  0
LINE
  8
0
 10
56.2544
 20
36.0403
 11
55.9528
 21
36.1468
  0
LINE
  8
0
 10
55.9528
 20
36.1468
 11
55.6806
 21
36.3148
  0
LINE
  8
0
 10
55.6806
 20
36.3148
 11
55.4503
 21
36.5366
  0
LINE
  8
0
 10
55.4503
 20
36.5366
 11
55.2678
 21
36.8106
  0
LINE
  8
0
 10
55.2678
 20
36.8106
 11
55.1519
 21
37.1087
  0
LINE
  8
0
 10
55.1519
 20
37.1087
 11
55.1019
 21
37.4246
  0
LINE
  8
0
 10
55.1019
 20
37.4246
 11
55.12
 21
37.7439
  0
LINE
  8
0
 10
55.12
 20
37.7439
 11
55.2088
 21
38.0609
  0
LINE
  8
0
 10
55.2088
 20
38.0609
 11
55.3594
 21
38.3431
  0
LINE
  8
0
 10
55.3594
 20
38.3431
 11
55.5663
 21
38.587
  0
LINE
  8
0
 10
55.5663
 20
38.587
 11
55.8203
 21
38.7814
  0
LINE
  8
0
 10
55.8203
 20
38.7814
 11
56.1186
 21
38.9206
  0
LINE
  8
0
 10
56.1186
 20
38.9206
 11
56.4307
 21
38.9904
  0
LINE
  8
0
 10
56.4307
 20
38.9904
 11
56.7505
 21
38.9924
  0
LINE
  8
0
 10
56.7505
 20
38.9924
 11
57.0635
 21
38.9266
  0
LINE
  8
0
 10
57.0635
 20
38.9266
 11
57.3554
 21
38.7959
  0
LINE
  8
0
 10
57.3554
 20
38.7959
 11
57.6199
 21
38.5999
  0
LINE
  8
0
 10
57.6199
 20
38.5999
 11
57.8353
 21
38.3509
  0
LINE
  8
0
 10
57.8353
 20
38.3509
 11
57.9876
 21
38.0697
  0
LINE
  8
0
 10
57.9876
 20
38.0697
 11
58.0768
 21
37.7625
  0
LINE
  8
0
 10
58.0768
 20
37.7625
 11
58.0989
 21
37.4435
  0
LINE
  8
0
 10
58.0989
 20
37.4435
 11
58.0505
 21
37.1178
  0
LINE
  8
0
 10
58.0505
 20
37.1178
 11
57.9322
 21
36.8106
  0
LINE
  8
0
 10
57.9322
 20
36.8106
 11
57.7558
 21
36.5439
  0
LINE
  8
0
 10
57.7558
 20
36.5439
 11
57.5268
 21
36.3206
  0
LINE
  8
0
 10
57.5268
 20
36.3206
 11
57.2557
 21
36.1509
  0
LINE
  8
0
 10
57.2557
 20
36.1509
 11
56.9456
 21
36.0403
  0
LINE
  8
0
 10
56.9456
 20
36.0403
 11
56.6283
 21
36.0002
  0
LINE
  8
0
 10
56.6283
 20
36.0002
 11
56.3004
 21
36.0302
  0
LINE
  8
0
 10
24.647
 20
32.947
 11
24.496
 21
33.009
  0
LINE
  8
0
 10
24.496
 20
33.009
 11
24.2385
 21
33.1973
  0
LINE
  8
0
 10
24.2385
 20
33.1973
 11
24.0534
 21
33.4572
  0
LINE
  8
0
 10
24.0534
 20
33.4572
 11
23.9595
 21
33.7622
  0
LINE
  8
0
 10
23.9595
 20
33.7622
 11
23.9666
 21
34.0812
  0
LINE
  8
0
 10
23.9666
 20
34.0812
 11
24.0737
 21
34.3817
  0
LINE
  8
0
 10
24.0737
 20
34.3817
 11
24.2701
 21
34.6332
  0
LINE
  8
0
 10
24.2701
 20
34.6332
 11
24.5356
 21
34.8101
  0
LINE
  8
0
 10
24.5356
 20
34.8101
 11
24.8434
 21
34.8943
  0
LINE
  8
0
 10
24.8434
 20
34.8943
 11
25.162
 21
34.8772
  0
LINE
  8
0
 10
25.162
 20
34.8772
 11
25.4644
 21
34.7575
  0
LINE
  8
0
 10
25.4644
 20
34.7575
 11
25.7084
 21
34.5518
  0
LINE
  8
0
 10
25.7084
 20
34.5518
 11
25.8774
 21
34.2739
  0
LINE
  8
0
 10
25.8774
 20
34.2739
 11
25.9484
 21
33.9565
  0
LINE
  8
0
 10
25.9484
 20
33.9565
 11
25.9154
 21
33.6391
  0
LINE
  8
0
 10
25.9154
 20
33.6391
 11
25.7841
 21
33.3483
  0
LINE
  8
0
 10
25.7841
 20
33.3483
 11
25.5679
 21
33.1137
  0
LINE
  8
0
 10
25.5679
 20
33.1137
 11
25.2887
 21
32.9591
  0
LINE
  8
0
 10
25.2887
 20
32.9591
 11
24.9688
 21
32.9002
  0
LINE
  8
0
 10
24.9688
 20
32.9002
 11
24.647
 21
32.947
  0
LINE
  8
0
 10
65.287
 20
32.947
 11
65.136
 21
33.009
  0
LINE
  8
0
 10
65.136
 20
33.009
 11
64.8784
 21
33.1973
  0
LINE
  8
0
 10
64.8784
 20
33.1973
 11
64.6933
 21
33.4572
  0
LINE
  8
0
 10
64.6933
 20
33.4572
 11
64.5995
 21
33.7622
  0
LINE
  8
0
 10
64.5995
 20
33.7622
 11
64.6065
 21
34.0812
  0
LINE
  8
0
 10
64.6065
 20
34.0812
 11
64.7137
 21
34.3817
  0
LINE
  8
0
 10
64.7137
 20
34.3817
 11
64.91
 21
34.6332
  0
LINE
  8
0
 10
64.91
 20
34.6332
 11
65.1756
 21
34.8101
  0
LINE
  8
0
 10
65.1756
 20
34.8101
 11
65.4834
 21
34.8943
  0
LINE
  8
0
 10
65.4834
 20
34.8943
 11
65.802
 21
34.8772
  0
LINE
  8
0
 10
65.802
 20
34.8772
 11
66.1044
 21
34.7575
  0
LINE
  8
0
 10
66.1044
 20
34.7575
 11
66.3484
 21
34.5518
  0
LINE
  8
0
 10
66.3484
 20
34.5518
 11
66.5174
 21
34.2739
  0
LINE
  8
0
 10
66.5174
 20
34.2739
 11
66.5884
 21
33.9565
  0
LINE
  8
0
 10
66.5884
 20
33.9565
 11
66.5554
 21
33.6391
  0
LINE
  8
0
 10
66.5554
 20
33.6391
 11
66.4241
 21
33.3483
  0
LINE
  8
0
 10
66.4241
 20
33.3483
 11
66.2079
 21
33.1137
  0
LINE
  8
0
 10
66.2079
 20
33.1137
 11
65.9287
 21
32.9591
  0
LINE
  8
0
 10
65.9287
 20
32.9591
 11
65.6088
 21
32.9002
  0
LINE
  8
0
 10
65.6088
 20
32.9002
 11
65.287
 21
32.947
  0
LINE
  8
0
 10
24.647
 20
17.707
 11
24.496
 21
17.769
  0
LINE
  8
0
 10
24.496
 20
17.769
 11
24.2385
 21
17.9574
  0
LINE
  8
0
 10
24.2385
 20
17.9574
 11
24.0534
 21
18.2172
  0
LINE
  8
0
 10
24.0534
 20
18.2172
 11
23.9595
 21
18.5222
  0
LINE
  8
0
 10
23.9595
 20
18.5222
 11
23.9666
 21
18.8412
  0
LINE
  8
0
 10
23.9666
 20
18.8412
 11
24.0737
 21
19.1417
  0
LINE
  8
0
 10
24.0737
 20
19.1417
 11
24.2701
 21
19.3932
  0
LINE
  8
0
 10
24.2701
 20
19.3932
 11
24.5356
 21
19.5701
  0
LINE
  8
0
 10
24.5356
 20
19.5701
 11
24.8434
 21
19.6543
  0
LINE
  8
0
 10
24.8434
 20
19.6543
 11
25.162
 21
19.6373
  0
LINE
  8
0
 10
25.162
 20
19.6373
 11
25.4644
 21
19.5175
  0
LINE
  8
0
 10
25.4644
 20
19.5175
 11
25.7084
 21
19.3118
  0
LINE
  8
0
 10
25.7084
 20
19.3118
 11
25.8774
 21
19.0339
  0
LINE
  8
0
 10
25.8774
 20
19.0339
 11
25.9484
 21
18.7165
  0
LINE
  8
0
 10
25.9484
 20
18.7165
 11
25.9154
 21
18.3992
  0
LINE
  8
0
 10
25.9154
 20
18.3992
 11
25.7841
 21
18.1084
  0
LINE
  8
0
 10
25.7841
 20
18.1084
 11
25.5679
 21
17.8737
  0
LINE
  8
0
 10
25.5679
 20
17.8737
 11
25.2887
 21
17.7191
  0
LINE
  8
0
 10
25.2887
 20
17.7191
 11
24.9688
 21
17.6602
  0
LINE
  8
0
 10
24.9688
 20
17.6602
 11
24.647
 21
17.707
  0
LINE
  8
0
 10
65.287
 20
17.707
 11
65.136
 21
17.769
  0
LINE
  8
0
 10
65.136
 20
17.769
 11
64.8784
 21
17.9574
  0
LINE
  8
0
 10
64.8784
 20
17.9574
 11
64.6933
 21
18.2172
  0
LINE
  8
0
 10
64.6933
 20
18.2172
 11
64.5995
 21
18.5222
  0
LINE
  8
0
 10
64.5995
 20
18.5222
 11
64.6065
 21
18.8412
  0
LINE
  8
0
 10
64.6065
 20
18.8412
 11
64.7137
 21
19.1417
  0
LINE
  8
0
 10
64.7137
 20
19.1417
 11
64.91
 21
19.3932
  0
LINE
  8
0
 10
64.91
 20
19.3932
 11
65.1756
 21
19.5701
  0
LINE
  8
0
 10
65.1756
 20
19.5701
 11
65.4834
 21
19.6543
  0
LINE
  8
0
 10
65.4834
 20
19.6543
 11
65.802
 21
19.6373
  0
LINE
  8
0
 10
65.802
 20
19.6373
 11
66.1044
 21
19.5175
  0
LINE
  8
0
 10
66.1044
 20
19.5175
 11
66.3484
 21
19.3118
  0
LINE
  8
0
 10
66.3484
 20
19.3118
 11
66.5174
 21
19.0339
  0
LINE
  8
0
 10
66.5174
 20
19.0339
 11
66.5884
 21
18.7165
  0
LINE
  8
0
 10
66.5884
 20
18.7165
 11
66.5554
 21
18.3992
  0
LINE
  8
0
 10
66.5554
 20
18.3992
 11
66.4241
 21
18.1084
  0
LINE
  8
0
 10
66.4241
 20
18.1084
 11
66.2079
 21
17.8737
  0
LINE
  8
0
 10
66.2079
 20
17.8737
 11
65.9287
 21
17.7191
  0
LINE
  8
0
 10
65.9287
 20
17.7191
 11
65.6088
 21
17.6602
  0
LINE
  8
0
 10
65.6088
 20
17.6602
 11
65.287
 21
17.707
  0
LINE
  8
0
 10
56.3004
 20
8.13022
 11
56.2728
 21
8.13612
  0
LINE
  8
0
 10
56.2728
 20
8.13612
 11
55.9699
 21
8.23877
  0
LINE
  8
0
 10
55.9699
 20
8.23877
 11
55.6956
 21
8.40331
  0
LINE
  8
0
 10
55.6956
 20
8.40331
 11
55.4624
 21
8.62225
  0
LINE
  8
0
 10
55.4624
 20
8.62225
 11
55.281
 21
8.88564
  0
LINE
  8
0
 10
55.281
 20
8.88564
 11
55.157
 21
9.19057
  0
LINE
  8
0
 10
55.157
 20
9.19057
 11
55.103
 21
9.50581
  0
LINE
  8
0
 10
55.103
 20
9.50581
 11
55.1185
 21
9.83464
  0
LINE
  8
0
 10
55.1185
 20
9.83464
 11
55.2019
 21
10.1434
  0
LINE
  8
0
 10
55.2019
 20
10.1434
 11
55.3541
 21
10.4353
  0
LINE
  8
0
 10
55.3541
 20
10.4353
 11
55.5595
 21
10.6805
  0
LINE
  8
0
 10
55.5595
 20
10.6805
 11
55.8122
 21
10.8765
  0
LINE
  8
0
 10
55.8122
 20
10.8765
 11
56.1097
 21
11.0176
  0
LINE
  8
0
 10
56.1097
 20
11.0176
 11
56.4214
 21
11.0893
  0
LINE
  8
0
 10
56.4214
 20
11.0893
 11
56.7505
 21
11.0924
  0
LINE
  8
0
 10
56.7505
 20
11.0924
 11
57.0635
 21
11.0266
  0
LINE
  8
0
 10
57.0635
 20
11.0266
 11
57.3554
 21
10.8959
  0
LINE
  8
0
 10
57.3554
 20
10.8959
 11
57.6199
 21
10.6999
  0
LINE
  8
0
 10
57.6199
 20
10.6999
 11
57.8299
 21
10.4586
  0
LINE
  8
0
 10
57.8299
 20
10.4586
 11
57.984
 21
10.1784
  0
LINE
  8
0
 10
57.984
 20
10.1784
 11
58.0768
 21
9.86252
  0
LINE
  8
0
 10
58.0768
 20
9.86252
 11
58.0989
 21
9.54346
  0
LINE
  8
0
 10
58.0989
 20
9.54346
 11
58.0505
 21
9.21785
  0
LINE
  8
0
 10
58.0505
 20
9.21785
 11
57.9322
 21
8.91063
  0
LINE
  8
0
 10
57.9322
 20
8.91063
 11
57.7558
 21
8.64386
  0
LINE
  8
0
 10
57.7558
 20
8.64386
 11
57.5268
 21
8.42056
  0
LINE
  8
0
 10
57.5268
 20
8.42056
 11
57.2557
 21
8.25089
  0
LINE
  8
0
 10
57.2557
 20
8.25089
 11
56.9456
 21
8.14035
  0
LINE
  8
0
 10
56.9456
 20
8.14035
 11
56.6188
 21
8.10011
  0
LINE
  8
0
 10
56.6188
 20
8.10011
 11
56.3004
 21
8.13022
  0
LINE
  8
0
 10
4.20044
 20
3.03023
 11
4.17279
 21
3.03613
  0
LINE
  8
0
 10
4.17279
 20
3.03613
 11
3.86987
 21
3.13878
  0
LINE
  8
0
 10
3.86987
 20
3.13878
 11
3.59561
 21
3.30331
  0
LINE
  8
0
 10
3.59561
 20
3.30331
 11
3.36246
 21
3.52226
  0
LINE
  8
0
 10
3.36246
 20
3.52226
 11
3.18103
 21
3.78564
  0
LINE
  8
0
 10
3.18103
 20
3.78564
 11
3.05696
 21
4.09058
  0
LINE
  8
0
 10
3.05696
 20
4.09058
 11
3.00296
 21
4.40582
  0
LINE
  8
0
 10
3.00296
 20
4.40582
 11
3.01848
 21
4.73465
  0
LINE
  8
0
 10
3.01848
 20
4.73465
 11
3.1019
 21
5.04341
  0
LINE
  8
0
 10
3.1019
 20
5.04341
 11
3.25412
 21
5.33531
  0
LINE
  8
0
 10
3.25412
 20
5.33531
 11
3.45953
 21
5.58046
  0
LINE
  8
0
 10
3.45953
 20
5.58046
 11
3.71225
 21
5.77649
  0
LINE
  8
0
 10
3.71225
 20
5.77649
 11
4.00967
 21
5.91759
  0
LINE
  8
0
 10
4.00967
 20
5.91759
 11
4.32137
 21
5.98932
  0
LINE
  8
0
 10
4.32137
 20
5.98932
 11
4.65053
 21
5.99242
  0
LINE
  8
0
 10
4.65053
 20
5.99242
 11
4.96352
 21
5.92657
  0
LINE
  8
0
 10
4.96352
 20
5.92657
 11
5.25543
 21
5.79588
  0
LINE
  8
0
 10
5.25543
 20
5.79588
 11
5.51993
 21
5.59987
  0
LINE
  8
0
 10
5.51993
 20
5.59987
 11
5.72992
 21
5.35864
  0
LINE
  8
0
 10
5.72992
 20
5.35864
 11
5.884
 21
5.07837
  0
LINE
  8
0
 10
5.884
 20
5.07837
 11
5.97684
 21
4.76253
  0
LINE
  8
0
 10
5.97684
 20
4.76253
 11
5.99893
 21
4.44347
  0
LINE
  8
0
 10
5.99893
 20
4.44347
 11
5.9505
 21
4.11786
  0
LINE
  8
0
 10
5.9505
 20
4.11786
 11
5.8322
 21
3.81064
  0
LINE
  8
0
 10
5.8322
 20
3.81064
 11
5.65576
 21
3.54387
  0
LINE
  8
0
 10
5.65576
 20
3.54387
 11
5.42679
 21
3.32057
  0
LINE
  8
0
 10
5.42679
 20
3.32057
 11
5.15567
 21
3.15089
  0
LINE
  8
0
 10
5.15567
 20
3.15089
 11
4.84558
 21
3.04036
  0
LINE
  8
0
 10
4.84558
 20
3.04036
 11
4.51884
 21
3.00012
  0
LINE
  8
0
 10
4.51884
 20
3.00012
 11
4.20044
 21
3.03023
  0
LINE
  8
0
 10
88.7004
 20
3.03023
 11
88.6728
 21
3.03613
  0
LINE
  8
0
 10
88.6728
 20
3.03613
 11
88.3699
 21
3.13878
  0
LINE
  8
0
 10
88.3699
 20
3.13878
 11
88.0956
 21
3.30331
  0
LINE
  8
0
 10
88.0956
 20
3.30331
 11
87.8624
 21
3.52226
  0
LINE
  8
0
 10
87.8624
 20
3.52226
 11
87.681
 21
3.78564
  0
LINE
  8
0
 10
87.681
 20
3.78564
 11
87.5569
 21
4.09058
  0
LINE
  8
0
 10
87.5569
 20
4.09058
 11
87.5029
 21
4.40582
  0
LINE
  8
0
 10
87.5029
 20
4.40582
 11
87.5185
 21
4.73465
  0
LINE
  8
0
 10
87.5185
 20
4.73465
 11
87.6019
 21
5.04341
  0
LINE
  8
0
 10
87.6019
 20
5.04341
 11
87.7541
 21
5.33531
  0
LINE
  8
0
 10
87.7541
 20
5.33531
 11
87.9595
 21
5.58046
  0
LINE
  8
0
 10
87.9595
 20
5.58046
 11
88.2122
 21
5.77649
  0
LINE
  8
0
 10
88.2122
 20
5.77649
 11
88.5097
 21
5.91759
  0
LINE
  8
0
 10
88.5097
 20
5.91759
 11
88.8214
 21
5.98932
  0
LINE
  8
0
 10
88.8214
 20
5.98932
 11
89.1505
 21
5.99242
  0
LINE
  8
0
 10
89.1505
 20
5.99242
 11
89.4635
 21
5.92657
  0
LINE
  8
0
 10
89.4635
 20
5.92657
 11
89.7554
 21
5.79588
  0
LINE
  8
0
 10
89.7554
 20
5.79588
 11
90.0199
 21
5.59987
  0
LINE
  8
0
 10
90.0199
 20
5.59987
 11
90.2299
 21
5.35864
  0
LINE
  8
0
 10
90.2299
 20
5.35864
 11
90.384
 21
5.07837
  0
LINE
  8
0
 10
90.384
 20
5.07837
 11
90.4768
 21
4.76253
  0
LINE
  8
0
 10
90.4768
 20
4.76253
 11
90.4989
 21
4.44347
  0
LINE
  8
0
 10
90.4989
 20
4.44347
 11
90.4505
 21
4.11786
  0
LINE
  8
0
 10
90.4505
 20
4.11786
 11
90.3322
 21
3.81064
  0
LINE
  8
0
 10
90.3322
 20
3.81064
 11
90.1558
 21
3.54387
  0
LINE
  8
0
 10
90.1558
 20
3.54387
 11
89.9268
 21
3.32057
  0
LINE
  8
0
 10
89.9268
 20
3.32057
 11
89.6557
 21
3.15089
  0
LINE
  8
0
 10
89.6557
 20
3.15089
 11
89.3456
 21
3.04036
  0
LINE
  8
0
 10
89.3456
 20
3.04036
 11
89.0188
 21
3.00012
  0
LINE
  8
0
 10
89.0188
 20
3.00012
 11
88.7004
 21
3.03023
  0
LINE
  8
0
 10
92.8004
 20
-1.46977
 11
92.7178
 21
-1.4505
  0
LINE
  8
0
 10
92.7178
 20
-1.4505
 11
92.4106
 21
-1.3322
  0
LINE
  8
0
 10
92.4106
 20
-1.3322
 11
92.1439
 21
-1.15576
  0
LINE
  8
0
 10
92.1439
 20
-1.15576
 11
91.9206
 21
-0.926788
  0
LINE
  8
0
 10
91.9206
 20
-0.926788
 11
91.7509
 21
-0.65567
  0
LINE
  8
0
 10
91.7509
 20
-0.65567
 11
91.6425
 21
-0.354736
  0
LINE
  8
0
 10
91.6425
 20
-0.354736
 11
91.6005
 21
-0.0376892
  0
LINE
  8
0
 10
91.6005
 20
-0.0376892
 11
91.6266
 21
0.281082
  0
LINE
  8
0
 10
91.6266
 20
0.281082
 11
91.7197
 21
0.587067
  0
LINE
  8
0
 10
91.7197
 20
0.587067
 11
91.8755
 21
0.866364
  0
LINE
  8
0
 10
91.8755
 20
0.866364
 11
92.087
 21
1.10628
  0
LINE
  8
0
 10
92.087
 20
1.10628
 11
92.3446
 21
1.2959
  0
LINE
  8
0
 10
92.3446
 20
1.2959
 11
92.6454
 21
1.42947
  0
LINE
  8
0
 10
92.6454
 20
1.42947
 11
92.9588
 21
1.49335
  0
LINE
  8
0
 10
92.9588
 20
1.49335
 11
93.2786
 21
1.48933
  0
LINE
  8
0
 10
93.2786
 20
1.48933
 11
93.5992
 21
1.41449
  0
LINE
  8
0
 10
93.5992
 20
1.41449
 11
93.8878
 21
1.2765
  0
LINE
  8
0
 10
93.8878
 20
1.2765
 11
94.1405
 21
1.08047
  0
LINE
  8
0
 10
94.1405
 20
1.08047
 11
94.3459
 21
0.835327
  0
LINE
  8
0
 10
94.3459
 20
0.835327
 11
94.4947
 21
0.5522
  0
LINE
  8
0
 10
94.4947
 20
0.5522
 11
94.5815
 21
0.234665
  0
LINE
  8
0
 10
94.5815
 20
0.234665
 11
94.5976
 21
-0.0847626
  0
LINE
  8
0
 10
94.5976
 20
-0.0847626
 11
94.5456
 21
-0.400345
  0
LINE
  8
0
 10
94.5456
 20
-0.400345
 11
94.4278
 21
-0.697723
  0
LINE
  8
0
 10
94.4278
 20
-0.697723
 11
94.2497
 21
-0.963379
  0
LINE
  8
0
 10
94.2497
 20
-0.963379
 11
94.0193
 21
-1.18523
  0
LINE
  8
0
 10
94.0193
 20
-1.18523
 11
93.7472
 21
-1.3532
  0
LINE
  8
0
 10
93.7472
 20
-1.3532
 11
93.4456
 21
-1.45964
  0
LINE
  8
0
 10
93.4456
 20
-1.45964
 11
93.1188
 21
-1.49988
  0
LINE
  8
0
 10
93.1188
 20
-1.49988
 11
92.8004
 21
-1.46977
  0
LINE
  8
0
 10
-0.299576
 20
-1.46977
 11
-0.327225
 21
-1.46387
  0
LINE
  8
0
 10
-0.327225
 20
-1.46387
 11
-0.630142
 21
-1.36122
  0
LINE
  8
0
 10
-0.630142
 20
-1.36122
 11
-0.904404
 21
-1.19669
  0
LINE
  8
0
 10
-0.904404
 20
-1.19669
 11
-1.13756
 21
-0.977737
  0
LINE
  8
0
 10
-1.13756
 20
-0.977737
 11
-1.31898
 21
-0.714355
  0
LINE
  8
0
 10
-1.31898
 20
-0.714355
 11
-1.44305
 21
-0.409424
  0
LINE
  8
0
 10
-1.44305
 20
-0.409424
 11
-1.49706
 21
-0.0941772
  0
LINE
  8
0
 10
-1.49706
 20
-0.0941772
 11
-1.48154
 21
0.234665
  0
LINE
  8
0
 10
-1.48154
 20
0.234665
 11
-1.39812
 21
0.543427
  0
LINE
  8
0
 10
-1.39812
 20
0.543427
 11
-1.2459
 21
0.835327
  0
LINE
  8
0
 10
-1.2459
 20
0.835327
 11
-1.04048
 21
1.08047
  0
LINE
  8
0
 10
-1.04048
 20
1.08047
 11
-0.787766
 21
1.2765
  0
LINE
  8
0
 10
-0.787766
 20
1.2765
 11
-0.490341
 21
1.4176
  0
LINE
  8
0
 10
-0.490341
 20
1.4176
 11
-0.17865
 21
1.48933
  0
LINE
  8
0
 10
-0.17865
 20
1.48933
 11
0.150528
 21
1.49243
  0
LINE
  8
0
 10
0.150528
 20
1.49243
 11
0.463516
 21
1.42659
  0
LINE
  8
0
 10
0.463516
 20
1.42659
 11
0.755432
 21
1.2959
  0
LINE
  8
0
 10
0.755432
 20
1.2959
 11
1.01993
 21
1.09988
  0
LINE
  8
0
 10
1.01993
 20
1.09988
 11
1.22992
 21
0.858658
  0
LINE
  8
0
 10
1.22992
 20
0.858658
 11
1.384
 21
0.578384
  0
LINE
  8
0
 10
1.384
 20
0.578384
 11
1.47684
 21
0.262543
  0
LINE
  8
0
 10
1.47684
 20
0.262543
 11
1.49893
 21
-0.0565338
  0
LINE
  8
0
 10
1.49893
 20
-0.0565338
 11
1.4505
 21
-0.382141
  0
LINE
  8
0
 10
1.4505
 20
-0.382141
 11
1.3322
 21
-0.689362
  0
LINE
  8
0
 10
1.3322
 20
-0.689362
 11
1.15576
 21
-0.956131
  0
LINE
  8
0
 10
1.15576
 20
-0.956131
 11
0.926788
 21
-1.17943
  0
LINE
  8
0
 10
0.926788
 20
-1.17943
 11
0.65567
 21
-1.34911
  0
LINE
  8
0
 10
0.65567
 20
-1.34911
 11
0.345581
 21
-1.45964
  0
LINE
  8
0
 10
0.345581
 20
-1.45964
 11
0.0188446
 21
-1.49988
  0
LINE
  8
0
 10
0.0188446
 20
-1.49988
 11
-0.299576
 21
-1.46977
  0
ENDSEC
  0
SECTION
  2
OBJECTS
  0
DICTIONARY
  0
ENDSEC
  0
EOF
