  0
SECTION
  2
BLOCKS
  0
ENDSEC
  0
SECTION
  2
ENTITIES
  0
LINE
  8
0
 10
387
 20
-75
 11
387
 21
-65
  0
LINE
  8
0
 10
387
 20
-65
 11
384
 21
-65
  0
LINE
  8
0
 10
384
 20
-65
 11
384
 21
-55
  0
LINE
  8
0
 10
384
 20
-55
 11
387
 21
-55
  0
LINE
  8
0
 10
387
 20
-55
 11
387
 21
-45
  0
LINE
  8
0
 10
387
 20
-45
 11
384
 21
-45
  0
LINE
  8
0
 10
384
 20
-45
 11
384
 21
-35
  0
LINE
  8
0
 10
384
 20
-35
 11
387
 21
-35
  0
LINE
  8
0
 10
387
 20
-35
 11
387
 21
-25
  0
LINE
  8
0
 10
387
 20
-25
 11
384
 21
-25
  0
LINE
  8
0
 10
384
 20
-25
 11
384
 21
-15
  0
LINE
  8
0
 10
384
 20
-15
 11
387
 21
-15
  0
LINE
  8
0
 10
387
 20
-15
 11
387
 21
-5
  0
LINE
  8
0
 10
387
 20
-5
 11
384
 21
-5
  0
LINE
  8
0
 10
384
 20
-5
 11
384
 21
0
  0
LINE
  8
0
 10
384
 20
0
 11
377.5
 21
0
  0
LINE
  8
0
 10
377.5
 20
0
 11
377.5
 21
3
  0
LINE
  8
0
 10
377.5
 20
3
 11
357.5
 21
3
  0
LINE
  8
0
 10
357.5
 20
3
 11
357.5
 21
0
  0
LINE
  8
0
 10
357.5
 20
0
 11
338.5
 21
0
  0
LINE
  8
0
 10
338.5
 20
0
 11
338.5
 21
3
  0
LINE
  8
0
 10
338.5
 20
3
 11
318.5
 21
3
  0
LINE
  8
0
 10
318.5
 20
3
 11
318.5
 21
0
  0
LINE
  8
0
 10
318.5
 20
0
 11
299.5
 21
0
  0
LINE
  8
0
 10
299.5
 20
0
 11
299.5
 21
3
  0
LINE
  8
0
 10
299.5
 20
3
 11
279.5
 21
3
  0
LINE
  8
0
 10
279.5
 20
3
 11
279.5
 21
0
  0
LINE
  8
0
 10
279.5
 20
0
 11
260.5
 21
0
  0
LINE
  8
0
 10
260.5
 20
0
 11
260.5
 21
3
  0
LINE
  8
0
 10
260.5
 20
3
 11
240.5
 21
3
  0
LINE
  8
0
 10
240.5
 20
3
 11
240.5
 21
0
  0
LINE
  8
0
 10
240.5
 20
0
 11
221.5
 21
0
  0
LINE
  8
0
 10
221.5
 20
0
 11
221.5
 21
3
  0
LINE
  8
0
 10
221.5
 20
3
 11
201.5
 21
3
  0
LINE
  8
0
 10
201.5
 20
3
 11
201.5
 21
0
  0
LINE
  8
0
 10
201.5
 20
0
 11
182.5
 21
0
  0
LINE
  8
0
 10
182.5
 20
0
 11
182.5
 21
3
  0
LINE
  8
0
 10
182.5
 20
3
 11
162.5
 21
3
  0
LINE
  8
0
 10
162.5
 20
3
 11
162.5
 21
0
  0
LINE
  8
0
 10
162.5
 20
0
 11
143.5
 21
0
  0
LINE
  8
0
 10
143.5
 20
0
 11
143.5
 21
3
  0
LINE
  8
0
 10
143.5
 20
3
 11
123.5
 21
3
  0
LINE
  8
0
 10
123.5
 20
3
 11
123.5
 21
0
  0
LINE
  8
0
 10
123.5
 20
0
 11
104.5
 21
0
  0
LINE
  8
0
 10
104.5
 20
0
 11
104.5
 21
3
  0
LINE
  8
0
 10
104.5
 20
3
 11
84.5
 21
3
  0
LINE
  8
0
 10
84.5
 20
3
 11
84.5
 21
0
  0
LINE
  8
0
 10
84.5
 20
0
 11
65.5
 21
0
  0
LINE
  8
0
 10
65.5
 20
0
 11
65.5
 21
3
  0
LINE
  8
0
 10
65.5
 20
3
 11
45.5
 21
3
  0
LINE
  8
0
 10
45.5
 20
3
 11
45.5
 21
0
  0
LINE
  8
0
 10
45.5
 20
0
 11
26.5
 21
0
  0
LINE
  8
0
 10
26.5
 20
0
 11
26.5
 21
3
  0
LINE
  8
0
 10
26.5
 20
3
 11
6.5
 21
3
  0
LINE
  8
0
 10
6.5
 20
3
 11
6.5
 21
0
  0
LINE
  8
0
 10
6.5
 20
0
 11
0
 21
0
  0
LINE
  8
0
 10
0
 20
0
 11
0
 21
-5
  0
LINE
  8
0
 10
0
 20
-5
 11
-2.99998
 21
-5
  0
LINE
  8
0
 10
-2.99998
 20
-5
 11
-2.99998
 21
-15
  0
LINE
  8
0
 10
-2.99998
 20
-15
 11
0
 21
-15
  0
LINE
  8
0
 10
0
 20
-15
 11
0
 21
-25
  0
LINE
  8
0
 10
0
 20
-25
 11
-2.99998
 21
-25
  0
LINE
  8
0
 10
-2.99998
 20
-25
 11
-2.99998
 21
-35
  0
LINE
  8
0
 10
-2.99998
 20
-35
 11
0
 21
-35
  0
LINE
  8
0
 10
0
 20
-35
 11
0
 21
-45
  0
LINE
  8
0
 10
0
 20
-45
 11
-2.99998
 21
-45
  0
LINE
  8
0
 10
-2.99998
 20
-45
 11
-2.99998
 21
-55
  0
LINE
  8
0
 10
-2.99998
 20
-55
 11
0
 21
-55
  0
LINE
  8
0
 10
0
 20
-55
 11
0
 21
-65
  0
LINE
  8
0
 10
0
 20
-65
 11
-2.99998
 21
-65
  0
LINE
  8
0
 10
-2.99998
 20
-65
 11
-2.99998
 21
-75
  0
LINE
  8
0
 10
-2.99998
 20
-75
 11
0
 21
-75
  0
LINE
  8
0
 10
0
 20
-75
 11
0
 21
-85
  0
LINE
  8
0
 10
0
 20
-85
 11
-2.99998
 21
-85
  0
LINE
  8
0
 10
-2.99998
 20
-85
 11
-3
 21
-95
  0
LINE
  8
0
 10
-3
 20
-95
 11
0
 21
-95
  0
LINE
  8
0
 10
0
 20
-95
 11
0
 21
-100
  0
LINE
  8
0
 10
0
 20
-100
 11
6.5
 21
-100
  0
LINE
  8
0
 10
6.5
 20
-100
 11
6.5
 21
-103
  0
LINE
  8
0
 10
6.5
 20
-103
 11
26.5
 21
-103
  0
LINE
  8
0
 10
26.5
 20
-103
 11
26.5
 21
-100
  0
LINE
  8
0
 10
26.5
 20
-100
 11
123.5
 21
-100
  0
LINE
  8
0
 10
123.5
 20
-100
 11
123.5
 21
-103
  0
LINE
  8
0
 10
123.5
 20
-103
 11
143.5
 21
-103
  0
LINE
  8
0
 10
143.5
 20
-103
 11
143.5
 21
-100
  0
LINE
  8
0
 10
143.5
 20
-100
 11
357.5
 21
-100
  0
LINE
  8
0
 10
357.5
 20
-100
 11
357.5
 21
-103
  0
LINE
  8
0
 10
357.5
 20
-103
 11
377.5
 21
-103
  0
LINE
  8
0
 10
377.5
 20
-103
 11
377.5
 21
-100
  0
LINE
  8
0
 10
377.5
 20
-100
 11
384
 21
-100
  0
LINE
  8
0
 10
384
 20
-100
 11
384
 21
-95
  0
LINE
  8
0
 10
384
 20
-95
 11
387
 21
-95
  0
LINE
  8
0
 10
387
 20
-95
 11
387
 21
-85
  0
LINE
  8
0
 10
387
 20
-85
 11
384
 21
-85
  0
LINE
  8
0
 10
384
 20
-85
 11
384
 21
-75
  0
LINE
  8
0
 10
384
 20
-75
 11
387
 21
-75
  0
LINE
  8
0
 10
65.5
 20
-100
 11
45.5
 21
-100
  0
LINE
  8
0
 10
45.5
 20
-100
 11
45.5
 21
-103
  0
LINE
  8
0
 10
45.5
 20
-103
 11
65.5
 21
-103
  0
LINE
  8
0
 10
65.5
 20
-103
 11
65.5
 21
-100
  0
LINE
  8
0
 10
104.5
 20
-100
 11
84.5
 21
-100
  0
LINE
  8
0
 10
84.5
 20
-100
 11
84.5
 21
-103
  0
LINE
  8
0
 10
84.5
 20
-103
 11
104.5
 21
-103
  0
LINE
  8
0
 10
104.5
 20
-103
 11
104.5
 21
-100
  0
LINE
  8
0
 10
338.5
 20
-100
 11
318.5
 21
-100
  0
LINE
  8
0
 10
318.5
 20
-100
 11
318.5
 21
-103
  0
LINE
  8
0
 10
318.5
 20
-103
 11
338.5
 21
-103
  0
LINE
  8
0
 10
338.5
 20
-103
 11
338.5
 21
-100
  0
LINE
  8
0
 10
299.5
 20
-100
 11
279.5
 21
-100
  0
LINE
  8
0
 10
279.5
 20
-100
 11
279.5
 21
-103
  0
LINE
  8
0
 10
279.5
 20
-103
 11
299.5
 21
-103
  0
LINE
  8
0
 10
299.5
 20
-103
 11
299.5
 21
-100
  0
LINE
  8
0
 10
260.5
 20
-100
 11
240.5
 21
-100
  0
LINE
  8
0
 10
240.5
 20
-100
 11
240.5
 21
-103
  0
LINE
  8
0
 10
240.5
 20
-103
 11
260.5
 21
-103
  0
LINE
  8
0
 10
260.5
 20
-103
 11
260.5
 21
-100
  0
LINE
  8
0
 10
221.5
 20
-100
 11
201.5
 21
-100
  0
LINE
  8
0
 10
201.5
 20
-100
 11
201.5
 21
-103
  0
LINE
  8
0
 10
201.5
 20
-103
 11
221.5
 21
-103
  0
LINE
  8
0
 10
221.5
 20
-103
 11
221.5
 21
-100
  0
LINE
  8
0
 10
182.5
 20
-100
 11
162.5
 21
-100
  0
LINE
  8
0
 10
162.5
 20
-100
 11
162.5
 21
-103
  0
LINE
  8
0
 10
162.5
 20
-103
 11
182.5
 21
-103
  0
LINE
  8
0
 10
182.5
 20
-103
 11
182.5
 21
-100
  0
ENDSEC
  0
SECTION
  2
OBJECTS
  0
DICTIONARY
  0
ENDSEC
  0
EOF
