  0
SECTION
  2
BLOCKS
  0
ENDSEC
  0
SECTION
  2
ENTITIES
  0
LINE
  8
0
 10
3
 20
50
 11
3
 21
70
  0
LINE
  8
0
 10
3
 20
70
 11
0
 21
70
  0
LINE
  8
0
 10
0
 20
70
 11
0
 21
90
  0
LINE
  8
0
 10
0
 20
90
 11
3
 21
90
  0
LINE
  8
0
 10
3
 20
90
 11
3
 21
110
  0
LINE
  8
0
 10
3
 20
110
 11
0
 21
110
  0
LINE
  8
0
 10
0
 20
110
 11
0
 21
130
  0
LINE
  8
0
 10
0
 20
130
 11
3
 21
130
  0
LINE
  8
0
 10
3
 20
130
 11
3
 21
150
  0
LINE
  8
0
 10
3
 20
150
 11
0
 21
150
  0
LINE
  8
0
 10
0
 20
150
 11
0
 21
170
  0
LINE
  8
0
 10
0
 20
170
 11
3
 21
170
  0
LINE
  8
0
 10
3
 20
170
 11
3
 21
190
  0
LINE
  8
0
 10
3
 20
190
 11
0
 21
190
  0
LINE
  8
0
 10
0
 20
190
 11
0
 21
200
  0
LINE
  8
0
 10
0
 20
200
 11
-5
 21
200
  0
LINE
  8
0
 10
-5
 20
200
 11
-5
 21
197
  0
LINE
  8
0
 10
-5
 20
197
 11
-15
 21
197
  0
LINE
  8
0
 10
-15
 20
197
 11
-15
 21
200
  0
LINE
  8
0
 10
-15
 20
200
 11
-25
 21
200
  0
LINE
  8
0
 10
-25
 20
200
 11
-25
 21
197
  0
LINE
  8
0
 10
-25
 20
197
 11
-35
 21
197
  0
LINE
  8
0
 10
-35
 20
197
 11
-35
 21
200
  0
LINE
  8
0
 10
-35
 20
200
 11
-45
 21
200
  0
LINE
  8
0
 10
-45
 20
200
 11
-45
 21
197
  0
LINE
  8
0
 10
-45
 20
197
 11
-55
 21
197
  0
LINE
  8
0
 10
-55
 20
197
 11
-55
 21
200
  0
LINE
  8
0
 10
-55
 20
200
 11
-65
 21
200
  0
LINE
  8
0
 10
-65
 20
200
 11
-65
 21
197
  0
LINE
  8
0
 10
-65
 20
197
 11
-75
 21
197
  0
LINE
  8
0
 10
-75
 20
197
 11
-75
 21
200
  0
LINE
  8
0
 10
-75
 20
200
 11
-85
 21
200
  0
LINE
  8
0
 10
-85
 20
200
 11
-85
 21
197
  0
LINE
  8
0
 10
-85
 20
197
 11
-95
 21
197
  0
LINE
  8
0
 10
-95
 20
197
 11
-95
 21
200
  0
LINE
  8
0
 10
-95
 20
200
 11
-100
 21
200
  0
LINE
  8
0
 10
-100
 20
200
 11
-100
 21
190
  0
LINE
  8
0
 10
-100
 20
190
 11
-103
 21
190
  0
LINE
  8
0
 10
-103
 20
190
 11
-103
 21
170
  0
LINE
  8
0
 10
-103
 20
170
 11
-100
 21
170
  0
LINE
  8
0
 10
-100
 20
170
 11
-100
 21
150
  0
LINE
  8
0
 10
-100
 20
150
 11
-103
 21
150
  0
LINE
  8
0
 10
-103
 20
150
 11
-103
 21
130
  0
LINE
  8
0
 10
-103
 20
130
 11
-100
 21
130
  0
LINE
  8
0
 10
-100
 20
130
 11
-100
 21
110
  0
LINE
  8
0
 10
-100
 20
110
 11
-103
 21
110
  0
LINE
  8
0
 10
-103
 20
110
 11
-103
 21
90
  0
LINE
  8
0
 10
-103
 20
90
 11
-100
 21
90
  0
LINE
  8
0
 10
-100
 20
90
 11
-100
 21
70
  0
LINE
  8
0
 10
-100
 20
70
 11
-103
 21
70
  0
LINE
  8
0
 10
-103
 20
70
 11
-103
 21
50
  0
LINE
  8
0
 10
-103
 20
50
 11
-100
 21
50
  0
LINE
  8
0
 10
-100
 20
50
 11
-100
 21
30
  0
LINE
  8
0
 10
-100
 20
30
 11
-103
 21
30
  0
LINE
  8
0
 10
-103
 20
30
 11
-103
 21
10
  0
LINE
  8
0
 10
-103
 20
10
 11
-100
 21
10
  0
LINE
  8
0
 10
-100
 20
10
 11
-100
 21
0
  0
LINE
  8
0
 10
-100
 20
0
 11
-95
 21
0
  0
LINE
  8
0
 10
-95
 20
0
 11
-95
 21
3
  0
LINE
  8
0
 10
-95
 20
3
 11
-85
 21
3
  0
LINE
  8
0
 10
-85
 20
3
 11
-85
 21
0
  0
LINE
  8
0
 10
-85
 20
0
 11
-75
 21
0
  0
LINE
  8
0
 10
-75
 20
0
 11
-75
 21
3
  0
LINE
  8
0
 10
-75
 20
3
 11
-65
 21
3
  0
LINE
  8
0
 10
-65
 20
3
 11
-65
 21
0
  0
LINE
  8
0
 10
-65
 20
0
 11
-55
 21
0
  0
LINE
  8
0
 10
-55
 20
0
 11
-55
 21
3
  0
LINE
  8
0
 10
-55
 20
3
 11
-45
 21
3
  0
LINE
  8
0
 10
-45
 20
3
 11
-45
 21
0
  0
LINE
  8
0
 10
-45
 20
0
 11
-35
 21
0
  0
LINE
  8
0
 10
-35
 20
0
 11
-35
 21
3
  0
LINE
  8
0
 10
-35
 20
3
 11
-25
 21
3
  0
LINE
  8
0
 10
-25
 20
3
 11
-25
 21
0
  0
LINE
  8
0
 10
-25
 20
0
 11
-15
 21
0
  0
LINE
  8
0
 10
-15
 20
0
 11
-15
 21
3
  0
LINE
  8
0
 10
-15
 20
3
 11
-5
 21
3
  0
LINE
  8
0
 10
-5
 20
3
 11
-5
 21
0
  0
LINE
  8
0
 10
-5
 20
0
 11
0
 21
0
  0
LINE
  8
0
 10
0
 20
0
 11
0
 21
10
  0
LINE
  8
0
 10
0
 20
10
 11
3
 21
10
  0
LINE
  8
0
 10
3
 20
10
 11
3
 21
30
  0
LINE
  8
0
 10
3
 20
30
 11
0
 21
30
  0
LINE
  8
0
 10
0
 20
30
 11
0
 21
50
  0
LINE
  8
0
 10
0
 20
50
 11
3
 21
50
  0
LINE
  8
0
 10
-50.2346
 20
49.5185
 11
-50.5434
 21
49.6019
  0
LINE
  8
0
 10
-50.5434
 20
49.6019
 11
-50.8353
 21
49.7541
  0
LINE
  8
0
 10
-50.8353
 20
49.7541
 11
-51.0804
 21
49.9595
  0
LINE
  8
0
 10
-51.0804
 20
49.9595
 11
-51.2765
 21
50.2122
  0
LINE
  8
0
 10
-51.2765
 20
50.2122
 11
-51.4176
 21
50.5097
  0
LINE
  8
0
 10
-51.4176
 20
50.5097
 11
-51.4893
 21
50.8214
  0
LINE
  8
0
 10
-51.4893
 20
50.8214
 11
-51.4924
 21
51.1505
  0
LINE
  8
0
 10
-51.4924
 20
51.1505
 11
-51.4266
 21
51.4635
  0
LINE
  8
0
 10
-51.4266
 20
51.4635
 11
-51.2959
 21
51.7554
  0
LINE
  8
0
 10
-51.2959
 20
51.7554
 11
-51.0999
 21
52.0199
  0
LINE
  8
0
 10
-51.0999
 20
52.0199
 11
-50.8586
 21
52.2299
  0
LINE
  8
0
 10
-50.8586
 20
52.2299
 11
-50.5784
 21
52.384
  0
LINE
  8
0
 10
-50.5784
 20
52.384
 11
-50.2625
 21
52.4768
  0
LINE
  8
0
 10
-50.2625
 20
52.4768
 11
-49.9435
 21
52.4989
  0
LINE
  8
0
 10
-49.9435
 20
52.4989
 11
-49.6178
 21
52.4505
  0
LINE
  8
0
 10
-49.6178
 20
52.4505
 11
-49.3106
 21
52.3322
  0
LINE
  8
0
 10
-49.3106
 20
52.3322
 11
-49.0439
 21
52.1558
  0
LINE
  8
0
 10
-49.0439
 20
52.1558
 11
-48.8206
 21
51.9268
  0
LINE
  8
0
 10
-48.8206
 20
51.9268
 11
-48.6509
 21
51.6557
  0
LINE
  8
0
 10
-48.6509
 20
51.6557
 11
-48.5403
 21
51.3456
  0
LINE
  8
0
 10
-48.5403
 20
51.3456
 11
-48.5001
 21
51.0188
  0
LINE
  8
0
 10
-48.5001
 20
51.0188
 11
-48.5302
 21
50.7004
  0
LINE
  8
0
 10
-48.5302
 20
50.7004
 11
-48.5361
 21
50.6728
  0
LINE
  8
0
 10
-48.5361
 20
50.6728
 11
-48.6388
 21
50.3699
  0
LINE
  8
0
 10
-48.6388
 20
50.3699
 11
-48.8033
 21
50.0956
  0
LINE
  8
0
 10
-48.8033
 20
50.0956
 11
-49.0222
 21
49.8624
  0
LINE
  8
0
 10
-49.0222
 20
49.8624
 11
-49.2856
 21
49.681
  0
LINE
  8
0
 10
-49.2856
 20
49.681
 11
-49.5906
 21
49.5569
  0
LINE
  8
0
 10
-49.5906
 20
49.5569
 11
-49.9058
 21
49.5029
  0
LINE
  8
0
 10
-49.9058
 20
49.5029
 11
-50.2346
 21
49.5185
  0
LINE
  8
0
 10
-55.5
 20
29.5
 11
-55.5
 21
41.5
  0
LINE
  8
0
 10
-55.5
 20
41.5
 11
-44.5
 21
41.5
  0
LINE
  8
0
 10
-44.5
 20
41.5
 11
-44.5
 21
29.5
  0
LINE
  8
0
 10
-44.5
 20
29.5
 11
-55.5
 21
29.5
  0
LINE
  8
0
 10
-50.2346
 20
18.5185
 11
-50.5434
 21
18.6019
  0
LINE
  8
0
 10
-50.5434
 20
18.6019
 11
-50.8353
 21
18.7541
  0
LINE
  8
0
 10
-50.8353
 20
18.7541
 11
-51.0805
 21
18.9595
  0
LINE
  8
0
 10
-51.0805
 20
18.9595
 11
-51.2765
 21
19.2122
  0
LINE
  8
0
 10
-51.2765
 20
19.2122
 11
-51.4176
 21
19.5097
  0
LINE
  8
0
 10
-51.4176
 20
19.5097
 11
-51.4893
 21
19.8214
  0
LINE
  8
0
 10
-51.4893
 20
19.8214
 11
-51.4924
 21
20.1505
  0
LINE
  8
0
 10
-51.4924
 20
20.1505
 11
-51.4266
 21
20.4635
  0
LINE
  8
0
 10
-51.4266
 20
20.4635
 11
-51.2959
 21
20.7554
  0
LINE
  8
0
 10
-51.2959
 20
20.7554
 11
-51.0999
 21
21.0199
  0
LINE
  8
0
 10
-51.0999
 20
21.0199
 11
-50.8586
 21
21.2299
  0
LINE
  8
0
 10
-50.8586
 20
21.2299
 11
-50.5784
 21
21.384
  0
LINE
  8
0
 10
-50.5784
 20
21.384
 11
-50.2625
 21
21.4768
  0
LINE
  8
0
 10
-50.2625
 20
21.4768
 11
-49.9435
 21
21.4989
  0
LINE
  8
0
 10
-49.9435
 20
21.4989
 11
-49.6179
 21
21.4505
  0
LINE
  8
0
 10
-49.6179
 20
21.4505
 11
-49.3106
 21
21.3322
  0
LINE
  8
0
 10
-49.3106
 20
21.3322
 11
-49.0439
 21
21.1558
  0
LINE
  8
0
 10
-49.0439
 20
21.1558
 11
-48.8206
 21
20.9268
  0
LINE
  8
0
 10
-48.8206
 20
20.9268
 11
-48.6509
 21
20.6557
  0
LINE
  8
0
 10
-48.6509
 20
20.6557
 11
-48.5404
 21
20.3456
  0
LINE
  8
0
 10
-48.5404
 20
20.3456
 11
-48.5001
 21
20.0188
  0
LINE
  8
0
 10
-48.5001
 20
20.0188
 11
-48.5302
 21
19.7004
  0
LINE
  8
0
 10
-48.5302
 20
19.7004
 11
-48.5361
 21
19.6728
  0
LINE
  8
0
 10
-48.5361
 20
19.6728
 11
-48.6388
 21
19.3699
  0
LINE
  8
0
 10
-48.6388
 20
19.3699
 11
-48.8033
 21
19.0956
  0
LINE
  8
0
 10
-48.8033
 20
19.0956
 11
-49.0223
 21
18.8625
  0
LINE
  8
0
 10
-49.0223
 20
18.8625
 11
-49.2856
 21
18.681
  0
LINE
  8
0
 10
-49.2856
 20
18.681
 11
-49.5906
 21
18.557
  0
LINE
  8
0
 10
-49.5906
 20
18.557
 11
-49.9058
 21
18.503
  0
LINE
  8
0
 10
-49.9058
 20
18.503
 11
-50.2346
 21
18.5185
  0
ENDSEC
  0
SECTION
  2
OBJECTS
  0
DICTIONARY
  0
ENDSEC
  0
EOF
