  0
SECTION
  2
BLOCKS
  0
ENDSEC
  0
SECTION
  2
ENTITIES
  0
LINE
  8
0
 10
0
 20
-50
 11
490
 21
-50
  0
LINE
  8
0
 10
490
 20
-50
 11
490
 21
0
  0
LINE
  8
0
 10
490
 20
0
 11
461.5
 21
0
  0
LINE
  8
0
 10
461.5
 20
0
 11
461.5
 21
3
  0
LINE
  8
0
 10
461.5
 20
3
 11
451.5
 21
3
  0
LINE
  8
0
 10
451.5
 20
3
 11
451.5
 21
0
  0
LINE
  8
0
 10
451.5
 20
0
 11
414.5
 21
0
  0
LINE
  8
0
 10
414.5
 20
0
 11
414.5
 21
3
  0
LINE
  8
0
 10
414.5
 20
3
 11
404.5
 21
3
  0
LINE
  8
0
 10
404.5
 20
3
 11
404.5
 21
0
  0
LINE
  8
0
 10
404.5
 20
0
 11
367.5
 21
0
  0
LINE
  8
0
 10
367.5
 20
0
 11
367.5
 21
3
  0
LINE
  8
0
 10
367.5
 20
3
 11
357.5
 21
3
  0
LINE
  8
0
 10
357.5
 20
3
 11
357.5
 21
0
  0
LINE
  8
0
 10
357.5
 20
0
 11
320.5
 21
0
  0
LINE
  8
0
 10
320.5
 20
0
 11
320.5
 21
3
  0
LINE
  8
0
 10
320.5
 20
3
 11
310.5
 21
3
  0
LINE
  8
0
 10
310.5
 20
3
 11
310.5
 21
0
  0
LINE
  8
0
 10
310.5
 20
0
 11
273.5
 21
0
  0
LINE
  8
0
 10
273.5
 20
0
 11
273.5
 21
3
  0
LINE
  8
0
 10
273.5
 20
3
 11
263.5
 21
3
  0
LINE
  8
0
 10
263.5
 20
3
 11
263.5
 21
0
  0
LINE
  8
0
 10
263.5
 20
0
 11
226.5
 21
0
  0
LINE
  8
0
 10
226.5
 20
0
 11
226.5
 21
3
  0
LINE
  8
0
 10
226.5
 20
3
 11
216.5
 21
3
  0
LINE
  8
0
 10
216.5
 20
3
 11
216.5
 21
0
  0
LINE
  8
0
 10
216.5
 20
0
 11
179.5
 21
0
  0
LINE
  8
0
 10
179.5
 20
0
 11
179.5
 21
3
  0
LINE
  8
0
 10
179.5
 20
3
 11
169.5
 21
3
  0
LINE
  8
0
 10
169.5
 20
3
 11
169.5
 21
0
  0
LINE
  8
0
 10
169.5
 20
0
 11
132.5
 21
0
  0
LINE
  8
0
 10
132.5
 20
0
 11
132.5
 21
3
  0
LINE
  8
0
 10
132.5
 20
3
 11
122.5
 21
3
  0
LINE
  8
0
 10
122.5
 20
3
 11
122.5
 21
0
  0
LINE
  8
0
 10
122.5
 20
0
 11
85.5
 21
0
  0
LINE
  8
0
 10
85.5
 20
0
 11
85.5
 21
3
  0
LINE
  8
0
 10
85.5
 20
3
 11
75.5
 21
3
  0
LINE
  8
0
 10
75.5
 20
3
 11
75.5
 21
0
  0
LINE
  8
0
 10
75.5
 20
0
 11
38.5
 21
0
  0
LINE
  8
0
 10
38.5
 20
0
 11
38.5
 21
3
  0
LINE
  8
0
 10
38.5
 20
3
 11
28.5
 21
3
  0
LINE
  8
0
 10
28.5
 20
3
 11
28.5
 21
0
  0
LINE
  8
0
 10
28.5
 20
0
 11
0
 21
0
  0
LINE
  8
0
 10
0
 20
0
 11
0
 21
-50
  0
ENDSEC
  0
SECTION
  2
OBJECTS
  0
DICTIONARY
  0
ENDSEC
  0
EOF
