  0
SECTION
  2
BLOCKS
  0
ENDSEC
  0
SECTION
  2
ENTITIES
  0
LINE
  8
0
 10
3
 20
39.5
 11
3
 21
49.5
  0
LINE
  8
0
 10
3
 20
49.5
 11
0
 21
49.5
  0
LINE
  8
0
 10
0
 20
49.5
 11
0
 21
62.5
  0
LINE
  8
0
 10
0
 20
62.5
 11
3
 21
62.5
  0
LINE
  8
0
 10
3
 20
62.5
 11
3
 21
72.5
  0
LINE
  8
0
 10
3
 20
72.5
 11
0
 21
72.5
  0
LINE
  8
0
 10
0
 20
72.5
 11
0
 21
85.5
  0
LINE
  8
0
 10
0
 20
85.5
 11
3
 21
85.5
  0
LINE
  8
0
 10
3
 20
85.5
 11
3
 21
95.5
  0
LINE
  8
0
 10
3
 20
95.5
 11
0
 21
95.5
  0
LINE
  8
0
 10
0
 20
95.5
 11
0
 21
108.5
  0
LINE
  8
0
 10
0
 20
108.5
 11
3
 21
108.5
  0
LINE
  8
0
 10
3
 20
108.5
 11
3
 21
118.5
  0
LINE
  8
0
 10
3
 20
118.5
 11
0
 21
118.5
  0
LINE
  8
0
 10
0
 20
118.5
 11
0
 21
131.5
  0
LINE
  8
0
 10
0
 20
131.5
 11
3
 21
131.5
  0
LINE
  8
0
 10
3
 20
131.5
 11
3
 21
141.5
  0
LINE
  8
0
 10
3
 20
141.5
 11
0
 21
141.5
  0
LINE
  8
0
 10
0
 20
141.5
 11
0
 21
154.5
  0
LINE
  8
0
 10
0
 20
154.5
 11
3
 21
154.5
  0
LINE
  8
0
 10
3
 20
154.5
 11
3
 21
164.5
  0
LINE
  8
0
 10
3
 20
164.5
 11
0
 21
164.5
  0
LINE
  8
0
 10
0
 20
164.5
 11
0
 21
177.5
  0
LINE
  8
0
 10
0
 20
177.5
 11
3
 21
177.5
  0
LINE
  8
0
 10
3
 20
177.5
 11
3
 21
187.5
  0
LINE
  8
0
 10
3
 20
187.5
 11
0
 21
187.5
  0
LINE
  8
0
 10
0
 20
187.5
 11
0
 21
200.5
  0
LINE
  8
0
 10
0
 20
200.5
 11
3
 21
200.5
  0
LINE
  8
0
 10
3
 20
200.5
 11
3
 21
210.5
  0
LINE
  8
0
 10
3
 20
210.5
 11
0
 21
210.5
  0
LINE
  8
0
 10
0
 20
210.5
 11
0
 21
223.5
  0
LINE
  8
0
 10
0
 20
223.5
 11
3
 21
223.5
  0
LINE
  8
0
 10
3
 20
223.5
 11
3
 21
233.5
  0
LINE
  8
0
 10
3
 20
233.5
 11
0
 21
233.5
  0
LINE
  8
0
 10
0
 20
233.5
 11
0
 21
250
  0
LINE
  8
0
 10
0
 20
250
 11
-50
 21
250
  0
LINE
  8
0
 10
-50
 20
250
 11
-50
 21
0
  0
LINE
  8
0
 10
-50
 20
0
 11
0
 21
0
  0
LINE
  8
0
 10
0
 20
0
 11
0
 21
16.5
  0
LINE
  8
0
 10
0
 20
16.5
 11
3
 21
16.5
  0
LINE
  8
0
 10
3
 20
16.5
 11
3
 21
26.5
  0
LINE
  8
0
 10
3
 20
26.5
 11
0
 21
26.5
  0
LINE
  8
0
 10
0
 20
26.5
 11
0
 21
39.5
  0
LINE
  8
0
 10
0
 20
39.5
 11
3
 21
39.5
  0
LINE
  8
0
 10
-25.2346
 20
39.5185
 11
-25.5434
 21
39.6019
  0
LINE
  8
0
 10
-25.5434
 20
39.6019
 11
-25.8353
 21
39.7541
  0
LINE
  8
0
 10
-25.8353
 20
39.7541
 11
-26.0804
 21
39.9595
  0
LINE
  8
0
 10
-26.0804
 20
39.9595
 11
-26.2765
 21
40.2122
  0
LINE
  8
0
 10
-26.2765
 20
40.2122
 11
-26.4176
 21
40.5097
  0
LINE
  8
0
 10
-26.4176
 20
40.5097
 11
-26.4893
 21
40.8214
  0
LINE
  8
0
 10
-26.4893
 20
40.8214
 11
-26.4924
 21
41.1505
  0
LINE
  8
0
 10
-26.4924
 20
41.1505
 11
-26.4266
 21
41.4635
  0
LINE
  8
0
 10
-26.4266
 20
41.4635
 11
-26.2959
 21
41.7554
  0
LINE
  8
0
 10
-26.2959
 20
41.7554
 11
-26.0999
 21
42.0199
  0
LINE
  8
0
 10
-26.0999
 20
42.0199
 11
-25.8586
 21
42.2299
  0
LINE
  8
0
 10
-25.8586
 20
42.2299
 11
-25.5784
 21
42.384
  0
LINE
  8
0
 10
-25.5784
 20
42.384
 11
-25.2625
 21
42.4768
  0
LINE
  8
0
 10
-25.2625
 20
42.4768
 11
-24.9435
 21
42.4989
  0
LINE
  8
0
 10
-24.9435
 20
42.4989
 11
-24.6178
 21
42.4505
  0
LINE
  8
0
 10
-24.6178
 20
42.4505
 11
-24.3106
 21
42.3322
  0
LINE
  8
0
 10
-24.3106
 20
42.3322
 11
-24.0439
 21
42.1558
  0
LINE
  8
0
 10
-24.0439
 20
42.1558
 11
-23.8206
 21
41.9268
  0
LINE
  8
0
 10
-23.8206
 20
41.9268
 11
-23.6509
 21
41.6557
  0
LINE
  8
0
 10
-23.6509
 20
41.6557
 11
-23.5403
 21
41.3456
  0
LINE
  8
0
 10
-23.5403
 20
41.3456
 11
-23.5001
 21
41.0188
  0
LINE
  8
0
 10
-23.5001
 20
41.0188
 11
-23.5302
 21
40.7004
  0
LINE
  8
0
 10
-23.5302
 20
40.7004
 11
-23.5361
 21
40.6728
  0
LINE
  8
0
 10
-23.5361
 20
40.6728
 11
-23.6388
 21
40.3699
  0
LINE
  8
0
 10
-23.6388
 20
40.3699
 11
-23.8033
 21
40.0956
  0
LINE
  8
0
 10
-23.8033
 20
40.0956
 11
-24.0222
 21
39.8624
  0
LINE
  8
0
 10
-24.0222
 20
39.8624
 11
-24.2856
 21
39.681
  0
LINE
  8
0
 10
-24.2856
 20
39.681
 11
-24.5906
 21
39.5569
  0
LINE
  8
0
 10
-24.5906
 20
39.5569
 11
-24.9058
 21
39.5029
  0
LINE
  8
0
 10
-24.9058
 20
39.5029
 11
-25.2346
 21
39.5185
  0
LINE
  8
0
 10
-30.5
 20
19.5
 11
-30.5
 21
31.5
  0
LINE
  8
0
 10
-30.5
 20
31.5
 11
-19.5
 21
31.5
  0
LINE
  8
0
 10
-19.5
 20
31.5
 11
-19.5
 21
19.5
  0
LINE
  8
0
 10
-19.5
 20
19.5
 11
-30.5
 21
19.5
  0
LINE
  8
0
 10
-25.2346
 20
8.51848
 11
-25.5434
 21
8.6019
  0
LINE
  8
0
 10
-25.5434
 20
8.6019
 11
-25.8353
 21
8.75412
  0
LINE
  8
0
 10
-25.8353
 20
8.75412
 11
-26.0805
 21
8.95953
  0
LINE
  8
0
 10
-26.0805
 20
8.95953
 11
-26.2765
 21
9.21225
  0
LINE
  8
0
 10
-26.2765
 20
9.21225
 11
-26.4176
 21
9.50967
  0
LINE
  8
0
 10
-26.4176
 20
9.50967
 11
-26.4893
 21
9.82137
  0
LINE
  8
0
 10
-26.4893
 20
9.82137
 11
-26.4924
 21
10.1505
  0
LINE
  8
0
 10
-26.4924
 20
10.1505
 11
-26.4266
 21
10.4635
  0
LINE
  8
0
 10
-26.4266
 20
10.4635
 11
-26.2959
 21
10.7554
  0
LINE
  8
0
 10
-26.2959
 20
10.7554
 11
-26.0999
 21
11.0199
  0
LINE
  8
0
 10
-26.0999
 20
11.0199
 11
-25.8586
 21
11.2299
  0
LINE
  8
0
 10
-25.8586
 20
11.2299
 11
-25.5784
 21
11.384
  0
LINE
  8
0
 10
-25.5784
 20
11.384
 11
-25.2625
 21
11.4768
  0
LINE
  8
0
 10
-25.2625
 20
11.4768
 11
-24.9435
 21
11.4989
  0
LINE
  8
0
 10
-24.9435
 20
11.4989
 11
-24.6179
 21
11.4505
  0
LINE
  8
0
 10
-24.6179
 20
11.4505
 11
-24.3106
 21
11.3322
  0
LINE
  8
0
 10
-24.3106
 20
11.3322
 11
-24.0439
 21
11.1558
  0
LINE
  8
0
 10
-24.0439
 20
11.1558
 11
-23.8206
 21
10.9268
  0
LINE
  8
0
 10
-23.8206
 20
10.9268
 11
-23.6509
 21
10.6557
  0
LINE
  8
0
 10
-23.6509
 20
10.6557
 11
-23.5404
 21
10.3456
  0
LINE
  8
0
 10
-23.5404
 20
10.3456
 11
-23.5001
 21
10.0188
  0
LINE
  8
0
 10
-23.5001
 20
10.0188
 11
-23.5302
 21
9.70044
  0
LINE
  8
0
 10
-23.5302
 20
9.70044
 11
-23.5361
 21
9.67279
  0
LINE
  8
0
 10
-23.5361
 20
9.67279
 11
-23.6388
 21
9.36987
  0
LINE
  8
0
 10
-23.6388
 20
9.36987
 11
-23.8033
 21
9.09561
  0
LINE
  8
0
 10
-23.8033
 20
9.09561
 11
-24.0223
 21
8.86246
  0
LINE
  8
0
 10
-24.0223
 20
8.86246
 11
-24.2856
 21
8.68103
  0
LINE
  8
0
 10
-24.2856
 20
8.68103
 11
-24.5906
 21
8.55696
  0
LINE
  8
0
 10
-24.5906
 20
8.55696
 11
-24.9058
 21
8.50296
  0
LINE
  8
0
 10
-24.9058
 20
8.50296
 11
-25.2346
 21
8.51848
  0
ENDSEC
  0
SECTION
  2
OBJECTS
  0
DICTIONARY
  0
ENDSEC
  0
EOF
