  0
SECTION
  2
BLOCKS
  0
ENDSEC
  0
SECTION
  2
ENTITIES
  0
LINE
  8
0
 10
-0.222397
 20
-11.7979
 11
0.14827
 21
-11.7991
  0
LINE
  8
0
 10
0.14827
 20
-11.7991
 11
0.518814
 21
-11.7886
  0
LINE
  8
0
 10
0.518814
 20
-11.7886
 11
0.888855
 21
-11.7665
  0
LINE
  8
0
 10
0.888855
 20
-11.7665
 11
1.25801
 21
-11.7327
  0
LINE
  8
0
 10
1.25801
 20
-11.7327
 11
1.62592
 21
-11.6874
  0
LINE
  8
0
 10
1.62592
 20
-11.6874
 11
1.99223
 21
-11.6306
  0
LINE
  8
0
 10
1.99223
 20
-11.6306
 11
2.35657
 21
-11.5623
  0
LINE
  8
0
 10
2.35657
 20
-11.5623
 11
2.71858
 21
-11.4826
  0
LINE
  8
0
 10
2.71858
 20
-11.4826
 11
3.07793
 21
-11.3915
  0
LINE
  8
0
 10
3.07793
 20
-11.3915
 11
3.43422
 21
-11.2892
  0
LINE
  8
0
 10
3.43422
 20
-11.2892
 11
3.78712
 21
-11.1758
  0
LINE
  8
0
 10
3.78712
 20
-11.1758
 11
4.13629
 21
-11.0513
  0
LINE
  8
0
 10
4.13629
 20
-11.0513
 11
4.48138
 21
-10.9159
  0
LINE
  8
0
 10
4.48138
 20
-10.9159
 11
4.82205
 21
-10.7698
  0
LINE
  8
0
 10
4.82205
 20
-10.7698
 11
5.15796
 21
-10.613
  0
LINE
  8
0
 10
5.15796
 20
-10.613
 11
5.48877
 21
-10.4457
  0
LINE
  8
0
 10
5.48877
 20
-10.4457
 11
5.81418
 21
-10.2682
  0
LINE
  8
0
 10
5.81418
 20
-10.2682
 11
6.13383
 21
-10.0805
  0
LINE
  8
0
 10
6.13383
 20
-10.0805
 11
6.44745
 21
-9.88283
  0
LINE
  8
0
 10
6.44745
 20
-9.88283
 11
6.75468
 21
-9.67543
  0
LINE
  8
0
 10
6.75468
 20
-9.67543
 11
7.05527
 21
-9.45848
  0
LINE
  8
0
 10
7.05527
 20
-9.45848
 11
7.34889
 21
-9.23221
  0
LINE
  8
0
 10
7.34889
 20
-9.23221
 11
7.63525
 21
-8.99681
  0
LINE
  8
0
 10
7.63525
 20
-8.99681
 11
7.91408
 21
-8.75255
  0
LINE
  8
0
 10
7.91408
 20
-8.75255
 11
8.1851
 21
-8.49963
  0
LINE
  8
0
 10
8.1851
 20
-8.49963
 11
8.44804
 21
-8.23834
  0
LINE
  8
0
 10
8.44804
 20
-8.23834
 11
8.70265
 21
-7.96892
  0
LINE
  8
0
 10
8.70265
 20
-7.96892
 11
8.94867
 21
-7.69164
  0
LINE
  8
0
 10
8.94867
 20
-7.69164
 11
9.18585
 21
-7.40675
  0
LINE
  8
0
 10
9.18585
 20
-7.40675
 11
9.41397
 21
-7.11456
  0
LINE
  8
0
 10
9.41397
 20
-7.11456
 11
9.6328
 21
-6.81535
  0
LINE
  8
0
 10
9.6328
 20
-6.81535
 11
9.84212
 21
-6.50941
  0
LINE
  8
0
 10
9.84212
 20
-6.50941
 11
10.0417
 21
-6.19705
  0
LINE
  8
0
 10
10.0417
 20
-6.19705
 11
10.2314
 21
-5.87857
  0
LINE
  8
0
 10
10.2314
 20
-5.87857
 11
10.411
 21
-5.55431
  0
LINE
  8
0
 10
10.411
 20
-5.55431
 11
10.5804
 21
-5.22453
  0
LINE
  8
0
 10
10.5804
 20
-5.22453
 11
10.7392
 21
-4.88962
  0
LINE
  8
0
 10
10.7392
 20
-4.88962
 11
10.8875
 21
-4.54988
  0
LINE
  8
0
 10
10.8875
 20
-4.54988
 11
11.0251
 21
-4.20566
  0
LINE
  8
0
 10
11.0251
 20
-4.20566
 11
11.1517
 21
-3.85727
  0
LINE
  8
0
 10
11.1517
 20
-3.85727
 11
11.2674
 21
-3.50508
  0
LINE
  8
0
 10
11.2674
 20
-3.50508
 11
11.3719
 21
-3.14943
  0
LINE
  8
0
 10
11.3719
 20
-3.14943
 11
11.4652
 21
-2.79068
  0
LINE
  8
0
 10
11.4652
 20
-2.79068
 11
11.5472
 21
-2.42917
  0
LINE
  8
0
 10
11.5472
 20
-2.42917
 11
11.6179
 21
-2.06526
  0
LINE
  8
0
 10
11.6179
 20
-2.06526
 11
11.677
 21
-1.69933
  0
LINE
  8
0
 10
11.677
 20
-1.69933
 11
11.7246
 21
-1.3317
  0
LINE
  8
0
 10
11.7246
 20
-1.3317
 11
11.7607
 21
-0.962769
  0
LINE
  8
0
 10
11.7607
 20
-0.962769
 11
11.7851
 21
-0.59288
  0
LINE
  8
0
 10
11.7851
 20
-0.59288
 11
11.7979
 21
-0.222397
  0
LINE
  8
0
 10
11.7979
 20
-0.222397
 11
11.7991
 21
0.14827
  0
LINE
  8
0
 10
11.7991
 20
0.14827
 11
11.7886
 21
0.518814
  0
LINE
  8
0
 10
11.7886
 20
0.518814
 11
11.7665
 21
0.888855
  0
LINE
  8
0
 10
11.7665
 20
0.888855
 11
11.7327
 21
1.25801
  0
LINE
  8
0
 10
11.7327
 20
1.25801
 11
11.6874
 21
1.62592
  0
LINE
  8
0
 10
11.6874
 20
1.62592
 11
11.6306
 21
1.99223
  0
LINE
  8
0
 10
11.6306
 20
1.99223
 11
11.5623
 21
2.35657
  0
LINE
  8
0
 10
11.5623
 20
2.35657
 11
11.4826
 21
2.71858
  0
LINE
  8
0
 10
11.4826
 20
2.71858
 11
11.3915
 21
3.07793
  0
LINE
  8
0
 10
11.3915
 20
3.07793
 11
11.2892
 21
3.43422
  0
LINE
  8
0
 10
11.2892
 20
3.43422
 11
11.1758
 21
3.78712
  0
LINE
  8
0
 10
11.1758
 20
3.78712
 11
11.0513
 21
4.13629
  0
LINE
  8
0
 10
11.0513
 20
4.13629
 11
10.9159
 21
4.48138
  0
LINE
  8
0
 10
10.9159
 20
4.48138
 11
10.7698
 21
4.82205
  0
LINE
  8
0
 10
10.7698
 20
4.82205
 11
10.613
 21
5.15796
  0
LINE
  8
0
 10
10.613
 20
5.15796
 11
10.4457
 21
5.48877
  0
LINE
  8
0
 10
10.4457
 20
5.48877
 11
10.2682
 21
5.81418
  0
LINE
  8
0
 10
10.2682
 20
5.81418
 11
10.0805
 21
6.13383
  0
LINE
  8
0
 10
10.0805
 20
6.13383
 11
9.88283
 21
6.44745
  0
LINE
  8
0
 10
9.88283
 20
6.44745
 11
9.67543
 21
6.75468
  0
LINE
  8
0
 10
9.67543
 20
6.75468
 11
9.45848
 21
7.05527
  0
LINE
  8
0
 10
9.45848
 20
7.05527
 11
9.23221
 21
7.34889
  0
LINE
  8
0
 10
9.23221
 20
7.34889
 11
8.99681
 21
7.63525
  0
LINE
  8
0
 10
8.99681
 20
7.63525
 11
8.75255
 21
7.91408
  0
LINE
  8
0
 10
8.75255
 20
7.91408
 11
8.49963
 21
8.1851
  0
LINE
  8
0
 10
8.49963
 20
8.1851
 11
8.23834
 21
8.44804
  0
LINE
  8
0
 10
8.23834
 20
8.44804
 11
7.96892
 21
8.70265
  0
LINE
  8
0
 10
7.96892
 20
8.70265
 11
7.69164
 21
8.94867
  0
LINE
  8
0
 10
7.69164
 20
8.94867
 11
7.40675
 21
9.18585
  0
LINE
  8
0
 10
7.40675
 20
9.18585
 11
7.11456
 21
9.41397
  0
LINE
  8
0
 10
7.11456
 20
9.41397
 11
6.81535
 21
9.6328
  0
LINE
  8
0
 10
6.81535
 20
9.6328
 11
6.50941
 21
9.84212
  0
LINE
  8
0
 10
6.50941
 20
9.84212
 11
6.19705
 21
10.0417
  0
LINE
  8
0
 10
6.19705
 20
10.0417
 11
5.87857
 21
10.2314
  0
LINE
  8
0
 10
5.87857
 20
10.2314
 11
5.55431
 21
10.411
  0
LINE
  8
0
 10
5.55431
 20
10.411
 11
5.22453
 21
10.5804
  0
LINE
  8
0
 10
5.22453
 20
10.5804
 11
4.88962
 21
10.7392
  0
LINE
  8
0
 10
4.88962
 20
10.7392
 11
4.54988
 21
10.8875
  0
LINE
  8
0
 10
4.54988
 20
10.8875
 11
4.20566
 21
11.0251
  0
LINE
  8
0
 10
4.20566
 20
11.0251
 11
3.85727
 21
11.1517
  0
LINE
  8
0
 10
3.85727
 20
11.1517
 11
3.50508
 21
11.2674
  0
LINE
  8
0
 10
3.50508
 20
11.2674
 11
3.14943
 21
11.3719
  0
LINE
  8
0
 10
3.14943
 20
11.3719
 11
2.79068
 21
11.4652
  0
LINE
  8
0
 10
2.79068
 20
11.4652
 11
2.42917
 21
11.5472
  0
LINE
  8
0
 10
2.42917
 20
11.5472
 11
2.06526
 21
11.6179
  0
LINE
  8
0
 10
2.06526
 20
11.6179
 11
1.69933
 21
11.677
  0
LINE
  8
0
 10
1.69933
 20
11.677
 11
1.3317
 21
11.7246
  0
LINE
  8
0
 10
1.3317
 20
11.7246
 11
0.962769
 21
11.7607
  0
LINE
  8
0
 10
0.962769
 20
11.7607
 11
0.59288
 21
11.7851
  0
LINE
  8
0
 10
0.59288
 20
11.7851
 11
0.222397
 21
11.7979
  0
LINE
  8
0
 10
0.222397
 20
11.7979
 11
-0.14827
 21
11.7991
  0
LINE
  8
0
 10
-0.14827
 20
11.7991
 11
-0.518814
 21
11.7886
  0
LINE
  8
0
 10
-0.518814
 20
11.7886
 11
-0.888855
 21
11.7665
  0
LINE
  8
0
 10
-0.888855
 20
11.7665
 11
-1.25801
 21
11.7327
  0
LINE
  8
0
 10
-1.25801
 20
11.7327
 11
-1.62592
 21
11.6874
  0
LINE
  8
0
 10
-1.62592
 20
11.6874
 11
-1.99223
 21
11.6306
  0
LINE
  8
0
 10
-1.99223
 20
11.6306
 11
-2.35657
 21
11.5623
  0
LINE
  8
0
 10
-2.35657
 20
11.5623
 11
-2.71858
 21
11.4826
  0
LINE
  8
0
 10
-2.71858
 20
11.4826
 11
-3.07793
 21
11.3915
  0
LINE
  8
0
 10
-3.07793
 20
11.3915
 11
-3.43422
 21
11.2892
  0
LINE
  8
0
 10
-3.43422
 20
11.2892
 11
-3.78712
 21
11.1758
  0
LINE
  8
0
 10
-3.78712
 20
11.1758
 11
-4.13629
 21
11.0513
  0
LINE
  8
0
 10
-4.13629
 20
11.0513
 11
-4.48138
 21
10.9159
  0
LINE
  8
0
 10
-4.48138
 20
10.9159
 11
-4.82205
 21
10.7698
  0
LINE
  8
0
 10
-4.82205
 20
10.7698
 11
-5.15796
 21
10.613
  0
LINE
  8
0
 10
-5.15796
 20
10.613
 11
-5.48877
 21
10.4457
  0
LINE
  8
0
 10
-5.48877
 20
10.4457
 11
-5.81418
 21
10.2682
  0
LINE
  8
0
 10
-5.81418
 20
10.2682
 11
-6.13383
 21
10.0805
  0
LINE
  8
0
 10
-6.13383
 20
10.0805
 11
-6.44745
 21
9.88283
  0
LINE
  8
0
 10
-6.44745
 20
9.88283
 11
-6.75468
 21
9.67543
  0
LINE
  8
0
 10
-6.75468
 20
9.67543
 11
-7.05527
 21
9.45848
  0
LINE
  8
0
 10
-7.05527
 20
9.45848
 11
-7.34889
 21
9.23221
  0
LINE
  8
0
 10
-7.34889
 20
9.23221
 11
-7.63525
 21
8.99681
  0
LINE
  8
0
 10
-7.63525
 20
8.99681
 11
-7.91408
 21
8.75255
  0
LINE
  8
0
 10
-7.91408
 20
8.75255
 11
-8.1851
 21
8.49963
  0
LINE
  8
0
 10
-8.1851
 20
8.49963
 11
-8.44804
 21
8.23834
  0
LINE
  8
0
 10
-8.44804
 20
8.23834
 11
-8.70265
 21
7.96892
  0
LINE
  8
0
 10
-8.70265
 20
7.96892
 11
-8.94867
 21
7.69164
  0
LINE
  8
0
 10
-8.94867
 20
7.69164
 11
-9.18585
 21
7.40675
  0
LINE
  8
0
 10
-9.18585
 20
7.40675
 11
-9.41397
 21
7.11456
  0
LINE
  8
0
 10
-9.41397
 20
7.11456
 11
-9.6328
 21
6.81535
  0
LINE
  8
0
 10
-9.6328
 20
6.81535
 11
-9.84212
 21
6.50941
  0
LINE
  8
0
 10
-9.84212
 20
6.50941
 11
-10.0417
 21
6.19705
  0
LINE
  8
0
 10
-10.0417
 20
6.19705
 11
-10.2314
 21
5.87857
  0
LINE
  8
0
 10
-10.2314
 20
5.87857
 11
-10.411
 21
5.55431
  0
LINE
  8
0
 10
-10.411
 20
5.55431
 11
-10.5804
 21
5.22453
  0
LINE
  8
0
 10
-10.5804
 20
5.22453
 11
-10.7392
 21
4.88962
  0
LINE
  8
0
 10
-10.7392
 20
4.88962
 11
-10.8875
 21
4.54988
  0
LINE
  8
0
 10
-10.8875
 20
4.54988
 11
-11.0251
 21
4.20566
  0
LINE
  8
0
 10
-11.0251
 20
4.20566
 11
-11.1517
 21
3.85727
  0
LINE
  8
0
 10
-11.1517
 20
3.85727
 11
-11.2674
 21
3.50508
  0
LINE
  8
0
 10
-11.2674
 20
3.50508
 11
-11.3719
 21
3.14943
  0
LINE
  8
0
 10
-11.3719
 20
3.14943
 11
-11.4652
 21
2.79068
  0
LINE
  8
0
 10
-11.4652
 20
2.79068
 11
-11.5472
 21
2.42917
  0
LINE
  8
0
 10
-11.5472
 20
2.42917
 11
-11.6179
 21
2.06526
  0
LINE
  8
0
 10
-11.6179
 20
2.06526
 11
-11.677
 21
1.69933
  0
LINE
  8
0
 10
-11.677
 20
1.69933
 11
-11.7246
 21
1.3317
  0
LINE
  8
0
 10
-11.7246
 20
1.3317
 11
-11.7607
 21
0.962769
  0
LINE
  8
0
 10
-11.7607
 20
0.962769
 11
-11.7851
 21
0.59288
  0
LINE
  8
0
 10
-11.7851
 20
0.59288
 11
-11.7979
 21
0.222397
  0
LINE
  8
0
 10
-11.7979
 20
0.222397
 11
-11.7991
 21
-0.14827
  0
LINE
  8
0
 10
-11.7991
 20
-0.14827
 11
-11.7886
 21
-0.518814
  0
LINE
  8
0
 10
-11.7886
 20
-0.518814
 11
-11.7665
 21
-0.888855
  0
LINE
  8
0
 10
-11.7665
 20
-0.888855
 11
-11.7327
 21
-1.25801
  0
LINE
  8
0
 10
-11.7327
 20
-1.25801
 11
-11.6874
 21
-1.62592
  0
LINE
  8
0
 10
-11.6874
 20
-1.62592
 11
-11.6306
 21
-1.99223
  0
LINE
  8
0
 10
-11.6306
 20
-1.99223
 11
-11.5623
 21
-2.35657
  0
LINE
  8
0
 10
-11.5623
 20
-2.35657
 11
-11.4826
 21
-2.71858
  0
LINE
  8
0
 10
-11.4826
 20
-2.71858
 11
-11.3915
 21
-3.07793
  0
LINE
  8
0
 10
-11.3915
 20
-3.07793
 11
-11.2892
 21
-3.43422
  0
LINE
  8
0
 10
-11.2892
 20
-3.43422
 11
-11.1758
 21
-3.78712
  0
LINE
  8
0
 10
-11.1758
 20
-3.78712
 11
-11.0513
 21
-4.13629
  0
LINE
  8
0
 10
-11.0513
 20
-4.13629
 11
-10.9159
 21
-4.48138
  0
LINE
  8
0
 10
-10.9159
 20
-4.48138
 11
-10.7698
 21
-4.82205
  0
LINE
  8
0
 10
-10.7698
 20
-4.82205
 11
-10.613
 21
-5.15796
  0
LINE
  8
0
 10
-10.613
 20
-5.15796
 11
-10.4457
 21
-5.48877
  0
LINE
  8
0
 10
-10.4457
 20
-5.48877
 11
-10.2682
 21
-5.81418
  0
LINE
  8
0
 10
-10.2682
 20
-5.81418
 11
-10.0805
 21
-6.13383
  0
LINE
  8
0
 10
-10.0805
 20
-6.13383
 11
-9.88283
 21
-6.44745
  0
LINE
  8
0
 10
-9.88283
 20
-6.44745
 11
-9.67543
 21
-6.75468
  0
LINE
  8
0
 10
-9.67543
 20
-6.75468
 11
-9.45848
 21
-7.05527
  0
LINE
  8
0
 10
-9.45848
 20
-7.05527
 11
-9.23221
 21
-7.34889
  0
LINE
  8
0
 10
-9.23221
 20
-7.34889
 11
-8.99681
 21
-7.63525
  0
LINE
  8
0
 10
-8.99681
 20
-7.63525
 11
-8.75255
 21
-7.91408
  0
LINE
  8
0
 10
-8.75255
 20
-7.91408
 11
-8.49963
 21
-8.1851
  0
LINE
  8
0
 10
-8.49963
 20
-8.1851
 11
-8.23834
 21
-8.44804
  0
LINE
  8
0
 10
-8.23834
 20
-8.44804
 11
-7.96892
 21
-8.70265
  0
LINE
  8
0
 10
-7.96892
 20
-8.70265
 11
-7.69164
 21
-8.94867
  0
LINE
  8
0
 10
-7.69164
 20
-8.94867
 11
-7.40675
 21
-9.18585
  0
LINE
  8
0
 10
-7.40675
 20
-9.18585
 11
-7.11456
 21
-9.41397
  0
LINE
  8
0
 10
-7.11456
 20
-9.41397
 11
-6.81535
 21
-9.6328
  0
LINE
  8
0
 10
-6.81535
 20
-9.6328
 11
-6.50941
 21
-9.84212
  0
LINE
  8
0
 10
-6.50941
 20
-9.84212
 11
-6.19705
 21
-10.0417
  0
LINE
  8
0
 10
-6.19705
 20
-10.0417
 11
-5.87857
 21
-10.2314
  0
LINE
  8
0
 10
-5.87857
 20
-10.2314
 11
-5.55431
 21
-10.411
  0
LINE
  8
0
 10
-5.55431
 20
-10.411
 11
-5.22453
 21
-10.5804
  0
LINE
  8
0
 10
-5.22453
 20
-10.5804
 11
-4.88962
 21
-10.7392
  0
LINE
  8
0
 10
-4.88962
 20
-10.7392
 11
-4.54988
 21
-10.8875
  0
LINE
  8
0
 10
-4.54988
 20
-10.8875
 11
-4.20566
 21
-11.0251
  0
LINE
  8
0
 10
-4.20566
 20
-11.0251
 11
-3.85727
 21
-11.1517
  0
LINE
  8
0
 10
-3.85727
 20
-11.1517
 11
-3.50508
 21
-11.2674
  0
LINE
  8
0
 10
-3.50508
 20
-11.2674
 11
-3.14943
 21
-11.3719
  0
LINE
  8
0
 10
-3.14943
 20
-11.3719
 11
-2.79068
 21
-11.4652
  0
LINE
  8
0
 10
-2.79068
 20
-11.4652
 11
-2.42917
 21
-11.5472
  0
LINE
  8
0
 10
-2.42917
 20
-11.5472
 11
-2.06526
 21
-11.6179
  0
LINE
  8
0
 10
-2.06526
 20
-11.6179
 11
-1.69933
 21
-11.677
  0
LINE
  8
0
 10
-1.69933
 20
-11.677
 11
-1.3317
 21
-11.7246
  0
LINE
  8
0
 10
-1.3317
 20
-11.7246
 11
-0.962769
 21
-11.7607
  0
LINE
  8
0
 10
-0.962769
 20
-11.7607
 11
-0.59288
 21
-11.7851
  0
LINE
  8
0
 10
-0.59288
 20
-11.7851
 11
-0.222397
 21
-11.7979
  0
LINE
  8
0
 10
18.4955
 20
-1.59621
 11
18.8204
 21
-1.62486
  0
LINE
  8
0
 10
18.8204
 20
-1.62486
 11
19.1445
 21
-1.58806
  0
LINE
  8
0
 10
19.1445
 20
-1.58806
 11
19.4547
 21
-1.48726
  0
LINE
  8
0
 10
19.4547
 20
-1.48726
 11
19.7385
 21
-1.32654
  0
LINE
  8
0
 10
19.7385
 20
-1.32654
 11
19.9846
 21
-1.11238
  0
LINE
  8
0
 10
19.9846
 20
-1.11238
 11
20.1775
 21
-0.862076
  0
LINE
  8
0
 10
20.1775
 20
-0.862076
 11
20.3183
 21
-0.579163
  0
LINE
  8
0
 10
20.3183
 20
-0.579163
 11
20.4017
 21
-0.274353
  0
LINE
  8
0
 10
20.4017
 20
-0.274353
 11
20.4242
 21
0.0510406
  0
LINE
  8
0
 10
20.4242
 20
0.0510406
 11
20.3836
 21
0.364426
  0
LINE
  8
0
 10
20.3836
 20
0.364426
 11
20.2789
 21
0.673355
  0
LINE
  8
0
 10
20.2789
 20
0.673355
 11
20.1206
 21
0.946869
  0
LINE
  8
0
 10
20.1206
 20
0.946869
 11
19.9049
 21
1.19153
  0
LINE
  8
0
 10
19.9049
 20
1.19153
 11
19.6447
 21
1.3882
  0
LINE
  8
0
 10
19.6447
 20
1.3882
 11
19.3504
 21
1.52893
  0
LINE
  8
0
 10
19.3504
 20
1.52893
 11
19.034
 21
1.60805
  0
LINE
  8
0
 10
19.034
 20
1.60805
 11
18.7081
 21
1.62239
  0
LINE
  8
0
 10
18.7081
 20
1.62239
 11
18.3959
 21
1.57394
  0
LINE
  8
0
 10
18.3959
 20
1.57394
 11
18.0897
 21
1.46153
  0
LINE
  8
0
 10
18.0897
 20
1.46153
 11
17.8121
 21
1.29022
  0
LINE
  8
0
 10
17.8121
 20
1.29022
 11
17.5811
 21
1.07463
  0
LINE
  8
0
 10
17.5811
 20
1.07463
 11
17.391
 21
0.80954
  0
LINE
  8
0
 10
17.391
 20
0.80954
 11
17.2577
 21
0.511841
  0
LINE
  8
0
 10
17.2577
 20
0.511841
 11
17.1866
 21
0.193527
  0
LINE
  8
0
 10
17.1866
 20
0.193527
 11
17.1804
 21
-0.132584
  0
LINE
  8
0
 10
17.1804
 20
-0.132584
 11
17.2395
 21
-0.453354
  0
LINE
  8
0
 10
17.2395
 20
-0.453354
 11
17.3568
 21
-0.746811
  0
LINE
  8
0
 10
17.3568
 20
-0.746811
 11
17.535
 21
-1.01999
  0
LINE
  8
0
 10
17.535
 20
-1.01999
 11
17.7642
 21
-1.25208
  0
LINE
  8
0
 10
17.7642
 20
-1.25208
 11
18.0351
 21
-1.43372
  0
LINE
  8
0
 10
18.0351
 20
-1.43372
 11
18.3271
 21
-1.55466
  0
LINE
  8
0
 10
18.3271
 20
-1.55466
 11
18.4955
 21
-1.59621
  0
LINE
  8
0
 10
-19.1045
 20
-1.59621
 11
-18.7796
 21
-1.62486
  0
LINE
  8
0
 10
-18.7796
 20
-1.62486
 11
-18.4555
 21
-1.58806
  0
LINE
  8
0
 10
-18.4555
 20
-1.58806
 11
-18.1453
 21
-1.48726
  0
LINE
  8
0
 10
-18.1453
 20
-1.48726
 11
-17.8614
 21
-1.32654
  0
LINE
  8
0
 10
-17.8614
 20
-1.32654
 11
-17.6154
 21
-1.11238
  0
LINE
  8
0
 10
-17.6154
 20
-1.11238
 11
-17.4225
 21
-0.862076
  0
LINE
  8
0
 10
-17.4225
 20
-0.862076
 11
-17.2781
 21
-0.569611
  0
LINE
  8
0
 10
-17.2781
 20
-0.569611
 11
-17.195
 21
-0.254196
  0
LINE
  8
0
 10
-17.195
 20
-0.254196
 11
-17.1766
 21
0.0714417
  0
LINE
  8
0
 10
-17.1766
 20
0.0714417
 11
-17.2211
 21
0.384308
  0
LINE
  8
0
 10
-17.2211
 20
0.384308
 11
-17.3297
 21
0.691879
  0
LINE
  8
0
 10
-17.3297
 20
0.691879
 11
-17.4975
 21
0.971588
  0
LINE
  8
0
 10
-17.4975
 20
0.971588
 11
-17.7177
 21
1.21214
  0
LINE
  8
0
 10
-17.7177
 20
1.21214
 11
-17.9816
 21
1.40387
  0
LINE
  8
0
 10
-17.9816
 20
1.40387
 11
-18.2785
 21
1.53903
  0
LINE
  8
0
 10
-18.2785
 20
1.53903
 11
-18.5963
 21
1.61218
  0
LINE
  8
0
 10
-18.5963
 20
1.61218
 11
-18.9224
 21
1.62038
  0
LINE
  8
0
 10
-18.9224
 20
1.62038
 11
-19.2435
 21
1.56329
  0
LINE
  8
0
 10
-19.2435
 20
1.56329
 11
-19.5468
 21
1.44321
  0
LINE
  8
0
 10
-19.5468
 20
1.44321
 11
-19.82
 21
1.265
  0
LINE
  8
0
 10
-19.82
 20
1.265
 11
-20.0521
 21
1.03581
  0
LINE
  8
0
 10
-20.0521
 20
1.03581
 11
-20.2337
 21
0.764893
  0
LINE
  8
0
 10
-20.2337
 20
0.764893
 11
-20.3576
 21
0.46315
  0
LINE
  8
0
 10
-20.3576
 20
0.46315
 11
-20.4187
 21
0.142746
  0
LINE
  8
0
 10
-20.4187
 20
0.142746
 11
-20.4146
 21
-0.18338
  0
LINE
  8
0
 10
-20.4146
 20
-0.18338
 11
-20.3455
 21
-0.502151
  0
LINE
  8
0
 10
-20.3455
 20
-0.502151
 11
-20.214
 21
-0.800674
  0
LINE
  8
0
 10
-20.214
 20
-0.800674
 11
-20.0257
 21
-1.06694
  0
LINE
  8
0
 10
-20.0257
 20
-1.06694
 11
-19.7879
 21
-1.29022
  0
LINE
  8
0
 10
-19.7879
 20
-1.29022
 11
-19.5103
 21
-1.46153
  0
LINE
  8
0
 10
-19.5103
 20
-1.46153
 11
-19.2041
 21
-1.57394
  0
LINE
  8
0
 10
-19.2041
 20
-1.57394
 11
-19.1045
 21
-1.59621
  0
ENDSEC
  0
SECTION
  2
OBJECTS
  0
DICTIONARY
  0
ENDSEC
  0
EOF
