  0
SECTION
  2
BLOCKS
  0
ENDSEC
  0
SECTION
  2
ENTITIES
  0
LINE
  8
0
 10
21.5
 20
5.5
 11
9.5
 21
5.5
  0
LINE
  8
0
 10
9.5
 20
5.5
 11
9.5
 21
-5.5
  0
LINE
  8
0
 10
9.5
 20
-5.5
 11
21.5
 21
-5.5
  0
LINE
  8
0
 10
21.5
 20
-5.5
 11
21.5
 21
5.5
  0
LINE
  8
0
 10
-0.299561
 20
-1.46977
 11
0.0188446
 21
-1.49988
  0
LINE
  8
0
 10
0.0188446
 20
-1.49988
 11
0.345581
 21
-1.45964
  0
LINE
  8
0
 10
0.345581
 20
-1.45964
 11
0.65567
 21
-1.34911
  0
LINE
  8
0
 10
0.65567
 20
-1.34911
 11
0.926788
 21
-1.17943
  0
LINE
  8
0
 10
0.926788
 20
-1.17943
 11
1.15576
 21
-0.956131
  0
LINE
  8
0
 10
1.15576
 20
-0.956131
 11
1.3322
 21
-0.689362
  0
LINE
  8
0
 10
1.3322
 20
-0.689362
 11
1.4505
 21
-0.382141
  0
LINE
  8
0
 10
1.4505
 20
-0.382141
 11
1.49893
 21
-0.0565338
  0
LINE
  8
0
 10
1.49893
 20
-0.0565338
 11
1.47684
 21
0.262527
  0
LINE
  8
0
 10
1.47684
 20
0.262527
 11
1.384
 21
0.578369
  0
LINE
  8
0
 10
1.384
 20
0.578369
 11
1.22992
 21
0.858643
  0
LINE
  8
0
 10
1.22992
 20
0.858643
 11
1.01993
 21
1.09987
  0
LINE
  8
0
 10
1.01993
 20
1.09987
 11
0.755432
 21
1.29588
  0
LINE
  8
0
 10
0.755432
 20
1.29588
 11
0.463516
 21
1.42657
  0
LINE
  8
0
 10
0.463516
 20
1.42657
 11
0.150528
 21
1.49242
  0
LINE
  8
0
 10
0.150528
 20
1.49242
 11
-0.178635
 21
1.48932
  0
LINE
  8
0
 10
-0.178635
 20
1.48932
 11
-0.490326
 21
1.41759
  0
LINE
  8
0
 10
-0.490326
 20
1.41759
 11
-0.78775
 21
1.27649
  0
LINE
  8
0
 10
-0.78775
 20
1.27649
 11
-1.04047
 21
1.08046
  0
LINE
  8
0
 10
-1.04047
 20
1.08046
 11
-1.24588
 21
0.835312
  0
LINE
  8
0
 10
-1.24588
 20
0.835312
 11
-1.3981
 21
0.543411
  0
LINE
  8
0
 10
-1.3981
 20
0.543411
 11
-1.48152
 21
0.23465
  0
LINE
  8
0
 10
-1.48152
 20
0.23465
 11
-1.49704
 21
-0.0941772
  0
LINE
  8
0
 10
-1.49704
 20
-0.0941772
 11
-1.44304
 21
-0.409424
  0
LINE
  8
0
 10
-1.44304
 20
-0.409424
 11
-1.31897
 21
-0.714355
  0
LINE
  8
0
 10
-1.31897
 20
-0.714355
 11
-1.13754
 21
-0.977737
  0
LINE
  8
0
 10
-1.13754
 20
-0.977737
 11
-0.904388
 21
-1.19669
  0
LINE
  8
0
 10
-0.904388
 20
-1.19669
 11
-0.630127
 21
-1.36122
  0
LINE
  8
0
 10
-0.630127
 20
-1.36122
 11
-0.327209
 21
-1.46387
  0
LINE
  8
0
 10
-0.327209
 20
-1.46387
 11
-0.299561
 21
-1.46977
  0
LINE
  8
0
 10
30.7004
 20
-1.46977
 11
31.0188
 21
-1.49988
  0
LINE
  8
0
 10
31.0188
 20
-1.49988
 11
31.3456
 21
-1.45964
  0
LINE
  8
0
 10
31.3456
 20
-1.45964
 11
31.6557
 21
-1.34911
  0
LINE
  8
0
 10
31.6557
 20
-1.34911
 11
31.9268
 21
-1.17943
  0
LINE
  8
0
 10
31.9268
 20
-1.17943
 11
32.1558
 21
-0.956131
  0
LINE
  8
0
 10
32.1558
 20
-0.956131
 11
32.3322
 21
-0.689362
  0
LINE
  8
0
 10
32.3322
 20
-0.689362
 11
32.4505
 21
-0.382141
  0
LINE
  8
0
 10
32.4505
 20
-0.382141
 11
32.4989
 21
-0.0565338
  0
LINE
  8
0
 10
32.4989
 20
-0.0565338
 11
32.4768
 21
0.262527
  0
LINE
  8
0
 10
32.4768
 20
0.262527
 11
32.384
 21
0.578369
  0
LINE
  8
0
 10
32.384
 20
0.578369
 11
32.2299
 21
0.858643
  0
LINE
  8
0
 10
32.2299
 20
0.858643
 11
32.0199
 21
1.09987
  0
LINE
  8
0
 10
32.0199
 20
1.09987
 11
31.7554
 21
1.29588
  0
LINE
  8
0
 10
31.7554
 20
1.29588
 11
31.4635
 21
1.42657
  0
LINE
  8
0
 10
31.4635
 20
1.42657
 11
31.1505
 21
1.49242
  0
LINE
  8
0
 10
31.1505
 20
1.49242
 11
30.8214
 21
1.48932
  0
LINE
  8
0
 10
30.8214
 20
1.48932
 11
30.5097
 21
1.41759
  0
LINE
  8
0
 10
30.5097
 20
1.41759
 11
30.2122
 21
1.27649
  0
LINE
  8
0
 10
30.2122
 20
1.27649
 11
29.9595
 21
1.08046
  0
LINE
  8
0
 10
29.9595
 20
1.08046
 11
29.7541
 21
0.835312
  0
LINE
  8
0
 10
29.7541
 20
0.835312
 11
29.6019
 21
0.543411
  0
LINE
  8
0
 10
29.6019
 20
0.543411
 11
29.5185
 21
0.23465
  0
LINE
  8
0
 10
29.5185
 20
0.23465
 11
29.5029
 21
-0.0941772
  0
LINE
  8
0
 10
29.5029
 20
-0.0941772
 11
29.5569
 21
-0.409424
  0
LINE
  8
0
 10
29.5569
 20
-0.409424
 11
29.681
 21
-0.714355
  0
LINE
  8
0
 10
29.681
 20
-0.714355
 11
29.8624
 21
-0.977737
  0
LINE
  8
0
 10
29.8624
 20
-0.977737
 11
30.0956
 21
-1.19669
  0
LINE
  8
0
 10
30.0956
 20
-1.19669
 11
30.3699
 21
-1.36122
  0
LINE
  8
0
 10
30.3699
 20
-1.36122
 11
30.6728
 21
-1.46387
  0
LINE
  8
0
 10
30.6728
 20
-1.46387
 11
30.7004
 21
-1.46977
  0
ENDSEC
  0
SECTION
  2
OBJECTS
  0
DICTIONARY
  0
ENDSEC
  0
EOF
