  0
SECTION
  2
BLOCKS
  0
ENDSEC
  0
SECTION
  2
ENTITIES
  0
LINE
  8
0
 10
1.69954
 20
46.3427
 11
2.02513
 21
46.3201
  0
LINE
  8
0
 10
2.02513
 20
46.3201
 11
2.35004
 21
46.3509
  0
LINE
  8
0
 10
2.35004
 20
46.3509
 11
2.66563
 21
46.434
  0
LINE
  8
0
 10
2.66563
 20
46.434
 11
2.9635
 21
46.5674
  0
LINE
  8
0
 10
2.9635
 20
46.5674
 11
3.23572
 21
46.7474
  0
LINE
  8
0
 10
3.23572
 20
46.7474
 11
3.47502
 21
46.9693
  0
LINE
  8
0
 10
3.47502
 20
46.9693
 11
3.67505
 21
47.2272
  0
LINE
  8
0
 10
3.67505
 20
47.2272
 11
3.83047
 21
47.5142
  0
LINE
  8
0
 10
3.83047
 20
47.5142
 11
3.93716
 21
47.8226
  0
LINE
  8
0
 10
3.93716
 20
47.8226
 11
3.99226
 21
48.1443
  0
LINE
  8
0
 10
3.99226
 20
48.1443
 11
3.99431
 21
48.4706
  0
LINE
  8
0
 10
3.99431
 20
48.4706
 11
3.94325
 21
48.793
  0
LINE
  8
0
 10
3.94325
 20
48.793
 11
3.84045
 21
49.1027
  0
LINE
  8
0
 10
3.84045
 20
49.1027
 11
3.68864
 21
49.3916
  0
LINE
  8
0
 10
3.68864
 20
49.3916
 11
3.49187
 21
49.652
  0
LINE
  8
0
 10
3.49187
 20
49.652
 11
3.25537
 21
49.8769
  0
LINE
  8
0
 10
3.25537
 20
49.8769
 11
2.98544
 21
50.0604
  0
LINE
  8
0
 10
2.98544
 20
50.0604
 11
2.68929
 21
50.1975
  0
LINE
  8
0
 10
2.68929
 20
50.1975
 11
2.37476
 21
50.2846
  0
LINE
  8
0
 10
2.37476
 20
50.2846
 11
2.05025
 21
50.3194
  0
LINE
  8
0
 10
2.05025
 20
50.3194
 11
1.72441
 21
50.3009
  0
LINE
  8
0
 10
1.72441
 20
50.3009
 11
1.40591
 21
50.2297
  0
LINE
  8
0
 10
1.40591
 20
50.2297
 11
1.10323
 21
50.1077
  0
LINE
  8
0
 10
1.10323
 20
50.1077
 11
0.824417
 21
49.938
  0
LINE
  8
0
 10
0.824417
 20
49.938
 11
0.57692
 21
49.7253
  0
LINE
  8
0
 10
0.57692
 20
49.7253
 11
0.36731
 21
49.4751
  0
LINE
  8
0
 10
0.36731
 20
49.4751
 11
0.201187
 21
49.1942
  0
LINE
  8
0
 10
0.201187
 20
49.1942
 11
0.0829468
 21
48.89
  0
LINE
  8
0
 10
0.0829468
 20
48.89
 11
0.0157623
 21
48.5707
  0
LINE
  8
0
 10
0.0157623
 20
48.5707
 11
0.00141907
 21
48.2446
  0
LINE
  8
0
 10
0.00141907
 20
48.2446
 11
0.0402832
 21
47.9206
  0
LINE
  8
0
 10
0.0402832
 20
47.9206
 11
0.131332
 21
47.6072
  0
LINE
  8
0
 10
0.131332
 20
47.6072
 11
0.272141
 21
47.3127
  0
LINE
  8
0
 10
0.272141
 20
47.3127
 11
0.458969
 21
47.0452
  0
LINE
  8
0
 10
0.458969
 20
47.0452
 11
0.686813
 21
46.8115
  0
LINE
  8
0
 10
0.686813
 20
46.8115
 11
0.949646
 21
46.618
  0
LINE
  8
0
 10
0.949646
 20
46.618
 11
1.24043
 21
46.4698
  0
LINE
  8
0
 10
1.24043
 20
46.4698
 11
1.55145
 21
46.3709
  0
LINE
  8
0
 10
1.55145
 20
46.3709
 11
1.69954
 21
46.3427
  0
LINE
  8
0
 10
95.7995
 20
46.3427
 11
96.1251
 21
46.3201
  0
LINE
  8
0
 10
96.1251
 20
46.3201
 11
96.45
 21
46.3509
  0
LINE
  8
0
 10
96.45
 20
46.3509
 11
96.7656
 21
46.434
  0
LINE
  8
0
 10
96.7656
 20
46.434
 11
97.0635
 21
46.5674
  0
LINE
  8
0
 10
97.0635
 20
46.5674
 11
97.3357
 21
46.7474
  0
LINE
  8
0
 10
97.3357
 20
46.7474
 11
97.575
 21
46.9693
  0
LINE
  8
0
 10
97.575
 20
46.9693
 11
97.7751
 21
47.2272
  0
LINE
  8
0
 10
97.7751
 20
47.2272
 11
97.9305
 21
47.5142
  0
LINE
  8
0
 10
97.9305
 20
47.5142
 11
98.0372
 21
47.8226
  0
LINE
  8
0
 10
98.0372
 20
47.8226
 11
98.0923
 21
48.1443
  0
LINE
  8
0
 10
98.0923
 20
48.1443
 11
98.0943
 21
48.4706
  0
LINE
  8
0
 10
98.0943
 20
48.4706
 11
98.0433
 21
48.793
  0
LINE
  8
0
 10
98.0433
 20
48.793
 11
97.9405
 21
49.1027
  0
LINE
  8
0
 10
97.9405
 20
49.1027
 11
97.7887
 21
49.3916
  0
LINE
  8
0
 10
97.7887
 20
49.3916
 11
97.5919
 21
49.652
  0
LINE
  8
0
 10
97.5919
 20
49.652
 11
97.3554
 21
49.8769
  0
LINE
  8
0
 10
97.3554
 20
49.8769
 11
97.0854
 21
50.0604
  0
LINE
  8
0
 10
97.0854
 20
50.0604
 11
96.7893
 21
50.1975
  0
LINE
  8
0
 10
96.7893
 20
50.1975
 11
96.4748
 21
50.2846
  0
LINE
  8
0
 10
96.4748
 20
50.2846
 11
96.1503
 21
50.3194
  0
LINE
  8
0
 10
96.1503
 20
50.3194
 11
95.8244
 21
50.3009
  0
LINE
  8
0
 10
95.8244
 20
50.3009
 11
95.5059
 21
50.2297
  0
LINE
  8
0
 10
95.5059
 20
50.2297
 11
95.2032
 21
50.1077
  0
LINE
  8
0
 10
95.2032
 20
50.1077
 11
94.9244
 21
49.938
  0
LINE
  8
0
 10
94.9244
 20
49.938
 11
94.6769
 21
49.7253
  0
LINE
  8
0
 10
94.6769
 20
49.7253
 11
94.4673
 21
49.4751
  0
LINE
  8
0
 10
94.4673
 20
49.4751
 11
94.3012
 21
49.1942
  0
LINE
  8
0
 10
94.3012
 20
49.1942
 11
94.183
 21
48.89
  0
LINE
  8
0
 10
94.183
 20
48.89
 11
94.1158
 21
48.5707
  0
LINE
  8
0
 10
94.1158
 20
48.5707
 11
94.1014
 21
48.2446
  0
LINE
  8
0
 10
94.1014
 20
48.2446
 11
94.1403
 21
47.9206
  0
LINE
  8
0
 10
94.1403
 20
47.9206
 11
94.2313
 21
47.6072
  0
LINE
  8
0
 10
94.2313
 20
47.6072
 11
94.3721
 21
47.3127
  0
LINE
  8
0
 10
94.3721
 20
47.3127
 11
94.559
 21
47.0452
  0
LINE
  8
0
 10
94.559
 20
47.0452
 11
94.7868
 21
46.8115
  0
LINE
  8
0
 10
94.7868
 20
46.8115
 11
95.0496
 21
46.618
  0
LINE
  8
0
 10
95.0496
 20
46.618
 11
95.3404
 21
46.4698
  0
LINE
  8
0
 10
95.3404
 20
46.4698
 11
95.6514
 21
46.3709
  0
LINE
  8
0
 10
95.6514
 20
46.3709
 11
95.7995
 21
46.3427
  0
LINE
  8
0
 10
98.1
 20
42.1
 11
0
 21
42.1
  0
LINE
  8
0
 10
0
 20
42.1
 11
0
 21
0
  0
LINE
  8
0
 10
0
 20
0
 11
98.1
 21
0
  0
LINE
  8
0
 10
98.1
 20
0
 11
98.1
 21
42.1
  0
LINE
  8
0
 10
1.69954
 20
-10.1973
 11
2.02513
 21
-10.2198
  0
LINE
  8
0
 10
2.02513
 20
-10.2198
 11
2.35004
 21
-10.1891
  0
LINE
  8
0
 10
2.35004
 20
-10.1891
 11
2.66563
 21
-10.106
  0
LINE
  8
0
 10
2.66563
 20
-10.106
 11
2.9635
 21
-9.97261
  0
LINE
  8
0
 10
2.9635
 20
-9.97261
 11
3.23572
 21
-9.79257
  0
LINE
  8
0
 10
3.23572
 20
-9.79257
 11
3.47502
 21
-9.57066
  0
LINE
  8
0
 10
3.47502
 20
-9.57066
 11
3.67505
 21
-9.31277
  0
LINE
  8
0
 10
3.67505
 20
-9.31277
 11
3.83047
 21
-9.0258
  0
LINE
  8
0
 10
3.83047
 20
-9.0258
 11
3.93716
 21
-8.71738
  0
LINE
  8
0
 10
3.93716
 20
-8.71738
 11
3.99226
 21
-8.39569
  0
LINE
  8
0
 10
3.99226
 20
-8.39569
 11
3.99431
 21
-8.06934
  0
LINE
  8
0
 10
3.99431
 20
-8.06934
 11
3.94325
 21
-7.74699
  0
LINE
  8
0
 10
3.94325
 20
-7.74699
 11
3.84045
 21
-7.43724
  0
LINE
  8
0
 10
3.84045
 20
-7.43724
 11
3.68864
 21
-7.14835
  0
LINE
  8
0
 10
3.68864
 20
-7.14835
 11
3.49187
 21
-6.88797
  0
LINE
  8
0
 10
3.49187
 20
-6.88797
 11
3.25537
 21
-6.66307
  0
LINE
  8
0
 10
3.25537
 20
-6.66307
 11
2.98544
 21
-6.47963
  0
LINE
  8
0
 10
2.98544
 20
-6.47963
 11
2.68929
 21
-6.34253
  0
LINE
  8
0
 10
2.68929
 20
-6.34253
 11
2.37476
 21
-6.25542
  0
LINE
  8
0
 10
2.37476
 20
-6.25542
 11
2.05025
 21
-6.22063
  0
LINE
  8
0
 10
2.05025
 20
-6.22063
 11
1.72441
 21
-6.23907
  0
LINE
  8
0
 10
1.72441
 20
-6.23907
 11
1.40591
 21
-6.31026
  0
LINE
  8
0
 10
1.40591
 20
-6.31026
 11
1.10323
 21
-6.43231
  0
LINE
  8
0
 10
1.10323
 20
-6.43231
 11
0.824417
 21
-6.60196
  0
LINE
  8
0
 10
0.824417
 20
-6.60196
 11
0.57692
 21
-6.8147
  0
LINE
  8
0
 10
0.57692
 20
-6.8147
 11
0.36731
 21
-7.06485
  0
LINE
  8
0
 10
0.36731
 20
-7.06485
 11
0.201187
 21
-7.34576
  0
LINE
  8
0
 10
0.201187
 20
-7.34576
 11
0.0829468
 21
-7.64995
  0
LINE
  8
0
 10
0.0829468
 20
-7.64995
 11
0.0157623
 21
-7.96933
  0
LINE
  8
0
 10
0.0157623
 20
-7.96933
 11
0.00141907
 21
-8.29538
  0
LINE
  8
0
 10
0.00141907
 20
-8.29538
 11
0.0402832
 21
-8.61942
  0
LINE
  8
0
 10
0.0402832
 20
-8.61942
 11
0.131332
 21
-8.93282
  0
LINE
  8
0
 10
0.131332
 20
-8.93282
 11
0.272141
 21
-9.22723
  0
LINE
  8
0
 10
0.272141
 20
-9.22723
 11
0.458969
 21
-9.49484
  0
LINE
  8
0
 10
0.458969
 20
-9.49484
 11
0.686813
 21
-9.7285
  0
LINE
  8
0
 10
0.686813
 20
-9.7285
 11
0.949646
 21
-9.92198
  0
LINE
  8
0
 10
0.949646
 20
-9.92198
 11
1.24043
 21
-10.0701
  0
LINE
  8
0
 10
1.24043
 20
-10.0701
 11
1.55145
 21
-10.1691
  0
LINE
  8
0
 10
1.55145
 20
-10.1691
 11
1.69954
 21
-10.1973
  0
LINE
  8
0
 10
95.7995
 20
-10.1973
 11
96.1251
 21
-10.2198
  0
LINE
  8
0
 10
96.1251
 20
-10.2198
 11
96.45
 21
-10.1891
  0
LINE
  8
0
 10
96.45
 20
-10.1891
 11
96.7656
 21
-10.106
  0
LINE
  8
0
 10
96.7656
 20
-10.106
 11
97.0635
 21
-9.97261
  0
LINE
  8
0
 10
97.0635
 20
-9.97261
 11
97.3357
 21
-9.79257
  0
LINE
  8
0
 10
97.3357
 20
-9.79257
 11
97.575
 21
-9.57066
  0
LINE
  8
0
 10
97.575
 20
-9.57066
 11
97.7751
 21
-9.31277
  0
LINE
  8
0
 10
97.7751
 20
-9.31277
 11
97.9305
 21
-9.0258
  0
LINE
  8
0
 10
97.9305
 20
-9.0258
 11
98.0372
 21
-8.71738
  0
LINE
  8
0
 10
98.0372
 20
-8.71738
 11
98.0923
 21
-8.39569
  0
LINE
  8
0
 10
98.0923
 20
-8.39569
 11
98.0943
 21
-8.06934
  0
LINE
  8
0
 10
98.0943
 20
-8.06934
 11
98.0433
 21
-7.74699
  0
LINE
  8
0
 10
98.0433
 20
-7.74699
 11
97.9405
 21
-7.43724
  0
LINE
  8
0
 10
97.9405
 20
-7.43724
 11
97.7887
 21
-7.14835
  0
LINE
  8
0
 10
97.7887
 20
-7.14835
 11
97.5919
 21
-6.88797
  0
LINE
  8
0
 10
97.5919
 20
-6.88797
 11
97.3554
 21
-6.66307
  0
LINE
  8
0
 10
97.3554
 20
-6.66307
 11
97.0854
 21
-6.47963
  0
LINE
  8
0
 10
97.0854
 20
-6.47963
 11
96.7893
 21
-6.34253
  0
LINE
  8
0
 10
96.7893
 20
-6.34253
 11
96.4748
 21
-6.25542
  0
LINE
  8
0
 10
96.4748
 20
-6.25542
 11
96.1503
 21
-6.22063
  0
LINE
  8
0
 10
96.1503
 20
-6.22063
 11
95.8244
 21
-6.23907
  0
LINE
  8
0
 10
95.8244
 20
-6.23907
 11
95.5059
 21
-6.31026
  0
LINE
  8
0
 10
95.5059
 20
-6.31026
 11
95.2032
 21
-6.43231
  0
LINE
  8
0
 10
95.2032
 20
-6.43231
 11
94.9244
 21
-6.60196
  0
LINE
  8
0
 10
94.9244
 20
-6.60196
 11
94.6769
 21
-6.8147
  0
LINE
  8
0
 10
94.6769
 20
-6.8147
 11
94.4673
 21
-7.06485
  0
LINE
  8
0
 10
94.4673
 20
-7.06485
 11
94.3012
 21
-7.34576
  0
LINE
  8
0
 10
94.3012
 20
-7.34576
 11
94.183
 21
-7.64995
  0
LINE
  8
0
 10
94.183
 20
-7.64995
 11
94.1158
 21
-7.96933
  0
LINE
  8
0
 10
94.1158
 20
-7.96933
 11
94.1014
 21
-8.29538
  0
LINE
  8
0
 10
94.1014
 20
-8.29538
 11
94.1403
 21
-8.61942
  0
LINE
  8
0
 10
94.1403
 20
-8.61942
 11
94.2313
 21
-8.93282
  0
LINE
  8
0
 10
94.2313
 20
-8.93282
 11
94.3721
 21
-9.22723
  0
LINE
  8
0
 10
94.3721
 20
-9.22723
 11
94.559
 21
-9.49484
  0
LINE
  8
0
 10
94.559
 20
-9.49484
 11
94.7868
 21
-9.7285
  0
LINE
  8
0
 10
94.7868
 20
-9.7285
 11
95.0496
 21
-9.92198
  0
LINE
  8
0
 10
95.0496
 20
-9.92198
 11
95.3404
 21
-10.0701
  0
LINE
  8
0
 10
95.3404
 20
-10.0701
 11
95.6514
 21
-10.1691
  0
LINE
  8
0
 10
95.6514
 20
-10.1691
 11
95.7995
 21
-10.1973
  0
ENDSEC
  0
SECTION
  2
OBJECTS
  0
DICTIONARY
  0
ENDSEC
  0
EOF
