  0
SECTION
  2
BLOCKS
  0
ENDSEC
  0
SECTION
  2
ENTITIES
  0
LINE
  8
0
 10
2.19954
 20
46.6227
 11
2.52513
 21
46.6001
  0
LINE
  8
0
 10
2.52513
 20
46.6001
 11
2.85004
 21
46.6309
  0
LINE
  8
0
 10
2.85004
 20
46.6309
 11
3.16563
 21
46.714
  0
LINE
  8
0
 10
3.16563
 20
46.714
 11
3.4635
 21
46.8474
  0
LINE
  8
0
 10
3.4635
 20
46.8474
 11
3.73572
 21
47.0274
  0
LINE
  8
0
 10
3.73572
 20
47.0274
 11
3.97502
 21
47.2493
  0
LINE
  8
0
 10
3.97502
 20
47.2493
 11
4.17505
 21
47.5072
  0
LINE
  8
0
 10
4.17505
 20
47.5072
 11
4.33047
 21
47.7942
  0
LINE
  8
0
 10
4.33047
 20
47.7942
 11
4.43716
 21
48.1026
  0
LINE
  8
0
 10
4.43716
 20
48.1026
 11
4.49226
 21
48.4243
  0
LINE
  8
0
 10
4.49226
 20
48.4243
 11
4.49431
 21
48.7506
  0
LINE
  8
0
 10
4.49431
 20
48.7506
 11
4.44325
 21
49.073
  0
LINE
  8
0
 10
4.44325
 20
49.073
 11
4.34045
 21
49.3827
  0
LINE
  8
0
 10
4.34045
 20
49.3827
 11
4.18864
 21
49.6716
  0
LINE
  8
0
 10
4.18864
 20
49.6716
 11
3.99187
 21
49.932
  0
LINE
  8
0
 10
3.99187
 20
49.932
 11
3.75537
 21
50.1569
  0
LINE
  8
0
 10
3.75537
 20
50.1569
 11
3.48544
 21
50.3404
  0
LINE
  8
0
 10
3.48544
 20
50.3404
 11
3.18929
 21
50.4775
  0
LINE
  8
0
 10
3.18929
 20
50.4775
 11
2.87476
 21
50.5646
  0
LINE
  8
0
 10
2.87476
 20
50.5646
 11
2.55025
 21
50.5994
  0
LINE
  8
0
 10
2.55025
 20
50.5994
 11
2.22441
 21
50.5809
  0
LINE
  8
0
 10
2.22441
 20
50.5809
 11
1.90591
 21
50.5097
  0
LINE
  8
0
 10
1.90591
 20
50.5097
 11
1.60323
 21
50.3877
  0
LINE
  8
0
 10
1.60323
 20
50.3877
 11
1.32442
 21
50.218
  0
LINE
  8
0
 10
1.32442
 20
50.218
 11
1.07692
 21
50.0053
  0
LINE
  8
0
 10
1.07692
 20
50.0053
 11
0.86731
 21
49.7551
  0
LINE
  8
0
 10
0.86731
 20
49.7551
 11
0.701187
 21
49.4742
  0
LINE
  8
0
 10
0.701187
 20
49.4742
 11
0.582947
 21
49.17
  0
LINE
  8
0
 10
0.582947
 20
49.17
 11
0.515762
 21
48.8507
  0
LINE
  8
0
 10
0.515762
 20
48.8507
 11
0.501419
 21
48.5246
  0
LINE
  8
0
 10
0.501419
 20
48.5246
 11
0.540283
 21
48.2006
  0
LINE
  8
0
 10
0.540283
 20
48.2006
 11
0.631332
 21
47.8872
  0
LINE
  8
0
 10
0.631332
 20
47.8872
 11
0.772141
 21
47.5927
  0
LINE
  8
0
 10
0.772141
 20
47.5927
 11
0.958969
 21
47.3251
  0
LINE
  8
0
 10
0.958969
 20
47.3251
 11
1.18681
 21
47.0915
  0
LINE
  8
0
 10
1.18681
 20
47.0915
 11
1.44965
 21
46.898
  0
LINE
  8
0
 10
1.44965
 20
46.898
 11
1.74043
 21
46.7498
  0
LINE
  8
0
 10
1.74043
 20
46.7498
 11
2.05145
 21
46.6509
  0
LINE
  8
0
 10
2.05145
 20
46.6509
 11
2.19954
 21
46.6227
  0
LINE
  8
0
 10
95.2995
 20
46.6227
 11
95.6251
 21
46.6001
  0
LINE
  8
0
 10
95.6251
 20
46.6001
 11
95.95
 21
46.6309
  0
LINE
  8
0
 10
95.95
 20
46.6309
 11
96.2656
 21
46.714
  0
LINE
  8
0
 10
96.2656
 20
46.714
 11
96.5635
 21
46.8474
  0
LINE
  8
0
 10
96.5635
 20
46.8474
 11
96.8357
 21
47.0274
  0
LINE
  8
0
 10
96.8357
 20
47.0274
 11
97.075
 21
47.2493
  0
LINE
  8
0
 10
97.075
 20
47.2493
 11
97.2751
 21
47.5072
  0
LINE
  8
0
 10
97.2751
 20
47.5072
 11
97.4305
 21
47.7942
  0
LINE
  8
0
 10
97.4305
 20
47.7942
 11
97.5372
 21
48.1026
  0
LINE
  8
0
 10
97.5372
 20
48.1026
 11
97.5923
 21
48.4243
  0
LINE
  8
0
 10
97.5923
 20
48.4243
 11
97.5943
 21
48.7506
  0
LINE
  8
0
 10
97.5943
 20
48.7506
 11
97.5433
 21
49.073
  0
LINE
  8
0
 10
97.5433
 20
49.073
 11
97.4405
 21
49.3827
  0
LINE
  8
0
 10
97.4405
 20
49.3827
 11
97.2887
 21
49.6716
  0
LINE
  8
0
 10
97.2887
 20
49.6716
 11
97.0919
 21
49.932
  0
LINE
  8
0
 10
97.0919
 20
49.932
 11
96.8554
 21
50.1569
  0
LINE
  8
0
 10
96.8554
 20
50.1569
 11
96.5854
 21
50.3404
  0
LINE
  8
0
 10
96.5854
 20
50.3404
 11
96.2893
 21
50.4775
  0
LINE
  8
0
 10
96.2893
 20
50.4775
 11
95.9748
 21
50.5646
  0
LINE
  8
0
 10
95.9748
 20
50.5646
 11
95.6503
 21
50.5994
  0
LINE
  8
0
 10
95.6503
 20
50.5994
 11
95.3244
 21
50.5809
  0
LINE
  8
0
 10
95.3244
 20
50.5809
 11
95.0059
 21
50.5097
  0
LINE
  8
0
 10
95.0059
 20
50.5097
 11
94.7032
 21
50.3877
  0
LINE
  8
0
 10
94.7032
 20
50.3877
 11
94.4244
 21
50.218
  0
LINE
  8
0
 10
94.4244
 20
50.218
 11
94.1769
 21
50.0053
  0
LINE
  8
0
 10
94.1769
 20
50.0053
 11
93.9673
 21
49.7551
  0
LINE
  8
0
 10
93.9673
 20
49.7551
 11
93.8012
 21
49.4742
  0
LINE
  8
0
 10
93.8012
 20
49.4742
 11
93.683
 21
49.17
  0
LINE
  8
0
 10
93.683
 20
49.17
 11
93.6158
 21
48.8507
  0
LINE
  8
0
 10
93.6158
 20
48.8507
 11
93.6014
 21
48.5246
  0
LINE
  8
0
 10
93.6014
 20
48.5246
 11
93.6403
 21
48.2006
  0
LINE
  8
0
 10
93.6403
 20
48.2006
 11
93.7313
 21
47.8872
  0
LINE
  8
0
 10
93.7313
 20
47.8872
 11
93.8721
 21
47.5927
  0
LINE
  8
0
 10
93.8721
 20
47.5927
 11
94.059
 21
47.3251
  0
LINE
  8
0
 10
94.059
 20
47.3251
 11
94.2868
 21
47.0915
  0
LINE
  8
0
 10
94.2868
 20
47.0915
 11
94.5496
 21
46.898
  0
LINE
  8
0
 10
94.5496
 20
46.898
 11
94.8404
 21
46.7498
  0
LINE
  8
0
 10
94.8404
 20
46.7498
 11
95.1514
 21
46.6509
  0
LINE
  8
0
 10
95.1514
 20
46.6509
 11
95.2995
 21
46.6227
  0
LINE
  8
0
 10
98.1
 20
42.1
 11
0
 21
42.1
  0
LINE
  8
0
 10
0
 20
42.1
 11
0
 21
0
  0
LINE
  8
0
 10
0
 20
0
 11
98.1
 21
0
  0
LINE
  8
0
 10
98.1
 20
0
 11
98.1
 21
42.1
  0
LINE
  8
0
 10
2.19954
 20
-8.47729
 11
2.52513
 21
-8.49983
  0
LINE
  8
0
 10
2.52513
 20
-8.49983
 11
2.85004
 21
-8.46912
  0
LINE
  8
0
 10
2.85004
 20
-8.46912
 11
3.16563
 21
-8.38597
  0
LINE
  8
0
 10
3.16563
 20
-8.38597
 11
3.4635
 21
-8.25261
  0
LINE
  8
0
 10
3.4635
 20
-8.25261
 11
3.73572
 21
-8.07257
  0
LINE
  8
0
 10
3.73572
 20
-8.07257
 11
3.97502
 21
-7.85066
  0
LINE
  8
0
 10
3.97502
 20
-7.85066
 11
4.17505
 21
-7.59277
  0
LINE
  8
0
 10
4.17505
 20
-7.59277
 11
4.33047
 21
-7.3058
  0
LINE
  8
0
 10
4.33047
 20
-7.3058
 11
4.43716
 21
-6.99738
  0
LINE
  8
0
 10
4.43716
 20
-6.99738
 11
4.49226
 21
-6.67569
  0
LINE
  8
0
 10
4.49226
 20
-6.67569
 11
4.49431
 21
-6.34933
  0
LINE
  8
0
 10
4.49431
 20
-6.34933
 11
4.44325
 21
-6.02699
  0
LINE
  8
0
 10
4.44325
 20
-6.02699
 11
4.34045
 21
-5.71724
  0
LINE
  8
0
 10
4.34045
 20
-5.71724
 11
4.18864
 21
-5.42834
  0
LINE
  8
0
 10
4.18864
 20
-5.42834
 11
3.99187
 21
-5.16797
  0
LINE
  8
0
 10
3.99187
 20
-5.16797
 11
3.75537
 21
-4.94307
  0
LINE
  8
0
 10
3.75537
 20
-4.94307
 11
3.48544
 21
-4.75963
  0
LINE
  8
0
 10
3.48544
 20
-4.75963
 11
3.18929
 21
-4.62253
  0
LINE
  8
0
 10
3.18929
 20
-4.62253
 11
2.87476
 21
-4.53542
  0
LINE
  8
0
 10
2.87476
 20
-4.53542
 11
2.55025
 21
-4.50063
  0
LINE
  8
0
 10
2.55025
 20
-4.50063
 11
2.22441
 21
-4.51907
  0
LINE
  8
0
 10
2.22441
 20
-4.51907
 11
1.90591
 21
-4.59026
  0
LINE
  8
0
 10
1.90591
 20
-4.59026
 11
1.60323
 21
-4.71231
  0
LINE
  8
0
 10
1.60323
 20
-4.71231
 11
1.32442
 21
-4.88196
  0
LINE
  8
0
 10
1.32442
 20
-4.88196
 11
1.07692
 21
-5.0947
  0
LINE
  8
0
 10
1.07692
 20
-5.0947
 11
0.86731
 21
-5.34485
  0
LINE
  8
0
 10
0.86731
 20
-5.34485
 11
0.701187
 21
-5.62576
  0
LINE
  8
0
 10
0.701187
 20
-5.62576
 11
0.582947
 21
-5.92995
  0
LINE
  8
0
 10
0.582947
 20
-5.92995
 11
0.515762
 21
-6.24933
  0
LINE
  8
0
 10
0.515762
 20
-6.24933
 11
0.501419
 21
-6.57538
  0
LINE
  8
0
 10
0.501419
 20
-6.57538
 11
0.540283
 21
-6.89941
  0
LINE
  8
0
 10
0.540283
 20
-6.89941
 11
0.631332
 21
-7.21281
  0
LINE
  8
0
 10
0.631332
 20
-7.21281
 11
0.772141
 21
-7.50723
  0
LINE
  8
0
 10
0.772141
 20
-7.50723
 11
0.958969
 21
-7.77484
  0
LINE
  8
0
 10
0.958969
 20
-7.77484
 11
1.18681
 21
-8.0085
  0
LINE
  8
0
 10
1.18681
 20
-8.0085
 11
1.44965
 21
-8.20198
  0
LINE
  8
0
 10
1.44965
 20
-8.20198
 11
1.74043
 21
-8.35014
  0
LINE
  8
0
 10
1.74043
 20
-8.35014
 11
2.05145
 21
-8.44905
  0
LINE
  8
0
 10
2.05145
 20
-8.44905
 11
2.19954
 21
-8.47729
  0
LINE
  8
0
 10
95.2995
 20
-8.47729
 11
95.6251
 21
-8.49983
  0
LINE
  8
0
 10
95.6251
 20
-8.49983
 11
95.95
 21
-8.46912
  0
LINE
  8
0
 10
95.95
 20
-8.46912
 11
96.2656
 21
-8.38597
  0
LINE
  8
0
 10
96.2656
 20
-8.38597
 11
96.5635
 21
-8.25261
  0
LINE
  8
0
 10
96.5635
 20
-8.25261
 11
96.8357
 21
-8.07257
  0
LINE
  8
0
 10
96.8357
 20
-8.07257
 11
97.075
 21
-7.85066
  0
LINE
  8
0
 10
97.075
 20
-7.85066
 11
97.2751
 21
-7.59277
  0
LINE
  8
0
 10
97.2751
 20
-7.59277
 11
97.4305
 21
-7.3058
  0
LINE
  8
0
 10
97.4305
 20
-7.3058
 11
97.5372
 21
-6.99738
  0
LINE
  8
0
 10
97.5372
 20
-6.99738
 11
97.5923
 21
-6.67569
  0
LINE
  8
0
 10
97.5923
 20
-6.67569
 11
97.5943
 21
-6.34933
  0
LINE
  8
0
 10
97.5943
 20
-6.34933
 11
97.5433
 21
-6.02699
  0
LINE
  8
0
 10
97.5433
 20
-6.02699
 11
97.4405
 21
-5.71724
  0
LINE
  8
0
 10
97.4405
 20
-5.71724
 11
97.2887
 21
-5.42834
  0
LINE
  8
0
 10
97.2887
 20
-5.42834
 11
97.0919
 21
-5.16797
  0
LINE
  8
0
 10
97.0919
 20
-5.16797
 11
96.8554
 21
-4.94307
  0
LINE
  8
0
 10
96.8554
 20
-4.94307
 11
96.5854
 21
-4.75963
  0
LINE
  8
0
 10
96.5854
 20
-4.75963
 11
96.2893
 21
-4.62253
  0
LINE
  8
0
 10
96.2893
 20
-4.62253
 11
95.9748
 21
-4.53542
  0
LINE
  8
0
 10
95.9748
 20
-4.53542
 11
95.6503
 21
-4.50063
  0
LINE
  8
0
 10
95.6503
 20
-4.50063
 11
95.3244
 21
-4.51907
  0
LINE
  8
0
 10
95.3244
 20
-4.51907
 11
95.0059
 21
-4.59026
  0
LINE
  8
0
 10
95.0059
 20
-4.59026
 11
94.7032
 21
-4.71231
  0
LINE
  8
0
 10
94.7032
 20
-4.71231
 11
94.4244
 21
-4.88196
  0
LINE
  8
0
 10
94.4244
 20
-4.88196
 11
94.1769
 21
-5.0947
  0
LINE
  8
0
 10
94.1769
 20
-5.0947
 11
93.9673
 21
-5.34485
  0
LINE
  8
0
 10
93.9673
 20
-5.34485
 11
93.8012
 21
-5.62576
  0
LINE
  8
0
 10
93.8012
 20
-5.62576
 11
93.683
 21
-5.92995
  0
LINE
  8
0
 10
93.683
 20
-5.92995
 11
93.6158
 21
-6.24933
  0
LINE
  8
0
 10
93.6158
 20
-6.24933
 11
93.6014
 21
-6.57538
  0
LINE
  8
0
 10
93.6014
 20
-6.57538
 11
93.6403
 21
-6.89941
  0
LINE
  8
0
 10
93.6403
 20
-6.89941
 11
93.7313
 21
-7.21281
  0
LINE
  8
0
 10
93.7313
 20
-7.21281
 11
93.8721
 21
-7.50723
  0
LINE
  8
0
 10
93.8721
 20
-7.50723
 11
94.059
 21
-7.77484
  0
LINE
  8
0
 10
94.059
 20
-7.77484
 11
94.2868
 21
-8.0085
  0
LINE
  8
0
 10
94.2868
 20
-8.0085
 11
94.5496
 21
-8.20198
  0
LINE
  8
0
 10
94.5496
 20
-8.20198
 11
94.8404
 21
-8.35014
  0
LINE
  8
0
 10
94.8404
 20
-8.35014
 11
95.1514
 21
-8.44905
  0
LINE
  8
0
 10
95.1514
 20
-8.44905
 11
95.2995
 21
-8.47729
  0
ENDSEC
  0
SECTION
  2
OBJECTS
  0
DICTIONARY
  0
ENDSEC
  0
EOF
