  0
SECTION
  2
BLOCKS
  0
ENDSEC
  0
SECTION
  2
ENTITIES
  0
LINE
  8
0
 10
-0.0314026
 20
-0.999496
 11
0.0627899
 21
-0.998016
  0
LINE
  8
0
 10
0.0627899
 20
-0.998016
 11
0.156433
 21
-0.987686
  0
LINE
  8
0
 10
0.156433
 20
-0.987686
 11
0.248688
 21
-0.968582
  0
LINE
  8
0
 10
0.248688
 20
-0.968582
 11
0.33873
 21
-0.940872
  0
LINE
  8
0
 10
0.33873
 20
-0.940872
 11
0.425766
 21
-0.904816
  0
LINE
  8
0
 10
0.425766
 20
-0.904816
 11
0.509033
 21
-0.860733
  0
LINE
  8
0
 10
0.509033
 20
-0.860733
 11
0.587784
 21
-0.809006
  0
LINE
  8
0
 10
0.587784
 20
-0.809006
 11
0.661301
 21
-0.750107
  0
LINE
  8
0
 10
0.661301
 20
-0.750107
 11
0.728958
 21
-0.68454
  0
LINE
  8
0
 10
0.728958
 20
-0.68454
 11
0.790146
 21
-0.6129
  0
LINE
  8
0
 10
0.790146
 20
-0.6129
 11
0.844315
 21
-0.535812
  0
LINE
  8
0
 10
0.844315
 20
-0.535812
 11
0.891006
 21
-0.453979
  0
LINE
  8
0
 10
0.891006
 20
-0.453979
 11
0.929764
 21
-0.368118
  0
LINE
  8
0
 10
0.929764
 20
-0.368118
 11
0.960281
 21
-0.278976
  0
LINE
  8
0
 10
0.960281
 20
-0.278976
 11
0.982285
 21
-0.187378
  0
LINE
  8
0
 10
0.982285
 20
-0.187378
 11
0.99556
 21
-0.094101
  0
LINE
  8
0
 10
0.99556
 20
-0.094101
 11
1
 21
0
  0
LINE
  8
0
 10
1
 20
0
 11
0.999496
 21
1.5314
  0
LINE
  8
0
 10
0.999496
 20
1.5314
 11
0.992111
 21
1.62532
  0
LINE
  8
0
 10
0.992111
 20
1.62532
 11
0.975906
 21
1.71814
  0
LINE
  8
0
 10
0.975906
 20
1.71814
 11
0.95105
 21
1.80901
  0
LINE
  8
0
 10
0.95105
 20
1.80901
 11
0.91774
 21
1.89714
  0
LINE
  8
0
 10
0.91774
 20
1.89714
 11
0.876297
 21
1.98175
  0
LINE
  8
0
 10
0.876297
 20
1.98175
 11
0.827072
 21
2.06207
  0
LINE
  8
0
 10
0.827072
 20
2.06207
 11
0.770508
 21
2.13742
  0
LINE
  8
0
 10
0.770508
 20
2.13742
 11
0.707092
 21
2.20709
  0
LINE
  8
0
 10
0.707092
 20
2.20709
 11
0.637421
 21
2.27051
  0
LINE
  8
0
 10
0.637421
 20
2.27051
 11
0.562073
 21
2.32707
  0
LINE
  8
0
 10
0.562073
 20
2.32707
 11
0.48175
 21
2.3763
  0
LINE
  8
0
 10
0.48175
 20
2.3763
 11
0.397141
 21
2.41774
  0
LINE
  8
0
 10
0.397141
 20
2.41774
 11
0.309006
 21
2.45105
  0
LINE
  8
0
 10
0.309006
 20
2.45105
 11
0.21814
 21
2.47591
  0
LINE
  8
0
 10
0.21814
 20
2.47591
 11
0.12532
 21
2.49211
  0
LINE
  8
0
 10
0.12532
 20
2.49211
 11
0.0314026
 21
2.4995
  0
LINE
  8
0
 10
0.0314026
 20
2.4995
 11
-0.0627899
 21
2.49802
  0
LINE
  8
0
 10
-0.0627899
 20
2.49802
 11
-0.156433
 21
2.48769
  0
LINE
  8
0
 10
-0.156433
 20
2.48769
 11
-0.248688
 21
2.46858
  0
LINE
  8
0
 10
-0.248688
 20
2.46858
 11
-0.33873
 21
2.44087
  0
LINE
  8
0
 10
-0.33873
 20
2.44087
 11
-0.425766
 21
2.40482
  0
LINE
  8
0
 10
-0.425766
 20
2.40482
 11
-0.509033
 21
2.36073
  0
LINE
  8
0
 10
-0.509033
 20
2.36073
 11
-0.587784
 21
2.30901
  0
LINE
  8
0
 10
-0.587784
 20
2.30901
 11
-0.661301
 21
2.25011
  0
LINE
  8
0
 10
-0.661301
 20
2.25011
 11
-0.728958
 21
2.18454
  0
LINE
  8
0
 10
-0.728958
 20
2.18454
 11
-0.790146
 21
2.1129
  0
LINE
  8
0
 10
-0.790146
 20
2.1129
 11
-0.844315
 21
2.03581
  0
LINE
  8
0
 10
-0.844315
 20
2.03581
 11
-0.891006
 21
1.95398
  0
LINE
  8
0
 10
-0.891006
 20
1.95398
 11
-0.929764
 21
1.86812
  0
LINE
  8
0
 10
-0.929764
 20
1.86812
 11
-0.960281
 21
1.77898
  0
LINE
  8
0
 10
-0.960281
 20
1.77898
 11
-0.982285
 21
1.68738
  0
LINE
  8
0
 10
-0.982285
 20
1.68738
 11
-0.99556
 21
1.5941
  0
LINE
  8
0
 10
-0.99556
 20
1.5941
 11
-1
 21
1.5
  0
LINE
  8
0
 10
-1
 20
1.5
 11
-0.999496
 21
-0.0314026
  0
LINE
  8
0
 10
-0.999496
 20
-0.0314026
 11
-0.992111
 21
-0.12532
  0
LINE
  8
0
 10
-0.992111
 20
-0.12532
 11
-0.975906
 21
-0.21814
  0
LINE
  8
0
 10
-0.975906
 20
-0.21814
 11
-0.95105
 21
-0.309006
  0
LINE
  8
0
 10
-0.95105
 20
-0.309006
 11
-0.91774
 21
-0.397141
  0
LINE
  8
0
 10
-0.91774
 20
-0.397141
 11
-0.876297
 21
-0.48175
  0
LINE
  8
0
 10
-0.876297
 20
-0.48175
 11
-0.827072
 21
-0.562073
  0
LINE
  8
0
 10
-0.827072
 20
-0.562073
 11
-0.770508
 21
-0.637421
  0
LINE
  8
0
 10
-0.770508
 20
-0.637421
 11
-0.707092
 21
-0.707092
  0
LINE
  8
0
 10
-0.707092
 20
-0.707092
 11
-0.637421
 21
-0.770508
  0
LINE
  8
0
 10
-0.637421
 20
-0.770508
 11
-0.562073
 21
-0.827072
  0
LINE
  8
0
 10
-0.562073
 20
-0.827072
 11
-0.48175
 21
-0.876297
  0
LINE
  8
0
 10
-0.48175
 20
-0.876297
 11
-0.397141
 21
-0.91774
  0
LINE
  8
0
 10
-0.397141
 20
-0.91774
 11
-0.309006
 21
-0.95105
  0
LINE
  8
0
 10
-0.309006
 20
-0.95105
 11
-0.21814
 21
-0.975906
  0
LINE
  8
0
 10
-0.21814
 20
-0.975906
 11
-0.12532
 21
-0.992111
  0
LINE
  8
0
 10
-0.12532
 20
-0.992111
 11
-0.0314026
 21
-0.999496
  0
LINE
  8
0
 10
0.0552063
 20
1.96053
 11
-0.00941467
 21
1.95029
  0
LINE
  8
0
 10
-0.00941467
 20
1.95029
 11
-0.0722504
 21
1.96855
  0
LINE
  8
0
 10
-0.0722504
 20
1.96855
 11
-0.121338
 21
2.01183
  0
LINE
  8
0
 10
-0.121338
 20
2.01183
 11
-0.147339
 21
2.07188
  0
LINE
  8
0
 10
-0.147339
 20
2.07188
 11
-0.145279
 21
2.1373
  0
LINE
  8
0
 10
-0.145279
 20
2.1373
 11
-0.11557
 21
2.1956
  0
LINE
  8
0
 10
-0.11557
 20
2.1956
 11
-0.063858
 21
2.23572
  0
LINE
  8
0
 10
-0.063858
 20
2.23572
 11
0
 21
2.25
  0
LINE
  8
0
 10
0
 20
2.25
 11
0.063858
 21
2.23572
  0
LINE
  8
0
 10
0.063858
 20
2.23572
 11
0.11557
 21
2.1956
  0
LINE
  8
0
 10
0.11557
 20
2.1956
 11
0.145279
 21
2.1373
  0
LINE
  8
0
 10
0.145279
 20
2.1373
 11
0.147339
 21
2.07188
  0
LINE
  8
0
 10
0.147339
 20
2.07188
 11
0.121338
 21
2.01183
  0
LINE
  8
0
 10
0.121338
 20
2.01183
 11
0.0722504
 21
1.96855
  0
LINE
  8
0
 10
0.0722504
 20
1.96855
 11
0.0552063
 21
1.96053
  0
LINE
  8
0
 10
0.0552063
 20
1.36052
 11
-0.00941467
 21
1.35028
  0
LINE
  8
0
 10
-0.00941467
 20
1.35028
 11
-0.0722504
 21
1.36855
  0
LINE
  8
0
 10
-0.0722504
 20
1.36855
 11
-0.121338
 21
1.41182
  0
LINE
  8
0
 10
-0.121338
 20
1.41182
 11
-0.147339
 21
1.47188
  0
LINE
  8
0
 10
-0.147339
 20
1.47188
 11
-0.145279
 21
1.53729
  0
LINE
  8
0
 10
-0.145279
 20
1.53729
 11
-0.11557
 21
1.59561
  0
LINE
  8
0
 10
-0.11557
 20
1.59561
 11
-0.063858
 21
1.63571
  0
LINE
  8
0
 10
-0.063858
 20
1.63571
 11
0
 21
1.64999
  0
LINE
  8
0
 10
0
 20
1.64999
 11
0.063858
 21
1.63571
  0
LINE
  8
0
 10
0.063858
 20
1.63571
 11
0.11557
 21
1.59561
  0
LINE
  8
0
 10
0.11557
 20
1.59561
 11
0.145279
 21
1.53729
  0
LINE
  8
0
 10
0.145279
 20
1.53729
 11
0.147339
 21
1.47188
  0
LINE
  8
0
 10
0.147339
 20
1.47188
 11
0.121338
 21
1.41182
  0
LINE
  8
0
 10
0.121338
 20
1.41182
 11
0.0722504
 21
1.36855
  0
LINE
  8
0
 10
0.0722504
 20
1.36855
 11
0.0552063
 21
1.36052
  0
LINE
  8
0
 10
-0.544769
 20
1.36052
 11
-0.609406
 21
1.35028
  0
LINE
  8
0
 10
-0.609406
 20
1.35028
 11
-0.672256
 21
1.36855
  0
LINE
  8
0
 10
-0.672256
 20
1.36855
 11
-0.721344
 21
1.41182
  0
LINE
  8
0
 10
-0.721344
 20
1.41182
 11
-0.74733
 21
1.47188
  0
LINE
  8
0
 10
-0.74733
 20
1.47188
 11
-0.745285
 21
1.53729
  0
LINE
  8
0
 10
-0.745285
 20
1.53729
 11
-0.715576
 21
1.59561
  0
LINE
  8
0
 10
-0.715576
 20
1.59561
 11
-0.663864
 21
1.63571
  0
LINE
  8
0
 10
-0.663864
 20
1.63571
 11
-0.599991
 21
1.64999
  0
LINE
  8
0
 10
-0.599991
 20
1.64999
 11
-0.536133
 21
1.63571
  0
LINE
  8
0
 10
-0.536133
 20
1.63571
 11
-0.484421
 21
1.59561
  0
LINE
  8
0
 10
-0.484421
 20
1.59561
 11
-0.454712
 21
1.53729
  0
LINE
  8
0
 10
-0.454712
 20
1.53729
 11
-0.452652
 21
1.47188
  0
LINE
  8
0
 10
-0.452652
 20
1.47188
 11
-0.478638
 21
1.41182
  0
LINE
  8
0
 10
-0.478638
 20
1.41182
 11
-0.527725
 21
1.36855
  0
LINE
  8
0
 10
-0.527725
 20
1.36855
 11
-0.544769
 21
1.36052
  0
LINE
  8
0
 10
0.655212
 20
1.36052
 11
0.590576
 21
1.35028
  0
LINE
  8
0
 10
0.590576
 20
1.35028
 11
0.527725
 21
1.36855
  0
LINE
  8
0
 10
0.527725
 20
1.36855
 11
0.478638
 21
1.41182
  0
LINE
  8
0
 10
0.478638
 20
1.41182
 11
0.452652
 21
1.47188
  0
LINE
  8
0
 10
0.452652
 20
1.47188
 11
0.454712
 21
1.53729
  0
LINE
  8
0
 10
0.454712
 20
1.53729
 11
0.484421
 21
1.59561
  0
LINE
  8
0
 10
0.484421
 20
1.59561
 11
0.536133
 21
1.63571
  0
LINE
  8
0
 10
0.536133
 20
1.63571
 11
0.599991
 21
1.64999
  0
LINE
  8
0
 10
0.599991
 20
1.64999
 11
0.663864
 21
1.63571
  0
LINE
  8
0
 10
0.663864
 20
1.63571
 11
0.715576
 21
1.59561
  0
LINE
  8
0
 10
0.715576
 20
1.59561
 11
0.745285
 21
1.53729
  0
LINE
  8
0
 10
0.745285
 20
1.53729
 11
0.74733
 21
1.47188
  0
LINE
  8
0
 10
0.74733
 20
1.47188
 11
0.721344
 21
1.41182
  0
LINE
  8
0
 10
0.721344
 20
1.41182
 11
0.672256
 21
1.36855
  0
LINE
  8
0
 10
0.672256
 20
1.36855
 11
0.655212
 21
1.36052
  0
LINE
  8
0
 10
0.0552063
 20
0.760529
 11
-0.00941467
 21
0.75029
  0
LINE
  8
0
 10
-0.00941467
 20
0.75029
 11
-0.0722504
 21
0.768539
  0
LINE
  8
0
 10
-0.0722504
 20
0.768539
 11
-0.121338
 21
0.811829
  0
LINE
  8
0
 10
-0.121338
 20
0.811829
 11
-0.147339
 21
0.871887
  0
LINE
  8
0
 10
-0.147339
 20
0.871887
 11
-0.145279
 21
0.937302
  0
LINE
  8
0
 10
-0.145279
 20
0.937302
 11
-0.11557
 21
0.995605
  0
LINE
  8
0
 10
-0.11557
 20
0.995605
 11
-0.063858
 21
1.03572
  0
LINE
  8
0
 10
-0.063858
 20
1.03572
 11
0
 21
1.04999
  0
LINE
  8
0
 10
0
 20
1.04999
 11
0.063858
 21
1.03572
  0
LINE
  8
0
 10
0.063858
 20
1.03572
 11
0.11557
 21
0.995605
  0
LINE
  8
0
 10
0.11557
 20
0.995605
 11
0.145279
 21
0.937302
  0
LINE
  8
0
 10
0.145279
 20
0.937302
 11
0.147339
 21
0.871887
  0
LINE
  8
0
 10
0.147339
 20
0.871887
 11
0.121338
 21
0.811829
  0
LINE
  8
0
 10
0.121338
 20
0.811829
 11
0.0722504
 21
0.768539
  0
LINE
  8
0
 10
0.0722504
 20
0.768539
 11
0.0552063
 21
0.760529
  0
LINE
  8
0
 10
0.0552063
 20
-0.139465
 11
-0.00941467
 21
-0.149704
  0
LINE
  8
0
 10
-0.00941467
 20
-0.149704
 11
-0.0722504
 21
-0.131439
  0
LINE
  8
0
 10
-0.0722504
 20
-0.131439
 11
-0.121338
 21
-0.0881653
  0
LINE
  8
0
 10
-0.121338
 20
-0.0881653
 11
-0.147339
 21
-0.0281067
  0
LINE
  8
0
 10
-0.147339
 20
-0.0281067
 11
-0.145279
 21
0.0372925
  0
LINE
  8
0
 10
-0.145279
 20
0.0372925
 11
-0.11557
 21
0.0956116
  0
LINE
  8
0
 10
-0.11557
 20
0.0956116
 11
-0.063858
 21
0.135712
  0
LINE
  8
0
 10
-0.063858
 20
0.135712
 11
0
 21
0.149994
  0
LINE
  8
0
 10
0
 20
0.149994
 11
0.063858
 21
0.135712
  0
LINE
  8
0
 10
0.063858
 20
0.135712
 11
0.11557
 21
0.0956116
  0
LINE
  8
0
 10
0.11557
 20
0.0956116
 11
0.145279
 21
0.0372925
  0
LINE
  8
0
 10
0.145279
 20
0.0372925
 11
0.147339
 21
-0.0281067
  0
LINE
  8
0
 10
0.147339
 20
-0.0281067
 11
0.121338
 21
-0.0881653
  0
LINE
  8
0
 10
0.121338
 20
-0.0881653
 11
0.0722504
 21
-0.131439
  0
LINE
  8
0
 10
0.0722504
 20
-0.131439
 11
0.0552063
 21
-0.139465
  0
LINE
  8
0
 10
0.655212
 20
-0.139465
 11
0.590576
 21
-0.149704
  0
LINE
  8
0
 10
0.590576
 20
-0.149704
 11
0.527725
 21
-0.131439
  0
LINE
  8
0
 10
0.527725
 20
-0.131439
 11
0.478638
 21
-0.0881653
  0
LINE
  8
0
 10
0.478638
 20
-0.0881653
 11
0.452652
 21
-0.0281067
  0
LINE
  8
0
 10
0.452652
 20
-0.0281067
 11
0.454712
 21
0.0372925
  0
LINE
  8
0
 10
0.454712
 20
0.0372925
 11
0.484421
 21
0.0956116
  0
LINE
  8
0
 10
0.484421
 20
0.0956116
 11
0.536133
 21
0.135712
  0
LINE
  8
0
 10
0.536133
 20
0.135712
 11
0.599991
 21
0.149994
  0
LINE
  8
0
 10
0.599991
 20
0.149994
 11
0.663864
 21
0.135712
  0
LINE
  8
0
 10
0.663864
 20
0.135712
 11
0.715576
 21
0.0956116
  0
LINE
  8
0
 10
0.715576
 20
0.0956116
 11
0.745285
 21
0.0372925
  0
LINE
  8
0
 10
0.745285
 20
0.0372925
 11
0.74733
 21
-0.0281067
  0
LINE
  8
0
 10
0.74733
 20
-0.0281067
 11
0.721344
 21
-0.0881653
  0
LINE
  8
0
 10
0.721344
 20
-0.0881653
 11
0.672256
 21
-0.131439
  0
LINE
  8
0
 10
0.672256
 20
-0.131439
 11
0.655212
 21
-0.139465
  0
LINE
  8
0
 10
-0.544769
 20
-0.139465
 11
-0.609406
 21
-0.149704
  0
LINE
  8
0
 10
-0.609406
 20
-0.149704
 11
-0.672256
 21
-0.131439
  0
LINE
  8
0
 10
-0.672256
 20
-0.131439
 11
-0.721344
 21
-0.0881653
  0
LINE
  8
0
 10
-0.721344
 20
-0.0881653
 11
-0.74733
 21
-0.0281067
  0
LINE
  8
0
 10
-0.74733
 20
-0.0281067
 11
-0.745285
 21
0.0372925
  0
LINE
  8
0
 10
-0.745285
 20
0.0372925
 11
-0.715576
 21
0.0956116
  0
LINE
  8
0
 10
-0.715576
 20
0.0956116
 11
-0.663864
 21
0.135712
  0
LINE
  8
0
 10
-0.663864
 20
0.135712
 11
-0.599991
 21
0.149994
  0
LINE
  8
0
 10
-0.599991
 20
0.149994
 11
-0.536133
 21
0.135712
  0
LINE
  8
0
 10
-0.536133
 20
0.135712
 11
-0.484421
 21
0.0956116
  0
LINE
  8
0
 10
-0.484421
 20
0.0956116
 11
-0.454712
 21
0.0372925
  0
LINE
  8
0
 10
-0.454712
 20
0.0372925
 11
-0.452652
 21
-0.0281067
  0
LINE
  8
0
 10
-0.452652
 20
-0.0281067
 11
-0.478638
 21
-0.0881653
  0
LINE
  8
0
 10
-0.478638
 20
-0.0881653
 11
-0.527725
 21
-0.131439
  0
LINE
  8
0
 10
-0.527725
 20
-0.131439
 11
-0.544769
 21
-0.139465
  0
ENDSEC
  0
SECTION
  2
OBJECTS
  0
DICTIONARY
  0
ENDSEC
  0
EOF
