  0
SECTION
  2
BLOCKS
  0
ENDSEC
  0
SECTION
  2
ENTITIES
  0
LINE
  8
0
 10
-0.0314026
 20
-0.999496
 11
0.0627899
 21
-0.998016
  0
LINE
  8
0
 10
0.0627899
 20
-0.998016
 11
0.156433
 21
-0.987686
  0
LINE
  8
0
 10
0.156433
 20
-0.987686
 11
0.248688
 21
-0.968582
  0
LINE
  8
0
 10
0.248688
 20
-0.968582
 11
0.33873
 21
-0.940872
  0
LINE
  8
0
 10
0.33873
 20
-0.940872
 11
0.425766
 21
-0.904816
  0
LINE
  8
0
 10
0.425766
 20
-0.904816
 11
0.509033
 21
-0.860733
  0
LINE
  8
0
 10
0.509033
 20
-0.860733
 11
0.587784
 21
-0.809006
  0
LINE
  8
0
 10
0.587784
 20
-0.809006
 11
0.661301
 21
-0.750107
  0
LINE
  8
0
 10
0.661301
 20
-0.750107
 11
0.728958
 21
-0.68454
  0
LINE
  8
0
 10
0.728958
 20
-0.68454
 11
0.790146
 21
-0.6129
  0
LINE
  8
0
 10
0.790146
 20
-0.6129
 11
0.844315
 21
-0.535812
  0
LINE
  8
0
 10
0.844315
 20
-0.535812
 11
0.891006
 21
-0.453979
  0
LINE
  8
0
 10
0.891006
 20
-0.453979
 11
0.929764
 21
-0.368118
  0
LINE
  8
0
 10
0.929764
 20
-0.368118
 11
0.960281
 21
-0.278976
  0
LINE
  8
0
 10
0.960281
 20
-0.278976
 11
0.982285
 21
-0.187378
  0
LINE
  8
0
 10
0.982285
 20
-0.187378
 11
0.99556
 21
-0.094101
  0
LINE
  8
0
 10
0.99556
 20
-0.094101
 11
1
 21
0
  0
LINE
  8
0
 10
1
 20
0
 11
0.999496
 21
3.0314
  0
LINE
  8
0
 10
0.999496
 20
3.0314
 11
0.992111
 21
3.12532
  0
LINE
  8
0
 10
0.992111
 20
3.12532
 11
0.975906
 21
3.21814
  0
LINE
  8
0
 10
0.975906
 20
3.21814
 11
0.95105
 21
3.30901
  0
LINE
  8
0
 10
0.95105
 20
3.30901
 11
0.91774
 21
3.39714
  0
LINE
  8
0
 10
0.91774
 20
3.39714
 11
0.876297
 21
3.48175
  0
LINE
  8
0
 10
0.876297
 20
3.48175
 11
0.827072
 21
3.56207
  0
LINE
  8
0
 10
0.827072
 20
3.56207
 11
0.770508
 21
3.63742
  0
LINE
  8
0
 10
0.770508
 20
3.63742
 11
0.707092
 21
3.70709
  0
LINE
  8
0
 10
0.707092
 20
3.70709
 11
0.637421
 21
3.77051
  0
LINE
  8
0
 10
0.637421
 20
3.77051
 11
0.562073
 21
3.82707
  0
LINE
  8
0
 10
0.562073
 20
3.82707
 11
0.48175
 21
3.8763
  0
LINE
  8
0
 10
0.48175
 20
3.8763
 11
0.397141
 21
3.91774
  0
LINE
  8
0
 10
0.397141
 20
3.91774
 11
0.309006
 21
3.95105
  0
LINE
  8
0
 10
0.309006
 20
3.95105
 11
0.21814
 21
3.97591
  0
LINE
  8
0
 10
0.21814
 20
3.97591
 11
0.12532
 21
3.99211
  0
LINE
  8
0
 10
0.12532
 20
3.99211
 11
0.0314026
 21
3.9995
  0
LINE
  8
0
 10
0.0314026
 20
3.9995
 11
-0.0627899
 21
3.99802
  0
LINE
  8
0
 10
-0.0627899
 20
3.99802
 11
-0.156433
 21
3.98769
  0
LINE
  8
0
 10
-0.156433
 20
3.98769
 11
-0.248688
 21
3.96858
  0
LINE
  8
0
 10
-0.248688
 20
3.96858
 11
-0.33873
 21
3.94087
  0
LINE
  8
0
 10
-0.33873
 20
3.94087
 11
-0.425766
 21
3.90482
  0
LINE
  8
0
 10
-0.425766
 20
3.90482
 11
-0.509033
 21
3.86073
  0
LINE
  8
0
 10
-0.509033
 20
3.86073
 11
-0.587784
 21
3.80901
  0
LINE
  8
0
 10
-0.587784
 20
3.80901
 11
-0.661301
 21
3.75011
  0
LINE
  8
0
 10
-0.661301
 20
3.75011
 11
-0.728958
 21
3.68454
  0
LINE
  8
0
 10
-0.728958
 20
3.68454
 11
-0.790146
 21
3.6129
  0
LINE
  8
0
 10
-0.790146
 20
3.6129
 11
-0.844315
 21
3.53581
  0
LINE
  8
0
 10
-0.844315
 20
3.53581
 11
-0.891006
 21
3.45398
  0
LINE
  8
0
 10
-0.891006
 20
3.45398
 11
-0.929764
 21
3.36812
  0
LINE
  8
0
 10
-0.929764
 20
3.36812
 11
-0.960281
 21
3.27898
  0
LINE
  8
0
 10
-0.960281
 20
3.27898
 11
-0.982285
 21
3.18738
  0
LINE
  8
0
 10
-0.982285
 20
3.18738
 11
-0.99556
 21
3.0941
  0
LINE
  8
0
 10
-0.99556
 20
3.0941
 11
-1
 21
3
  0
LINE
  8
0
 10
-1
 20
3
 11
-0.999496
 21
-0.0314026
  0
LINE
  8
0
 10
-0.999496
 20
-0.0314026
 11
-0.992111
 21
-0.12532
  0
LINE
  8
0
 10
-0.992111
 20
-0.12532
 11
-0.975906
 21
-0.21814
  0
LINE
  8
0
 10
-0.975906
 20
-0.21814
 11
-0.95105
 21
-0.309006
  0
LINE
  8
0
 10
-0.95105
 20
-0.309006
 11
-0.91774
 21
-0.397141
  0
LINE
  8
0
 10
-0.91774
 20
-0.397141
 11
-0.876297
 21
-0.48175
  0
LINE
  8
0
 10
-0.876297
 20
-0.48175
 11
-0.827072
 21
-0.562073
  0
LINE
  8
0
 10
-0.827072
 20
-0.562073
 11
-0.770508
 21
-0.637421
  0
LINE
  8
0
 10
-0.770508
 20
-0.637421
 11
-0.707092
 21
-0.707092
  0
LINE
  8
0
 10
-0.707092
 20
-0.707092
 11
-0.637421
 21
-0.770508
  0
LINE
  8
0
 10
-0.637421
 20
-0.770508
 11
-0.562073
 21
-0.827072
  0
LINE
  8
0
 10
-0.562073
 20
-0.827072
 11
-0.48175
 21
-0.876297
  0
LINE
  8
0
 10
-0.48175
 20
-0.876297
 11
-0.397141
 21
-0.91774
  0
LINE
  8
0
 10
-0.397141
 20
-0.91774
 11
-0.309006
 21
-0.95105
  0
LINE
  8
0
 10
-0.309006
 20
-0.95105
 11
-0.21814
 21
-0.975906
  0
LINE
  8
0
 10
-0.21814
 20
-0.975906
 11
-0.12532
 21
-0.992111
  0
LINE
  8
0
 10
-0.12532
 20
-0.992111
 11
-0.0314026
 21
-0.999496
  0
LINE
  8
0
 10
0.0552063
 20
3.46053
 11
-0.00941467
 21
3.45029
  0
LINE
  8
0
 10
-0.00941467
 20
3.45029
 11
-0.0722504
 21
3.46855
  0
LINE
  8
0
 10
-0.0722504
 20
3.46855
 11
-0.121338
 21
3.51183
  0
LINE
  8
0
 10
-0.121338
 20
3.51183
 11
-0.147339
 21
3.57188
  0
LINE
  8
0
 10
-0.147339
 20
3.57188
 11
-0.145279
 21
3.6373
  0
LINE
  8
0
 10
-0.145279
 20
3.6373
 11
-0.11557
 21
3.6956
  0
LINE
  8
0
 10
-0.11557
 20
3.6956
 11
-0.063858
 21
3.73572
  0
LINE
  8
0
 10
-0.063858
 20
3.73572
 11
0
 21
3.75
  0
LINE
  8
0
 10
0
 20
3.75
 11
0.063858
 21
3.73572
  0
LINE
  8
0
 10
0.063858
 20
3.73572
 11
0.11557
 21
3.6956
  0
LINE
  8
0
 10
0.11557
 20
3.6956
 11
0.145279
 21
3.6373
  0
LINE
  8
0
 10
0.145279
 20
3.6373
 11
0.147339
 21
3.57188
  0
LINE
  8
0
 10
0.147339
 20
3.57188
 11
0.121338
 21
3.51183
  0
LINE
  8
0
 10
0.121338
 20
3.51183
 11
0.0722504
 21
3.46855
  0
LINE
  8
0
 10
0.0722504
 20
3.46855
 11
0.0552063
 21
3.46053
  0
LINE
  8
0
 10
0.0552063
 20
2.86052
 11
-0.00941467
 21
2.85028
  0
LINE
  8
0
 10
-0.00941467
 20
2.85028
 11
-0.0722504
 21
2.86855
  0
LINE
  8
0
 10
-0.0722504
 20
2.86855
 11
-0.121338
 21
2.91182
  0
LINE
  8
0
 10
-0.121338
 20
2.91182
 11
-0.147339
 21
2.97188
  0
LINE
  8
0
 10
-0.147339
 20
2.97188
 11
-0.145279
 21
3.03729
  0
LINE
  8
0
 10
-0.145279
 20
3.03729
 11
-0.11557
 21
3.09561
  0
LINE
  8
0
 10
-0.11557
 20
3.09561
 11
-0.063858
 21
3.13571
  0
LINE
  8
0
 10
-0.063858
 20
3.13571
 11
0
 21
3.14999
  0
LINE
  8
0
 10
0
 20
3.14999
 11
0.063858
 21
3.13571
  0
LINE
  8
0
 10
0.063858
 20
3.13571
 11
0.11557
 21
3.09561
  0
LINE
  8
0
 10
0.11557
 20
3.09561
 11
0.145279
 21
3.03729
  0
LINE
  8
0
 10
0.145279
 20
3.03729
 11
0.147339
 21
2.97188
  0
LINE
  8
0
 10
0.147339
 20
2.97188
 11
0.121338
 21
2.91182
  0
LINE
  8
0
 10
0.121338
 20
2.91182
 11
0.0722504
 21
2.86855
  0
LINE
  8
0
 10
0.0722504
 20
2.86855
 11
0.0552063
 21
2.86052
  0
LINE
  8
0
 10
-0.544769
 20
2.86052
 11
-0.609406
 21
2.85028
  0
LINE
  8
0
 10
-0.609406
 20
2.85028
 11
-0.672256
 21
2.86855
  0
LINE
  8
0
 10
-0.672256
 20
2.86855
 11
-0.721344
 21
2.91182
  0
LINE
  8
0
 10
-0.721344
 20
2.91182
 11
-0.74733
 21
2.97188
  0
LINE
  8
0
 10
-0.74733
 20
2.97188
 11
-0.745285
 21
3.03729
  0
LINE
  8
0
 10
-0.745285
 20
3.03729
 11
-0.715576
 21
3.09561
  0
LINE
  8
0
 10
-0.715576
 20
3.09561
 11
-0.663864
 21
3.13571
  0
LINE
  8
0
 10
-0.663864
 20
3.13571
 11
-0.599991
 21
3.14999
  0
LINE
  8
0
 10
-0.599991
 20
3.14999
 11
-0.536133
 21
3.13571
  0
LINE
  8
0
 10
-0.536133
 20
3.13571
 11
-0.484421
 21
3.09561
  0
LINE
  8
0
 10
-0.484421
 20
3.09561
 11
-0.454712
 21
3.03729
  0
LINE
  8
0
 10
-0.454712
 20
3.03729
 11
-0.452652
 21
2.97188
  0
LINE
  8
0
 10
-0.452652
 20
2.97188
 11
-0.478638
 21
2.91182
  0
LINE
  8
0
 10
-0.478638
 20
2.91182
 11
-0.527725
 21
2.86855
  0
LINE
  8
0
 10
-0.527725
 20
2.86855
 11
-0.544769
 21
2.86052
  0
LINE
  8
0
 10
0.655212
 20
2.86052
 11
0.590576
 21
2.85028
  0
LINE
  8
0
 10
0.590576
 20
2.85028
 11
0.527725
 21
2.86855
  0
LINE
  8
0
 10
0.527725
 20
2.86855
 11
0.478638
 21
2.91182
  0
LINE
  8
0
 10
0.478638
 20
2.91182
 11
0.452652
 21
2.97188
  0
LINE
  8
0
 10
0.452652
 20
2.97188
 11
0.454712
 21
3.03729
  0
LINE
  8
0
 10
0.454712
 20
3.03729
 11
0.484421
 21
3.09561
  0
LINE
  8
0
 10
0.484421
 20
3.09561
 11
0.536133
 21
3.13571
  0
LINE
  8
0
 10
0.536133
 20
3.13571
 11
0.599991
 21
3.14999
  0
LINE
  8
0
 10
0.599991
 20
3.14999
 11
0.663864
 21
3.13571
  0
LINE
  8
0
 10
0.663864
 20
3.13571
 11
0.715576
 21
3.09561
  0
LINE
  8
0
 10
0.715576
 20
3.09561
 11
0.745285
 21
3.03729
  0
LINE
  8
0
 10
0.745285
 20
3.03729
 11
0.74733
 21
2.97188
  0
LINE
  8
0
 10
0.74733
 20
2.97188
 11
0.721344
 21
2.91182
  0
LINE
  8
0
 10
0.721344
 20
2.91182
 11
0.672256
 21
2.86855
  0
LINE
  8
0
 10
0.672256
 20
2.86855
 11
0.655212
 21
2.86052
  0
LINE
  8
0
 10
0.0552063
 20
2.26053
 11
-0.00941467
 21
2.25029
  0
LINE
  8
0
 10
-0.00941467
 20
2.25029
 11
-0.0722504
 21
2.26854
  0
LINE
  8
0
 10
-0.0722504
 20
2.26854
 11
-0.121338
 21
2.31183
  0
LINE
  8
0
 10
-0.121338
 20
2.31183
 11
-0.147339
 21
2.37189
  0
LINE
  8
0
 10
-0.147339
 20
2.37189
 11
-0.145279
 21
2.4373
  0
LINE
  8
0
 10
-0.145279
 20
2.4373
 11
-0.11557
 21
2.49561
  0
LINE
  8
0
 10
-0.11557
 20
2.49561
 11
-0.063858
 21
2.53572
  0
LINE
  8
0
 10
-0.063858
 20
2.53572
 11
0
 21
2.54999
  0
LINE
  8
0
 10
0
 20
2.54999
 11
0.063858
 21
2.53572
  0
LINE
  8
0
 10
0.063858
 20
2.53572
 11
0.11557
 21
2.49561
  0
LINE
  8
0
 10
0.11557
 20
2.49561
 11
0.145279
 21
2.4373
  0
LINE
  8
0
 10
0.145279
 20
2.4373
 11
0.147339
 21
2.37189
  0
LINE
  8
0
 10
0.147339
 20
2.37189
 11
0.121338
 21
2.31183
  0
LINE
  8
0
 10
0.121338
 20
2.31183
 11
0.0722504
 21
2.26854
  0
LINE
  8
0
 10
0.0722504
 20
2.26854
 11
0.0552063
 21
2.26053
  0
LINE
  8
0
 10
0.0552063
 20
-0.139465
 11
-0.00941467
 21
-0.149704
  0
LINE
  8
0
 10
-0.00941467
 20
-0.149704
 11
-0.0722504
 21
-0.131439
  0
LINE
  8
0
 10
-0.0722504
 20
-0.131439
 11
-0.121338
 21
-0.0881653
  0
LINE
  8
0
 10
-0.121338
 20
-0.0881653
 11
-0.147339
 21
-0.0281067
  0
LINE
  8
0
 10
-0.147339
 20
-0.0281067
 11
-0.145279
 21
0.0372925
  0
LINE
  8
0
 10
-0.145279
 20
0.0372925
 11
-0.11557
 21
0.0956116
  0
LINE
  8
0
 10
-0.11557
 20
0.0956116
 11
-0.063858
 21
0.135712
  0
LINE
  8
0
 10
-0.063858
 20
0.135712
 11
0
 21
0.149994
  0
LINE
  8
0
 10
0
 20
0.149994
 11
0.063858
 21
0.135712
  0
LINE
  8
0
 10
0.063858
 20
0.135712
 11
0.11557
 21
0.0956116
  0
LINE
  8
0
 10
0.11557
 20
0.0956116
 11
0.145279
 21
0.0372925
  0
LINE
  8
0
 10
0.145279
 20
0.0372925
 11
0.147339
 21
-0.0281067
  0
LINE
  8
0
 10
0.147339
 20
-0.0281067
 11
0.121338
 21
-0.0881653
  0
LINE
  8
0
 10
0.121338
 20
-0.0881653
 11
0.0722504
 21
-0.131439
  0
LINE
  8
0
 10
0.0722504
 20
-0.131439
 11
0.0552063
 21
-0.139465
  0
LINE
  8
0
 10
0.655212
 20
-0.139465
 11
0.590576
 21
-0.149704
  0
LINE
  8
0
 10
0.590576
 20
-0.149704
 11
0.527725
 21
-0.131439
  0
LINE
  8
0
 10
0.527725
 20
-0.131439
 11
0.478638
 21
-0.0881653
  0
LINE
  8
0
 10
0.478638
 20
-0.0881653
 11
0.452652
 21
-0.0281067
  0
LINE
  8
0
 10
0.452652
 20
-0.0281067
 11
0.454712
 21
0.0372925
  0
LINE
  8
0
 10
0.454712
 20
0.0372925
 11
0.484421
 21
0.0956116
  0
LINE
  8
0
 10
0.484421
 20
0.0956116
 11
0.536133
 21
0.135712
  0
LINE
  8
0
 10
0.536133
 20
0.135712
 11
0.599991
 21
0.149994
  0
LINE
  8
0
 10
0.599991
 20
0.149994
 11
0.663864
 21
0.135712
  0
LINE
  8
0
 10
0.663864
 20
0.135712
 11
0.715576
 21
0.0956116
  0
LINE
  8
0
 10
0.715576
 20
0.0956116
 11
0.745285
 21
0.0372925
  0
LINE
  8
0
 10
0.745285
 20
0.0372925
 11
0.74733
 21
-0.0281067
  0
LINE
  8
0
 10
0.74733
 20
-0.0281067
 11
0.721344
 21
-0.0881653
  0
LINE
  8
0
 10
0.721344
 20
-0.0881653
 11
0.672256
 21
-0.131439
  0
LINE
  8
0
 10
0.672256
 20
-0.131439
 11
0.655212
 21
-0.139465
  0
LINE
  8
0
 10
-0.544769
 20
-0.139465
 11
-0.609406
 21
-0.149704
  0
LINE
  8
0
 10
-0.609406
 20
-0.149704
 11
-0.672256
 21
-0.131439
  0
LINE
  8
0
 10
-0.672256
 20
-0.131439
 11
-0.721344
 21
-0.0881653
  0
LINE
  8
0
 10
-0.721344
 20
-0.0881653
 11
-0.74733
 21
-0.0281067
  0
LINE
  8
0
 10
-0.74733
 20
-0.0281067
 11
-0.745285
 21
0.0372925
  0
LINE
  8
0
 10
-0.745285
 20
0.0372925
 11
-0.715576
 21
0.0956116
  0
LINE
  8
0
 10
-0.715576
 20
0.0956116
 11
-0.663864
 21
0.135712
  0
LINE
  8
0
 10
-0.663864
 20
0.135712
 11
-0.599991
 21
0.149994
  0
LINE
  8
0
 10
-0.599991
 20
0.149994
 11
-0.536133
 21
0.135712
  0
LINE
  8
0
 10
-0.536133
 20
0.135712
 11
-0.484421
 21
0.0956116
  0
LINE
  8
0
 10
-0.484421
 20
0.0956116
 11
-0.454712
 21
0.0372925
  0
LINE
  8
0
 10
-0.454712
 20
0.0372925
 11
-0.452652
 21
-0.0281067
  0
LINE
  8
0
 10
-0.452652
 20
-0.0281067
 11
-0.478638
 21
-0.0881653
  0
LINE
  8
0
 10
-0.478638
 20
-0.0881653
 11
-0.527725
 21
-0.131439
  0
LINE
  8
0
 10
-0.527725
 20
-0.131439
 11
-0.544769
 21
-0.139465
  0
ENDSEC
  0
SECTION
  2
OBJECTS
  0
DICTIONARY
  0
ENDSEC
  0
EOF
