  0
SECTION
  2
BLOCKS
  0
ENDSEC
  0
SECTION
  2
ENTITIES
  0
LINE
  8
0
 10
0.149994
 20
-0.988602
 11
0.21814
 21
-0.975906
  0
LINE
  8
0
 10
0.21814
 20
-0.975906
 11
0.309006
 21
-0.95105
  0
LINE
  8
0
 10
0.309006
 20
-0.95105
 11
0.397141
 21
-0.91774
  0
LINE
  8
0
 10
0.397141
 20
-0.91774
 11
0.48175
 21
-0.876297
  0
LINE
  8
0
 10
0.48175
 20
-0.876297
 11
0.562073
 21
-0.827072
  0
LINE
  8
0
 10
0.562073
 20
-0.827072
 11
0.637421
 21
-0.770508
  0
LINE
  8
0
 10
0.637421
 20
-0.770508
 11
0.707092
 21
-0.707092
  0
LINE
  8
0
 10
0.707092
 20
-0.707092
 11
0.770508
 21
-0.637421
  0
LINE
  8
0
 10
0.770508
 20
-0.637421
 11
0.827072
 21
-0.562073
  0
LINE
  8
0
 10
0.827072
 20
-0.562073
 11
0.876297
 21
-0.48175
  0
LINE
  8
0
 10
0.876297
 20
-0.48175
 11
0.91774
 21
-0.397141
  0
LINE
  8
0
 10
0.91774
 20
-0.397141
 11
0.95105
 21
-0.309006
  0
LINE
  8
0
 10
0.95105
 20
-0.309006
 11
0.975906
 21
-0.21814
  0
LINE
  8
0
 10
0.975906
 20
-0.21814
 11
0.992111
 21
-0.12532
  0
LINE
  8
0
 10
0.992111
 20
-0.12532
 11
0.999496
 21
-0.0314026
  0
LINE
  8
0
 10
0.999496
 20
-0.0314026
 11
0.999496
 21
5.0314
  0
LINE
  8
0
 10
0.999496
 20
5.0314
 11
0.992111
 21
5.12532
  0
LINE
  8
0
 10
0.992111
 20
5.12532
 11
0.975906
 21
5.21814
  0
LINE
  8
0
 10
0.975906
 20
5.21814
 11
0.95105
 21
5.30901
  0
LINE
  8
0
 10
0.95105
 20
5.30901
 11
0.91774
 21
5.39714
  0
LINE
  8
0
 10
0.91774
 20
5.39714
 11
0.876297
 21
5.48175
  0
LINE
  8
0
 10
0.876297
 20
5.48175
 11
0.827072
 21
5.56207
  0
LINE
  8
0
 10
0.827072
 20
5.56207
 11
0.770508
 21
5.63742
  0
LINE
  8
0
 10
0.770508
 20
5.63742
 11
0.707092
 21
5.70709
  0
LINE
  8
0
 10
0.707092
 20
5.70709
 11
0.637421
 21
5.77051
  0
LINE
  8
0
 10
0.637421
 20
5.77051
 11
0.562073
 21
5.82707
  0
LINE
  8
0
 10
0.562073
 20
5.82707
 11
0.48175
 21
5.8763
  0
LINE
  8
0
 10
0.48175
 20
5.8763
 11
0.397141
 21
5.91774
  0
LINE
  8
0
 10
0.397141
 20
5.91774
 11
0.309006
 21
5.95105
  0
LINE
  8
0
 10
0.309006
 20
5.95105
 11
0.21814
 21
5.97591
  0
LINE
  8
0
 10
0.21814
 20
5.97591
 11
0.12532
 21
5.99211
  0
LINE
  8
0
 10
0.12532
 20
5.99211
 11
0.0314026
 21
5.9995
  0
LINE
  8
0
 10
0.0314026
 20
5.9995
 11
-0.0627899
 21
5.99802
  0
LINE
  8
0
 10
-0.0627899
 20
5.99802
 11
-0.156433
 21
5.98769
  0
LINE
  8
0
 10
-0.156433
 20
5.98769
 11
-0.248688
 21
5.96858
  0
LINE
  8
0
 10
-0.248688
 20
5.96858
 11
-0.33873
 21
5.94087
  0
LINE
  8
0
 10
-0.33873
 20
5.94087
 11
-0.425766
 21
5.90482
  0
LINE
  8
0
 10
-0.425766
 20
5.90482
 11
-0.509033
 21
5.86073
  0
LINE
  8
0
 10
-0.509033
 20
5.86073
 11
-0.587784
 21
5.80901
  0
LINE
  8
0
 10
-0.587784
 20
5.80901
 11
-0.661301
 21
5.75011
  0
LINE
  8
0
 10
-0.661301
 20
5.75011
 11
-0.728958
 21
5.68454
  0
LINE
  8
0
 10
-0.728958
 20
5.68454
 11
-0.790146
 21
5.6129
  0
LINE
  8
0
 10
-0.790146
 20
5.6129
 11
-0.844315
 21
5.53581
  0
LINE
  8
0
 10
-0.844315
 20
5.53581
 11
-0.891006
 21
5.45398
  0
LINE
  8
0
 10
-0.891006
 20
5.45398
 11
-0.929764
 21
5.36812
  0
LINE
  8
0
 10
-0.929764
 20
5.36812
 11
-0.960281
 21
5.27898
  0
LINE
  8
0
 10
-0.960281
 20
5.27898
 11
-0.982285
 21
5.18738
  0
LINE
  8
0
 10
-0.982285
 20
5.18738
 11
-0.99556
 21
5.0941
  0
LINE
  8
0
 10
-0.99556
 20
5.0941
 11
-1
 21
5
  0
LINE
  8
0
 10
-1
 20
5
 11
-0.999496
 21
-0.0314026
  0
LINE
  8
0
 10
-0.999496
 20
-0.0314026
 11
-0.992111
 21
-0.12532
  0
LINE
  8
0
 10
-0.992111
 20
-0.12532
 11
-0.975906
 21
-0.21814
  0
LINE
  8
0
 10
-0.975906
 20
-0.21814
 11
-0.95105
 21
-0.309006
  0
LINE
  8
0
 10
-0.95105
 20
-0.309006
 11
-0.91774
 21
-0.397141
  0
LINE
  8
0
 10
-0.91774
 20
-0.397141
 11
-0.876297
 21
-0.48175
  0
LINE
  8
0
 10
-0.876297
 20
-0.48175
 11
-0.827072
 21
-0.562073
  0
LINE
  8
0
 10
-0.827072
 20
-0.562073
 11
-0.770508
 21
-0.637421
  0
LINE
  8
0
 10
-0.770508
 20
-0.637421
 11
-0.707092
 21
-0.707092
  0
LINE
  8
0
 10
-0.707092
 20
-0.707092
 11
-0.637421
 21
-0.770508
  0
LINE
  8
0
 10
-0.637421
 20
-0.770508
 11
-0.562073
 21
-0.827072
  0
LINE
  8
0
 10
-0.562073
 20
-0.827072
 11
-0.48175
 21
-0.876297
  0
LINE
  8
0
 10
-0.48175
 20
-0.876297
 11
-0.397141
 21
-0.91774
  0
LINE
  8
0
 10
-0.397141
 20
-0.91774
 11
-0.309006
 21
-0.95105
  0
LINE
  8
0
 10
-0.309006
 20
-0.95105
 11
-0.21814
 21
-0.975906
  0
LINE
  8
0
 10
-0.21814
 20
-0.975906
 11
-0.149994
 21
-0.988602
  0
LINE
  8
0
 10
-0.149994
 20
-0.988602
 11
-0.149994
 21
4
  0
LINE
  8
0
 10
-0.149994
 20
4
 11
0.149994
 21
4
  0
LINE
  8
0
 10
0.149994
 20
4
 11
0.149994
 21
-0.988602
  0
LINE
  8
0
 10
0.0552063
 20
5.46053
 11
-0.00941467
 21
5.45029
  0
LINE
  8
0
 10
-0.00941467
 20
5.45029
 11
-0.0722504
 21
5.46855
  0
LINE
  8
0
 10
-0.0722504
 20
5.46855
 11
-0.121338
 21
5.51183
  0
LINE
  8
0
 10
-0.121338
 20
5.51183
 11
-0.147339
 21
5.57188
  0
LINE
  8
0
 10
-0.147339
 20
5.57188
 11
-0.145279
 21
5.6373
  0
LINE
  8
0
 10
-0.145279
 20
5.6373
 11
-0.11557
 21
5.6956
  0
LINE
  8
0
 10
-0.11557
 20
5.6956
 11
-0.063858
 21
5.73572
  0
LINE
  8
0
 10
-0.063858
 20
5.73572
 11
0
 21
5.75
  0
LINE
  8
0
 10
0
 20
5.75
 11
0.063858
 21
5.73572
  0
LINE
  8
0
 10
0.063858
 20
5.73572
 11
0.11557
 21
5.6956
  0
LINE
  8
0
 10
0.11557
 20
5.6956
 11
0.145279
 21
5.6373
  0
LINE
  8
0
 10
0.145279
 20
5.6373
 11
0.147339
 21
5.57188
  0
LINE
  8
0
 10
0.147339
 20
5.57188
 11
0.121338
 21
5.51183
  0
LINE
  8
0
 10
0.121338
 20
5.51183
 11
0.0722504
 21
5.46855
  0
LINE
  8
0
 10
0.0722504
 20
5.46855
 11
0.0552063
 21
5.46053
  0
LINE
  8
0
 10
0.0552063
 20
4.86052
 11
-0.00941467
 21
4.85028
  0
LINE
  8
0
 10
-0.00941467
 20
4.85028
 11
-0.0722504
 21
4.86855
  0
LINE
  8
0
 10
-0.0722504
 20
4.86855
 11
-0.121338
 21
4.91182
  0
LINE
  8
0
 10
-0.121338
 20
4.91182
 11
-0.147339
 21
4.97188
  0
LINE
  8
0
 10
-0.147339
 20
4.97188
 11
-0.145279
 21
5.03729
  0
LINE
  8
0
 10
-0.145279
 20
5.03729
 11
-0.11557
 21
5.09561
  0
LINE
  8
0
 10
-0.11557
 20
5.09561
 11
-0.063858
 21
5.13571
  0
LINE
  8
0
 10
-0.063858
 20
5.13571
 11
0
 21
5.14999
  0
LINE
  8
0
 10
0
 20
5.14999
 11
0.063858
 21
5.13571
  0
LINE
  8
0
 10
0.063858
 20
5.13571
 11
0.11557
 21
5.09561
  0
LINE
  8
0
 10
0.11557
 20
5.09561
 11
0.145279
 21
5.03729
  0
LINE
  8
0
 10
0.145279
 20
5.03729
 11
0.147339
 21
4.97188
  0
LINE
  8
0
 10
0.147339
 20
4.97188
 11
0.121338
 21
4.91182
  0
LINE
  8
0
 10
0.121338
 20
4.91182
 11
0.0722504
 21
4.86855
  0
LINE
  8
0
 10
0.0722504
 20
4.86855
 11
0.0552063
 21
4.86052
  0
LINE
  8
0
 10
-0.544769
 20
4.86052
 11
-0.609406
 21
4.85028
  0
LINE
  8
0
 10
-0.609406
 20
4.85028
 11
-0.672256
 21
4.86855
  0
LINE
  8
0
 10
-0.672256
 20
4.86855
 11
-0.721344
 21
4.91182
  0
LINE
  8
0
 10
-0.721344
 20
4.91182
 11
-0.74733
 21
4.97188
  0
LINE
  8
0
 10
-0.74733
 20
4.97188
 11
-0.745285
 21
5.03729
  0
LINE
  8
0
 10
-0.745285
 20
5.03729
 11
-0.715576
 21
5.09561
  0
LINE
  8
0
 10
-0.715576
 20
5.09561
 11
-0.663864
 21
5.13571
  0
LINE
  8
0
 10
-0.663864
 20
5.13571
 11
-0.599991
 21
5.14999
  0
LINE
  8
0
 10
-0.599991
 20
5.14999
 11
-0.536133
 21
5.13571
  0
LINE
  8
0
 10
-0.536133
 20
5.13571
 11
-0.484421
 21
5.09561
  0
LINE
  8
0
 10
-0.484421
 20
5.09561
 11
-0.454712
 21
5.03729
  0
LINE
  8
0
 10
-0.454712
 20
5.03729
 11
-0.452652
 21
4.97188
  0
LINE
  8
0
 10
-0.452652
 20
4.97188
 11
-0.478638
 21
4.91182
  0
LINE
  8
0
 10
-0.478638
 20
4.91182
 11
-0.527725
 21
4.86855
  0
LINE
  8
0
 10
-0.527725
 20
4.86855
 11
-0.544769
 21
4.86052
  0
LINE
  8
0
 10
0.655212
 20
4.86052
 11
0.590576
 21
4.85028
  0
LINE
  8
0
 10
0.590576
 20
4.85028
 11
0.527725
 21
4.86855
  0
LINE
  8
0
 10
0.527725
 20
4.86855
 11
0.478638
 21
4.91182
  0
LINE
  8
0
 10
0.478638
 20
4.91182
 11
0.452652
 21
4.97188
  0
LINE
  8
0
 10
0.452652
 20
4.97188
 11
0.454712
 21
5.03729
  0
LINE
  8
0
 10
0.454712
 20
5.03729
 11
0.484421
 21
5.09561
  0
LINE
  8
0
 10
0.484421
 20
5.09561
 11
0.536133
 21
5.13571
  0
LINE
  8
0
 10
0.536133
 20
5.13571
 11
0.599991
 21
5.14999
  0
LINE
  8
0
 10
0.599991
 20
5.14999
 11
0.663864
 21
5.13571
  0
LINE
  8
0
 10
0.663864
 20
5.13571
 11
0.715576
 21
5.09561
  0
LINE
  8
0
 10
0.715576
 20
5.09561
 11
0.745285
 21
5.03729
  0
LINE
  8
0
 10
0.745285
 20
5.03729
 11
0.74733
 21
4.97188
  0
LINE
  8
0
 10
0.74733
 20
4.97188
 11
0.721344
 21
4.91182
  0
LINE
  8
0
 10
0.721344
 20
4.91182
 11
0.672256
 21
4.86855
  0
LINE
  8
0
 10
0.672256
 20
4.86855
 11
0.655212
 21
4.86052
  0
LINE
  8
0
 10
0.0552063
 20
4.26053
 11
-0.00941467
 21
4.25029
  0
LINE
  8
0
 10
-0.00941467
 20
4.25029
 11
-0.0722504
 21
4.26854
  0
LINE
  8
0
 10
-0.0722504
 20
4.26854
 11
-0.121338
 21
4.31183
  0
LINE
  8
0
 10
-0.121338
 20
4.31183
 11
-0.147339
 21
4.37189
  0
LINE
  8
0
 10
-0.147339
 20
4.37189
 11
-0.145279
 21
4.4373
  0
LINE
  8
0
 10
-0.145279
 20
4.4373
 11
-0.11557
 21
4.49561
  0
LINE
  8
0
 10
-0.11557
 20
4.49561
 11
-0.063858
 21
4.53572
  0
LINE
  8
0
 10
-0.063858
 20
4.53572
 11
0
 21
4.54999
  0
LINE
  8
0
 10
0
 20
4.54999
 11
0.063858
 21
4.53572
  0
LINE
  8
0
 10
0.063858
 20
4.53572
 11
0.11557
 21
4.49561
  0
LINE
  8
0
 10
0.11557
 20
4.49561
 11
0.145279
 21
4.4373
  0
LINE
  8
0
 10
0.145279
 20
4.4373
 11
0.147339
 21
4.37189
  0
LINE
  8
0
 10
0.147339
 20
4.37189
 11
0.121338
 21
4.31183
  0
LINE
  8
0
 10
0.121338
 20
4.31183
 11
0.0722504
 21
4.26854
  0
LINE
  8
0
 10
0.0722504
 20
4.26854
 11
0.0552063
 21
4.26053
  0
LINE
  8
0
 10
0.655212
 20
0.460526
 11
0.590576
 21
0.450287
  0
LINE
  8
0
 10
0.590576
 20
0.450287
 11
0.527725
 21
0.468552
  0
LINE
  8
0
 10
0.527725
 20
0.468552
 11
0.478638
 21
0.511826
  0
LINE
  8
0
 10
0.478638
 20
0.511826
 11
0.452652
 21
0.571884
  0
LINE
  8
0
 10
0.452652
 20
0.571884
 11
0.454712
 21
0.637299
  0
LINE
  8
0
 10
0.454712
 20
0.637299
 11
0.484421
 21
0.695602
  0
LINE
  8
0
 10
0.484421
 20
0.695602
 11
0.536133
 21
0.735718
  0
LINE
  8
0
 10
0.536133
 20
0.735718
 11
0.599991
 21
0.75
  0
LINE
  8
0
 10
0.599991
 20
0.75
 11
0.663864
 21
0.735718
  0
LINE
  8
0
 10
0.663864
 20
0.735718
 11
0.715576
 21
0.695602
  0
LINE
  8
0
 10
0.715576
 20
0.695602
 11
0.745285
 21
0.637299
  0
LINE
  8
0
 10
0.745285
 20
0.637299
 11
0.74733
 21
0.571884
  0
LINE
  8
0
 10
0.74733
 20
0.571884
 11
0.721344
 21
0.511826
  0
LINE
  8
0
 10
0.721344
 20
0.511826
 11
0.672256
 21
0.468552
  0
LINE
  8
0
 10
0.672256
 20
0.468552
 11
0.655212
 21
0.460526
  0
LINE
  8
0
 10
-0.544769
 20
0.460526
 11
-0.609406
 21
0.450287
  0
LINE
  8
0
 10
-0.609406
 20
0.450287
 11
-0.672256
 21
0.468552
  0
LINE
  8
0
 10
-0.672256
 20
0.468552
 11
-0.721344
 21
0.511826
  0
LINE
  8
0
 10
-0.721344
 20
0.511826
 11
-0.74733
 21
0.571884
  0
LINE
  8
0
 10
-0.74733
 20
0.571884
 11
-0.745285
 21
0.637299
  0
LINE
  8
0
 10
-0.745285
 20
0.637299
 11
-0.715576
 21
0.695602
  0
LINE
  8
0
 10
-0.715576
 20
0.695602
 11
-0.663864
 21
0.735718
  0
LINE
  8
0
 10
-0.663864
 20
0.735718
 11
-0.599991
 21
0.75
  0
LINE
  8
0
 10
-0.599991
 20
0.75
 11
-0.536133
 21
0.735718
  0
LINE
  8
0
 10
-0.536133
 20
0.735718
 11
-0.484421
 21
0.695602
  0
LINE
  8
0
 10
-0.484421
 20
0.695602
 11
-0.454712
 21
0.637299
  0
LINE
  8
0
 10
-0.454712
 20
0.637299
 11
-0.452652
 21
0.571884
  0
LINE
  8
0
 10
-0.452652
 20
0.571884
 11
-0.478638
 21
0.511826
  0
LINE
  8
0
 10
-0.478638
 20
0.511826
 11
-0.527725
 21
0.468552
  0
LINE
  8
0
 10
-0.527725
 20
0.468552
 11
-0.544769
 21
0.460526
  0
LINE
  8
0
 10
0.655212
 20
-0.139465
 11
0.590576
 21
-0.149704
  0
LINE
  8
0
 10
0.590576
 20
-0.149704
 11
0.527725
 21
-0.131439
  0
LINE
  8
0
 10
0.527725
 20
-0.131439
 11
0.478638
 21
-0.0881653
  0
LINE
  8
0
 10
0.478638
 20
-0.0881653
 11
0.452652
 21
-0.0281067
  0
LINE
  8
0
 10
0.452652
 20
-0.0281067
 11
0.454712
 21
0.0372925
  0
LINE
  8
0
 10
0.454712
 20
0.0372925
 11
0.484421
 21
0.0956116
  0
LINE
  8
0
 10
0.484421
 20
0.0956116
 11
0.536133
 21
0.135712
  0
LINE
  8
0
 10
0.536133
 20
0.135712
 11
0.599991
 21
0.149994
  0
LINE
  8
0
 10
0.599991
 20
0.149994
 11
0.663864
 21
0.135712
  0
LINE
  8
0
 10
0.663864
 20
0.135712
 11
0.715576
 21
0.0956116
  0
LINE
  8
0
 10
0.715576
 20
0.0956116
 11
0.745285
 21
0.0372925
  0
LINE
  8
0
 10
0.745285
 20
0.0372925
 11
0.74733
 21
-0.0281067
  0
LINE
  8
0
 10
0.74733
 20
-0.0281067
 11
0.721344
 21
-0.0881653
  0
LINE
  8
0
 10
0.721344
 20
-0.0881653
 11
0.672256
 21
-0.131439
  0
LINE
  8
0
 10
0.672256
 20
-0.131439
 11
0.655212
 21
-0.139465
  0
LINE
  8
0
 10
-0.544769
 20
-0.139465
 11
-0.609406
 21
-0.149704
  0
LINE
  8
0
 10
-0.609406
 20
-0.149704
 11
-0.672256
 21
-0.131439
  0
LINE
  8
0
 10
-0.672256
 20
-0.131439
 11
-0.721344
 21
-0.0881653
  0
LINE
  8
0
 10
-0.721344
 20
-0.0881653
 11
-0.74733
 21
-0.0281067
  0
LINE
  8
0
 10
-0.74733
 20
-0.0281067
 11
-0.745285
 21
0.0372925
  0
LINE
  8
0
 10
-0.745285
 20
0.0372925
 11
-0.715576
 21
0.0956116
  0
LINE
  8
0
 10
-0.715576
 20
0.0956116
 11
-0.663864
 21
0.135712
  0
LINE
  8
0
 10
-0.663864
 20
0.135712
 11
-0.599991
 21
0.149994
  0
LINE
  8
0
 10
-0.599991
 20
0.149994
 11
-0.536133
 21
0.135712
  0
LINE
  8
0
 10
-0.536133
 20
0.135712
 11
-0.484421
 21
0.0956116
  0
LINE
  8
0
 10
-0.484421
 20
0.0956116
 11
-0.454712
 21
0.0372925
  0
LINE
  8
0
 10
-0.454712
 20
0.0372925
 11
-0.452652
 21
-0.0281067
  0
LINE
  8
0
 10
-0.452652
 20
-0.0281067
 11
-0.478638
 21
-0.0881653
  0
LINE
  8
0
 10
-0.478638
 20
-0.0881653
 11
-0.527725
 21
-0.131439
  0
LINE
  8
0
 10
-0.527725
 20
-0.131439
 11
-0.544769
 21
-0.139465
  0
ENDSEC
  0
SECTION
  2
OBJECTS
  0
DICTIONARY
  0
ENDSEC
  0
EOF
