  0
SECTION
  2
BLOCKS
  0
ENDSEC
  0
SECTION
  2
ENTITIES
  0
LINE
  8
0
 10
106
 20
70
 11
127.5
 21
50
  0
LINE
  8
0
 10
127.5
 20
50
 11
127.5
 21
0
  0
LINE
  8
0
 10
127.5
 20
0
 11
210
 21
0
  0
LINE
  8
0
 10
210
 20
0
 11
210
 21
150
  0
LINE
  8
0
 10
210
 20
150
 11
0
 21
150
  0
LINE
  8
0
 10
0
 20
150
 11
0
 21
0
  0
LINE
  8
0
 10
0
 20
0
 11
84.5
 21
0
  0
LINE
  8
0
 10
84.5
 20
0
 11
84.5
 21
50
  0
LINE
  8
0
 10
84.5
 20
50
 11
106
 21
70
  0
LINE
  8
0
 10
18.2996
 20
140.53
 11
17.9811
 21
140.5
  0
LINE
  8
0
 10
17.9811
 20
140.5
 11
17.6544
 21
140.54
  0
LINE
  8
0
 10
17.6544
 20
140.54
 11
17.3443
 21
140.651
  0
LINE
  8
0
 10
17.3443
 20
140.651
 11
17.0732
 21
140.821
  0
LINE
  8
0
 10
17.0732
 20
140.821
 11
16.8442
 21
141.044
  0
LINE
  8
0
 10
16.8442
 20
141.044
 11
16.6678
 21
141.311
  0
LINE
  8
0
 10
16.6678
 20
141.311
 11
16.5495
 21
141.618
  0
LINE
  8
0
 10
16.5495
 20
141.618
 11
16.5011
 21
141.943
  0
LINE
  8
0
 10
16.5011
 20
141.943
 11
16.5231
 21
142.263
  0
LINE
  8
0
 10
16.5231
 20
142.263
 11
16.616
 21
142.578
  0
LINE
  8
0
 10
16.616
 20
142.578
 11
16.7701
 21
142.859
  0
LINE
  8
0
 10
16.7701
 20
142.859
 11
16.9801
 21
143.1
  0
LINE
  8
0
 10
16.9801
 20
143.1
 11
17.2446
 21
143.296
  0
LINE
  8
0
 10
17.2446
 20
143.296
 11
17.5365
 21
143.427
  0
LINE
  8
0
 10
17.5365
 20
143.427
 11
17.8495
 21
143.492
  0
LINE
  8
0
 10
17.8495
 20
143.492
 11
18.1786
 21
143.489
  0
LINE
  8
0
 10
18.1786
 20
143.489
 11
18.4903
 21
143.418
  0
LINE
  8
0
 10
18.4903
 20
143.418
 11
18.7878
 21
143.276
  0
LINE
  8
0
 10
18.7878
 20
143.276
 11
19.0405
 21
143.08
  0
LINE
  8
0
 10
19.0405
 20
143.08
 11
19.2459
 21
142.835
  0
LINE
  8
0
 10
19.2459
 20
142.835
 11
19.3981
 21
142.543
  0
LINE
  8
0
 10
19.3981
 20
142.543
 11
19.4815
 21
142.235
  0
LINE
  8
0
 10
19.4815
 20
142.235
 11
19.497
 21
141.906
  0
LINE
  8
0
 10
19.497
 20
141.906
 11
19.443
 21
141.591
  0
LINE
  8
0
 10
19.443
 20
141.591
 11
19.319
 21
141.286
  0
LINE
  8
0
 10
19.319
 20
141.286
 11
19.1375
 21
141.022
  0
LINE
  8
0
 10
19.1375
 20
141.022
 11
18.9044
 21
140.803
  0
LINE
  8
0
 10
18.9044
 20
140.803
 11
18.6301
 21
140.639
  0
LINE
  8
0
 10
18.6301
 20
140.639
 11
18.3272
 21
140.536
  0
LINE
  8
0
 10
18.3272
 20
140.536
 11
18.2996
 21
140.53
  0
LINE
  8
0
 10
192.3
 20
140.53
 11
191.981
 21
140.5
  0
LINE
  8
0
 10
191.981
 20
140.5
 11
191.654
 21
140.54
  0
LINE
  8
0
 10
191.654
 20
140.54
 11
191.344
 21
140.651
  0
LINE
  8
0
 10
191.344
 20
140.651
 11
191.073
 21
140.821
  0
LINE
  8
0
 10
191.073
 20
140.821
 11
190.844
 21
141.044
  0
LINE
  8
0
 10
190.844
 20
141.044
 11
190.668
 21
141.311
  0
LINE
  8
0
 10
190.668
 20
141.311
 11
190.549
 21
141.618
  0
LINE
  8
0
 10
190.549
 20
141.618
 11
190.501
 21
141.943
  0
LINE
  8
0
 10
190.501
 20
141.943
 11
190.523
 21
142.263
  0
LINE
  8
0
 10
190.523
 20
142.263
 11
190.616
 21
142.578
  0
LINE
  8
0
 10
190.616
 20
142.578
 11
190.77
 21
142.859
  0
LINE
  8
0
 10
190.77
 20
142.859
 11
190.98
 21
143.1
  0
LINE
  8
0
 10
190.98
 20
143.1
 11
191.245
 21
143.296
  0
LINE
  8
0
 10
191.245
 20
143.296
 11
191.536
 21
143.427
  0
LINE
  8
0
 10
191.536
 20
143.427
 11
191.849
 21
143.492
  0
LINE
  8
0
 10
191.849
 20
143.492
 11
192.179
 21
143.489
  0
LINE
  8
0
 10
192.179
 20
143.489
 11
192.49
 21
143.418
  0
LINE
  8
0
 10
192.49
 20
143.418
 11
192.788
 21
143.276
  0
LINE
  8
0
 10
192.788
 20
143.276
 11
193.04
 21
143.08
  0
LINE
  8
0
 10
193.04
 20
143.08
 11
193.246
 21
142.835
  0
LINE
  8
0
 10
193.246
 20
142.835
 11
193.398
 21
142.543
  0
LINE
  8
0
 10
193.398
 20
142.543
 11
193.482
 21
142.235
  0
LINE
  8
0
 10
193.482
 20
142.235
 11
193.497
 21
141.906
  0
LINE
  8
0
 10
193.497
 20
141.906
 11
193.443
 21
141.591
  0
LINE
  8
0
 10
193.443
 20
141.591
 11
193.319
 21
141.286
  0
LINE
  8
0
 10
193.319
 20
141.286
 11
193.138
 21
141.022
  0
LINE
  8
0
 10
193.138
 20
141.022
 11
192.904
 21
140.803
  0
LINE
  8
0
 10
192.904
 20
140.803
 11
192.63
 21
140.639
  0
LINE
  8
0
 10
192.63
 20
140.639
 11
192.327
 21
140.536
  0
LINE
  8
0
 10
192.327
 20
140.536
 11
192.3
 21
140.53
  0
LINE
  8
0
 10
31.57
 20
106.75
 11
31.57
 21
133.25
  0
LINE
  8
0
 10
31.57
 20
133.25
 11
50.57
 21
133.25
  0
LINE
  8
0
 10
50.57
 20
133.25
 11
50.57
 21
106.75
  0
LINE
  8
0
 10
50.57
 20
106.75
 11
31.57
 21
106.75
  0
LINE
  8
0
 10
11.45
 20
110
 11
11.45
 21
130
  0
LINE
  8
0
 10
11.45
 20
130
 11
23.57
 21
130
  0
LINE
  8
0
 10
23.57
 20
130
 11
23.57
 21
110
  0
LINE
  8
0
 10
23.57
 20
110
 11
11.45
 21
110
  0
LINE
  8
0
 10
8.29956
 20
73.5302
 11
7.98114
 21
73.5001
  0
LINE
  8
0
 10
7.98114
 20
73.5001
 11
7.6544
 21
73.5403
  0
LINE
  8
0
 10
7.6544
 20
73.5403
 11
7.34431
 21
73.6509
  0
LINE
  8
0
 10
7.34431
 20
73.6509
 11
7.0732
 21
73.8206
  0
LINE
  8
0
 10
7.0732
 20
73.8206
 11
6.84422
 21
74.0439
  0
LINE
  8
0
 10
6.84422
 20
74.0439
 11
6.66779
 21
74.3106
  0
LINE
  8
0
 10
6.66779
 20
74.3106
 11
6.54948
 21
74.6178
  0
LINE
  8
0
 10
6.54948
 20
74.6178
 11
6.50105
 21
74.9435
  0
LINE
  8
0
 10
6.50105
 20
74.9435
 11
6.52315
 21
75.2625
  0
LINE
  8
0
 10
6.52315
 20
75.2625
 11
6.61598
 21
75.5784
  0
LINE
  8
0
 10
6.61598
 20
75.5784
 11
6.77007
 21
75.8586
  0
LINE
  8
0
 10
6.77007
 20
75.8586
 11
6.98006
 21
76.0999
  0
LINE
  8
0
 10
6.98006
 20
76.0999
 11
7.24455
 21
76.2959
  0
LINE
  8
0
 10
7.24455
 20
76.2959
 11
7.53647
 21
76.4266
  0
LINE
  8
0
 10
7.53647
 20
76.4266
 11
7.84946
 21
76.4924
  0
LINE
  8
0
 10
7.84946
 20
76.4924
 11
8.17863
 21
76.4893
  0
LINE
  8
0
 10
8.17863
 20
76.4893
 11
8.49033
 21
76.4176
  0
LINE
  8
0
 10
8.49033
 20
76.4176
 11
8.78775
 21
76.2765
  0
LINE
  8
0
 10
8.78775
 20
76.2765
 11
9.04047
 21
76.0805
  0
LINE
  8
0
 10
9.04047
 20
76.0805
 11
9.24588
 21
75.8353
  0
LINE
  8
0
 10
9.24588
 20
75.8353
 11
9.3981
 21
75.5434
  0
LINE
  8
0
 10
9.3981
 20
75.5434
 11
9.48152
 21
75.2346
  0
LINE
  8
0
 10
9.48152
 20
75.2346
 11
9.49704
 21
74.9058
  0
LINE
  8
0
 10
9.49704
 20
74.9058
 11
9.44304
 21
74.5906
  0
LINE
  8
0
 10
9.44304
 20
74.5906
 11
9.31897
 21
74.2856
  0
LINE
  8
0
 10
9.31897
 20
74.2856
 11
9.13754
 21
74.0222
  0
LINE
  8
0
 10
9.13754
 20
74.0222
 11
8.90439
 21
73.8033
  0
LINE
  8
0
 10
8.90439
 20
73.8033
 11
8.63013
 21
73.6388
  0
LINE
  8
0
 10
8.63013
 20
73.6388
 11
8.32721
 21
73.5361
  0
LINE
  8
0
 10
8.32721
 20
73.5361
 11
8.29956
 21
73.5302
  0
LINE
  8
0
 10
202.3
 20
73.5302
 11
201.981
 21
73.5001
  0
LINE
  8
0
 10
201.981
 20
73.5001
 11
201.654
 21
73.5403
  0
LINE
  8
0
 10
201.654
 20
73.5403
 11
201.344
 21
73.6509
  0
LINE
  8
0
 10
201.344
 20
73.6509
 11
201.073
 21
73.8206
  0
LINE
  8
0
 10
201.073
 20
73.8206
 11
200.844
 21
74.0439
  0
LINE
  8
0
 10
200.844
 20
74.0439
 11
200.668
 21
74.3106
  0
LINE
  8
0
 10
200.668
 20
74.3106
 11
200.549
 21
74.6178
  0
LINE
  8
0
 10
200.549
 20
74.6178
 11
200.501
 21
74.9435
  0
LINE
  8
0
 10
200.501
 20
74.9435
 11
200.523
 21
75.2625
  0
LINE
  8
0
 10
200.523
 20
75.2625
 11
200.616
 21
75.5784
  0
LINE
  8
0
 10
200.616
 20
75.5784
 11
200.77
 21
75.8586
  0
LINE
  8
0
 10
200.77
 20
75.8586
 11
200.98
 21
76.0999
  0
LINE
  8
0
 10
200.98
 20
76.0999
 11
201.245
 21
76.2959
  0
LINE
  8
0
 10
201.245
 20
76.2959
 11
201.536
 21
76.4266
  0
LINE
  8
0
 10
201.536
 20
76.4266
 11
201.849
 21
76.4924
  0
LINE
  8
0
 10
201.849
 20
76.4924
 11
202.179
 21
76.4893
  0
LINE
  8
0
 10
202.179
 20
76.4893
 11
202.49
 21
76.4176
  0
LINE
  8
0
 10
202.49
 20
76.4176
 11
202.788
 21
76.2765
  0
LINE
  8
0
 10
202.788
 20
76.2765
 11
203.04
 21
76.0805
  0
LINE
  8
0
 10
203.04
 20
76.0805
 11
203.246
 21
75.8353
  0
LINE
  8
0
 10
203.246
 20
75.8353
 11
203.398
 21
75.5434
  0
LINE
  8
0
 10
203.398
 20
75.5434
 11
203.482
 21
75.2346
  0
LINE
  8
0
 10
203.482
 20
75.2346
 11
203.497
 21
74.9058
  0
LINE
  8
0
 10
203.497
 20
74.9058
 11
203.443
 21
74.5906
  0
LINE
  8
0
 10
203.443
 20
74.5906
 11
203.319
 21
74.2856
  0
LINE
  8
0
 10
203.319
 20
74.2856
 11
203.138
 21
74.0222
  0
LINE
  8
0
 10
203.138
 20
74.0222
 11
202.904
 21
73.8033
  0
LINE
  8
0
 10
202.904
 20
73.8033
 11
202.63
 21
73.6388
  0
LINE
  8
0
 10
202.63
 20
73.6388
 11
202.327
 21
73.5361
  0
LINE
  8
0
 10
202.327
 20
73.5361
 11
202.3
 21
73.5302
  0
LINE
  8
0
 10
18.2996
 20
6.53021
 11
17.9811
 21
6.50011
  0
LINE
  8
0
 10
17.9811
 20
6.50011
 11
17.6544
 21
6.54034
  0
LINE
  8
0
 10
17.6544
 20
6.54034
 11
17.3443
 21
6.65088
  0
LINE
  8
0
 10
17.3443
 20
6.65088
 11
17.0732
 21
6.82056
  0
LINE
  8
0
 10
17.0732
 20
6.82056
 11
16.8442
 21
7.04385
  0
LINE
  8
0
 10
16.8442
 20
7.04385
 11
16.6678
 21
7.31062
  0
LINE
  8
0
 10
16.6678
 20
7.31062
 11
16.5495
 21
7.61784
  0
LINE
  8
0
 10
16.5495
 20
7.61784
 11
16.5011
 21
7.94345
  0
LINE
  8
0
 10
16.5011
 20
7.94345
 11
16.5231
 21
8.26253
  0
LINE
  8
0
 10
16.5231
 20
8.26253
 11
16.616
 21
8.57837
  0
LINE
  8
0
 10
16.616
 20
8.57837
 11
16.7701
 21
8.85864
  0
LINE
  8
0
 10
16.7701
 20
8.85864
 11
16.9801
 21
9.09987
  0
LINE
  8
0
 10
16.9801
 20
9.09987
 11
17.2446
 21
9.29588
  0
LINE
  8
0
 10
17.2446
 20
9.29588
 11
17.5365
 21
9.42657
  0
LINE
  8
0
 10
17.5365
 20
9.42657
 11
17.8495
 21
9.49242
  0
LINE
  8
0
 10
17.8495
 20
9.49242
 11
18.1786
 21
9.48932
  0
LINE
  8
0
 10
18.1786
 20
9.48932
 11
18.4903
 21
9.41759
  0
LINE
  8
0
 10
18.4903
 20
9.41759
 11
18.7878
 21
9.27649
  0
LINE
  8
0
 10
18.7878
 20
9.27649
 11
19.0405
 21
9.08046
  0
LINE
  8
0
 10
19.0405
 20
9.08046
 11
19.2459
 21
8.83531
  0
LINE
  8
0
 10
19.2459
 20
8.83531
 11
19.3981
 21
8.54341
  0
LINE
  8
0
 10
19.3981
 20
8.54341
 11
19.4815
 21
8.23465
  0
LINE
  8
0
 10
19.4815
 20
8.23465
 11
19.497
 21
7.90581
  0
LINE
  8
0
 10
19.497
 20
7.90581
 11
19.443
 21
7.59056
  0
LINE
  8
0
 10
19.443
 20
7.59056
 11
19.319
 21
7.28563
  0
LINE
  8
0
 10
19.319
 20
7.28563
 11
19.1375
 21
7.02225
  0
LINE
  8
0
 10
19.1375
 20
7.02225
 11
18.9044
 21
6.8033
  0
LINE
  8
0
 10
18.9044
 20
6.8033
 11
18.6301
 21
6.63876
  0
LINE
  8
0
 10
18.6301
 20
6.63876
 11
18.3272
 21
6.53612
  0
LINE
  8
0
 10
18.3272
 20
6.53612
 11
18.2996
 21
6.53021
  0
LINE
  8
0
 10
192.3
 20
6.53021
 11
191.981
 21
6.50011
  0
LINE
  8
0
 10
191.981
 20
6.50011
 11
191.654
 21
6.54034
  0
LINE
  8
0
 10
191.654
 20
6.54034
 11
191.344
 21
6.65088
  0
LINE
  8
0
 10
191.344
 20
6.65088
 11
191.073
 21
6.82056
  0
LINE
  8
0
 10
191.073
 20
6.82056
 11
190.844
 21
7.04385
  0
LINE
  8
0
 10
190.844
 20
7.04385
 11
190.668
 21
7.31062
  0
LINE
  8
0
 10
190.668
 20
7.31062
 11
190.549
 21
7.61784
  0
LINE
  8
0
 10
190.549
 20
7.61784
 11
190.501
 21
7.94345
  0
LINE
  8
0
 10
190.501
 20
7.94345
 11
190.523
 21
8.26253
  0
LINE
  8
0
 10
190.523
 20
8.26253
 11
190.616
 21
8.57837
  0
LINE
  8
0
 10
190.616
 20
8.57837
 11
190.77
 21
8.85864
  0
LINE
  8
0
 10
190.77
 20
8.85864
 11
190.98
 21
9.09987
  0
LINE
  8
0
 10
190.98
 20
9.09987
 11
191.245
 21
9.29588
  0
LINE
  8
0
 10
191.245
 20
9.29588
 11
191.536
 21
9.42657
  0
LINE
  8
0
 10
191.536
 20
9.42657
 11
191.849
 21
9.49242
  0
LINE
  8
0
 10
191.849
 20
9.49242
 11
192.179
 21
9.48932
  0
LINE
  8
0
 10
192.179
 20
9.48932
 11
192.49
 21
9.41759
  0
LINE
  8
0
 10
192.49
 20
9.41759
 11
192.788
 21
9.27649
  0
LINE
  8
0
 10
192.788
 20
9.27649
 11
193.04
 21
9.08046
  0
LINE
  8
0
 10
193.04
 20
9.08046
 11
193.246
 21
8.83531
  0
LINE
  8
0
 10
193.246
 20
8.83531
 11
193.398
 21
8.54341
  0
LINE
  8
0
 10
193.398
 20
8.54341
 11
193.482
 21
8.23465
  0
LINE
  8
0
 10
193.482
 20
8.23465
 11
193.497
 21
7.90581
  0
LINE
  8
0
 10
193.497
 20
7.90581
 11
193.443
 21
7.59056
  0
LINE
  8
0
 10
193.443
 20
7.59056
 11
193.319
 21
7.28563
  0
LINE
  8
0
 10
193.319
 20
7.28563
 11
193.138
 21
7.02225
  0
LINE
  8
0
 10
193.138
 20
7.02225
 11
192.904
 21
6.8033
  0
LINE
  8
0
 10
192.904
 20
6.8033
 11
192.63
 21
6.63876
  0
LINE
  8
0
 10
192.63
 20
6.63876
 11
192.327
 21
6.53612
  0
LINE
  8
0
 10
192.327
 20
6.53612
 11
192.3
 21
6.53021
  0
ENDSEC
  0
SECTION
  2
OBJECTS
  0
DICTIONARY
  0
ENDSEC
  0
EOF
