  0
SECTION
  2
BLOCKS
  0
ENDSEC
  0
SECTION
  2
ENTITIES
  0
LINE
  8
0
 10
-0.015686
 20
-1.3745
 11
0.0313263
 21
-1.37302
  0
LINE
  8
0
 10
0.0313263
 20
-1.37302
 11
0.07724
 21
-1.36276
  0
LINE
  8
0
 10
0.07724
 20
-1.36276
 11
0.120438
 21
-1.34407
  0
LINE
  8
0
 10
0.120438
 20
-1.34407
 11
0.64299
 21
-1.01318
  0
LINE
  8
0
 10
0.64299
 20
-1.01318
 11
0.705338
 21
-0.97081
  0
LINE
  8
0
 10
0.705338
 20
-0.97081
 11
0.764908
 21
-0.924606
  0
LINE
  8
0
 10
0.764908
 20
-0.924606
 11
0.821442
 21
-0.874756
  0
LINE
  8
0
 10
0.821442
 20
-0.874756
 11
0.874756
 21
-0.821442
  0
LINE
  8
0
 10
0.874756
 20
-0.821442
 11
0.924606
 21
-0.764908
  0
LINE
  8
0
 10
0.924606
 20
-0.764908
 11
0.97081
 21
-0.705338
  0
LINE
  8
0
 10
0.97081
 20
-0.705338
 11
1.01318
 21
-0.64299
  0
LINE
  8
0
 10
1.01318
 20
-0.64299
 11
1.05156
 21
-0.578094
  0
LINE
  8
0
 10
1.05156
 20
-0.578094
 11
1.08578
 21
-0.510925
  0
LINE
  8
0
 10
1.08578
 20
-0.510925
 11
1.11572
 21
-0.441742
  0
LINE
  8
0
 10
1.11572
 20
-0.441742
 11
1.14127
 21
-0.370819
  0
LINE
  8
0
 10
1.14127
 20
-0.370819
 11
1.16229
 21
-0.298416
  0
LINE
  8
0
 10
1.16229
 20
-0.298416
 11
1.17874
 21
-0.224854
  0
LINE
  8
0
 10
1.17874
 20
-0.224854
 11
1.19054
 21
-0.150391
  0
LINE
  8
0
 10
1.19054
 20
-0.150391
 11
1.19763
 21
-0.0753479
  0
LINE
  8
0
 10
1.19763
 20
-0.0753479
 11
1.2
 21
0
  0
LINE
  8
0
 10
1.2
 20
0
 11
1.19763
 21
0.0753479
  0
LINE
  8
0
 10
1.19763
 20
0.0753479
 11
1.19054
 21
0.150391
  0
LINE
  8
0
 10
1.19054
 20
0.150391
 11
1.17874
 21
0.224854
  0
LINE
  8
0
 10
1.17874
 20
0.224854
 11
1.16229
 21
0.298416
  0
LINE
  8
0
 10
1.16229
 20
0.298416
 11
1.14127
 21
0.370819
  0
LINE
  8
0
 10
1.14127
 20
0.370819
 11
1.11572
 21
0.441742
  0
LINE
  8
0
 10
1.11572
 20
0.441742
 11
1.08578
 21
0.510925
  0
LINE
  8
0
 10
1.08578
 20
0.510925
 11
1.05156
 21
0.578094
  0
LINE
  8
0
 10
1.05156
 20
0.578094
 11
1.01318
 21
0.64299
  0
LINE
  8
0
 10
1.01318
 20
0.64299
 11
0.97081
 21
0.705338
  0
LINE
  8
0
 10
0.97081
 20
0.705338
 11
0.924606
 21
0.764908
  0
LINE
  8
0
 10
0.924606
 20
0.764908
 11
0.874756
 21
0.821442
  0
LINE
  8
0
 10
0.874756
 20
0.821442
 11
0.821442
 21
0.874756
  0
LINE
  8
0
 10
0.821442
 20
0.874756
 11
0.764908
 21
0.924606
  0
LINE
  8
0
 10
0.764908
 20
0.924606
 11
0.705338
 21
0.97081
  0
LINE
  8
0
 10
0.705338
 20
0.97081
 11
0.64299
 21
1.01318
  0
LINE
  8
0
 10
0.64299
 20
1.01318
 11
0.120438
 21
1.34407
  0
LINE
  8
0
 10
0.120438
 20
1.34407
 11
0.07724
 21
1.36276
  0
LINE
  8
0
 10
0.07724
 20
1.36276
 11
0.0313263
 21
1.37302
  0
LINE
  8
0
 10
0.0313263
 20
1.37302
 11
-0.015686
 21
1.3745
  0
LINE
  8
0
 10
-0.015686
 20
1.3745
 11
-0.0621643
 21
1.36714
  0
LINE
  8
0
 10
-0.0621643
 20
1.36714
 11
-0.10643
 21
1.3512
  0
LINE
  8
0
 10
-0.10643
 20
1.3512
 11
-0.133942
 21
1.33607
  0
LINE
  8
0
 10
-0.133942
 20
1.33607
 11
-0.64299
 21
1.01318
  0
LINE
  8
0
 10
-0.64299
 20
1.01318
 11
-0.705338
 21
0.97081
  0
LINE
  8
0
 10
-0.705338
 20
0.97081
 11
-0.764908
 21
0.924606
  0
LINE
  8
0
 10
-0.764908
 20
0.924606
 11
-0.821442
 21
0.874756
  0
LINE
  8
0
 10
-0.821442
 20
0.874756
 11
-0.874756
 21
0.821442
  0
LINE
  8
0
 10
-0.874756
 20
0.821442
 11
-0.924606
 21
0.764908
  0
LINE
  8
0
 10
-0.924606
 20
0.764908
 11
-0.97081
 21
0.705338
  0
LINE
  8
0
 10
-0.97081
 20
0.705338
 11
-1.01318
 21
0.64299
  0
LINE
  8
0
 10
-1.01318
 20
0.64299
 11
-1.05156
 21
0.578094
  0
LINE
  8
0
 10
-1.05156
 20
0.578094
 11
-1.08578
 21
0.510925
  0
LINE
  8
0
 10
-1.08578
 20
0.510925
 11
-1.11572
 21
0.441742
  0
LINE
  8
0
 10
-1.11572
 20
0.441742
 11
-1.14127
 21
0.370819
  0
LINE
  8
0
 10
-1.14127
 20
0.370819
 11
-1.16229
 21
0.298416
  0
LINE
  8
0
 10
-1.16229
 20
0.298416
 11
-1.17874
 21
0.224854
  0
LINE
  8
0
 10
-1.17874
 20
0.224854
 11
-1.19054
 21
0.150391
  0
LINE
  8
0
 10
-1.19054
 20
0.150391
 11
-1.19763
 21
0.0753479
  0
LINE
  8
0
 10
-1.19763
 20
0.0753479
 11
-1.2
 21
0
  0
LINE
  8
0
 10
-1.2
 20
0
 11
-1.19763
 21
-0.0753479
  0
LINE
  8
0
 10
-1.19763
 20
-0.0753479
 11
-1.19054
 21
-0.150391
  0
LINE
  8
0
 10
-1.19054
 20
-0.150391
 11
-1.17874
 21
-0.224854
  0
LINE
  8
0
 10
-1.17874
 20
-0.224854
 11
-1.16229
 21
-0.298416
  0
LINE
  8
0
 10
-1.16229
 20
-0.298416
 11
-1.14127
 21
-0.370819
  0
LINE
  8
0
 10
-1.14127
 20
-0.370819
 11
-1.11572
 21
-0.441742
  0
LINE
  8
0
 10
-1.11572
 20
-0.441742
 11
-1.08578
 21
-0.510925
  0
LINE
  8
0
 10
-1.08578
 20
-0.510925
 11
-1.05156
 21
-0.578094
  0
LINE
  8
0
 10
-1.05156
 20
-0.578094
 11
-1.01318
 21
-0.64299
  0
LINE
  8
0
 10
-1.01318
 20
-0.64299
 11
-0.97081
 21
-0.705338
  0
LINE
  8
0
 10
-0.97081
 20
-0.705338
 11
-0.924606
 21
-0.764908
  0
LINE
  8
0
 10
-0.924606
 20
-0.764908
 11
-0.874756
 21
-0.821442
  0
LINE
  8
0
 10
-0.874756
 20
-0.821442
 11
-0.821442
 21
-0.874756
  0
LINE
  8
0
 10
-0.821442
 20
-0.874756
 11
-0.764908
 21
-0.924606
  0
LINE
  8
0
 10
-0.764908
 20
-0.924606
 11
-0.705338
 21
-0.97081
  0
LINE
  8
0
 10
-0.705338
 20
-0.97081
 11
-0.64299
 21
-1.01318
  0
LINE
  8
0
 10
-0.64299
 20
-1.01318
 11
-0.120438
 21
-1.34407
  0
LINE
  8
0
 10
-0.120438
 20
-1.34407
 11
-0.07724
 21
-1.36276
  0
LINE
  8
0
 10
-0.07724
 20
-1.36276
 11
-0.0313263
 21
-1.37302
  0
LINE
  8
0
 10
-0.0313263
 20
-1.37302
 11
-0.015686
 21
-1.3745
  0
LINE
  8
0
 10
0.0248566
 20
1.02814
 11
-0.0125275
 21
1.02579
  0
LINE
  8
0
 10
-0.0125275
 20
1.02579
 11
-0.048172
 21
1.03737
  0
LINE
  8
0
 10
-0.048172
 20
1.03737
 11
-0.0770416
 21
1.06125
  0
LINE
  8
0
 10
-0.0770416
 20
1.06125
 11
-0.0950928
 21
1.09409
  0
LINE
  8
0
 10
-0.0950928
 20
1.09409
 11
-0.0997925
 21
1.13127
  0
LINE
  8
0
 10
-0.0997925
 20
1.13127
 11
-0.0904694
 21
1.16757
  0
LINE
  8
0
 10
-0.0904694
 20
1.16757
 11
-0.0684509
 21
1.19789
  0
LINE
  8
0
 10
-0.0684509
 20
1.19789
 11
-0.0368042
 21
1.21797
  0
LINE
  8
0
 10
-0.0368042
 20
1.21797
 11
0
 21
1.22499
  0
LINE
  8
0
 10
0
 20
1.22499
 11
0.0368042
 21
1.21797
  0
LINE
  8
0
 10
0.0368042
 20
1.21797
 11
0.0684509
 21
1.19789
  0
LINE
  8
0
 10
0.0684509
 20
1.19789
 11
0.0904694
 21
1.16757
  0
LINE
  8
0
 10
0.0904694
 20
1.16757
 11
0.0997925
 21
1.13127
  0
LINE
  8
0
 10
0.0997925
 20
1.13127
 11
0.0950928
 21
1.09409
  0
LINE
  8
0
 10
0.0950928
 20
1.09409
 11
0.0770416
 21
1.06125
  0
LINE
  8
0
 10
0.0770416
 20
1.06125
 11
0.048172
 21
1.03737
  0
LINE
  8
0
 10
0.048172
 20
1.03737
 11
0.0248566
 21
1.02814
  0
LINE
  8
0
 10
-0.581192
 20
0.451172
 11
-0.61879
 21
0.451172
  0
LINE
  8
0
 10
-0.61879
 20
0.451172
 11
-0.655212
 21
0.460526
  0
LINE
  8
0
 10
-0.655212
 20
0.460526
 11
-0.688156
 21
0.478638
  0
LINE
  8
0
 10
-0.688156
 20
0.478638
 11
-0.715576
 21
0.504379
  0
LINE
  8
0
 10
-0.715576
 20
0.504379
 11
-0.735718
 21
0.536133
  0
LINE
  8
0
 10
-0.735718
 20
0.536133
 11
-0.74733
 21
0.571884
  0
LINE
  8
0
 10
-0.74733
 20
0.571884
 11
-0.749695
 21
0.609406
  0
LINE
  8
0
 10
-0.749695
 20
0.609406
 11
-0.742645
 21
0.646347
  0
LINE
  8
0
 10
-0.742645
 20
0.646347
 11
-0.726639
 21
0.680359
  0
LINE
  8
0
 10
-0.726639
 20
0.680359
 11
-0.702667
 21
0.709335
  0
LINE
  8
0
 10
-0.702667
 20
0.709335
 11
-0.672256
 21
0.731445
  0
LINE
  8
0
 10
-0.672256
 20
0.731445
 11
-0.637299
 21
0.745285
  0
LINE
  8
0
 10
-0.637299
 20
0.745285
 11
-0.599991
 21
0.75
  0
LINE
  8
0
 10
-0.599991
 20
0.75
 11
-0.562683
 21
0.745285
  0
LINE
  8
0
 10
-0.562683
 20
0.745285
 11
-0.527725
 21
0.731445
  0
LINE
  8
0
 10
-0.527725
 20
0.731445
 11
-0.497314
 21
0.709335
  0
LINE
  8
0
 10
-0.497314
 20
0.709335
 11
-0.473343
 21
0.680359
  0
LINE
  8
0
 10
-0.473343
 20
0.680359
 11
-0.457336
 21
0.646347
  0
LINE
  8
0
 10
-0.457336
 20
0.646347
 11
-0.450287
 21
0.609406
  0
LINE
  8
0
 10
-0.450287
 20
0.609406
 11
-0.452652
 21
0.571884
  0
LINE
  8
0
 10
-0.452652
 20
0.571884
 11
-0.464264
 21
0.536133
  0
LINE
  8
0
 10
-0.464264
 20
0.536133
 11
-0.484421
 21
0.504379
  0
LINE
  8
0
 10
-0.484421
 20
0.504379
 11
-0.511826
 21
0.478638
  0
LINE
  8
0
 10
-0.511826
 20
0.478638
 11
-0.544769
 21
0.460526
  0
LINE
  8
0
 10
-0.544769
 20
0.460526
 11
-0.581192
 21
0.451172
  0
LINE
  8
0
 10
0.61879
 20
0.451172
 11
0.581192
 21
0.451172
  0
LINE
  8
0
 10
0.581192
 20
0.451172
 11
0.544769
 21
0.460526
  0
LINE
  8
0
 10
0.544769
 20
0.460526
 11
0.511826
 21
0.478638
  0
LINE
  8
0
 10
0.511826
 20
0.478638
 11
0.484421
 21
0.504379
  0
LINE
  8
0
 10
0.484421
 20
0.504379
 11
0.464264
 21
0.536133
  0
LINE
  8
0
 10
0.464264
 20
0.536133
 11
0.452652
 21
0.571884
  0
LINE
  8
0
 10
0.452652
 20
0.571884
 11
0.450287
 21
0.609406
  0
LINE
  8
0
 10
0.450287
 20
0.609406
 11
0.457336
 21
0.646347
  0
LINE
  8
0
 10
0.457336
 20
0.646347
 11
0.473343
 21
0.680359
  0
LINE
  8
0
 10
0.473343
 20
0.680359
 11
0.497314
 21
0.709335
  0
LINE
  8
0
 10
0.497314
 20
0.709335
 11
0.527725
 21
0.731445
  0
LINE
  8
0
 10
0.527725
 20
0.731445
 11
0.562683
 21
0.745285
  0
LINE
  8
0
 10
0.562683
 20
0.745285
 11
0.599991
 21
0.75
  0
LINE
  8
0
 10
0.599991
 20
0.75
 11
0.637299
 21
0.745285
  0
LINE
  8
0
 10
0.637299
 20
0.745285
 11
0.672256
 21
0.731445
  0
LINE
  8
0
 10
0.672256
 20
0.731445
 11
0.702667
 21
0.709335
  0
LINE
  8
0
 10
0.702667
 20
0.709335
 11
0.726639
 21
0.680359
  0
LINE
  8
0
 10
0.726639
 20
0.680359
 11
0.742645
 21
0.646347
  0
LINE
  8
0
 10
0.742645
 20
0.646347
 11
0.749695
 21
0.609406
  0
LINE
  8
0
 10
0.749695
 20
0.609406
 11
0.74733
 21
0.571884
  0
LINE
  8
0
 10
0.74733
 20
0.571884
 11
0.735718
 21
0.536133
  0
LINE
  8
0
 10
0.735718
 20
0.536133
 11
0.715576
 21
0.504379
  0
LINE
  8
0
 10
0.715576
 20
0.504379
 11
0.688156
 21
0.478638
  0
LINE
  8
0
 10
0.688156
 20
0.478638
 11
0.655212
 21
0.460526
  0
LINE
  8
0
 10
0.655212
 20
0.460526
 11
0.61879
 21
0.451172
  0
LINE
  8
0
 10
0.0187988
 20
0.451172
 11
-0.0187988
 21
0.451172
  0
LINE
  8
0
 10
-0.0187988
 20
0.451172
 11
-0.0552063
 21
0.460526
  0
LINE
  8
0
 10
-0.0552063
 20
0.460526
 11
-0.0881653
 21
0.478638
  0
LINE
  8
0
 10
-0.0881653
 20
0.478638
 11
-0.11557
 21
0.504379
  0
LINE
  8
0
 10
-0.11557
 20
0.504379
 11
-0.135712
 21
0.536133
  0
LINE
  8
0
 10
-0.135712
 20
0.536133
 11
-0.147339
 21
0.571884
  0
LINE
  8
0
 10
-0.147339
 20
0.571884
 11
-0.149704
 21
0.609406
  0
LINE
  8
0
 10
-0.149704
 20
0.609406
 11
-0.142654
 21
0.646347
  0
LINE
  8
0
 10
-0.142654
 20
0.646347
 11
-0.126648
 21
0.680359
  0
LINE
  8
0
 10
-0.126648
 20
0.680359
 11
-0.102676
 21
0.709335
  0
LINE
  8
0
 10
-0.102676
 20
0.709335
 11
-0.0722504
 21
0.731445
  0
LINE
  8
0
 10
-0.0722504
 20
0.731445
 11
-0.0372925
 21
0.745285
  0
LINE
  8
0
 10
-0.0372925
 20
0.745285
 11
0
 21
0.75
  0
LINE
  8
0
 10
0
 20
0.75
 11
0.0372925
 21
0.745285
  0
LINE
  8
0
 10
0.0372925
 20
0.745285
 11
0.0722504
 21
0.731445
  0
LINE
  8
0
 10
0.0722504
 20
0.731445
 11
0.102676
 21
0.709335
  0
LINE
  8
0
 10
0.102676
 20
0.709335
 11
0.126648
 21
0.680359
  0
LINE
  8
0
 10
0.126648
 20
0.680359
 11
0.142654
 21
0.646347
  0
LINE
  8
0
 10
0.142654
 20
0.646347
 11
0.149704
 21
0.609406
  0
LINE
  8
0
 10
0.149704
 20
0.609406
 11
0.147339
 21
0.571884
  0
LINE
  8
0
 10
0.147339
 20
0.571884
 11
0.135712
 21
0.536133
  0
LINE
  8
0
 10
0.135712
 20
0.536133
 11
0.11557
 21
0.504379
  0
LINE
  8
0
 10
0.11557
 20
0.504379
 11
0.0881653
 21
0.478638
  0
LINE
  8
0
 10
0.0881653
 20
0.478638
 11
0.0552063
 21
0.460526
  0
LINE
  8
0
 10
0.0552063
 20
0.460526
 11
0.0187988
 21
0.451172
  0
LINE
  8
0
 10
0.0187988
 20
-0.148804
 11
-0.0187988
 21
-0.148804
  0
LINE
  8
0
 10
-0.0187988
 20
-0.148804
 11
-0.0552063
 21
-0.139465
  0
LINE
  8
0
 10
-0.0552063
 20
-0.139465
 11
-0.0881653
 21
-0.121338
  0
LINE
  8
0
 10
-0.0881653
 20
-0.121338
 11
-0.11557
 21
-0.0956116
  0
LINE
  8
0
 10
-0.11557
 20
-0.0956116
 11
-0.135712
 21
-0.063858
  0
LINE
  8
0
 10
-0.135712
 20
-0.063858
 11
-0.147339
 21
-0.0281067
  0
LINE
  8
0
 10
-0.147339
 20
-0.0281067
 11
-0.149704
 21
0.00941467
  0
LINE
  8
0
 10
-0.149704
 20
0.00941467
 11
-0.142654
 21
0.0463409
  0
LINE
  8
0
 10
-0.142654
 20
0.0463409
 11
-0.126648
 21
0.080368
  0
LINE
  8
0
 10
-0.126648
 20
0.080368
 11
-0.102676
 21
0.109344
  0
LINE
  8
0
 10
-0.102676
 20
0.109344
 11
-0.0722504
 21
0.131439
  0
LINE
  8
0
 10
-0.0722504
 20
0.131439
 11
-0.0372925
 21
0.145279
  0
LINE
  8
0
 10
-0.0372925
 20
0.145279
 11
0
 21
0.149994
  0
LINE
  8
0
 10
0
 20
0.149994
 11
0.0372925
 21
0.145279
  0
LINE
  8
0
 10
0.0372925
 20
0.145279
 11
0.0722504
 21
0.131439
  0
LINE
  8
0
 10
0.0722504
 20
0.131439
 11
0.102676
 21
0.109344
  0
LINE
  8
0
 10
0.102676
 20
0.109344
 11
0.126648
 21
0.080368
  0
LINE
  8
0
 10
0.126648
 20
0.080368
 11
0.142654
 21
0.0463409
  0
LINE
  8
0
 10
0.142654
 20
0.0463409
 11
0.149704
 21
0.00941467
  0
LINE
  8
0
 10
0.149704
 20
0.00941467
 11
0.147339
 21
-0.0281067
  0
LINE
  8
0
 10
0.147339
 20
-0.0281067
 11
0.135712
 21
-0.063858
  0
LINE
  8
0
 10
0.135712
 20
-0.063858
 11
0.11557
 21
-0.0956116
  0
LINE
  8
0
 10
0.11557
 20
-0.0956116
 11
0.0881653
 21
-0.121338
  0
LINE
  8
0
 10
0.0881653
 20
-0.121338
 11
0.0552063
 21
-0.139465
  0
LINE
  8
0
 10
0.0552063
 20
-0.139465
 11
0.0187988
 21
-0.148804
  0
LINE
  8
0
 10
0.61879
 20
-0.148804
 11
0.581192
 21
-0.148804
  0
LINE
  8
0
 10
0.581192
 20
-0.148804
 11
0.544769
 21
-0.139465
  0
LINE
  8
0
 10
0.544769
 20
-0.139465
 11
0.511826
 21
-0.121338
  0
LINE
  8
0
 10
0.511826
 20
-0.121338
 11
0.484421
 21
-0.0956116
  0
LINE
  8
0
 10
0.484421
 20
-0.0956116
 11
0.464264
 21
-0.063858
  0
LINE
  8
0
 10
0.464264
 20
-0.063858
 11
0.452652
 21
-0.0281067
  0
LINE
  8
0
 10
0.452652
 20
-0.0281067
 11
0.450287
 21
0.00941467
  0
LINE
  8
0
 10
0.450287
 20
0.00941467
 11
0.457336
 21
0.0463409
  0
LINE
  8
0
 10
0.457336
 20
0.0463409
 11
0.473343
 21
0.080368
  0
LINE
  8
0
 10
0.473343
 20
0.080368
 11
0.497314
 21
0.109344
  0
LINE
  8
0
 10
0.497314
 20
0.109344
 11
0.527725
 21
0.131439
  0
LINE
  8
0
 10
0.527725
 20
0.131439
 11
0.562683
 21
0.145279
  0
LINE
  8
0
 10
0.562683
 20
0.145279
 11
0.599991
 21
0.149994
  0
LINE
  8
0
 10
0.599991
 20
0.149994
 11
0.637299
 21
0.145279
  0
LINE
  8
0
 10
0.637299
 20
0.145279
 11
0.672256
 21
0.131439
  0
LINE
  8
0
 10
0.672256
 20
0.131439
 11
0.702667
 21
0.109344
  0
LINE
  8
0
 10
0.702667
 20
0.109344
 11
0.726639
 21
0.080368
  0
LINE
  8
0
 10
0.726639
 20
0.080368
 11
0.742645
 21
0.0463409
  0
LINE
  8
0
 10
0.742645
 20
0.0463409
 11
0.749695
 21
0.00941467
  0
LINE
  8
0
 10
0.749695
 20
0.00941467
 11
0.74733
 21
-0.0281067
  0
LINE
  8
0
 10
0.74733
 20
-0.0281067
 11
0.735718
 21
-0.063858
  0
LINE
  8
0
 10
0.735718
 20
-0.063858
 11
0.715576
 21
-0.0956116
  0
LINE
  8
0
 10
0.715576
 20
-0.0956116
 11
0.688156
 21
-0.121338
  0
LINE
  8
0
 10
0.688156
 20
-0.121338
 11
0.655212
 21
-0.139465
  0
LINE
  8
0
 10
0.655212
 20
-0.139465
 11
0.61879
 21
-0.148804
  0
LINE
  8
0
 10
-0.581192
 20
-0.148804
 11
-0.61879
 21
-0.148804
  0
LINE
  8
0
 10
-0.61879
 20
-0.148804
 11
-0.655212
 21
-0.139465
  0
LINE
  8
0
 10
-0.655212
 20
-0.139465
 11
-0.688156
 21
-0.121338
  0
LINE
  8
0
 10
-0.688156
 20
-0.121338
 11
-0.715576
 21
-0.0956116
  0
LINE
  8
0
 10
-0.715576
 20
-0.0956116
 11
-0.735718
 21
-0.063858
  0
LINE
  8
0
 10
-0.735718
 20
-0.063858
 11
-0.74733
 21
-0.0281067
  0
LINE
  8
0
 10
-0.74733
 20
-0.0281067
 11
-0.749695
 21
0.00941467
  0
LINE
  8
0
 10
-0.749695
 20
0.00941467
 11
-0.742645
 21
0.0463409
  0
LINE
  8
0
 10
-0.742645
 20
0.0463409
 11
-0.726639
 21
0.080368
  0
LINE
  8
0
 10
-0.726639
 20
0.080368
 11
-0.702667
 21
0.109344
  0
LINE
  8
0
 10
-0.702667
 20
0.109344
 11
-0.672256
 21
0.131439
  0
LINE
  8
0
 10
-0.672256
 20
0.131439
 11
-0.637299
 21
0.145279
  0
LINE
  8
0
 10
-0.637299
 20
0.145279
 11
-0.599991
 21
0.149994
  0
LINE
  8
0
 10
-0.599991
 20
0.149994
 11
-0.562683
 21
0.145279
  0
LINE
  8
0
 10
-0.562683
 20
0.145279
 11
-0.527725
 21
0.131439
  0
LINE
  8
0
 10
-0.527725
 20
0.131439
 11
-0.497314
 21
0.109344
  0
LINE
  8
0
 10
-0.497314
 20
0.109344
 11
-0.473343
 21
0.080368
  0
LINE
  8
0
 10
-0.473343
 20
0.080368
 11
-0.457336
 21
0.0463409
  0
LINE
  8
0
 10
-0.457336
 20
0.0463409
 11
-0.450287
 21
0.00941467
  0
LINE
  8
0
 10
-0.450287
 20
0.00941467
 11
-0.452652
 21
-0.0281067
  0
LINE
  8
0
 10
-0.452652
 20
-0.0281067
 11
-0.464264
 21
-0.063858
  0
LINE
  8
0
 10
-0.464264
 20
-0.063858
 11
-0.484421
 21
-0.0956116
  0
LINE
  8
0
 10
-0.484421
 20
-0.0956116
 11
-0.511826
 21
-0.121338
  0
LINE
  8
0
 10
-0.511826
 20
-0.121338
 11
-0.544769
 21
-0.139465
  0
LINE
  8
0
 10
-0.544769
 20
-0.139465
 11
-0.581192
 21
-0.148804
  0
LINE
  8
0
 10
-0.581192
 20
-0.74881
 11
-0.61879
 21
-0.74881
  0
LINE
  8
0
 10
-0.61879
 20
-0.74881
 11
-0.655212
 21
-0.739456
  0
LINE
  8
0
 10
-0.655212
 20
-0.739456
 11
-0.688156
 21
-0.721344
  0
LINE
  8
0
 10
-0.688156
 20
-0.721344
 11
-0.715576
 21
-0.695602
  0
LINE
  8
0
 10
-0.715576
 20
-0.695602
 11
-0.735718
 21
-0.663864
  0
LINE
  8
0
 10
-0.735718
 20
-0.663864
 11
-0.74733
 21
-0.628098
  0
LINE
  8
0
 10
-0.74733
 20
-0.628098
 11
-0.749695
 21
-0.590576
  0
LINE
  8
0
 10
-0.749695
 20
-0.590576
 11
-0.742645
 21
-0.553635
  0
LINE
  8
0
 10
-0.742645
 20
-0.553635
 11
-0.726639
 21
-0.519623
  0
LINE
  8
0
 10
-0.726639
 20
-0.519623
 11
-0.702667
 21
-0.490646
  0
LINE
  8
0
 10
-0.702667
 20
-0.490646
 11
-0.672256
 21
-0.468552
  0
LINE
  8
0
 10
-0.672256
 20
-0.468552
 11
-0.637299
 21
-0.454712
  0
LINE
  8
0
 10
-0.637299
 20
-0.454712
 11
-0.599991
 21
-0.449997
  0
LINE
  8
0
 10
-0.599991
 20
-0.449997
 11
-0.562683
 21
-0.454712
  0
LINE
  8
0
 10
-0.562683
 20
-0.454712
 11
-0.527725
 21
-0.468552
  0
LINE
  8
0
 10
-0.527725
 20
-0.468552
 11
-0.497314
 21
-0.490646
  0
LINE
  8
0
 10
-0.497314
 20
-0.490646
 11
-0.473343
 21
-0.519623
  0
LINE
  8
0
 10
-0.473343
 20
-0.519623
 11
-0.457336
 21
-0.553635
  0
LINE
  8
0
 10
-0.457336
 20
-0.553635
 11
-0.450287
 21
-0.590576
  0
LINE
  8
0
 10
-0.450287
 20
-0.590576
 11
-0.452652
 21
-0.628098
  0
LINE
  8
0
 10
-0.452652
 20
-0.628098
 11
-0.464264
 21
-0.663864
  0
LINE
  8
0
 10
-0.464264
 20
-0.663864
 11
-0.484421
 21
-0.695602
  0
LINE
  8
0
 10
-0.484421
 20
-0.695602
 11
-0.511826
 21
-0.721344
  0
LINE
  8
0
 10
-0.511826
 20
-0.721344
 11
-0.544769
 21
-0.739456
  0
LINE
  8
0
 10
-0.544769
 20
-0.739456
 11
-0.581192
 21
-0.74881
  0
LINE
  8
0
 10
0.61879
 20
-0.74881
 11
0.581192
 21
-0.74881
  0
LINE
  8
0
 10
0.581192
 20
-0.74881
 11
0.544769
 21
-0.739456
  0
LINE
  8
0
 10
0.544769
 20
-0.739456
 11
0.511826
 21
-0.721344
  0
LINE
  8
0
 10
0.511826
 20
-0.721344
 11
0.484421
 21
-0.695602
  0
LINE
  8
0
 10
0.484421
 20
-0.695602
 11
0.464264
 21
-0.663864
  0
LINE
  8
0
 10
0.464264
 20
-0.663864
 11
0.452652
 21
-0.628098
  0
LINE
  8
0
 10
0.452652
 20
-0.628098
 11
0.450287
 21
-0.590576
  0
LINE
  8
0
 10
0.450287
 20
-0.590576
 11
0.457336
 21
-0.553635
  0
LINE
  8
0
 10
0.457336
 20
-0.553635
 11
0.473343
 21
-0.519623
  0
LINE
  8
0
 10
0.473343
 20
-0.519623
 11
0.497314
 21
-0.490646
  0
LINE
  8
0
 10
0.497314
 20
-0.490646
 11
0.527725
 21
-0.468552
  0
LINE
  8
0
 10
0.527725
 20
-0.468552
 11
0.562683
 21
-0.454712
  0
LINE
  8
0
 10
0.562683
 20
-0.454712
 11
0.599991
 21
-0.449997
  0
LINE
  8
0
 10
0.599991
 20
-0.449997
 11
0.637299
 21
-0.454712
  0
LINE
  8
0
 10
0.637299
 20
-0.454712
 11
0.672256
 21
-0.468552
  0
LINE
  8
0
 10
0.672256
 20
-0.468552
 11
0.702667
 21
-0.490646
  0
LINE
  8
0
 10
0.702667
 20
-0.490646
 11
0.726639
 21
-0.519623
  0
LINE
  8
0
 10
0.726639
 20
-0.519623
 11
0.742645
 21
-0.553635
  0
LINE
  8
0
 10
0.742645
 20
-0.553635
 11
0.749695
 21
-0.590576
  0
LINE
  8
0
 10
0.749695
 20
-0.590576
 11
0.74733
 21
-0.628098
  0
LINE
  8
0
 10
0.74733
 20
-0.628098
 11
0.735718
 21
-0.663864
  0
LINE
  8
0
 10
0.735718
 20
-0.663864
 11
0.715576
 21
-0.695602
  0
LINE
  8
0
 10
0.715576
 20
-0.695602
 11
0.688156
 21
-0.721344
  0
LINE
  8
0
 10
0.688156
 20
-0.721344
 11
0.655212
 21
-0.739456
  0
LINE
  8
0
 10
0.655212
 20
-0.739456
 11
0.61879
 21
-0.74881
  0
LINE
  8
0
 10
0.0187988
 20
-0.74881
 11
-0.0187988
 21
-0.74881
  0
LINE
  8
0
 10
-0.0187988
 20
-0.74881
 11
-0.0552063
 21
-0.739456
  0
LINE
  8
0
 10
-0.0552063
 20
-0.739456
 11
-0.0881653
 21
-0.721344
  0
LINE
  8
0
 10
-0.0881653
 20
-0.721344
 11
-0.11557
 21
-0.695602
  0
LINE
  8
0
 10
-0.11557
 20
-0.695602
 11
-0.135712
 21
-0.663864
  0
LINE
  8
0
 10
-0.135712
 20
-0.663864
 11
-0.147339
 21
-0.628098
  0
LINE
  8
0
 10
-0.147339
 20
-0.628098
 11
-0.149704
 21
-0.590576
  0
LINE
  8
0
 10
-0.149704
 20
-0.590576
 11
-0.142654
 21
-0.553635
  0
LINE
  8
0
 10
-0.142654
 20
-0.553635
 11
-0.126648
 21
-0.519623
  0
LINE
  8
0
 10
-0.126648
 20
-0.519623
 11
-0.102676
 21
-0.490646
  0
LINE
  8
0
 10
-0.102676
 20
-0.490646
 11
-0.0722504
 21
-0.468552
  0
LINE
  8
0
 10
-0.0722504
 20
-0.468552
 11
-0.0372925
 21
-0.454712
  0
LINE
  8
0
 10
-0.0372925
 20
-0.454712
 11
0
 21
-0.449997
  0
LINE
  8
0
 10
0
 20
-0.449997
 11
0.0372925
 21
-0.454712
  0
LINE
  8
0
 10
0.0372925
 20
-0.454712
 11
0.0722504
 21
-0.468552
  0
LINE
  8
0
 10
0.0722504
 20
-0.468552
 11
0.102676
 21
-0.490646
  0
LINE
  8
0
 10
0.102676
 20
-0.490646
 11
0.126648
 21
-0.519623
  0
LINE
  8
0
 10
0.126648
 20
-0.519623
 11
0.142654
 21
-0.553635
  0
LINE
  8
0
 10
0.142654
 20
-0.553635
 11
0.149704
 21
-0.590576
  0
LINE
  8
0
 10
0.149704
 20
-0.590576
 11
0.147339
 21
-0.628098
  0
LINE
  8
0
 10
0.147339
 20
-0.628098
 11
0.135712
 21
-0.663864
  0
LINE
  8
0
 10
0.135712
 20
-0.663864
 11
0.11557
 21
-0.695602
  0
LINE
  8
0
 10
0.11557
 20
-0.695602
 11
0.0881653
 21
-0.721344
  0
LINE
  8
0
 10
0.0881653
 20
-0.721344
 11
0.0552063
 21
-0.739456
  0
LINE
  8
0
 10
0.0552063
 20
-0.739456
 11
0.0187988
 21
-0.74881
  0
LINE
  8
0
 10
0.0248566
 20
-1.22185
 11
-0.0125275
 21
-1.2242
  0
LINE
  8
0
 10
-0.0125275
 20
-1.2242
 11
-0.048172
 21
-1.21262
  0
LINE
  8
0
 10
-0.048172
 20
-1.21262
 11
-0.0770416
 21
-1.18874
  0
LINE
  8
0
 10
-0.0770416
 20
-1.18874
 11
-0.0950928
 21
-1.1559
  0
LINE
  8
0
 10
-0.0950928
 20
-1.1559
 11
-0.0997925
 21
-1.11871
  0
LINE
  8
0
 10
-0.0997925
 20
-1.11871
 11
-0.0904694
 21
-1.08241
  0
LINE
  8
0
 10
-0.0904694
 20
-1.08241
 11
-0.0684509
 21
-1.05209
  0
LINE
  8
0
 10
-0.0684509
 20
-1.05209
 11
-0.0368042
 21
-1.03201
  0
LINE
  8
0
 10
-0.0368042
 20
-1.03201
 11
0
 21
-1.02499
  0
LINE
  8
0
 10
0
 20
-1.02499
 11
0.0368042
 21
-1.03201
  0
LINE
  8
0
 10
0.0368042
 20
-1.03201
 11
0.0684509
 21
-1.05209
  0
LINE
  8
0
 10
0.0684509
 20
-1.05209
 11
0.0904694
 21
-1.08241
  0
LINE
  8
0
 10
0.0904694
 20
-1.08241
 11
0.0997925
 21
-1.11871
  0
LINE
  8
0
 10
0.0997925
 20
-1.11871
 11
0.0950928
 21
-1.1559
  0
LINE
  8
0
 10
0.0950928
 20
-1.1559
 11
0.0770416
 21
-1.18874
  0
LINE
  8
0
 10
0.0770416
 20
-1.18874
 11
0.048172
 21
-1.21262
  0
LINE
  8
0
 10
0.048172
 20
-1.21262
 11
0.0248566
 21
-1.22185
  0
ENDSEC
  0
SECTION
  2
OBJECTS
  0
DICTIONARY
  0
ENDSEC
  0
EOF
