  0
SECTION
  2
BLOCKS
  0
ENDSEC
  0
SECTION
  2
ENTITIES
  0
LINE
  8
0
 10
-0.918732
 20
-0.498215
 11
0.918732
 21
-0.498215
  0
LINE
  8
0
 10
0.918732
 20
-0.498215
 11
0.953568
 21
-0.484421
  0
LINE
  8
0
 10
0.953568
 20
-0.484421
 11
0.980896
 21
-0.458771
  0
LINE
  8
0
 10
0.980896
 20
-0.458771
 11
0.996857
 21
-0.424866
  0
LINE
  8
0
 10
0.996857
 20
-0.424866
 11
0.999985
 21
-0.399994
  0
LINE
  8
0
 10
0.999985
 20
-0.399994
 11
0.998215
 21
0.418732
  0
LINE
  8
0
 10
0.998215
 20
0.418732
 11
0.984421
 21
0.453568
  0
LINE
  8
0
 10
0.984421
 20
0.453568
 11
0.958771
 21
0.480896
  0
LINE
  8
0
 10
0.958771
 20
0.480896
 11
0.924866
 21
0.496857
  0
LINE
  8
0
 10
0.924866
 20
0.496857
 11
0.899994
 21
0.5
  0
LINE
  8
0
 10
0.899994
 20
0.5
 11
-0.918732
 21
0.498215
  0
LINE
  8
0
 10
-0.918732
 20
0.498215
 11
-0.953568
 21
0.484421
  0
LINE
  8
0
 10
-0.953568
 20
0.484421
 11
-0.980896
 21
0.458771
  0
LINE
  8
0
 10
-0.980896
 20
0.458771
 11
-0.996857
 21
0.424866
  0
LINE
  8
0
 10
-0.996857
 20
0.424866
 11
-0.999985
 21
0.399994
  0
LINE
  8
0
 10
-0.999985
 20
0.399994
 11
-0.998215
 21
-0.418732
  0
LINE
  8
0
 10
-0.998215
 20
-0.418732
 11
-0.984421
 21
-0.453568
  0
LINE
  8
0
 10
-0.984421
 20
-0.453568
 11
-0.958771
 21
-0.480896
  0
LINE
  8
0
 10
-0.958771
 20
-0.480896
 11
-0.924866
 21
-0.496857
  0
LINE
  8
0
 10
-0.924866
 20
-0.496857
 11
-0.918732
 21
-0.498215
  0
LINE
  8
0
 10
0.0187988
 20
-0.148804
 11
-0.0187988
 21
-0.148804
  0
LINE
  8
0
 10
-0.0187988
 20
-0.148804
 11
-0.0552063
 21
-0.139465
  0
LINE
  8
0
 10
-0.0552063
 20
-0.139465
 11
-0.0881653
 21
-0.121338
  0
LINE
  8
0
 10
-0.0881653
 20
-0.121338
 11
-0.11557
 21
-0.0956116
  0
LINE
  8
0
 10
-0.11557
 20
-0.0956116
 11
-0.135712
 21
-0.063858
  0
LINE
  8
0
 10
-0.135712
 20
-0.063858
 11
-0.147339
 21
-0.0281067
  0
LINE
  8
0
 10
-0.147339
 20
-0.0281067
 11
-0.149704
 21
0.00941467
  0
LINE
  8
0
 10
-0.149704
 20
0.00941467
 11
-0.142654
 21
0.0463409
  0
LINE
  8
0
 10
-0.142654
 20
0.0463409
 11
-0.126648
 21
0.080368
  0
LINE
  8
0
 10
-0.126648
 20
0.080368
 11
-0.102676
 21
0.109344
  0
LINE
  8
0
 10
-0.102676
 20
0.109344
 11
-0.0722504
 21
0.131439
  0
LINE
  8
0
 10
-0.0722504
 20
0.131439
 11
-0.0372925
 21
0.145279
  0
LINE
  8
0
 10
-0.0372925
 20
0.145279
 11
0
 21
0.149994
  0
LINE
  8
0
 10
0
 20
0.149994
 11
0.0372925
 21
0.145279
  0
LINE
  8
0
 10
0.0372925
 20
0.145279
 11
0.0722504
 21
0.131439
  0
LINE
  8
0
 10
0.0722504
 20
0.131439
 11
0.102676
 21
0.109344
  0
LINE
  8
0
 10
0.102676
 20
0.109344
 11
0.126648
 21
0.080368
  0
LINE
  8
0
 10
0.126648
 20
0.080368
 11
0.142654
 21
0.0463409
  0
LINE
  8
0
 10
0.142654
 20
0.0463409
 11
0.149704
 21
0.00941467
  0
LINE
  8
0
 10
0.149704
 20
0.00941467
 11
0.147339
 21
-0.0281067
  0
LINE
  8
0
 10
0.147339
 20
-0.0281067
 11
0.135712
 21
-0.063858
  0
LINE
  8
0
 10
0.135712
 20
-0.063858
 11
0.11557
 21
-0.0956116
  0
LINE
  8
0
 10
0.11557
 20
-0.0956116
 11
0.0881653
 21
-0.121338
  0
LINE
  8
0
 10
0.0881653
 20
-0.121338
 11
0.0552063
 21
-0.139465
  0
LINE
  8
0
 10
0.0552063
 20
-0.139465
 11
0.0187988
 21
-0.148804
  0
LINE
  8
0
 10
0.61879
 20
-0.148804
 11
0.581192
 21
-0.148804
  0
LINE
  8
0
 10
0.581192
 20
-0.148804
 11
0.544769
 21
-0.139465
  0
LINE
  8
0
 10
0.544769
 20
-0.139465
 11
0.511826
 21
-0.121338
  0
LINE
  8
0
 10
0.511826
 20
-0.121338
 11
0.484421
 21
-0.0956116
  0
LINE
  8
0
 10
0.484421
 20
-0.0956116
 11
0.464264
 21
-0.063858
  0
LINE
  8
0
 10
0.464264
 20
-0.063858
 11
0.452652
 21
-0.0281067
  0
LINE
  8
0
 10
0.452652
 20
-0.0281067
 11
0.450287
 21
0.00941467
  0
LINE
  8
0
 10
0.450287
 20
0.00941467
 11
0.457336
 21
0.0463409
  0
LINE
  8
0
 10
0.457336
 20
0.0463409
 11
0.473343
 21
0.080368
  0
LINE
  8
0
 10
0.473343
 20
0.080368
 11
0.497314
 21
0.109344
  0
LINE
  8
0
 10
0.497314
 20
0.109344
 11
0.527725
 21
0.131439
  0
LINE
  8
0
 10
0.527725
 20
0.131439
 11
0.562683
 21
0.145279
  0
LINE
  8
0
 10
0.562683
 20
0.145279
 11
0.599991
 21
0.149994
  0
LINE
  8
0
 10
0.599991
 20
0.149994
 11
0.637299
 21
0.145279
  0
LINE
  8
0
 10
0.637299
 20
0.145279
 11
0.672256
 21
0.131439
  0
LINE
  8
0
 10
0.672256
 20
0.131439
 11
0.702667
 21
0.109344
  0
LINE
  8
0
 10
0.702667
 20
0.109344
 11
0.726639
 21
0.080368
  0
LINE
  8
0
 10
0.726639
 20
0.080368
 11
0.742645
 21
0.0463409
  0
LINE
  8
0
 10
0.742645
 20
0.0463409
 11
0.749695
 21
0.00941467
  0
LINE
  8
0
 10
0.749695
 20
0.00941467
 11
0.74733
 21
-0.0281067
  0
LINE
  8
0
 10
0.74733
 20
-0.0281067
 11
0.735718
 21
-0.063858
  0
LINE
  8
0
 10
0.735718
 20
-0.063858
 11
0.715576
 21
-0.0956116
  0
LINE
  8
0
 10
0.715576
 20
-0.0956116
 11
0.688156
 21
-0.121338
  0
LINE
  8
0
 10
0.688156
 20
-0.121338
 11
0.655212
 21
-0.139465
  0
LINE
  8
0
 10
0.655212
 20
-0.139465
 11
0.61879
 21
-0.148804
  0
LINE
  8
0
 10
-0.581192
 20
-0.148804
 11
-0.61879
 21
-0.148804
  0
LINE
  8
0
 10
-0.61879
 20
-0.148804
 11
-0.655212
 21
-0.139465
  0
LINE
  8
0
 10
-0.655212
 20
-0.139465
 11
-0.688156
 21
-0.121338
  0
LINE
  8
0
 10
-0.688156
 20
-0.121338
 11
-0.715576
 21
-0.0956116
  0
LINE
  8
0
 10
-0.715576
 20
-0.0956116
 11
-0.735718
 21
-0.063858
  0
LINE
  8
0
 10
-0.735718
 20
-0.063858
 11
-0.74733
 21
-0.0281067
  0
LINE
  8
0
 10
-0.74733
 20
-0.0281067
 11
-0.749695
 21
0.00941467
  0
LINE
  8
0
 10
-0.749695
 20
0.00941467
 11
-0.742645
 21
0.0463409
  0
LINE
  8
0
 10
-0.742645
 20
0.0463409
 11
-0.726639
 21
0.080368
  0
LINE
  8
0
 10
-0.726639
 20
0.080368
 11
-0.702667
 21
0.109344
  0
LINE
  8
0
 10
-0.702667
 20
0.109344
 11
-0.672256
 21
0.131439
  0
LINE
  8
0
 10
-0.672256
 20
0.131439
 11
-0.637299
 21
0.145279
  0
LINE
  8
0
 10
-0.637299
 20
0.145279
 11
-0.599991
 21
0.149994
  0
LINE
  8
0
 10
-0.599991
 20
0.149994
 11
-0.562683
 21
0.145279
  0
LINE
  8
0
 10
-0.562683
 20
0.145279
 11
-0.527725
 21
0.131439
  0
LINE
  8
0
 10
-0.527725
 20
0.131439
 11
-0.497314
 21
0.109344
  0
LINE
  8
0
 10
-0.497314
 20
0.109344
 11
-0.473343
 21
0.080368
  0
LINE
  8
0
 10
-0.473343
 20
0.080368
 11
-0.457336
 21
0.0463409
  0
LINE
  8
0
 10
-0.457336
 20
0.0463409
 11
-0.450287
 21
0.00941467
  0
LINE
  8
0
 10
-0.450287
 20
0.00941467
 11
-0.452652
 21
-0.0281067
  0
LINE
  8
0
 10
-0.452652
 20
-0.0281067
 11
-0.464264
 21
-0.063858
  0
LINE
  8
0
 10
-0.464264
 20
-0.063858
 11
-0.484421
 21
-0.0956116
  0
LINE
  8
0
 10
-0.484421
 20
-0.0956116
 11
-0.511826
 21
-0.121338
  0
LINE
  8
0
 10
-0.511826
 20
-0.121338
 11
-0.544769
 21
-0.139465
  0
LINE
  8
0
 10
-0.544769
 20
-0.139465
 11
-0.581192
 21
-0.148804
  0
ENDSEC
  0
SECTION
  2
OBJECTS
  0
DICTIONARY
  0
ENDSEC
  0
EOF
