  0
SECTION
  2
BLOCKS
  0
ENDSEC
  0
SECTION
  2
ENTITIES
  0
LINE
  8
0
 10
0.5
 20
1
 11
0.279999
 21
1
  0
LINE
  8
0
 10
0.279999
 20
1
 11
0.279999
 21
0.499985
  0
LINE
  8
0
 10
0.279999
 20
0.499985
 11
-0.279999
 21
0.499985
  0
LINE
  8
0
 10
-0.279999
 20
0.499985
 11
-0.279999
 21
1
  0
LINE
  8
0
 10
-0.279999
 20
1
 11
-0.5
 21
1
  0
LINE
  8
0
 10
-0.5
 20
1
 11
-0.5
 21
1.29999
  0
LINE
  8
0
 10
-0.5
 20
1.29999
 11
-0.149994
 21
1.29999
  0
LINE
  8
0
 10
-0.149994
 20
1.29999
 11
-0.149994
 21
1.59999
  0
LINE
  8
0
 10
-0.149994
 20
1.59999
 11
-0.799988
 21
1.59999
  0
LINE
  8
0
 10
-0.799988
 20
1.59999
 11
-0.799988
 21
1
  0
LINE
  8
0
 10
-0.799988
 20
1
 11
-0.475525
 21
-0.154495
  0
LINE
  8
0
 10
-0.475525
 20
-0.154495
 11
-0.452408
 21
-0.212875
  0
LINE
  8
0
 10
-0.452408
 20
-0.212875
 11
-0.42215
 21
-0.267899
  0
LINE
  8
0
 10
-0.42215
 20
-0.267899
 11
-0.385254
 21
-0.31871
  0
LINE
  8
0
 10
-0.385254
 20
-0.31871
 11
-0.34227
 21
-0.364471
  0
LINE
  8
0
 10
-0.34227
 20
-0.364471
 11
-0.293884
 21
-0.404495
  0
LINE
  8
0
 10
-0.293884
 20
-0.404495
 11
-0.240875
 21
-0.438141
  0
LINE
  8
0
 10
-0.240875
 20
-0.438141
 11
-0.184052
 21
-0.464874
  0
LINE
  8
0
 10
-0.184052
 20
-0.464874
 11
-0.124344
 21
-0.484283
  0
LINE
  8
0
 10
-0.124344
 20
-0.484283
 11
-0.0626526
 21
-0.496048
  0
LINE
  8
0
 10
-0.0626526
 20
-0.496048
 11
0
 21
-0.5
  0
LINE
  8
0
 10
0
 20
-0.5
 11
0.0626526
 21
-0.496048
  0
LINE
  8
0
 10
0.0626526
 20
-0.496048
 11
0.124344
 21
-0.484283
  0
LINE
  8
0
 10
0.124344
 20
-0.484283
 11
0.184052
 21
-0.464874
  0
LINE
  8
0
 10
0.184052
 20
-0.464874
 11
0.240875
 21
-0.438141
  0
LINE
  8
0
 10
0.240875
 20
-0.438141
 11
0.293884
 21
-0.404495
  0
LINE
  8
0
 10
0.293884
 20
-0.404495
 11
0.34227
 21
-0.364471
  0
LINE
  8
0
 10
0.34227
 20
-0.364471
 11
0.385254
 21
-0.31871
  0
LINE
  8
0
 10
0.385254
 20
-0.31871
 11
0.42215
 21
-0.267899
  0
LINE
  8
0
 10
0.42215
 20
-0.267899
 11
0.452408
 21
-0.212875
  0
LINE
  8
0
 10
0.452408
 20
-0.212875
 11
0.475525
 21
-0.154495
  0
LINE
  8
0
 10
0.475525
 20
-0.154495
 11
0.799988
 21
1
  0
LINE
  8
0
 10
0.799988
 20
1
 11
0.799988
 21
1.59999
  0
LINE
  8
0
 10
0.799988
 20
1.59999
 11
0.149994
 21
1.59999
  0
LINE
  8
0
 10
0.149994
 20
1.59999
 11
0.149994
 21
1.29999
  0
LINE
  8
0
 10
0.149994
 20
1.29999
 11
0.5
 21
1.29999
  0
LINE
  8
0
 10
0.5
 20
1.29999
 11
0.5
 21
1
  0
LINE
  8
0
 10
0.0187988
 20
-0.148804
 11
-0.0187988
 21
-0.148804
  0
LINE
  8
0
 10
-0.0187988
 20
-0.148804
 11
-0.0552063
 21
-0.139465
  0
LINE
  8
0
 10
-0.0552063
 20
-0.139465
 11
-0.0881653
 21
-0.121338
  0
LINE
  8
0
 10
-0.0881653
 20
-0.121338
 11
-0.11557
 21
-0.0956116
  0
LINE
  8
0
 10
-0.11557
 20
-0.0956116
 11
-0.135712
 21
-0.063858
  0
LINE
  8
0
 10
-0.135712
 20
-0.063858
 11
-0.147339
 21
-0.0281067
  0
LINE
  8
0
 10
-0.147339
 20
-0.0281067
 11
-0.149704
 21
0.00941467
  0
LINE
  8
0
 10
-0.149704
 20
0.00941467
 11
-0.142654
 21
0.0463409
  0
LINE
  8
0
 10
-0.142654
 20
0.0463409
 11
-0.126648
 21
0.080368
  0
LINE
  8
0
 10
-0.126648
 20
0.080368
 11
-0.102676
 21
0.109344
  0
LINE
  8
0
 10
-0.102676
 20
0.109344
 11
-0.0722504
 21
0.131439
  0
LINE
  8
0
 10
-0.0722504
 20
0.131439
 11
-0.0372925
 21
0.145279
  0
LINE
  8
0
 10
-0.0372925
 20
0.145279
 11
0
 21
0.149994
  0
LINE
  8
0
 10
0
 20
0.149994
 11
0.0372925
 21
0.145279
  0
LINE
  8
0
 10
0.0372925
 20
0.145279
 11
0.0722504
 21
0.131439
  0
LINE
  8
0
 10
0.0722504
 20
0.131439
 11
0.102676
 21
0.109344
  0
LINE
  8
0
 10
0.102676
 20
0.109344
 11
0.126648
 21
0.080368
  0
LINE
  8
0
 10
0.126648
 20
0.080368
 11
0.142654
 21
0.0463409
  0
LINE
  8
0
 10
0.142654
 20
0.0463409
 11
0.149704
 21
0.00941467
  0
LINE
  8
0
 10
0.149704
 20
0.00941467
 11
0.147339
 21
-0.0281067
  0
LINE
  8
0
 10
0.147339
 20
-0.0281067
 11
0.135712
 21
-0.063858
  0
LINE
  8
0
 10
0.135712
 20
-0.063858
 11
0.11557
 21
-0.0956116
  0
LINE
  8
0
 10
0.11557
 20
-0.0956116
 11
0.0881653
 21
-0.121338
  0
LINE
  8
0
 10
0.0881653
 20
-0.121338
 11
0.0552063
 21
-0.139465
  0
LINE
  8
0
 10
0.0552063
 20
-0.139465
 11
0.0187988
 21
-0.148804
  0
ENDSEC
  0
SECTION
  2
OBJECTS
  0
DICTIONARY
  0
ENDSEC
  0
EOF
