  0
SECTION
  2
BLOCKS
  0
ENDSEC
  0
SECTION
  2
ENTITIES
  0
LINE
  8
0
 10
0
 20
-0.5
 11
0.0626526
 21
-0.496048
  0
LINE
  8
0
 10
0.0626526
 20
-0.496048
 11
0.124344
 21
-0.484283
  0
LINE
  8
0
 10
0.124344
 20
-0.484283
 11
0.184052
 21
-0.464874
  0
LINE
  8
0
 10
0.184052
 20
-0.464874
 11
0.240875
 21
-0.438141
  0
LINE
  8
0
 10
0.240875
 20
-0.438141
 11
0.293884
 21
-0.404495
  0
LINE
  8
0
 10
0.293884
 20
-0.404495
 11
0.34227
 21
-0.364471
  0
LINE
  8
0
 10
0.34227
 20
-0.364471
 11
0.385254
 21
-0.31871
  0
LINE
  8
0
 10
0.385254
 20
-0.31871
 11
0.42215
 21
-0.267899
  0
LINE
  8
0
 10
0.42215
 20
-0.267899
 11
0.452408
 21
-0.212875
  0
LINE
  8
0
 10
0.452408
 20
-0.212875
 11
1
 21
1
  0
LINE
  8
0
 10
1
 20
1
 11
1
 21
1.45
  0
LINE
  8
0
 10
1
 20
1.45
 11
-1
 21
1.45
  0
LINE
  8
0
 10
-1
 20
1.45
 11
-1
 21
1
  0
LINE
  8
0
 10
-1
 20
1
 11
-0.452408
 21
-0.212875
  0
LINE
  8
0
 10
-0.452408
 20
-0.212875
 11
-0.42215
 21
-0.267899
  0
LINE
  8
0
 10
-0.42215
 20
-0.267899
 11
-0.385254
 21
-0.31871
  0
LINE
  8
0
 10
-0.385254
 20
-0.31871
 11
-0.34227
 21
-0.364471
  0
LINE
  8
0
 10
-0.34227
 20
-0.364471
 11
-0.293884
 21
-0.404495
  0
LINE
  8
0
 10
-0.293884
 20
-0.404495
 11
-0.240875
 21
-0.438141
  0
LINE
  8
0
 10
-0.240875
 20
-0.438141
 11
-0.184052
 21
-0.464874
  0
LINE
  8
0
 10
-0.184052
 20
-0.464874
 11
-0.124344
 21
-0.484283
  0
LINE
  8
0
 10
-0.124344
 20
-0.484283
 11
-0.0626526
 21
-0.496048
  0
LINE
  8
0
 10
-0.0626526
 20
-0.496048
 11
0
 21
-0.5
  0
LINE
  8
0
 10
0.0187988
 20
0.851181
 11
-0.0187988
 21
0.851181
  0
LINE
  8
0
 10
-0.0187988
 20
0.851181
 11
-0.0552063
 21
0.860519
  0
LINE
  8
0
 10
-0.0552063
 20
0.860519
 11
-0.0881653
 21
0.878647
  0
LINE
  8
0
 10
-0.0881653
 20
0.878647
 11
-0.11557
 21
0.904373
  0
LINE
  8
0
 10
-0.11557
 20
0.904373
 11
-0.135712
 21
0.936127
  0
LINE
  8
0
 10
-0.135712
 20
0.936127
 11
-0.147339
 21
0.971878
  0
LINE
  8
0
 10
-0.147339
 20
0.971878
 11
-0.149704
 21
1.00941
  0
LINE
  8
0
 10
-0.149704
 20
1.00941
 11
-0.142654
 21
1.04634
  0
LINE
  8
0
 10
-0.142654
 20
1.04634
 11
-0.126648
 21
1.08037
  0
LINE
  8
0
 10
-0.126648
 20
1.08037
 11
-0.102676
 21
1.10934
  0
LINE
  8
0
 10
-0.102676
 20
1.10934
 11
-0.0722504
 21
1.13144
  0
LINE
  8
0
 10
-0.0722504
 20
1.13144
 11
-0.0372925
 21
1.14528
  0
LINE
  8
0
 10
-0.0372925
 20
1.14528
 11
0
 21
1.14999
  0
LINE
  8
0
 10
0
 20
1.14999
 11
0.0372925
 21
1.14528
  0
LINE
  8
0
 10
0.0372925
 20
1.14528
 11
0.0722504
 21
1.13144
  0
LINE
  8
0
 10
0.0722504
 20
1.13144
 11
0.102676
 21
1.10934
  0
LINE
  8
0
 10
0.102676
 20
1.10934
 11
0.126648
 21
1.08037
  0
LINE
  8
0
 10
0.126648
 20
1.08037
 11
0.142654
 21
1.04634
  0
LINE
  8
0
 10
0.142654
 20
1.04634
 11
0.149704
 21
1.00941
  0
LINE
  8
0
 10
0.149704
 20
1.00941
 11
0.147339
 21
0.971878
  0
LINE
  8
0
 10
0.147339
 20
0.971878
 11
0.135712
 21
0.936127
  0
LINE
  8
0
 10
0.135712
 20
0.936127
 11
0.11557
 21
0.904373
  0
LINE
  8
0
 10
0.11557
 20
0.904373
 11
0.0881653
 21
0.878647
  0
LINE
  8
0
 10
0.0881653
 20
0.878647
 11
0.0552063
 21
0.860519
  0
LINE
  8
0
 10
0.0552063
 20
0.860519
 11
0.0187988
 21
0.851181
  0
LINE
  8
0
 10
-0.581192
 20
0.851181
 11
-0.61879
 21
0.851181
  0
LINE
  8
0
 10
-0.61879
 20
0.851181
 11
-0.655212
 21
0.860519
  0
LINE
  8
0
 10
-0.655212
 20
0.860519
 11
-0.688156
 21
0.878647
  0
LINE
  8
0
 10
-0.688156
 20
0.878647
 11
-0.715576
 21
0.904373
  0
LINE
  8
0
 10
-0.715576
 20
0.904373
 11
-0.735718
 21
0.936127
  0
LINE
  8
0
 10
-0.735718
 20
0.936127
 11
-0.74733
 21
0.971878
  0
LINE
  8
0
 10
-0.74733
 20
0.971878
 11
-0.749695
 21
1.00941
  0
LINE
  8
0
 10
-0.749695
 20
1.00941
 11
-0.742645
 21
1.04634
  0
LINE
  8
0
 10
-0.742645
 20
1.04634
 11
-0.726639
 21
1.08037
  0
LINE
  8
0
 10
-0.726639
 20
1.08037
 11
-0.702667
 21
1.10934
  0
LINE
  8
0
 10
-0.702667
 20
1.10934
 11
-0.672256
 21
1.13144
  0
LINE
  8
0
 10
-0.672256
 20
1.13144
 11
-0.637299
 21
1.14528
  0
LINE
  8
0
 10
-0.637299
 20
1.14528
 11
-0.599991
 21
1.14999
  0
LINE
  8
0
 10
-0.599991
 20
1.14999
 11
-0.562683
 21
1.14528
  0
LINE
  8
0
 10
-0.562683
 20
1.14528
 11
-0.527725
 21
1.13144
  0
LINE
  8
0
 10
-0.527725
 20
1.13144
 11
-0.497314
 21
1.10934
  0
LINE
  8
0
 10
-0.497314
 20
1.10934
 11
-0.473343
 21
1.08037
  0
LINE
  8
0
 10
-0.473343
 20
1.08037
 11
-0.457336
 21
1.04634
  0
LINE
  8
0
 10
-0.457336
 20
1.04634
 11
-0.450287
 21
1.00941
  0
LINE
  8
0
 10
-0.450287
 20
1.00941
 11
-0.452652
 21
0.971878
  0
LINE
  8
0
 10
-0.452652
 20
0.971878
 11
-0.464264
 21
0.936127
  0
LINE
  8
0
 10
-0.464264
 20
0.936127
 11
-0.484421
 21
0.904373
  0
LINE
  8
0
 10
-0.484421
 20
0.904373
 11
-0.511826
 21
0.878647
  0
LINE
  8
0
 10
-0.511826
 20
0.878647
 11
-0.544769
 21
0.860519
  0
LINE
  8
0
 10
-0.544769
 20
0.860519
 11
-0.581192
 21
0.851181
  0
LINE
  8
0
 10
0.61879
 20
0.851181
 11
0.581192
 21
0.851181
  0
LINE
  8
0
 10
0.581192
 20
0.851181
 11
0.544769
 21
0.860519
  0
LINE
  8
0
 10
0.544769
 20
0.860519
 11
0.511826
 21
0.878647
  0
LINE
  8
0
 10
0.511826
 20
0.878647
 11
0.484421
 21
0.904373
  0
LINE
  8
0
 10
0.484421
 20
0.904373
 11
0.464264
 21
0.936127
  0
LINE
  8
0
 10
0.464264
 20
0.936127
 11
0.452652
 21
0.971878
  0
LINE
  8
0
 10
0.452652
 20
0.971878
 11
0.450287
 21
1.00941
  0
LINE
  8
0
 10
0.450287
 20
1.00941
 11
0.457336
 21
1.04634
  0
LINE
  8
0
 10
0.457336
 20
1.04634
 11
0.473343
 21
1.08037
  0
LINE
  8
0
 10
0.473343
 20
1.08037
 11
0.497314
 21
1.10934
  0
LINE
  8
0
 10
0.497314
 20
1.10934
 11
0.527725
 21
1.13144
  0
LINE
  8
0
 10
0.527725
 20
1.13144
 11
0.562683
 21
1.14528
  0
LINE
  8
0
 10
0.562683
 20
1.14528
 11
0.599991
 21
1.14999
  0
LINE
  8
0
 10
0.599991
 20
1.14999
 11
0.637299
 21
1.14528
  0
LINE
  8
0
 10
0.637299
 20
1.14528
 11
0.672256
 21
1.13144
  0
LINE
  8
0
 10
0.672256
 20
1.13144
 11
0.702667
 21
1.10934
  0
LINE
  8
0
 10
0.702667
 20
1.10934
 11
0.726639
 21
1.08037
  0
LINE
  8
0
 10
0.726639
 20
1.08037
 11
0.742645
 21
1.04634
  0
LINE
  8
0
 10
0.742645
 20
1.04634
 11
0.749695
 21
1.00941
  0
LINE
  8
0
 10
0.749695
 20
1.00941
 11
0.74733
 21
0.971878
  0
LINE
  8
0
 10
0.74733
 20
0.971878
 11
0.735718
 21
0.936127
  0
LINE
  8
0
 10
0.735718
 20
0.936127
 11
0.715576
 21
0.904373
  0
LINE
  8
0
 10
0.715576
 20
0.904373
 11
0.688156
 21
0.878647
  0
LINE
  8
0
 10
0.688156
 20
0.878647
 11
0.655212
 21
0.860519
  0
LINE
  8
0
 10
0.655212
 20
0.860519
 11
0.61879
 21
0.851181
  0
LINE
  8
0
 10
0.0187988
 20
-0.148804
 11
-0.0187988
 21
-0.148804
  0
LINE
  8
0
 10
-0.0187988
 20
-0.148804
 11
-0.0552063
 21
-0.139465
  0
LINE
  8
0
 10
-0.0552063
 20
-0.139465
 11
-0.0881653
 21
-0.121338
  0
LINE
  8
0
 10
-0.0881653
 20
-0.121338
 11
-0.11557
 21
-0.0956116
  0
LINE
  8
0
 10
-0.11557
 20
-0.0956116
 11
-0.135712
 21
-0.063858
  0
LINE
  8
0
 10
-0.135712
 20
-0.063858
 11
-0.147339
 21
-0.0281067
  0
LINE
  8
0
 10
-0.147339
 20
-0.0281067
 11
-0.149704
 21
0.00941467
  0
LINE
  8
0
 10
-0.149704
 20
0.00941467
 11
-0.142654
 21
0.0463409
  0
LINE
  8
0
 10
-0.142654
 20
0.0463409
 11
-0.126648
 21
0.080368
  0
LINE
  8
0
 10
-0.126648
 20
0.080368
 11
-0.102676
 21
0.109344
  0
LINE
  8
0
 10
-0.102676
 20
0.109344
 11
-0.0722504
 21
0.131439
  0
LINE
  8
0
 10
-0.0722504
 20
0.131439
 11
-0.0372925
 21
0.145279
  0
LINE
  8
0
 10
-0.0372925
 20
0.145279
 11
0
 21
0.149994
  0
LINE
  8
0
 10
0
 20
0.149994
 11
0.0372925
 21
0.145279
  0
LINE
  8
0
 10
0.0372925
 20
0.145279
 11
0.0722504
 21
0.131439
  0
LINE
  8
0
 10
0.0722504
 20
0.131439
 11
0.102676
 21
0.109344
  0
LINE
  8
0
 10
0.102676
 20
0.109344
 11
0.126648
 21
0.080368
  0
LINE
  8
0
 10
0.126648
 20
0.080368
 11
0.142654
 21
0.0463409
  0
LINE
  8
0
 10
0.142654
 20
0.0463409
 11
0.149704
 21
0.00941467
  0
LINE
  8
0
 10
0.149704
 20
0.00941467
 11
0.147339
 21
-0.0281067
  0
LINE
  8
0
 10
0.147339
 20
-0.0281067
 11
0.135712
 21
-0.063858
  0
LINE
  8
0
 10
0.135712
 20
-0.063858
 11
0.11557
 21
-0.0956116
  0
LINE
  8
0
 10
0.11557
 20
-0.0956116
 11
0.0881653
 21
-0.121338
  0
LINE
  8
0
 10
0.0881653
 20
-0.121338
 11
0.0552063
 21
-0.139465
  0
LINE
  8
0
 10
0.0552063
 20
-0.139465
 11
0.0187988
 21
-0.148804
  0
ENDSEC
  0
SECTION
  2
OBJECTS
  0
DICTIONARY
  0
ENDSEC
  0
EOF
