  0
SECTION
  2
BLOCKS
  0
ENDSEC
  0
SECTION
  2
ENTITIES
  0
LINE
  8
0
 10
297
 20
150
 11
0
 21
150
  0
LINE
  8
0
 10
0
 20
150
 11
0
 21
0
  0
LINE
  8
0
 10
0
 20
0
 11
297
 21
0
  0
LINE
  8
0
 10
297
 20
0
 11
297
 21
150
  0
LINE
  8
0
 10
18.0628
 20
140.001
 11
17.9372
 21
140.001
  0
LINE
  8
0
 10
17.9372
 20
140.001
 11
17.812
 21
140.012
  0
LINE
  8
0
 10
17.812
 20
140.012
 11
17.6881
 21
140.033
  0
LINE
  8
0
 10
17.6881
 20
140.033
 11
17.5665
 21
140.064
  0
LINE
  8
0
 10
17.5665
 20
140.064
 11
17.4478
 21
140.105
  0
LINE
  8
0
 10
17.4478
 20
140.105
 11
17.333
 21
140.156
  0
LINE
  8
0
 10
17.333
 20
140.156
 11
17.2229
 21
140.217
  0
LINE
  8
0
 10
17.2229
 20
140.217
 11
17.1183
 21
140.286
  0
LINE
  8
0
 10
17.1183
 20
140.286
 11
17.0199
 21
140.365
  0
LINE
  8
0
 10
17.0199
 20
140.365
 11
16.9283
 21
140.451
  0
LINE
  8
0
 10
16.9283
 20
140.451
 11
16.8442
 21
140.544
  0
LINE
  8
0
 10
16.8442
 20
140.544
 11
16.7683
 21
140.644
  0
LINE
  8
0
 10
16.7683
 20
140.644
 11
16.701
 21
140.75
  0
LINE
  8
0
 10
16.701
 20
140.75
 11
16.6427
 21
140.861
  0
LINE
  8
0
 10
16.6427
 20
140.861
 11
16.5941
 21
140.977
  0
LINE
  8
0
 10
16.5941
 20
140.977
 11
16.5553
 21
141.097
  0
LINE
  8
0
 10
16.5553
 20
141.097
 11
16.5266
 21
141.219
  0
LINE
  8
0
 10
16.5266
 20
141.219
 11
16.5082
 21
141.343
  0
LINE
  8
0
 10
16.5082
 20
141.343
 11
16.5003
 21
141.469
  0
LINE
  8
0
 10
16.5003
 20
141.469
 11
16.5029
 21
141.594
  0
LINE
  8
0
 10
16.5029
 20
141.594
 11
16.5161
 21
141.719
  0
LINE
  8
0
 10
16.5161
 20
141.719
 11
16.5396
 21
141.843
  0
LINE
  8
0
 10
16.5396
 20
141.843
 11
16.5734
 21
141.964
  0
LINE
  8
0
 10
16.5734
 20
141.964
 11
16.6172
 21
142.081
  0
LINE
  8
0
 10
16.6172
 20
142.081
 11
16.6707
 21
142.195
  0
LINE
  8
0
 10
16.6707
 20
142.195
 11
16.7335
 21
142.304
  0
LINE
  8
0
 10
16.7335
 20
142.304
 11
16.8052
 21
142.407
  0
LINE
  8
0
 10
16.8052
 20
142.407
 11
16.8853
 21
142.504
  0
LINE
  8
0
 10
16.8853
 20
142.504
 11
16.9732
 21
142.593
  0
LINE
  8
0
 10
16.9732
 20
142.593
 11
17.0683
 21
142.676
  0
LINE
  8
0
 10
17.0683
 20
142.676
 11
17.1699
 21
142.749
  0
LINE
  8
0
 10
17.1699
 20
142.749
 11
17.2774
 21
142.814
  0
LINE
  8
0
 10
17.2774
 20
142.814
 11
17.3899
 21
142.87
  0
LINE
  8
0
 10
17.3899
 20
142.87
 11
17.5067
 21
142.917
  0
LINE
  8
0
 10
17.5067
 20
142.917
 11
17.627
 21
142.953
  0
LINE
  8
0
 10
17.627
 20
142.953
 11
17.7498
 21
142.979
  0
LINE
  8
0
 10
17.7498
 20
142.979
 11
17.8745
 21
142.995
  0
LINE
  8
0
 10
17.8745
 20
142.995
 11
18
 21
143
  0
LINE
  8
0
 10
18
 20
143
 11
18.1255
 21
142.995
  0
LINE
  8
0
 10
18.1255
 20
142.995
 11
18.2502
 21
142.979
  0
LINE
  8
0
 10
18.2502
 20
142.979
 11
18.373
 21
142.953
  0
LINE
  8
0
 10
18.373
 20
142.953
 11
18.4933
 21
142.917
  0
LINE
  8
0
 10
18.4933
 20
142.917
 11
18.6101
 21
142.87
  0
LINE
  8
0
 10
18.6101
 20
142.87
 11
18.7226
 21
142.814
  0
LINE
  8
0
 10
18.7226
 20
142.814
 11
18.8301
 21
142.749
  0
LINE
  8
0
 10
18.8301
 20
142.749
 11
18.9317
 21
142.676
  0
LINE
  8
0
 10
18.9317
 20
142.676
 11
19.0268
 21
142.593
  0
LINE
  8
0
 10
19.0268
 20
142.593
 11
19.1147
 21
142.504
  0
LINE
  8
0
 10
19.1147
 20
142.504
 11
19.1948
 21
142.407
  0
LINE
  8
0
 10
19.1948
 20
142.407
 11
19.2665
 21
142.304
  0
LINE
  8
0
 10
19.2665
 20
142.304
 11
19.3293
 21
142.195
  0
LINE
  8
0
 10
19.3293
 20
142.195
 11
19.3828
 21
142.081
  0
LINE
  8
0
 10
19.3828
 20
142.081
 11
19.4266
 21
141.964
  0
LINE
  8
0
 10
19.4266
 20
141.964
 11
19.4604
 21
141.843
  0
LINE
  8
0
 10
19.4604
 20
141.843
 11
19.4839
 21
141.719
  0
LINE
  8
0
 10
19.4839
 20
141.719
 11
19.497
 21
141.594
  0
LINE
  8
0
 10
19.497
 20
141.594
 11
19.4997
 21
141.469
  0
LINE
  8
0
 10
19.4997
 20
141.469
 11
19.4918
 21
141.343
  0
LINE
  8
0
 10
19.4918
 20
141.343
 11
19.4734
 21
141.219
  0
LINE
  8
0
 10
19.4734
 20
141.219
 11
19.4447
 21
141.097
  0
LINE
  8
0
 10
19.4447
 20
141.097
 11
19.4059
 21
140.977
  0
LINE
  8
0
 10
19.4059
 20
140.977
 11
19.3572
 21
140.861
  0
LINE
  8
0
 10
19.3572
 20
140.861
 11
19.299
 21
140.75
  0
LINE
  8
0
 10
19.299
 20
140.75
 11
19.2317
 21
140.644
  0
LINE
  8
0
 10
19.2317
 20
140.644
 11
19.1558
 21
140.544
  0
LINE
  8
0
 10
19.1558
 20
140.544
 11
19.0717
 21
140.451
  0
LINE
  8
0
 10
19.0717
 20
140.451
 11
18.9801
 21
140.365
  0
LINE
  8
0
 10
18.9801
 20
140.365
 11
18.8817
 21
140.286
  0
LINE
  8
0
 10
18.8817
 20
140.286
 11
18.777
 21
140.217
  0
LINE
  8
0
 10
18.777
 20
140.217
 11
18.6669
 21
140.156
  0
LINE
  8
0
 10
18.6669
 20
140.156
 11
18.5522
 21
140.105
  0
LINE
  8
0
 10
18.5522
 20
140.105
 11
18.4335
 21
140.064
  0
LINE
  8
0
 10
18.4335
 20
140.064
 11
18.3119
 21
140.033
  0
LINE
  8
0
 10
18.3119
 20
140.033
 11
18.188
 21
140.012
  0
LINE
  8
0
 10
18.188
 20
140.012
 11
18.0628
 21
140.001
  0
LINE
  8
0
 10
148.063
 20
140.001
 11
147.937
 21
140.001
  0
LINE
  8
0
 10
147.937
 20
140.001
 11
147.812
 21
140.012
  0
LINE
  8
0
 10
147.812
 20
140.012
 11
147.688
 21
140.033
  0
LINE
  8
0
 10
147.688
 20
140.033
 11
147.566
 21
140.064
  0
LINE
  8
0
 10
147.566
 20
140.064
 11
147.448
 21
140.105
  0
LINE
  8
0
 10
147.448
 20
140.105
 11
147.333
 21
140.156
  0
LINE
  8
0
 10
147.333
 20
140.156
 11
147.223
 21
140.217
  0
LINE
  8
0
 10
147.223
 20
140.217
 11
147.118
 21
140.286
  0
LINE
  8
0
 10
147.118
 20
140.286
 11
147.02
 21
140.365
  0
LINE
  8
0
 10
147.02
 20
140.365
 11
146.928
 21
140.451
  0
LINE
  8
0
 10
146.928
 20
140.451
 11
146.844
 21
140.544
  0
LINE
  8
0
 10
146.844
 20
140.544
 11
146.768
 21
140.644
  0
LINE
  8
0
 10
146.768
 20
140.644
 11
146.701
 21
140.75
  0
LINE
  8
0
 10
146.701
 20
140.75
 11
146.643
 21
140.861
  0
LINE
  8
0
 10
146.643
 20
140.861
 11
146.594
 21
140.977
  0
LINE
  8
0
 10
146.594
 20
140.977
 11
146.555
 21
141.097
  0
LINE
  8
0
 10
146.555
 20
141.097
 11
146.527
 21
141.219
  0
LINE
  8
0
 10
146.527
 20
141.219
 11
146.508
 21
141.343
  0
LINE
  8
0
 10
146.508
 20
141.343
 11
146.5
 21
141.469
  0
LINE
  8
0
 10
146.5
 20
141.469
 11
146.503
 21
141.594
  0
LINE
  8
0
 10
146.503
 20
141.594
 11
146.516
 21
141.719
  0
LINE
  8
0
 10
146.516
 20
141.719
 11
146.54
 21
141.843
  0
LINE
  8
0
 10
146.54
 20
141.843
 11
146.573
 21
141.964
  0
LINE
  8
0
 10
146.573
 20
141.964
 11
146.617
 21
142.081
  0
LINE
  8
0
 10
146.617
 20
142.081
 11
146.671
 21
142.195
  0
LINE
  8
0
 10
146.671
 20
142.195
 11
146.734
 21
142.304
  0
LINE
  8
0
 10
146.734
 20
142.304
 11
146.805
 21
142.407
  0
LINE
  8
0
 10
146.805
 20
142.407
 11
146.885
 21
142.504
  0
LINE
  8
0
 10
146.885
 20
142.504
 11
146.973
 21
142.593
  0
LINE
  8
0
 10
146.973
 20
142.593
 11
147.068
 21
142.676
  0
LINE
  8
0
 10
147.068
 20
142.676
 11
147.17
 21
142.749
  0
LINE
  8
0
 10
147.17
 20
142.749
 11
147.277
 21
142.814
  0
LINE
  8
0
 10
147.277
 20
142.814
 11
147.39
 21
142.87
  0
LINE
  8
0
 10
147.39
 20
142.87
 11
147.507
 21
142.917
  0
LINE
  8
0
 10
147.507
 20
142.917
 11
147.627
 21
142.953
  0
LINE
  8
0
 10
147.627
 20
142.953
 11
147.75
 21
142.979
  0
LINE
  8
0
 10
147.75
 20
142.979
 11
147.874
 21
142.995
  0
LINE
  8
0
 10
147.874
 20
142.995
 11
148
 21
143
  0
LINE
  8
0
 10
148
 20
143
 11
148.126
 21
142.995
  0
LINE
  8
0
 10
148.126
 20
142.995
 11
148.25
 21
142.979
  0
LINE
  8
0
 10
148.25
 20
142.979
 11
148.373
 21
142.953
  0
LINE
  8
0
 10
148.373
 20
142.953
 11
148.493
 21
142.917
  0
LINE
  8
0
 10
148.493
 20
142.917
 11
148.61
 21
142.87
  0
LINE
  8
0
 10
148.61
 20
142.87
 11
148.723
 21
142.814
  0
LINE
  8
0
 10
148.723
 20
142.814
 11
148.83
 21
142.749
  0
LINE
  8
0
 10
148.83
 20
142.749
 11
148.932
 21
142.676
  0
LINE
  8
0
 10
148.932
 20
142.676
 11
149.027
 21
142.593
  0
LINE
  8
0
 10
149.027
 20
142.593
 11
149.115
 21
142.504
  0
LINE
  8
0
 10
149.115
 20
142.504
 11
149.195
 21
142.407
  0
LINE
  8
0
 10
149.195
 20
142.407
 11
149.266
 21
142.304
  0
LINE
  8
0
 10
149.266
 20
142.304
 11
149.329
 21
142.195
  0
LINE
  8
0
 10
149.329
 20
142.195
 11
149.383
 21
142.081
  0
LINE
  8
0
 10
149.383
 20
142.081
 11
149.427
 21
141.964
  0
LINE
  8
0
 10
149.427
 20
141.964
 11
149.46
 21
141.843
  0
LINE
  8
0
 10
149.46
 20
141.843
 11
149.484
 21
141.719
  0
LINE
  8
0
 10
149.484
 20
141.719
 11
149.497
 21
141.594
  0
LINE
  8
0
 10
149.497
 20
141.594
 11
149.5
 21
141.469
  0
LINE
  8
0
 10
149.5
 20
141.469
 11
149.492
 21
141.343
  0
LINE
  8
0
 10
149.492
 20
141.343
 11
149.473
 21
141.219
  0
LINE
  8
0
 10
149.473
 20
141.219
 11
149.445
 21
141.097
  0
LINE
  8
0
 10
149.445
 20
141.097
 11
149.406
 21
140.977
  0
LINE
  8
0
 10
149.406
 20
140.977
 11
149.357
 21
140.861
  0
LINE
  8
0
 10
149.357
 20
140.861
 11
149.299
 21
140.75
  0
LINE
  8
0
 10
149.299
 20
140.75
 11
149.232
 21
140.644
  0
LINE
  8
0
 10
149.232
 20
140.644
 11
149.156
 21
140.544
  0
LINE
  8
0
 10
149.156
 20
140.544
 11
149.072
 21
140.451
  0
LINE
  8
0
 10
149.072
 20
140.451
 11
148.98
 21
140.365
  0
LINE
  8
0
 10
148.98
 20
140.365
 11
148.882
 21
140.286
  0
LINE
  8
0
 10
148.882
 20
140.286
 11
148.777
 21
140.217
  0
LINE
  8
0
 10
148.777
 20
140.217
 11
148.667
 21
140.156
  0
LINE
  8
0
 10
148.667
 20
140.156
 11
148.552
 21
140.105
  0
LINE
  8
0
 10
148.552
 20
140.105
 11
148.434
 21
140.064
  0
LINE
  8
0
 10
148.434
 20
140.064
 11
148.312
 21
140.033
  0
LINE
  8
0
 10
148.312
 20
140.033
 11
148.188
 21
140.012
  0
LINE
  8
0
 10
148.188
 20
140.012
 11
148.063
 21
140.001
  0
LINE
  8
0
 10
279.063
 20
140.001
 11
278.937
 21
140.001
  0
LINE
  8
0
 10
278.937
 20
140.001
 11
278.812
 21
140.012
  0
LINE
  8
0
 10
278.812
 20
140.012
 11
278.688
 21
140.033
  0
LINE
  8
0
 10
278.688
 20
140.033
 11
278.566
 21
140.064
  0
LINE
  8
0
 10
278.566
 20
140.064
 11
278.448
 21
140.105
  0
LINE
  8
0
 10
278.448
 20
140.105
 11
278.333
 21
140.156
  0
LINE
  8
0
 10
278.333
 20
140.156
 11
278.223
 21
140.217
  0
LINE
  8
0
 10
278.223
 20
140.217
 11
278.118
 21
140.286
  0
LINE
  8
0
 10
278.118
 20
140.286
 11
278.02
 21
140.365
  0
LINE
  8
0
 10
278.02
 20
140.365
 11
277.928
 21
140.451
  0
LINE
  8
0
 10
277.928
 20
140.451
 11
277.844
 21
140.544
  0
LINE
  8
0
 10
277.844
 20
140.544
 11
277.768
 21
140.644
  0
LINE
  8
0
 10
277.768
 20
140.644
 11
277.701
 21
140.75
  0
LINE
  8
0
 10
277.701
 20
140.75
 11
277.643
 21
140.861
  0
LINE
  8
0
 10
277.643
 20
140.861
 11
277.594
 21
140.977
  0
LINE
  8
0
 10
277.594
 20
140.977
 11
277.555
 21
141.097
  0
LINE
  8
0
 10
277.555
 20
141.097
 11
277.527
 21
141.219
  0
LINE
  8
0
 10
277.527
 20
141.219
 11
277.508
 21
141.343
  0
LINE
  8
0
 10
277.508
 20
141.343
 11
277.5
 21
141.469
  0
LINE
  8
0
 10
277.5
 20
141.469
 11
277.503
 21
141.594
  0
LINE
  8
0
 10
277.503
 20
141.594
 11
277.516
 21
141.719
  0
LINE
  8
0
 10
277.516
 20
141.719
 11
277.54
 21
141.843
  0
LINE
  8
0
 10
277.54
 20
141.843
 11
277.573
 21
141.964
  0
LINE
  8
0
 10
277.573
 20
141.964
 11
277.617
 21
142.081
  0
LINE
  8
0
 10
277.617
 20
142.081
 11
277.671
 21
142.195
  0
LINE
  8
0
 10
277.671
 20
142.195
 11
277.734
 21
142.304
  0
LINE
  8
0
 10
277.734
 20
142.304
 11
277.805
 21
142.407
  0
LINE
  8
0
 10
277.805
 20
142.407
 11
277.885
 21
142.504
  0
LINE
  8
0
 10
277.885
 20
142.504
 11
277.973
 21
142.593
  0
LINE
  8
0
 10
277.973
 20
142.593
 11
278.068
 21
142.676
  0
LINE
  8
0
 10
278.068
 20
142.676
 11
278.17
 21
142.749
  0
LINE
  8
0
 10
278.17
 20
142.749
 11
278.277
 21
142.814
  0
LINE
  8
0
 10
278.277
 20
142.814
 11
278.39
 21
142.87
  0
LINE
  8
0
 10
278.39
 20
142.87
 11
278.507
 21
142.917
  0
LINE
  8
0
 10
278.507
 20
142.917
 11
278.627
 21
142.953
  0
LINE
  8
0
 10
278.627
 20
142.953
 11
278.75
 21
142.979
  0
LINE
  8
0
 10
278.75
 20
142.979
 11
278.874
 21
142.995
  0
LINE
  8
0
 10
278.874
 20
142.995
 11
279
 21
143
  0
LINE
  8
0
 10
279
 20
143
 11
279.126
 21
142.995
  0
LINE
  8
0
 10
279.126
 20
142.995
 11
279.25
 21
142.979
  0
LINE
  8
0
 10
279.25
 20
142.979
 11
279.373
 21
142.953
  0
LINE
  8
0
 10
279.373
 20
142.953
 11
279.493
 21
142.917
  0
LINE
  8
0
 10
279.493
 20
142.917
 11
279.61
 21
142.87
  0
LINE
  8
0
 10
279.61
 20
142.87
 11
279.723
 21
142.814
  0
LINE
  8
0
 10
279.723
 20
142.814
 11
279.83
 21
142.749
  0
LINE
  8
0
 10
279.83
 20
142.749
 11
279.932
 21
142.676
  0
LINE
  8
0
 10
279.932
 20
142.676
 11
280.027
 21
142.593
  0
LINE
  8
0
 10
280.027
 20
142.593
 11
280.115
 21
142.504
  0
LINE
  8
0
 10
280.115
 20
142.504
 11
280.195
 21
142.407
  0
LINE
  8
0
 10
280.195
 20
142.407
 11
280.266
 21
142.304
  0
LINE
  8
0
 10
280.266
 20
142.304
 11
280.329
 21
142.195
  0
LINE
  8
0
 10
280.329
 20
142.195
 11
280.383
 21
142.081
  0
LINE
  8
0
 10
280.383
 20
142.081
 11
280.427
 21
141.964
  0
LINE
  8
0
 10
280.427
 20
141.964
 11
280.46
 21
141.843
  0
LINE
  8
0
 10
280.46
 20
141.843
 11
280.484
 21
141.719
  0
LINE
  8
0
 10
280.484
 20
141.719
 11
280.497
 21
141.594
  0
LINE
  8
0
 10
280.497
 20
141.594
 11
280.5
 21
141.469
  0
LINE
  8
0
 10
280.5
 20
141.469
 11
280.492
 21
141.343
  0
LINE
  8
0
 10
280.492
 20
141.343
 11
280.473
 21
141.219
  0
LINE
  8
0
 10
280.473
 20
141.219
 11
280.445
 21
141.097
  0
LINE
  8
0
 10
280.445
 20
141.097
 11
280.406
 21
140.977
  0
LINE
  8
0
 10
280.406
 20
140.977
 11
280.357
 21
140.861
  0
LINE
  8
0
 10
280.357
 20
140.861
 11
280.299
 21
140.75
  0
LINE
  8
0
 10
280.299
 20
140.75
 11
280.232
 21
140.644
  0
LINE
  8
0
 10
280.232
 20
140.644
 11
280.156
 21
140.544
  0
LINE
  8
0
 10
280.156
 20
140.544
 11
280.072
 21
140.451
  0
LINE
  8
0
 10
280.072
 20
140.451
 11
279.98
 21
140.365
  0
LINE
  8
0
 10
279.98
 20
140.365
 11
279.882
 21
140.286
  0
LINE
  8
0
 10
279.882
 20
140.286
 11
279.777
 21
140.217
  0
LINE
  8
0
 10
279.777
 20
140.217
 11
279.667
 21
140.156
  0
LINE
  8
0
 10
279.667
 20
140.156
 11
279.552
 21
140.105
  0
LINE
  8
0
 10
279.552
 20
140.105
 11
279.434
 21
140.064
  0
LINE
  8
0
 10
279.434
 20
140.064
 11
279.312
 21
140.033
  0
LINE
  8
0
 10
279.312
 20
140.033
 11
279.188
 21
140.012
  0
LINE
  8
0
 10
279.188
 20
140.012
 11
279.063
 21
140.001
  0
LINE
  8
0
 10
8.06281
 20
73.5013
 11
7.93718
 21
73.5013
  0
LINE
  8
0
 10
7.93718
 20
73.5013
 11
7.812
 21
73.5118
  0
LINE
  8
0
 10
7.812
 20
73.5118
 11
7.68813
 21
73.5328
  0
LINE
  8
0
 10
7.68813
 20
73.5328
 11
7.56645
 21
73.564
  0
LINE
  8
0
 10
7.56645
 20
73.564
 11
7.4478
 21
73.6053
  0
LINE
  8
0
 10
7.4478
 20
73.6053
 11
7.33304
 21
73.6564
  0
LINE
  8
0
 10
7.33304
 20
73.6564
 11
7.22295
 21
73.7169
  0
LINE
  8
0
 10
7.22295
 20
73.7169
 11
7.11832
 21
73.7865
  0
LINE
  8
0
 10
7.11832
 20
73.7865
 11
7.01987
 21
73.8645
  0
LINE
  8
0
 10
7.01987
 20
73.8645
 11
6.92828
 21
73.9505
  0
LINE
  8
0
 10
6.92828
 20
73.9505
 11
6.84422
 21
74.0439
  0
LINE
  8
0
 10
6.84422
 20
74.0439
 11
6.76826
 21
74.1439
  0
LINE
  8
0
 10
6.76826
 20
74.1439
 11
6.70096
 21
74.25
  0
LINE
  8
0
 10
6.70096
 20
74.25
 11
6.64275
 21
74.3613
  0
LINE
  8
0
 10
6.64275
 20
74.3613
 11
6.59407
 21
74.4771
  0
LINE
  8
0
 10
6.59407
 20
74.4771
 11
6.55525
 21
74.5966
  0
LINE
  8
0
 10
6.55525
 20
74.5966
 11
6.52657
 21
74.7189
  0
LINE
  8
0
 10
6.52657
 20
74.7189
 11
6.50821
 21
74.8432
  0
LINE
  8
0
 10
6.50821
 20
74.8432
 11
6.50032
 21
74.9686
  0
LINE
  8
0
 10
6.50032
 20
74.9686
 11
6.50294
 21
75.0942
  0
LINE
  8
0
 10
6.50294
 20
75.0942
 11
6.51608
 21
75.2191
  0
LINE
  8
0
 10
6.51608
 20
75.2191
 11
6.53963
 21
75.3425
  0
LINE
  8
0
 10
6.53963
 20
75.3425
 11
6.57341
 21
75.4635
  0
LINE
  8
0
 10
6.57341
 20
75.4635
 11
6.6172
 21
75.5813
  0
LINE
  8
0
 10
6.6172
 20
75.5813
 11
6.67068
 21
75.6949
  0
LINE
  8
0
 10
6.67068
 20
75.6949
 11
6.73351
 21
75.8037
  0
LINE
  8
0
 10
6.73351
 20
75.8037
 11
6.80519
 21
75.9069
  0
LINE
  8
0
 10
6.80519
 20
75.9069
 11
6.88527
 21
76.0037
  0
LINE
  8
0
 10
6.88527
 20
76.0037
 11
6.97318
 21
76.0934
  0
LINE
  8
0
 10
6.97318
 20
76.0934
 11
7.06827
 21
76.1755
  0
LINE
  8
0
 10
7.06827
 20
76.1755
 11
7.16991
 21
76.2494
  0
LINE
  8
0
 10
7.16991
 20
76.2494
 11
7.27736
 21
76.3145
  0
LINE
  8
0
 10
7.27736
 20
76.3145
 11
7.38989
 21
76.3703
  0
LINE
  8
0
 10
7.38989
 20
76.3703
 11
7.5067
 21
76.4165
  0
LINE
  8
0
 10
7.5067
 20
76.4165
 11
7.62695
 21
76.4529
  0
LINE
  8
0
 10
7.62695
 20
76.4529
 11
7.74983
 21
76.479
  0
LINE
  8
0
 10
7.74983
 20
76.479
 11
7.87448
 21
76.4947
  0
LINE
  8
0
 10
7.87448
 20
76.4947
 11
8
 21
76.5
  0
LINE
  8
0
 10
8
 20
76.5
 11
8.1255
 21
76.4947
  0
LINE
  8
0
 10
8.1255
 20
76.4947
 11
8.25015
 21
76.479
  0
LINE
  8
0
 10
8.25015
 20
76.479
 11
8.37303
 21
76.4529
  0
LINE
  8
0
 10
8.37303
 20
76.4529
 11
8.49329
 21
76.4165
  0
LINE
  8
0
 10
8.49329
 20
76.4165
 11
8.61009
 21
76.3703
  0
LINE
  8
0
 10
8.61009
 20
76.3703
 11
8.72263
 21
76.3145
  0
LINE
  8
0
 10
8.72263
 20
76.3145
 11
8.83008
 21
76.2494
  0
LINE
  8
0
 10
8.83008
 20
76.2494
 11
8.93172
 21
76.1755
  0
LINE
  8
0
 10
8.93172
 20
76.1755
 11
9.02681
 21
76.0934
  0
LINE
  8
0
 10
9.02681
 20
76.0934
 11
9.11472
 21
76.0037
  0
LINE
  8
0
 10
9.11472
 20
76.0037
 11
9.19479
 21
75.9069
  0
LINE
  8
0
 10
9.19479
 20
75.9069
 11
9.26648
 21
75.8037
  0
LINE
  8
0
 10
9.26648
 20
75.8037
 11
9.3293
 21
75.6949
  0
LINE
  8
0
 10
9.3293
 20
75.6949
 11
9.38278
 21
75.5813
  0
LINE
  8
0
 10
9.38278
 20
75.5813
 11
9.42657
 21
75.4635
  0
LINE
  8
0
 10
9.42657
 20
75.4635
 11
9.46036
 21
75.3425
  0
LINE
  8
0
 10
9.46036
 20
75.3425
 11
9.4839
 21
75.2191
  0
LINE
  8
0
 10
9.4839
 20
75.2191
 11
9.49704
 21
75.0942
  0
LINE
  8
0
 10
9.49704
 20
75.0942
 11
9.49966
 21
74.9686
  0
LINE
  8
0
 10
9.49966
 20
74.9686
 11
9.49178
 21
74.8432
  0
LINE
  8
0
 10
9.49178
 20
74.8432
 11
9.47342
 21
74.7189
  0
LINE
  8
0
 10
9.47342
 20
74.7189
 11
9.44473
 21
74.5966
  0
LINE
  8
0
 10
9.44473
 20
74.5966
 11
9.40591
 21
74.4771
  0
LINE
  8
0
 10
9.40591
 20
74.4771
 11
9.35724
 21
74.3613
  0
LINE
  8
0
 10
9.35724
 20
74.3613
 11
9.29903
 21
74.25
  0
LINE
  8
0
 10
9.29903
 20
74.25
 11
9.23172
 21
74.1439
  0
LINE
  8
0
 10
9.23172
 20
74.1439
 11
9.15576
 21
74.0439
  0
LINE
  8
0
 10
9.15576
 20
74.0439
 11
9.0717
 21
73.9505
  0
LINE
  8
0
 10
9.0717
 20
73.9505
 11
8.98012
 21
73.8645
  0
LINE
  8
0
 10
8.98012
 20
73.8645
 11
8.88167
 21
73.7865
  0
LINE
  8
0
 10
8.88167
 20
73.7865
 11
8.77704
 21
73.7169
  0
LINE
  8
0
 10
8.77704
 20
73.7169
 11
8.66695
 21
73.6564
  0
LINE
  8
0
 10
8.66695
 20
73.6564
 11
8.55219
 21
73.6053
  0
LINE
  8
0
 10
8.55219
 20
73.6053
 11
8.43353
 21
73.564
  0
LINE
  8
0
 10
8.43353
 20
73.564
 11
8.31186
 21
73.5328
  0
LINE
  8
0
 10
8.31186
 20
73.5328
 11
8.18799
 21
73.5118
  0
LINE
  8
0
 10
8.18799
 20
73.5118
 11
8.06281
 21
73.5013
  0
LINE
  8
0
 10
289.063
 20
73.5013
 11
288.937
 21
73.5013
  0
LINE
  8
0
 10
288.937
 20
73.5013
 11
288.812
 21
73.5118
  0
LINE
  8
0
 10
288.812
 20
73.5118
 11
288.688
 21
73.5328
  0
LINE
  8
0
 10
288.688
 20
73.5328
 11
288.566
 21
73.564
  0
LINE
  8
0
 10
288.566
 20
73.564
 11
288.448
 21
73.6053
  0
LINE
  8
0
 10
288.448
 20
73.6053
 11
288.333
 21
73.6564
  0
LINE
  8
0
 10
288.333
 20
73.6564
 11
288.223
 21
73.7169
  0
LINE
  8
0
 10
288.223
 20
73.7169
 11
288.118
 21
73.7865
  0
LINE
  8
0
 10
288.118
 20
73.7865
 11
288.02
 21
73.8645
  0
LINE
  8
0
 10
288.02
 20
73.8645
 11
287.928
 21
73.9505
  0
LINE
  8
0
 10
287.928
 20
73.9505
 11
287.844
 21
74.0439
  0
LINE
  8
0
 10
287.844
 20
74.0439
 11
287.768
 21
74.1439
  0
LINE
  8
0
 10
287.768
 20
74.1439
 11
287.701
 21
74.25
  0
LINE
  8
0
 10
287.701
 20
74.25
 11
287.643
 21
74.3613
  0
LINE
  8
0
 10
287.643
 20
74.3613
 11
287.594
 21
74.4771
  0
LINE
  8
0
 10
287.594
 20
74.4771
 11
287.555
 21
74.5966
  0
LINE
  8
0
 10
287.555
 20
74.5966
 11
287.527
 21
74.7189
  0
LINE
  8
0
 10
287.527
 20
74.7189
 11
287.508
 21
74.8432
  0
LINE
  8
0
 10
287.508
 20
74.8432
 11
287.5
 21
74.9686
  0
LINE
  8
0
 10
287.5
 20
74.9686
 11
287.503
 21
75.0942
  0
LINE
  8
0
 10
287.503
 20
75.0942
 11
287.516
 21
75.2191
  0
LINE
  8
0
 10
287.516
 20
75.2191
 11
287.54
 21
75.3425
  0
LINE
  8
0
 10
287.54
 20
75.3425
 11
287.573
 21
75.4635
  0
LINE
  8
0
 10
287.573
 20
75.4635
 11
287.617
 21
75.5813
  0
LINE
  8
0
 10
287.617
 20
75.5813
 11
287.671
 21
75.6949
  0
LINE
  8
0
 10
287.671
 20
75.6949
 11
287.734
 21
75.8037
  0
LINE
  8
0
 10
287.734
 20
75.8037
 11
287.805
 21
75.9069
  0
LINE
  8
0
 10
287.805
 20
75.9069
 11
287.885
 21
76.0037
  0
LINE
  8
0
 10
287.885
 20
76.0037
 11
287.973
 21
76.0934
  0
LINE
  8
0
 10
287.973
 20
76.0934
 11
288.068
 21
76.1755
  0
LINE
  8
0
 10
288.068
 20
76.1755
 11
288.17
 21
76.2494
  0
LINE
  8
0
 10
288.17
 20
76.2494
 11
288.277
 21
76.3145
  0
LINE
  8
0
 10
288.277
 20
76.3145
 11
288.39
 21
76.3703
  0
LINE
  8
0
 10
288.39
 20
76.3703
 11
288.507
 21
76.4165
  0
LINE
  8
0
 10
288.507
 20
76.4165
 11
288.627
 21
76.4529
  0
LINE
  8
0
 10
288.627
 20
76.4529
 11
288.75
 21
76.479
  0
LINE
  8
0
 10
288.75
 20
76.479
 11
288.874
 21
76.4947
  0
LINE
  8
0
 10
288.874
 20
76.4947
 11
289
 21
76.5
  0
LINE
  8
0
 10
289
 20
76.5
 11
289.126
 21
76.4947
  0
LINE
  8
0
 10
289.126
 20
76.4947
 11
289.25
 21
76.479
  0
LINE
  8
0
 10
289.25
 20
76.479
 11
289.373
 21
76.4529
  0
LINE
  8
0
 10
289.373
 20
76.4529
 11
289.493
 21
76.4165
  0
LINE
  8
0
 10
289.493
 20
76.4165
 11
289.61
 21
76.3703
  0
LINE
  8
0
 10
289.61
 20
76.3703
 11
289.723
 21
76.3145
  0
LINE
  8
0
 10
289.723
 20
76.3145
 11
289.83
 21
76.2494
  0
LINE
  8
0
 10
289.83
 20
76.2494
 11
289.932
 21
76.1755
  0
LINE
  8
0
 10
289.932
 20
76.1755
 11
290.027
 21
76.0934
  0
LINE
  8
0
 10
290.027
 20
76.0934
 11
290.115
 21
76.0037
  0
LINE
  8
0
 10
290.115
 20
76.0037
 11
290.195
 21
75.9069
  0
LINE
  8
0
 10
290.195
 20
75.9069
 11
290.266
 21
75.8037
  0
LINE
  8
0
 10
290.266
 20
75.8037
 11
290.329
 21
75.6949
  0
LINE
  8
0
 10
290.329
 20
75.6949
 11
290.383
 21
75.5813
  0
LINE
  8
0
 10
290.383
 20
75.5813
 11
290.427
 21
75.4635
  0
LINE
  8
0
 10
290.427
 20
75.4635
 11
290.46
 21
75.3425
  0
LINE
  8
0
 10
290.46
 20
75.3425
 11
290.484
 21
75.2191
  0
LINE
  8
0
 10
290.484
 20
75.2191
 11
290.497
 21
75.0942
  0
LINE
  8
0
 10
290.497
 20
75.0942
 11
290.5
 21
74.9686
  0
LINE
  8
0
 10
290.5
 20
74.9686
 11
290.492
 21
74.8432
  0
LINE
  8
0
 10
290.492
 20
74.8432
 11
290.473
 21
74.7189
  0
LINE
  8
0
 10
290.473
 20
74.7189
 11
290.445
 21
74.5966
  0
LINE
  8
0
 10
290.445
 20
74.5966
 11
290.406
 21
74.4771
  0
LINE
  8
0
 10
290.406
 20
74.4771
 11
290.357
 21
74.3613
  0
LINE
  8
0
 10
290.357
 20
74.3613
 11
290.299
 21
74.25
  0
LINE
  8
0
 10
290.299
 20
74.25
 11
290.232
 21
74.1439
  0
LINE
  8
0
 10
290.232
 20
74.1439
 11
290.156
 21
74.0439
  0
LINE
  8
0
 10
290.156
 20
74.0439
 11
290.072
 21
73.9505
  0
LINE
  8
0
 10
290.072
 20
73.9505
 11
289.98
 21
73.8645
  0
LINE
  8
0
 10
289.98
 20
73.8645
 11
289.882
 21
73.7865
  0
LINE
  8
0
 10
289.882
 20
73.7865
 11
289.777
 21
73.7169
  0
LINE
  8
0
 10
289.777
 20
73.7169
 11
289.667
 21
73.6564
  0
LINE
  8
0
 10
289.667
 20
73.6564
 11
289.552
 21
73.6053
  0
LINE
  8
0
 10
289.552
 20
73.6053
 11
289.434
 21
73.564
  0
LINE
  8
0
 10
289.434
 20
73.564
 11
289.312
 21
73.5328
  0
LINE
  8
0
 10
289.312
 20
73.5328
 11
289.188
 21
73.5118
  0
LINE
  8
0
 10
289.188
 20
73.5118
 11
289.063
 21
73.5013
  0
LINE
  8
0
 10
39.5
 20
19.5
 11
39.5
 21
30.5
  0
LINE
  8
0
 10
39.5
 20
30.5
 11
51.5
 21
30.5
  0
LINE
  8
0
 10
51.5
 20
30.5
 11
51.5
 21
19.5
  0
LINE
  8
0
 10
51.5
 20
19.5
 11
39.5
 21
19.5
  0
LINE
  8
0
 10
18
 20
21.225
 11
17.8419
 21
21.2283
  0
LINE
  8
0
 10
17.8419
 20
21.2283
 11
17.6841
 21
21.2382
  0
LINE
  8
0
 10
17.6841
 20
21.2382
 11
17.5269
 21
21.2548
  0
LINE
  8
0
 10
17.5269
 20
21.2548
 11
17.3704
 21
21.2779
  0
LINE
  8
0
 10
17.3704
 20
21.2779
 11
17.2151
 21
21.3075
  0
LINE
  8
0
 10
17.2151
 20
21.3075
 11
17.0612
 21
21.3436
  0
LINE
  8
0
 10
17.0612
 20
21.3436
 11
16.9089
 21
21.3861
  0
LINE
  8
0
 10
16.9089
 20
21.3861
 11
16.7585
 21
21.435
  0
LINE
  8
0
 10
16.7585
 20
21.435
 11
16.6103
 21
21.4901
  0
LINE
  8
0
 10
16.6103
 20
21.4901
 11
16.4646
 21
21.5514
  0
LINE
  8
0
 10
16.4646
 20
21.5514
 11
16.3215
 21
21.6187
  0
LINE
  8
0
 10
16.3215
 20
21.6187
 11
16.1814
 21
21.6919
  0
LINE
  8
0
 10
16.1814
 20
21.6919
 11
16.0444
 21
21.771
  0
LINE
  8
0
 10
16.0444
 20
21.771
 11
15.9109
 21
21.8557
  0
LINE
  8
0
 10
15.9109
 20
21.8557
 11
15.7811
 21
21.946
  0
LINE
  8
0
 10
15.7811
 20
21.946
 11
15.6552
 21
22.0415
  0
LINE
  8
0
 10
15.6552
 20
22.0415
 11
15.5333
 21
22.1423
  0
LINE
  8
0
 10
15.5333
 20
22.1423
 11
15.4158
 21
22.2481
  0
LINE
  8
0
 10
15.4158
 20
22.2481
 11
15.3029
 21
22.3588
  0
LINE
  8
0
 10
15.3029
 20
22.3588
 11
15.1946
 21
22.474
  0
LINE
  8
0
 10
15.1946
 20
22.474
 11
15.0913
 21
22.5937
  0
LINE
  8
0
 10
15.0913
 20
22.5937
 11
14.9931
 21
22.7176
  0
LINE
  8
0
 10
14.9931
 20
22.7176
 11
14.9001
 21
22.8456
  0
LINE
  8
0
 10
14.9001
 20
22.8456
 11
14.8127
 21
22.9772
  0
LINE
  8
0
 10
14.8127
 20
22.9772
 11
14.7307
 21
23.1125
  0
LINE
  8
0
 10
14.7307
 20
23.1125
 11
14.6546
 21
23.2511
  0
LINE
  8
0
 10
14.6546
 20
23.2511
 11
14.5843
 21
23.3927
  0
LINE
  8
0
 10
14.5843
 20
23.3927
 11
14.52
 21
23.5371
  0
LINE
  8
0
 10
14.52
 20
23.5371
 11
14.4617
 21
23.6841
  0
LINE
  8
0
 10
14.4617
 20
23.6841
 11
14.4098
 21
23.8335
  0
LINE
  8
0
 10
14.4098
 20
23.8335
 11
14.3641
 21
23.9848
  0
LINE
  8
0
 10
14.3641
 20
23.9848
 11
14.3247
 21
24.138
  0
LINE
  8
0
 10
14.3247
 20
24.138
 11
14.2919
 21
24.2926
  0
LINE
  8
0
 10
14.2919
 20
24.2926
 11
14.2655
 21
24.4485
  0
LINE
  8
0
 10
14.2655
 20
24.4485
 11
14.2457
 21
24.6054
  0
LINE
  8
0
 10
14.2457
 20
24.6054
 11
14.2324
 21
24.763
  0
LINE
  8
0
 10
14.2324
 20
24.763
 11
14.2258
 21
24.9209
  0
LINE
  8
0
 10
14.2258
 20
24.9209
 11
14.2258
 21
25.0791
  0
LINE
  8
0
 10
14.2258
 20
25.0791
 11
14.2324
 21
25.237
  0
LINE
  8
0
 10
14.2324
 20
25.237
 11
14.2457
 21
25.3946
  0
LINE
  8
0
 10
14.2457
 20
25.3946
 11
14.2655
 21
25.5515
  0
LINE
  8
0
 10
14.2655
 20
25.5515
 11
14.2919
 21
25.7074
  0
LINE
  8
0
 10
14.2919
 20
25.7074
 11
14.3247
 21
25.862
  0
LINE
  8
0
 10
14.3247
 20
25.862
 11
14.3641
 21
26.0152
  0
LINE
  8
0
 10
14.3641
 20
26.0152
 11
14.4098
 21
26.1665
  0
LINE
  8
0
 10
14.4098
 20
26.1665
 11
14.4617
 21
26.3159
  0
LINE
  8
0
 10
14.4617
 20
26.3159
 11
14.52
 21
26.4629
  0
LINE
  8
0
 10
14.52
 20
26.4629
 11
14.5843
 21
26.6073
  0
LINE
  8
0
 10
14.5843
 20
26.6073
 11
14.6546
 21
26.7489
  0
LINE
  8
0
 10
14.6546
 20
26.7489
 11
14.7307
 21
26.8875
  0
LINE
  8
0
 10
14.7307
 20
26.8875
 11
14.8127
 21
27.0227
  0
LINE
  8
0
 10
14.8127
 20
27.0227
 11
14.9001
 21
27.1544
  0
LINE
  8
0
 10
14.9001
 20
27.1544
 11
14.9931
 21
27.2823
  0
LINE
  8
0
 10
14.9931
 20
27.2823
 11
15.0913
 21
27.4063
  0
LINE
  8
0
 10
15.0913
 20
27.4063
 11
15.1946
 21
27.526
  0
LINE
  8
0
 10
15.1946
 20
27.526
 11
15.3029
 21
27.6412
  0
LINE
  8
0
 10
15.3029
 20
27.6412
 11
15.4158
 21
27.7518
  0
LINE
  8
0
 10
15.4158
 20
27.7518
 11
15.5333
 21
27.8577
  0
LINE
  8
0
 10
15.5333
 20
27.8577
 11
15.6552
 21
27.9584
  0
LINE
  8
0
 10
15.6552
 20
27.9584
 11
15.7811
 21
28.054
  0
LINE
  8
0
 10
15.7811
 20
28.054
 11
15.9109
 21
28.1443
  0
LINE
  8
0
 10
15.9109
 20
28.1443
 11
16.0444
 21
28.229
  0
LINE
  8
0
 10
16.0444
 20
28.229
 11
16.1814
 21
28.308
  0
LINE
  8
0
 10
16.1814
 20
28.308
 11
16.3215
 21
28.3813
  0
LINE
  8
0
 10
16.3215
 20
28.3813
 11
16.4646
 21
28.4486
  0
LINE
  8
0
 10
16.4646
 20
28.4486
 11
16.6103
 21
28.5099
  0
LINE
  8
0
 10
16.6103
 20
28.5099
 11
16.7585
 21
28.565
  0
LINE
  8
0
 10
16.7585
 20
28.565
 11
16.9089
 21
28.6139
  0
LINE
  8
0
 10
16.9089
 20
28.6139
 11
17.0612
 21
28.6564
  0
LINE
  8
0
 10
17.0612
 20
28.6564
 11
17.2151
 21
28.6925
  0
LINE
  8
0
 10
17.2151
 20
28.6925
 11
17.3704
 21
28.7221
  0
LINE
  8
0
 10
17.3704
 20
28.7221
 11
17.5269
 21
28.7452
  0
LINE
  8
0
 10
17.5269
 20
28.7452
 11
17.6841
 21
28.7617
  0
LINE
  8
0
 10
17.6841
 20
28.7617
 11
17.8419
 21
28.7717
  0
LINE
  8
0
 10
17.8419
 20
28.7717
 11
18
 21
28.775
  0
LINE
  8
0
 10
18
 20
28.775
 11
18.1581
 21
28.7717
  0
LINE
  8
0
 10
18.1581
 20
28.7717
 11
18.3159
 21
28.7617
  0
LINE
  8
0
 10
18.3159
 20
28.7617
 11
18.4731
 21
28.7452
  0
LINE
  8
0
 10
18.4731
 20
28.7452
 11
18.6295
 21
28.7221
  0
LINE
  8
0
 10
18.6295
 20
28.7221
 11
18.7849
 21
28.6925
  0
LINE
  8
0
 10
18.7849
 20
28.6925
 11
18.9388
 21
28.6564
  0
LINE
  8
0
 10
18.9388
 20
28.6564
 11
19.0911
 21
28.6139
  0
LINE
  8
0
 10
19.0911
 20
28.6139
 11
19.2415
 21
28.565
  0
LINE
  8
0
 10
19.2415
 20
28.565
 11
19.3897
 21
28.5099
  0
LINE
  8
0
 10
19.3897
 20
28.5099
 11
19.5354
 21
28.4486
  0
LINE
  8
0
 10
19.5354
 20
28.4486
 11
19.6785
 21
28.3813
  0
LINE
  8
0
 10
19.6785
 20
28.3813
 11
19.8186
 21
28.308
  0
LINE
  8
0
 10
19.8186
 20
28.308
 11
19.9556
 21
28.229
  0
LINE
  8
0
 10
19.9556
 20
28.229
 11
20.0891
 21
28.1443
  0
LINE
  8
0
 10
20.0891
 20
28.1443
 11
20.2189
 21
28.054
  0
LINE
  8
0
 10
20.2189
 20
28.054
 11
20.3448
 21
27.9584
  0
LINE
  8
0
 10
20.3448
 20
27.9584
 11
20.4667
 21
27.8577
  0
LINE
  8
0
 10
20.4667
 20
27.8577
 11
20.5842
 21
27.7518
  0
LINE
  8
0
 10
20.5842
 20
27.7518
 11
20.6971
 21
27.6412
  0
LINE
  8
0
 10
20.6971
 20
27.6412
 11
20.8054
 21
27.526
  0
LINE
  8
0
 10
20.8054
 20
27.526
 11
20.9087
 21
27.4063
  0
LINE
  8
0
 10
20.9087
 20
27.4063
 11
21.0069
 21
27.2823
  0
LINE
  8
0
 10
21.0069
 20
27.2823
 11
21.0998
 21
27.1544
  0
LINE
  8
0
 10
21.0998
 20
27.1544
 11
21.1873
 21
27.0227
  0
LINE
  8
0
 10
21.1873
 20
27.0227
 11
21.2692
 21
26.8875
  0
LINE
  8
0
 10
21.2692
 20
26.8875
 11
21.3454
 21
26.7489
  0
LINE
  8
0
 10
21.3454
 20
26.7489
 11
21.4157
 21
26.6073
  0
LINE
  8
0
 10
21.4157
 20
26.6073
 11
21.48
 21
26.4629
  0
LINE
  8
0
 10
21.48
 20
26.4629
 11
21.5382
 21
26.3159
  0
LINE
  8
0
 10
21.5382
 20
26.3159
 11
21.5902
 21
26.1665
  0
LINE
  8
0
 10
21.5902
 20
26.1665
 11
21.6359
 21
26.0152
  0
LINE
  8
0
 10
21.6359
 20
26.0152
 11
21.6752
 21
25.862
  0
LINE
  8
0
 10
21.6752
 20
25.862
 11
21.7081
 21
25.7074
  0
LINE
  8
0
 10
21.7081
 20
25.7074
 11
21.7345
 21
25.5515
  0
LINE
  8
0
 10
21.7345
 20
25.5515
 11
21.7543
 21
25.3946
  0
LINE
  8
0
 10
21.7543
 20
25.3946
 11
21.7675
 21
25.237
  0
LINE
  8
0
 10
21.7675
 20
25.237
 11
21.7742
 21
25.0791
  0
LINE
  8
0
 10
21.7742
 20
25.0791
 11
21.7742
 21
24.9209
  0
LINE
  8
0
 10
21.7742
 20
24.9209
 11
21.7675
 21
24.763
  0
LINE
  8
0
 10
21.7675
 20
24.763
 11
21.7543
 21
24.6054
  0
LINE
  8
0
 10
21.7543
 20
24.6054
 11
21.7345
 21
24.4485
  0
LINE
  8
0
 10
21.7345
 20
24.4485
 11
21.7081
 21
24.2926
  0
LINE
  8
0
 10
21.7081
 20
24.2926
 11
21.6752
 21
24.138
  0
LINE
  8
0
 10
21.6752
 20
24.138
 11
21.6359
 21
23.9848
  0
LINE
  8
0
 10
21.6359
 20
23.9848
 11
21.5902
 21
23.8335
  0
LINE
  8
0
 10
21.5902
 20
23.8335
 11
21.5382
 21
23.6841
  0
LINE
  8
0
 10
21.5382
 20
23.6841
 11
21.48
 21
23.5371
  0
LINE
  8
0
 10
21.48
 20
23.5371
 11
21.4157
 21
23.3927
  0
LINE
  8
0
 10
21.4157
 20
23.3927
 11
21.3454
 21
23.2511
  0
LINE
  8
0
 10
21.3454
 20
23.2511
 11
21.2692
 21
23.1125
  0
LINE
  8
0
 10
21.2692
 20
23.1125
 11
21.1873
 21
22.9772
  0
LINE
  8
0
 10
21.1873
 20
22.9772
 11
21.0998
 21
22.8456
  0
LINE
  8
0
 10
21.0998
 20
22.8456
 11
21.0069
 21
22.7176
  0
LINE
  8
0
 10
21.0069
 20
22.7176
 11
20.9087
 21
22.5937
  0
LINE
  8
0
 10
20.9087
 20
22.5937
 11
20.8054
 21
22.474
  0
LINE
  8
0
 10
20.8054
 20
22.474
 11
20.6971
 21
22.3588
  0
LINE
  8
0
 10
20.6971
 20
22.3588
 11
20.5842
 21
22.2481
  0
LINE
  8
0
 10
20.5842
 20
22.2481
 11
20.4667
 21
22.1423
  0
LINE
  8
0
 10
20.4667
 20
22.1423
 11
20.3448
 21
22.0415
  0
LINE
  8
0
 10
20.3448
 20
22.0415
 11
20.2189
 21
21.946
  0
LINE
  8
0
 10
20.2189
 20
21.946
 11
20.0891
 21
21.8557
  0
LINE
  8
0
 10
20.0891
 20
21.8557
 11
19.9556
 21
21.771
  0
LINE
  8
0
 10
19.9556
 20
21.771
 11
19.8186
 21
21.6919
  0
LINE
  8
0
 10
19.8186
 20
21.6919
 11
19.6785
 21
21.6187
  0
LINE
  8
0
 10
19.6785
 20
21.6187
 11
19.5354
 21
21.5514
  0
LINE
  8
0
 10
19.5354
 20
21.5514
 11
19.3897
 21
21.4901
  0
LINE
  8
0
 10
19.3897
 20
21.4901
 11
19.2415
 21
21.435
  0
LINE
  8
0
 10
19.2415
 20
21.435
 11
19.0911
 21
21.3861
  0
LINE
  8
0
 10
19.0911
 20
21.3861
 11
18.9388
 21
21.3436
  0
LINE
  8
0
 10
18.9388
 20
21.3436
 11
18.7849
 21
21.3075
  0
LINE
  8
0
 10
18.7849
 20
21.3075
 11
18.6295
 21
21.2779
  0
LINE
  8
0
 10
18.6295
 20
21.2779
 11
18.4731
 21
21.2548
  0
LINE
  8
0
 10
18.4731
 20
21.2548
 11
18.3159
 21
21.2382
  0
LINE
  8
0
 10
18.3159
 20
21.2382
 11
18.1581
 21
21.2283
  0
LINE
  8
0
 10
18.1581
 20
21.2283
 11
18
 21
21.225
  0
LINE
  8
0
 10
29.9372
 20
23.5013
 11
29.812
 21
23.5118
  0
LINE
  8
0
 10
29.812
 20
23.5118
 11
29.6881
 21
23.5328
  0
LINE
  8
0
 10
29.6881
 20
23.5328
 11
29.5665
 21
23.564
  0
LINE
  8
0
 10
29.5665
 20
23.564
 11
29.4478
 21
23.6053
  0
LINE
  8
0
 10
29.4478
 20
23.6053
 11
29.3331
 21
23.6564
  0
LINE
  8
0
 10
29.3331
 20
23.6564
 11
29.223
 21
23.717
  0
LINE
  8
0
 10
29.223
 20
23.717
 11
29.1183
 21
23.7865
  0
LINE
  8
0
 10
29.1183
 20
23.7865
 11
29.0199
 21
23.8645
  0
LINE
  8
0
 10
29.0199
 20
23.8645
 11
28.9283
 21
23.9505
  0
LINE
  8
0
 10
28.9283
 20
23.9505
 11
28.8442
 21
24.0439
  0
LINE
  8
0
 10
28.8442
 20
24.0439
 11
28.7683
 21
24.1439
  0
LINE
  8
0
 10
28.7683
 20
24.1439
 11
28.701
 21
24.25
  0
LINE
  8
0
 10
28.701
 20
24.25
 11
28.6428
 21
24.3613
  0
LINE
  8
0
 10
28.6428
 20
24.3613
 11
28.5941
 21
24.4771
  0
LINE
  8
0
 10
28.5941
 20
24.4771
 11
28.5553
 21
24.5966
  0
LINE
  8
0
 10
28.5553
 20
24.5966
 11
28.5266
 21
24.7189
  0
LINE
  8
0
 10
28.5266
 20
24.7189
 11
28.5082
 21
24.8432
  0
LINE
  8
0
 10
28.5082
 20
24.8432
 11
28.5003
 21
24.9686
  0
LINE
  8
0
 10
28.5003
 20
24.9686
 11
28.503
 21
25.0942
  0
LINE
  8
0
 10
28.503
 20
25.0942
 11
28.5161
 21
25.2191
  0
LINE
  8
0
 10
28.5161
 20
25.2191
 11
28.5396
 21
25.3425
  0
LINE
  8
0
 10
28.5396
 20
25.3425
 11
28.5734
 21
25.4635
  0
LINE
  8
0
 10
28.5734
 20
25.4635
 11
28.6172
 21
25.5813
  0
LINE
  8
0
 10
28.6172
 20
25.5813
 11
28.6707
 21
25.6949
  0
LINE
  8
0
 10
28.6707
 20
25.6949
 11
28.7335
 21
25.8037
  0
LINE
  8
0
 10
28.7335
 20
25.8037
 11
28.8052
 21
25.9069
  0
LINE
  8
0
 10
28.8052
 20
25.9069
 11
28.8853
 21
26.0037
  0
LINE
  8
0
 10
28.8853
 20
26.0037
 11
28.9732
 21
26.0934
  0
LINE
  8
0
 10
28.9732
 20
26.0934
 11
29.0683
 21
26.1755
  0
LINE
  8
0
 10
29.0683
 20
26.1755
 11
29.1699
 21
26.2494
  0
LINE
  8
0
 10
29.1699
 20
26.2494
 11
29.2774
 21
26.3145
  0
LINE
  8
0
 10
29.2774
 20
26.3145
 11
29.3899
 21
26.3703
  0
LINE
  8
0
 10
29.3899
 20
26.3703
 11
29.5067
 21
26.4165
  0
LINE
  8
0
 10
29.5067
 20
26.4165
 11
29.627
 21
26.4529
  0
LINE
  8
0
 10
29.627
 20
26.4529
 11
29.7498
 21
26.479
  0
LINE
  8
0
 10
29.7498
 20
26.479
 11
29.8745
 21
26.4947
  0
LINE
  8
0
 10
29.8745
 20
26.4947
 11
30
 21
26.5
  0
LINE
  8
0
 10
30
 20
26.5
 11
30.1255
 21
26.4947
  0
LINE
  8
0
 10
30.1255
 20
26.4947
 11
30.2502
 21
26.479
  0
LINE
  8
0
 10
30.2502
 20
26.479
 11
30.373
 21
26.4529
  0
LINE
  8
0
 10
30.373
 20
26.4529
 11
30.4933
 21
26.4165
  0
LINE
  8
0
 10
30.4933
 20
26.4165
 11
30.6101
 21
26.3703
  0
LINE
  8
0
 10
30.6101
 20
26.3703
 11
30.7226
 21
26.3145
  0
LINE
  8
0
 10
30.7226
 20
26.3145
 11
30.8301
 21
26.2494
  0
LINE
  8
0
 10
30.8301
 20
26.2494
 11
30.9317
 21
26.1755
  0
LINE
  8
0
 10
30.9317
 20
26.1755
 11
31.0268
 21
26.0934
  0
LINE
  8
0
 10
31.0268
 20
26.0934
 11
31.1147
 21
26.0037
  0
LINE
  8
0
 10
31.1147
 20
26.0037
 11
31.1948
 21
25.9069
  0
LINE
  8
0
 10
31.1948
 20
25.9069
 11
31.2665
 21
25.8037
  0
LINE
  8
0
 10
31.2665
 20
25.8037
 11
31.3293
 21
25.6949
  0
LINE
  8
0
 10
31.3293
 20
25.6949
 11
31.3828
 21
25.5813
  0
LINE
  8
0
 10
31.3828
 20
25.5813
 11
31.4266
 21
25.4635
  0
LINE
  8
0
 10
31.4266
 20
25.4635
 11
31.4604
 21
25.3425
  0
LINE
  8
0
 10
31.4604
 20
25.3425
 11
31.4839
 21
25.2191
  0
LINE
  8
0
 10
31.4839
 20
25.2191
 11
31.497
 21
25.0942
  0
LINE
  8
0
 10
31.497
 20
25.0942
 11
31.4997
 21
24.9686
  0
LINE
  8
0
 10
31.4997
 20
24.9686
 11
31.4918
 21
24.8432
  0
LINE
  8
0
 10
31.4918
 20
24.8432
 11
31.4734
 21
24.7189
  0
LINE
  8
0
 10
31.4734
 20
24.7189
 11
31.4447
 21
24.5966
  0
LINE
  8
0
 10
31.4447
 20
24.5966
 11
31.4059
 21
24.4771
  0
LINE
  8
0
 10
31.4059
 20
24.4771
 11
31.3572
 21
24.3613
  0
LINE
  8
0
 10
31.3572
 20
24.3613
 11
31.299
 21
24.25
  0
LINE
  8
0
 10
31.299
 20
24.25
 11
31.2317
 21
24.1439
  0
LINE
  8
0
 10
31.2317
 20
24.1439
 11
31.1558
 21
24.0439
  0
LINE
  8
0
 10
31.1558
 20
24.0439
 11
31.0717
 21
23.9505
  0
LINE
  8
0
 10
31.0717
 20
23.9505
 11
30.9801
 21
23.8645
  0
LINE
  8
0
 10
30.9801
 20
23.8645
 11
30.8817
 21
23.7865
  0
LINE
  8
0
 10
30.8817
 20
23.7865
 11
30.777
 21
23.717
  0
LINE
  8
0
 10
30.777
 20
23.717
 11
30.6669
 21
23.6564
  0
LINE
  8
0
 10
30.6669
 20
23.6564
 11
30.5522
 21
23.6053
  0
LINE
  8
0
 10
30.5522
 20
23.6053
 11
30.4335
 21
23.564
  0
LINE
  8
0
 10
30.4335
 20
23.564
 11
30.3119
 21
23.5328
  0
LINE
  8
0
 10
30.3119
 20
23.5328
 11
30.188
 21
23.5118
  0
LINE
  8
0
 10
30.188
 20
23.5118
 11
30.0628
 21
23.5013
  0
LINE
  8
0
 10
30.0628
 20
23.5013
 11
29.9372
 21
23.5013
  0
LINE
  8
0
 10
60.9372
 20
23.5013
 11
60.812
 21
23.5118
  0
LINE
  8
0
 10
60.812
 20
23.5118
 11
60.6881
 21
23.5328
  0
LINE
  8
0
 10
60.6881
 20
23.5328
 11
60.5665
 21
23.564
  0
LINE
  8
0
 10
60.5665
 20
23.564
 11
60.4478
 21
23.6053
  0
LINE
  8
0
 10
60.4478
 20
23.6053
 11
60.333
 21
23.6564
  0
LINE
  8
0
 10
60.333
 20
23.6564
 11
60.2229
 21
23.717
  0
LINE
  8
0
 10
60.2229
 20
23.717
 11
60.1183
 21
23.7865
  0
LINE
  8
0
 10
60.1183
 20
23.7865
 11
60.0199
 21
23.8645
  0
LINE
  8
0
 10
60.0199
 20
23.8645
 11
59.9283
 21
23.9505
  0
LINE
  8
0
 10
59.9283
 20
23.9505
 11
59.8442
 21
24.0439
  0
LINE
  8
0
 10
59.8442
 20
24.0439
 11
59.7683
 21
24.1439
  0
LINE
  8
0
 10
59.7683
 20
24.1439
 11
59.701
 21
24.25
  0
LINE
  8
0
 10
59.701
 20
24.25
 11
59.6427
 21
24.3613
  0
LINE
  8
0
 10
59.6427
 20
24.3613
 11
59.5941
 21
24.4771
  0
LINE
  8
0
 10
59.5941
 20
24.4771
 11
59.5553
 21
24.5966
  0
LINE
  8
0
 10
59.5553
 20
24.5966
 11
59.5266
 21
24.7189
  0
LINE
  8
0
 10
59.5266
 20
24.7189
 11
59.5082
 21
24.8432
  0
LINE
  8
0
 10
59.5082
 20
24.8432
 11
59.5003
 21
24.9686
  0
LINE
  8
0
 10
59.5003
 20
24.9686
 11
59.5029
 21
25.0942
  0
LINE
  8
0
 10
59.5029
 20
25.0942
 11
59.5161
 21
25.2191
  0
LINE
  8
0
 10
59.5161
 20
25.2191
 11
59.5396
 21
25.3425
  0
LINE
  8
0
 10
59.5396
 20
25.3425
 11
59.5734
 21
25.4635
  0
LINE
  8
0
 10
59.5734
 20
25.4635
 11
59.6172
 21
25.5813
  0
LINE
  8
0
 10
59.6172
 20
25.5813
 11
59.6707
 21
25.6949
  0
LINE
  8
0
 10
59.6707
 20
25.6949
 11
59.7335
 21
25.8037
  0
LINE
  8
0
 10
59.7335
 20
25.8037
 11
59.8052
 21
25.9069
  0
LINE
  8
0
 10
59.8052
 20
25.9069
 11
59.8853
 21
26.0037
  0
LINE
  8
0
 10
59.8853
 20
26.0037
 11
59.9732
 21
26.0934
  0
LINE
  8
0
 10
59.9732
 20
26.0934
 11
60.0683
 21
26.1755
  0
LINE
  8
0
 10
60.0683
 20
26.1755
 11
60.1699
 21
26.2494
  0
LINE
  8
0
 10
60.1699
 20
26.2494
 11
60.2774
 21
26.3145
  0
LINE
  8
0
 10
60.2774
 20
26.3145
 11
60.3899
 21
26.3703
  0
LINE
  8
0
 10
60.3899
 20
26.3703
 11
60.5067
 21
26.4165
  0
LINE
  8
0
 10
60.5067
 20
26.4165
 11
60.627
 21
26.4529
  0
LINE
  8
0
 10
60.627
 20
26.4529
 11
60.7498
 21
26.479
  0
LINE
  8
0
 10
60.7498
 20
26.479
 11
60.8745
 21
26.4947
  0
LINE
  8
0
 10
60.8745
 20
26.4947
 11
61
 21
26.5
  0
LINE
  8
0
 10
61
 20
26.5
 11
61.1255
 21
26.4947
  0
LINE
  8
0
 10
61.1255
 20
26.4947
 11
61.2502
 21
26.479
  0
LINE
  8
0
 10
61.2502
 20
26.479
 11
61.373
 21
26.4529
  0
LINE
  8
0
 10
61.373
 20
26.4529
 11
61.4933
 21
26.4165
  0
LINE
  8
0
 10
61.4933
 20
26.4165
 11
61.6101
 21
26.3703
  0
LINE
  8
0
 10
61.6101
 20
26.3703
 11
61.7226
 21
26.3145
  0
LINE
  8
0
 10
61.7226
 20
26.3145
 11
61.8301
 21
26.2494
  0
LINE
  8
0
 10
61.8301
 20
26.2494
 11
61.9317
 21
26.1755
  0
LINE
  8
0
 10
61.9317
 20
26.1755
 11
62.0268
 21
26.0934
  0
LINE
  8
0
 10
62.0268
 20
26.0934
 11
62.1147
 21
26.0037
  0
LINE
  8
0
 10
62.1147
 20
26.0037
 11
62.1948
 21
25.9069
  0
LINE
  8
0
 10
62.1948
 20
25.9069
 11
62.2665
 21
25.8037
  0
LINE
  8
0
 10
62.2665
 20
25.8037
 11
62.3293
 21
25.6949
  0
LINE
  8
0
 10
62.3293
 20
25.6949
 11
62.3828
 21
25.5813
  0
LINE
  8
0
 10
62.3828
 20
25.5813
 11
62.4266
 21
25.4635
  0
LINE
  8
0
 10
62.4266
 20
25.4635
 11
62.4604
 21
25.3425
  0
LINE
  8
0
 10
62.4604
 20
25.3425
 11
62.4839
 21
25.2191
  0
LINE
  8
0
 10
62.4839
 20
25.2191
 11
62.497
 21
25.0942
  0
LINE
  8
0
 10
62.497
 20
25.0942
 11
62.4997
 21
24.9686
  0
LINE
  8
0
 10
62.4997
 20
24.9686
 11
62.4918
 21
24.8432
  0
LINE
  8
0
 10
62.4918
 20
24.8432
 11
62.4734
 21
24.7189
  0
LINE
  8
0
 10
62.4734
 20
24.7189
 11
62.4447
 21
24.5966
  0
LINE
  8
0
 10
62.4447
 20
24.5966
 11
62.4059
 21
24.4771
  0
LINE
  8
0
 10
62.4059
 20
24.4771
 11
62.3572
 21
24.3613
  0
LINE
  8
0
 10
62.3572
 20
24.3613
 11
62.299
 21
24.25
  0
LINE
  8
0
 10
62.299
 20
24.25
 11
62.2317
 21
24.1439
  0
LINE
  8
0
 10
62.2317
 20
24.1439
 11
62.1558
 21
24.0439
  0
LINE
  8
0
 10
62.1558
 20
24.0439
 11
62.0717
 21
23.9505
  0
LINE
  8
0
 10
62.0717
 20
23.9505
 11
61.9801
 21
23.8645
  0
LINE
  8
0
 10
61.9801
 20
23.8645
 11
61.8817
 21
23.7865
  0
LINE
  8
0
 10
61.8817
 20
23.7865
 11
61.777
 21
23.717
  0
LINE
  8
0
 10
61.777
 20
23.717
 11
61.6669
 21
23.6564
  0
LINE
  8
0
 10
61.6669
 20
23.6564
 11
61.5522
 21
23.6053
  0
LINE
  8
0
 10
61.5522
 20
23.6053
 11
61.4335
 21
23.564
  0
LINE
  8
0
 10
61.4335
 20
23.564
 11
61.3119
 21
23.5328
  0
LINE
  8
0
 10
61.3119
 20
23.5328
 11
61.188
 21
23.5118
  0
LINE
  8
0
 10
61.188
 20
23.5118
 11
61.0628
 21
23.5013
  0
LINE
  8
0
 10
61.0628
 20
23.5013
 11
60.9372
 21
23.5013
  0
LINE
  8
0
 10
18.0628
 20
7.00131
 11
17.9372
 21
7.00131
  0
LINE
  8
0
 10
17.9372
 20
7.00131
 11
17.812
 21
7.01183
  0
LINE
  8
0
 10
17.812
 20
7.01183
 11
17.6881
 21
7.03278
  0
LINE
  8
0
 10
17.6881
 20
7.03278
 11
17.5665
 21
7.06401
  0
LINE
  8
0
 10
17.5665
 20
7.06401
 11
17.4478
 21
7.10533
  0
LINE
  8
0
 10
17.4478
 20
7.10533
 11
17.333
 21
7.15642
  0
LINE
  8
0
 10
17.333
 20
7.15642
 11
17.2229
 21
7.21695
  0
LINE
  8
0
 10
17.2229
 20
7.21695
 11
17.1183
 21
7.28647
  0
LINE
  8
0
 10
17.1183
 20
7.28647
 11
17.0199
 21
7.3645
  0
LINE
  8
0
 10
17.0199
 20
7.3645
 11
16.9283
 21
7.4505
  0
LINE
  8
0
 10
16.9283
 20
7.4505
 11
16.8442
 21
7.54385
  0
LINE
  8
0
 10
16.8442
 20
7.54385
 11
16.7683
 21
7.64392
  0
LINE
  8
0
 10
16.7683
 20
7.64392
 11
16.701
 21
7.75
  0
LINE
  8
0
 10
16.701
 20
7.75
 11
16.6427
 21
7.86133
  0
LINE
  8
0
 10
16.6427
 20
7.86133
 11
16.5941
 21
7.97713
  0
LINE
  8
0
 10
16.5941
 20
7.97713
 11
16.5553
 21
8.09662
  0
LINE
  8
0
 10
16.5553
 20
8.09662
 11
16.5266
 21
8.21892
  0
LINE
  8
0
 10
16.5266
 20
8.21892
 11
16.5082
 21
8.3432
  0
LINE
  8
0
 10
16.5082
 20
8.3432
 11
16.5003
 21
8.46858
  0
LINE
  8
0
 10
16.5003
 20
8.46858
 11
16.5029
 21
8.59418
  0
LINE
  8
0
 10
16.5029
 20
8.59418
 11
16.5161
 21
8.71912
  0
LINE
  8
0
 10
16.5161
 20
8.71912
 11
16.5396
 21
8.84251
  0
LINE
  8
0
 10
16.5396
 20
8.84251
 11
16.5734
 21
8.96352
  0
LINE
  8
0
 10
16.5734
 20
8.96352
 11
16.6172
 21
9.08127
  0
LINE
  8
0
 10
16.6172
 20
9.08127
 11
16.6707
 21
9.19493
  0
LINE
  8
0
 10
16.6707
 20
9.19493
 11
16.7335
 21
9.30373
  0
LINE
  8
0
 10
16.7335
 20
9.30373
 11
16.8052
 21
9.40689
  0
LINE
  8
0
 10
16.8052
 20
9.40689
 11
16.8853
 21
9.50369
  0
LINE
  8
0
 10
16.8853
 20
9.50369
 11
16.9732
 21
9.59344
  0
LINE
  8
0
 10
16.9732
 20
9.59344
 11
17.0683
 21
9.67554
  0
LINE
  8
0
 10
17.0683
 20
9.67554
 11
17.1699
 21
9.74937
  0
LINE
  8
0
 10
17.1699
 20
9.74937
 11
17.2774
 21
9.81445
  0
LINE
  8
0
 10
17.2774
 20
9.81445
 11
17.3899
 21
9.87032
  0
LINE
  8
0
 10
17.3899
 20
9.87032
 11
17.5067
 21
9.91655
  0
LINE
  8
0
 10
17.5067
 20
9.91655
 11
17.627
 21
9.95287
  0
LINE
  8
0
 10
17.627
 20
9.95287
 11
17.7498
 21
9.97899
  0
LINE
  8
0
 10
17.7498
 20
9.97899
 11
17.8745
 21
9.99474
  0
LINE
  8
0
 10
17.8745
 20
9.99474
 11
18
 21
10
  0
LINE
  8
0
 10
18
 20
10
 11
18.1255
 21
9.99474
  0
LINE
  8
0
 10
18.1255
 20
9.99474
 11
18.2502
 21
9.97899
  0
LINE
  8
0
 10
18.2502
 20
9.97899
 11
18.373
 21
9.95287
  0
LINE
  8
0
 10
18.373
 20
9.95287
 11
18.4933
 21
9.91655
  0
LINE
  8
0
 10
18.4933
 20
9.91655
 11
18.6101
 21
9.87032
  0
LINE
  8
0
 10
18.6101
 20
9.87032
 11
18.7226
 21
9.81445
  0
LINE
  8
0
 10
18.7226
 20
9.81445
 11
18.8301
 21
9.74937
  0
LINE
  8
0
 10
18.8301
 20
9.74937
 11
18.9317
 21
9.67554
  0
LINE
  8
0
 10
18.9317
 20
9.67554
 11
19.0268
 21
9.59344
  0
LINE
  8
0
 10
19.0268
 20
9.59344
 11
19.1147
 21
9.50369
  0
LINE
  8
0
 10
19.1147
 20
9.50369
 11
19.1948
 21
9.40689
  0
LINE
  8
0
 10
19.1948
 20
9.40689
 11
19.2665
 21
9.30373
  0
LINE
  8
0
 10
19.2665
 20
9.30373
 11
19.3293
 21
9.19493
  0
LINE
  8
0
 10
19.3293
 20
9.19493
 11
19.3828
 21
9.08127
  0
LINE
  8
0
 10
19.3828
 20
9.08127
 11
19.4266
 21
8.96352
  0
LINE
  8
0
 10
19.4266
 20
8.96352
 11
19.4604
 21
8.84251
  0
LINE
  8
0
 10
19.4604
 20
8.84251
 11
19.4839
 21
8.71912
  0
LINE
  8
0
 10
19.4839
 20
8.71912
 11
19.497
 21
8.59418
  0
LINE
  8
0
 10
19.497
 20
8.59418
 11
19.4997
 21
8.46858
  0
LINE
  8
0
 10
19.4997
 20
8.46858
 11
19.4918
 21
8.3432
  0
LINE
  8
0
 10
19.4918
 20
8.3432
 11
19.4734
 21
8.21892
  0
LINE
  8
0
 10
19.4734
 20
8.21892
 11
19.4447
 21
8.09662
  0
LINE
  8
0
 10
19.4447
 20
8.09662
 11
19.4059
 21
7.97713
  0
LINE
  8
0
 10
19.4059
 20
7.97713
 11
19.3572
 21
7.86133
  0
LINE
  8
0
 10
19.3572
 20
7.86133
 11
19.299
 21
7.75
  0
LINE
  8
0
 10
19.299
 20
7.75
 11
19.2317
 21
7.64392
  0
LINE
  8
0
 10
19.2317
 20
7.64392
 11
19.1558
 21
7.54385
  0
LINE
  8
0
 10
19.1558
 20
7.54385
 11
19.0717
 21
7.4505
  0
LINE
  8
0
 10
19.0717
 20
7.4505
 11
18.9801
 21
7.3645
  0
LINE
  8
0
 10
18.9801
 20
7.3645
 11
18.8817
 21
7.28647
  0
LINE
  8
0
 10
18.8817
 20
7.28647
 11
18.777
 21
7.21695
  0
LINE
  8
0
 10
18.777
 20
7.21695
 11
18.6669
 21
7.15642
  0
LINE
  8
0
 10
18.6669
 20
7.15642
 11
18.5522
 21
7.10533
  0
LINE
  8
0
 10
18.5522
 20
7.10533
 11
18.4335
 21
7.06401
  0
LINE
  8
0
 10
18.4335
 20
7.06401
 11
18.3119
 21
7.03278
  0
LINE
  8
0
 10
18.3119
 20
7.03278
 11
18.188
 21
7.01183
  0
LINE
  8
0
 10
18.188
 20
7.01183
 11
18.0628
 21
7.00131
  0
LINE
  8
0
 10
148.063
 20
7.00131
 11
147.937
 21
7.00131
  0
LINE
  8
0
 10
147.937
 20
7.00131
 11
147.812
 21
7.01183
  0
LINE
  8
0
 10
147.812
 20
7.01183
 11
147.688
 21
7.03278
  0
LINE
  8
0
 10
147.688
 20
7.03278
 11
147.566
 21
7.06401
  0
LINE
  8
0
 10
147.566
 20
7.06401
 11
147.448
 21
7.10533
  0
LINE
  8
0
 10
147.448
 20
7.10533
 11
147.333
 21
7.15642
  0
LINE
  8
0
 10
147.333
 20
7.15642
 11
147.223
 21
7.21695
  0
LINE
  8
0
 10
147.223
 20
7.21695
 11
147.118
 21
7.28647
  0
LINE
  8
0
 10
147.118
 20
7.28647
 11
147.02
 21
7.3645
  0
LINE
  8
0
 10
147.02
 20
7.3645
 11
146.928
 21
7.4505
  0
LINE
  8
0
 10
146.928
 20
7.4505
 11
146.844
 21
7.54385
  0
LINE
  8
0
 10
146.844
 20
7.54385
 11
146.768
 21
7.64392
  0
LINE
  8
0
 10
146.768
 20
7.64392
 11
146.701
 21
7.75
  0
LINE
  8
0
 10
146.701
 20
7.75
 11
146.643
 21
7.86133
  0
LINE
  8
0
 10
146.643
 20
7.86133
 11
146.594
 21
7.97713
  0
LINE
  8
0
 10
146.594
 20
7.97713
 11
146.555
 21
8.09662
  0
LINE
  8
0
 10
146.555
 20
8.09662
 11
146.527
 21
8.21892
  0
LINE
  8
0
 10
146.527
 20
8.21892
 11
146.508
 21
8.3432
  0
LINE
  8
0
 10
146.508
 20
8.3432
 11
146.5
 21
8.46858
  0
LINE
  8
0
 10
146.5
 20
8.46858
 11
146.503
 21
8.59418
  0
LINE
  8
0
 10
146.503
 20
8.59418
 11
146.516
 21
8.71912
  0
LINE
  8
0
 10
146.516
 20
8.71912
 11
146.54
 21
8.84251
  0
LINE
  8
0
 10
146.54
 20
8.84251
 11
146.573
 21
8.96352
  0
LINE
  8
0
 10
146.573
 20
8.96352
 11
146.617
 21
9.08127
  0
LINE
  8
0
 10
146.617
 20
9.08127
 11
146.671
 21
9.19493
  0
LINE
  8
0
 10
146.671
 20
9.19493
 11
146.734
 21
9.30373
  0
LINE
  8
0
 10
146.734
 20
9.30373
 11
146.805
 21
9.40689
  0
LINE
  8
0
 10
146.805
 20
9.40689
 11
146.885
 21
9.50369
  0
LINE
  8
0
 10
146.885
 20
9.50369
 11
146.973
 21
9.59344
  0
LINE
  8
0
 10
146.973
 20
9.59344
 11
147.068
 21
9.67554
  0
LINE
  8
0
 10
147.068
 20
9.67554
 11
147.17
 21
9.74937
  0
LINE
  8
0
 10
147.17
 20
9.74937
 11
147.277
 21
9.81445
  0
LINE
  8
0
 10
147.277
 20
9.81445
 11
147.39
 21
9.87032
  0
LINE
  8
0
 10
147.39
 20
9.87032
 11
147.507
 21
9.91655
  0
LINE
  8
0
 10
147.507
 20
9.91655
 11
147.627
 21
9.95287
  0
LINE
  8
0
 10
147.627
 20
9.95287
 11
147.75
 21
9.97899
  0
LINE
  8
0
 10
147.75
 20
9.97899
 11
147.874
 21
9.99474
  0
LINE
  8
0
 10
147.874
 20
9.99474
 11
148
 21
10
  0
LINE
  8
0
 10
148
 20
10
 11
148.126
 21
9.99474
  0
LINE
  8
0
 10
148.126
 20
9.99474
 11
148.25
 21
9.97899
  0
LINE
  8
0
 10
148.25
 20
9.97899
 11
148.373
 21
9.95287
  0
LINE
  8
0
 10
148.373
 20
9.95287
 11
148.493
 21
9.91655
  0
LINE
  8
0
 10
148.493
 20
9.91655
 11
148.61
 21
9.87032
  0
LINE
  8
0
 10
148.61
 20
9.87032
 11
148.723
 21
9.81445
  0
LINE
  8
0
 10
148.723
 20
9.81445
 11
148.83
 21
9.74937
  0
LINE
  8
0
 10
148.83
 20
9.74937
 11
148.932
 21
9.67554
  0
LINE
  8
0
 10
148.932
 20
9.67554
 11
149.027
 21
9.59344
  0
LINE
  8
0
 10
149.027
 20
9.59344
 11
149.115
 21
9.50369
  0
LINE
  8
0
 10
149.115
 20
9.50369
 11
149.195
 21
9.40689
  0
LINE
  8
0
 10
149.195
 20
9.40689
 11
149.266
 21
9.30373
  0
LINE
  8
0
 10
149.266
 20
9.30373
 11
149.329
 21
9.19493
  0
LINE
  8
0
 10
149.329
 20
9.19493
 11
149.383
 21
9.08127
  0
LINE
  8
0
 10
149.383
 20
9.08127
 11
149.427
 21
8.96352
  0
LINE
  8
0
 10
149.427
 20
8.96352
 11
149.46
 21
8.84251
  0
LINE
  8
0
 10
149.46
 20
8.84251
 11
149.484
 21
8.71912
  0
LINE
  8
0
 10
149.484
 20
8.71912
 11
149.497
 21
8.59418
  0
LINE
  8
0
 10
149.497
 20
8.59418
 11
149.5
 21
8.46858
  0
LINE
  8
0
 10
149.5
 20
8.46858
 11
149.492
 21
8.3432
  0
LINE
  8
0
 10
149.492
 20
8.3432
 11
149.473
 21
8.21892
  0
LINE
  8
0
 10
149.473
 20
8.21892
 11
149.445
 21
8.09662
  0
LINE
  8
0
 10
149.445
 20
8.09662
 11
149.406
 21
7.97713
  0
LINE
  8
0
 10
149.406
 20
7.97713
 11
149.357
 21
7.86133
  0
LINE
  8
0
 10
149.357
 20
7.86133
 11
149.299
 21
7.75
  0
LINE
  8
0
 10
149.299
 20
7.75
 11
149.232
 21
7.64392
  0
LINE
  8
0
 10
149.232
 20
7.64392
 11
149.156
 21
7.54385
  0
LINE
  8
0
 10
149.156
 20
7.54385
 11
149.072
 21
7.4505
  0
LINE
  8
0
 10
149.072
 20
7.4505
 11
148.98
 21
7.3645
  0
LINE
  8
0
 10
148.98
 20
7.3645
 11
148.882
 21
7.28647
  0
LINE
  8
0
 10
148.882
 20
7.28647
 11
148.777
 21
7.21695
  0
LINE
  8
0
 10
148.777
 20
7.21695
 11
148.667
 21
7.15642
  0
LINE
  8
0
 10
148.667
 20
7.15642
 11
148.552
 21
7.10533
  0
LINE
  8
0
 10
148.552
 20
7.10533
 11
148.434
 21
7.06401
  0
LINE
  8
0
 10
148.434
 20
7.06401
 11
148.312
 21
7.03278
  0
LINE
  8
0
 10
148.312
 20
7.03278
 11
148.188
 21
7.01183
  0
LINE
  8
0
 10
148.188
 20
7.01183
 11
148.063
 21
7.00131
  0
LINE
  8
0
 10
278.563
 20
7.00131
 11
278.437
 21
7.00131
  0
LINE
  8
0
 10
278.437
 20
7.00131
 11
278.312
 21
7.01183
  0
LINE
  8
0
 10
278.312
 20
7.01183
 11
278.188
 21
7.03278
  0
LINE
  8
0
 10
278.188
 20
7.03278
 11
278.066
 21
7.06401
  0
LINE
  8
0
 10
278.066
 20
7.06401
 11
277.948
 21
7.10533
  0
LINE
  8
0
 10
277.948
 20
7.10533
 11
277.833
 21
7.15642
  0
LINE
  8
0
 10
277.833
 20
7.15642
 11
277.723
 21
7.21695
  0
LINE
  8
0
 10
277.723
 20
7.21695
 11
277.618
 21
7.28647
  0
LINE
  8
0
 10
277.618
 20
7.28647
 11
277.52
 21
7.3645
  0
LINE
  8
0
 10
277.52
 20
7.3645
 11
277.428
 21
7.4505
  0
LINE
  8
0
 10
277.428
 20
7.4505
 11
277.344
 21
7.54385
  0
LINE
  8
0
 10
277.344
 20
7.54385
 11
277.268
 21
7.64392
  0
LINE
  8
0
 10
277.268
 20
7.64392
 11
277.201
 21
7.75
  0
LINE
  8
0
 10
277.201
 20
7.75
 11
277.143
 21
7.86133
  0
LINE
  8
0
 10
277.143
 20
7.86133
 11
277.094
 21
7.97713
  0
LINE
  8
0
 10
277.094
 20
7.97713
 11
277.055
 21
8.09662
  0
LINE
  8
0
 10
277.055
 20
8.09662
 11
277.027
 21
8.21892
  0
LINE
  8
0
 10
277.027
 20
8.21892
 11
277.008
 21
8.3432
  0
LINE
  8
0
 10
277.008
 20
8.3432
 11
277
 21
8.46858
  0
LINE
  8
0
 10
277
 20
8.46858
 11
277.003
 21
8.59418
  0
LINE
  8
0
 10
277.003
 20
8.59418
 11
277.016
 21
8.71912
  0
LINE
  8
0
 10
277.016
 20
8.71912
 11
277.04
 21
8.84251
  0
LINE
  8
0
 10
277.04
 20
8.84251
 11
277.073
 21
8.96352
  0
LINE
  8
0
 10
277.073
 20
8.96352
 11
277.117
 21
9.08127
  0
LINE
  8
0
 10
277.117
 20
9.08127
 11
277.171
 21
9.19493
  0
LINE
  8
0
 10
277.171
 20
9.19493
 11
277.234
 21
9.30373
  0
LINE
  8
0
 10
277.234
 20
9.30373
 11
277.305
 21
9.40689
  0
LINE
  8
0
 10
277.305
 20
9.40689
 11
277.385
 21
9.50369
  0
LINE
  8
0
 10
277.385
 20
9.50369
 11
277.473
 21
9.59344
  0
LINE
  8
0
 10
277.473
 20
9.59344
 11
277.568
 21
9.67554
  0
LINE
  8
0
 10
277.568
 20
9.67554
 11
277.67
 21
9.74937
  0
LINE
  8
0
 10
277.67
 20
9.74937
 11
277.777
 21
9.81445
  0
LINE
  8
0
 10
277.777
 20
9.81445
 11
277.89
 21
9.87032
  0
LINE
  8
0
 10
277.89
 20
9.87032
 11
278.007
 21
9.91655
  0
LINE
  8
0
 10
278.007
 20
9.91655
 11
278.127
 21
9.95287
  0
LINE
  8
0
 10
278.127
 20
9.95287
 11
278.25
 21
9.97899
  0
LINE
  8
0
 10
278.25
 20
9.97899
 11
278.374
 21
9.99474
  0
LINE
  8
0
 10
278.374
 20
9.99474
 11
278.5
 21
10
  0
LINE
  8
0
 10
278.5
 20
10
 11
278.626
 21
9.99474
  0
LINE
  8
0
 10
278.626
 20
9.99474
 11
278.75
 21
9.97899
  0
LINE
  8
0
 10
278.75
 20
9.97899
 11
278.873
 21
9.95287
  0
LINE
  8
0
 10
278.873
 20
9.95287
 11
278.993
 21
9.91655
  0
LINE
  8
0
 10
278.993
 20
9.91655
 11
279.11
 21
9.87032
  0
LINE
  8
0
 10
279.11
 20
9.87032
 11
279.223
 21
9.81445
  0
LINE
  8
0
 10
279.223
 20
9.81445
 11
279.33
 21
9.74937
  0
LINE
  8
0
 10
279.33
 20
9.74937
 11
279.432
 21
9.67554
  0
LINE
  8
0
 10
279.432
 20
9.67554
 11
279.527
 21
9.59344
  0
LINE
  8
0
 10
279.527
 20
9.59344
 11
279.615
 21
9.50369
  0
LINE
  8
0
 10
279.615
 20
9.50369
 11
279.695
 21
9.40689
  0
LINE
  8
0
 10
279.695
 20
9.40689
 11
279.766
 21
9.30373
  0
LINE
  8
0
 10
279.766
 20
9.30373
 11
279.829
 21
9.19493
  0
LINE
  8
0
 10
279.829
 20
9.19493
 11
279.883
 21
9.08127
  0
LINE
  8
0
 10
279.883
 20
9.08127
 11
279.927
 21
8.96352
  0
LINE
  8
0
 10
279.927
 20
8.96352
 11
279.96
 21
8.84251
  0
LINE
  8
0
 10
279.96
 20
8.84251
 11
279.984
 21
8.71912
  0
LINE
  8
0
 10
279.984
 20
8.71912
 11
279.997
 21
8.59418
  0
LINE
  8
0
 10
279.997
 20
8.59418
 11
280
 21
8.46858
  0
LINE
  8
0
 10
280
 20
8.46858
 11
279.992
 21
8.3432
  0
LINE
  8
0
 10
279.992
 20
8.3432
 11
279.973
 21
8.21892
  0
LINE
  8
0
 10
279.973
 20
8.21892
 11
279.945
 21
8.09662
  0
LINE
  8
0
 10
279.945
 20
8.09662
 11
279.906
 21
7.97713
  0
LINE
  8
0
 10
279.906
 20
7.97713
 11
279.857
 21
7.86133
  0
LINE
  8
0
 10
279.857
 20
7.86133
 11
279.799
 21
7.75
  0
LINE
  8
0
 10
279.799
 20
7.75
 11
279.732
 21
7.64392
  0
LINE
  8
0
 10
279.732
 20
7.64392
 11
279.656
 21
7.54385
  0
LINE
  8
0
 10
279.656
 20
7.54385
 11
279.572
 21
7.4505
  0
LINE
  8
0
 10
279.572
 20
7.4505
 11
279.48
 21
7.3645
  0
LINE
  8
0
 10
279.48
 20
7.3645
 11
279.382
 21
7.28647
  0
LINE
  8
0
 10
279.382
 20
7.28647
 11
279.277
 21
7.21695
  0
LINE
  8
0
 10
279.277
 20
7.21695
 11
279.167
 21
7.15642
  0
LINE
  8
0
 10
279.167
 20
7.15642
 11
279.052
 21
7.10533
  0
LINE
  8
0
 10
279.052
 20
7.10533
 11
278.934
 21
7.06401
  0
LINE
  8
0
 10
278.934
 20
7.06401
 11
278.812
 21
7.03278
  0
LINE
  8
0
 10
278.812
 20
7.03278
 11
278.688
 21
7.01183
  0
LINE
  8
0
 10
278.688
 20
7.01183
 11
278.563
 21
7.00131
  0
ENDSEC
  0
SECTION
  2
OBJECTS
  0
DICTIONARY
  0
ENDSEC
  0
EOF
